<?xml version="1.0" encoding="utf-8"?>
<!-- Generator: Adobe Illustrator 21.1.0, SVG Export Plug-In . SVG Version: 6.00 Build 0)  -->
<svg version="1.1" id="Layer_1" xmlns="http://www.w3.org/2000/svg" xmlns:xlink="http://www.w3.org/1999/xlink" x="0px" y="0px"
	 width="27px" height="27px" viewBox="0 0 27 27" style="enable-background:new 0 0 27 27;" xml:space="preserve">
<style type="text/css">
	.st0{fill:#FFFFFF;}
	.st1{fill:none;stroke:#FFFFFF;stroke-width:2;stroke-miterlimit:50;}
	.st2{fill:#DB0B20;}
</style>
<g>
	<g>
		<path class="st0" d="M1,13.5C1,6.6,6.6,1,13.5,1C20.4,1,26,6.6,26,13.5S20.4,26,13.5,26C6.6,26,1,20.4,1,13.5z"/>
		<path class="st1" d="M1,13.5C1,6.6,6.6,1,13.5,1C20.4,1,26,6.6,26,13.5S20.4,26,13.5,26C6.6,26,1,20.4,1,13.5z"/>
	</g>
	<g>
		<path class="st2" d="M17.9,16.1c0,1.1-0.9,1.9-1.9,1.9c0,0,0,0,0,0h-4.6c-1.1,0-1.9-0.9-1.9-1.9v-4.6c0-1.1,0.9-1.9,1.9-1.9H16
			c1.1,0,1.9,0.9,1.9,1.9V16.1L17.9,16.1z M16,8.6h-4.6c-1.6,0-2.9,1.3-2.9,2.9c0,0,0,0,0,0v4.6c0,1.6,1.3,2.9,2.9,2.9H16
			c1.6,0,2.9-1.3,2.9-2.9v-4.6C18.8,9.9,17.6,8.6,16,8.6C16,8.6,16,8.6,16,8.6L16,8.6z"/>
	</g>
	<g>
		<path class="st2" d="M13.6,15.6c-0.9,0-1.7-0.8-1.7-1.7s0.8-1.7,1.7-1.7s1.7,0.8,1.7,1.7C15.3,14.8,14.6,15.6,13.6,15.6L13.6,15.6
			z M13.6,11.2c-1.5,0-2.7,1.2-2.7,2.7s1.2,2.7,2.7,2.7l0,0c1.5,0,2.7-1.2,2.7-2.7S15.1,11.2,13.6,11.2z"/>
	</g>
	<g>
		<path class="st2" d="M16.4,10.4c-0.4,0-0.7,0.3-0.7,0.7s0.3,0.7,0.7,0.7c0.4,0,0.7-0.3,0.7-0.7c0-0.2-0.1-0.4-0.2-0.5
			C16.8,10.4,16.6,10.4,16.4,10.4z"/>
	</g>
</g>
</svg>
