<svg id="Component_37_1" data-name="Component 37 – 1" xmlns="http://www.w3.org/2000/svg" width="24.327" height="24.29" viewBox="0 0 24.327 24.29">
  <path id="Path_12309" data-name="Path 12309" d="M363.232,302.422c.461.063.928.1,1.38.2.823.184,1.637.409,2.455.618a.47.47,0,0,1,.1.056c-.624.624-1.235,1.24-1.856,1.848a.289.289,0,0,1-.232.031,10.02,10.02,0,0,0-3.29-.285,9.475,9.475,0,0,0-3.952,1.215,9.616,9.616,0,0,0-3.738,3.743,9.621,9.621,0,0,0,.368,10.053,9.63,9.63,0,0,0,3.68,3.306,9.257,9.257,0,0,0,4.729,1.074,9.55,9.55,0,0,0,7.448-3.893,9.455,9.455,0,0,0,1.963-5.559c0-.077.01-.154.015-.243h2.451c-.064.649-.09,1.289-.194,1.915a12.2,12.2,0,0,1-10.544,10.126,12.158,12.158,0,0,1-12.607-7.291,11.7,11.7,0,0,1-.939-3.822,2.043,2.043,0,0,0-.042-.229v-1.423c.02-.171.039-.342.059-.512a12.215,12.215,0,0,1,10.02-10.735c.449-.08.9-.125,1.356-.186Z" transform="translate(-350.422 -302.422)"/>
  <path id="Path_12311" data-name="Path 12311" d="M448.731,369.457l-5.393-5.393L445,362.4l3.7,3.706,10.434-10.434,1.69,1.685Z" transform="translate(-437.816 -352.511)" fill="#db0b20"/>
</svg>
