<svg xmlns="http://www.w3.org/2000/svg" width="26" height="27" viewBox="0 0 26 27">
  <g id="Icon_Twitter_white" transform="translate(1.381 1)">
    <g id="Layer_1" data-name="Layer 1" transform="translate(0 0)">
      <ellipse id="Ellipse_3" data-name="Ellipse 3" cx="12" cy="12.5" rx="12" ry="12.5" transform="translate(-0.381)" fill="#fff" stroke="#fff" stroke-miterlimit="10" stroke-width="2"/>
      <path id="Path_26" data-name="Path 26" d="M19.256,11.343a3.944,3.944,0,0,1-1.089.3,1.886,1.886,0,0,0,.857-1.038,3.944,3.944,0,0,1-1.192.454,1.881,1.881,0,0,0-3.258,1.286,1.775,1.775,0,0,0,.043.429A5.333,5.333,0,0,1,10.742,10.8a1.9,1.9,0,0,0,.574,2.521,1.8,1.8,0,0,1-.857-.24h0a1.9,1.9,0,0,0,1.509,1.852,2.324,2.324,0,0,1-.5.06,1.578,1.578,0,0,1-.352,0,1.9,1.9,0,0,0,1.758,1.312,3.816,3.816,0,0,1-2.332.8,2.641,2.641,0,0,1-.454,0,5.351,5.351,0,0,0,8.24-4.51v-.24a3.79,3.79,0,0,0,.926-1.012Z" transform="translate(-2.62 -1.613)" fill="#db0b20"/>
    </g>
  </g>
</svg>
