<?xml version="1.0" encoding="utf-8"?>
<!-- Generator: Adobe Illustrator 21.1.0, SVG Export Plug-In . SVG Version: 6.00 Build 0)  -->
<svg version="1.1" id="Layer_1" xmlns="http://www.w3.org/2000/svg" xmlns:xlink="http://www.w3.org/1999/xlink" x="0px" y="0px"
	 width="28px" height="27px" viewBox="0 0 28 27" style="enable-background:new 0 0 28 27;" xml:space="preserve">
<style type="text/css">
	.st0{fill:#FFFFFF;stroke:#FFFFFF;stroke-width:2;stroke-miterlimit:10;}
	.st1{fill:#DB0B20;}
</style>
<ellipse id="Ellipse_2" class="st0" cx="14" cy="13.5" rx="13" ry="12.5"/>
<path class="st1" d="M21.2,10.4c-0.2-0.6-0.7-1.2-1.3-1.3C18.7,8.8,14,8.8,14,8.8s-4.7,0-5.9,0.3C7.5,9.2,7,9.8,6.8,10.4
	C6.5,11.6,6.5,14,6.5,14s0,2.5,0.3,3.6C7,18.3,7.5,18.8,8.1,19c1.2,0.3,5.9,0.3,5.9,0.3s4.7,0,5.9-0.3c0.6-0.2,1.2-0.7,1.3-1.3
	c0.3-1.2,0.3-3.6,0.3-3.6S21.5,11.6,21.2,10.4z M12.5,16.3v-4.5l3.9,2.3L12.5,16.3z"/>
</svg>
