<svg xmlns="http://www.w3.org/2000/svg" width="71" height="71" viewBox="0 0 71 71">
  <g id="icon_24_Hour_support" data-name="icon_24 Hour support" transform="translate(-14062 -10422.313)">
    <rect id="Rectangle_365" data-name="Rectangle 365" width="71" height="71" transform="translate(14062 10422.313)" fill="#fff"/>
    <g id="Group_911" data-name="Group 911" transform="translate(14664.014 10078.386)">
      <path id="Path_676" data-name="Path 676" d="M-565.5,411.708a30.354,30.354,0,0,1-20.734-8.139,30.392,30.392,0,0,1-8.933-29.4,1.167,1.167,0,0,1,1.422-.866,1.177,1.177,0,0,1,.864,1.422,28.041,28.041,0,0,0,8.25,27.122,28.17,28.17,0,0,0,39.762-1.462,1.174,1.174,0,0,1,1.663-.061,1.175,1.175,0,0,1,.06,1.664,30.437,30.437,0,0,1-22.354,9.723" transform="translate(0 -0.77)" fill="#db091e"/>
      <path id="Path_677" data-name="Path 677" d="M-542.487,403.267h-.05l-6.443-.277a1.179,1.179,0,0,1-1.126-1.227,1.194,1.194,0,0,1,1.227-1.126l6.443.277a1.178,1.178,0,0,1,1.126,1.227,1.178,1.178,0,0,1-1.177,1.127" transform="translate(-1.519 -1.675)" fill="#db091e"/>
      <path id="Path_678" data-name="Path 678" d="M-542.624,409.719l-.062,0a1.178,1.178,0,0,1-1.115-1.239l.346-6.442a1.2,1.2,0,0,1,1.239-1.113,1.178,1.178,0,0,1,1.115,1.239l-.346,6.443a1.178,1.178,0,0,1-1.177,1.115" transform="translate(-1.728 -1.685)" fill="#db091e"/>
      <path id="Path_679" data-name="Path 679" d="M-580.245,362.356l-.062,0-6.513-.345a1.181,1.181,0,0,1-1.115-1.239,1.181,1.181,0,0,1,1.24-1.115l6.512.346a1.18,1.18,0,0,1,1.115,1.239,1.179,1.179,0,0,1-1.177,1.116" transform="translate(-0.267 -0.319)" fill="#db091e"/>
      <path id="Path_680" data-name="Path 680" d="M-586.758,361.789l-.062,0a1.176,1.176,0,0,1-1.114-1.238l.345-6.443a1.192,1.192,0,0,1,1.239-1.113,1.179,1.179,0,0,1,1.115,1.239l-.346,6.443a1.178,1.178,0,0,1-1.177,1.115" transform="translate(-0.267 -0.099)" fill="#db091e"/>
      <path id="Path_681" data-name="Path 681" d="M-579.163,390.54a1.177,1.177,0,0,1-.948-.479,1.177,1.177,0,0,1,.249-1.647l9-6.65a4.294,4.294,0,0,0,1.809-3.348,4.256,4.256,0,0,0-4.434-4.156,4.345,4.345,0,0,0-4.5,4.156,1.176,1.176,0,0,1-1.177,1.178,1.176,1.176,0,0,1-1.177-1.178,6.7,6.7,0,0,1,6.856-6.511,6.583,6.583,0,0,1,6.788,6.511,6.663,6.663,0,0,1-2.757,5.239l-9.012,6.654a1.17,1.17,0,0,1-.7.231" transform="translate(-0.519 -0.725)" fill="#db091e"/>
      <path id="Path_682" data-name="Path 682" d="M-567.873,391.1h-11.291a1.177,1.177,0,0,1-1.177-1.179,1.176,1.176,0,0,1,1.177-1.177h11.291a1.176,1.176,0,0,1,1.177,1.177,1.177,1.177,0,0,1-1.177,1.179" transform="translate(-0.519 -1.282)" fill="#db091e"/>
      <path id="Path_683" data-name="Path 683" d="M-552.435,390.54a1.177,1.177,0,0,1-1.177-1.179v-3.256h-9.145a1.177,1.177,0,0,1-1.071-.69,1.175,1.175,0,0,1,.184-1.261l10.322-11.846a1.178,1.178,0,0,1,1.3-.329,1.172,1.172,0,0,1,.764,1.1v10.668h.971a1.176,1.176,0,0,1,1.177,1.178,1.176,1.176,0,0,1-1.177,1.178h-.971v3.256a1.177,1.177,0,0,1-1.177,1.179m-7.734-6.79h6.558v-7.525Z" transform="translate(-1.061 -0.725)" fill="#db091e"/>
      <path id="Path_684" data-name="Path 684" d="M-536.743,388.5a1.145,1.145,0,0,1-.277-.033,1.178,1.178,0,0,1-.868-1.421,28.128,28.128,0,0,0-8.176-27.193,28.275,28.275,0,0,0-39.832,1.463,1.178,1.178,0,0,1-1.663.061,1.175,1.175,0,0,1-.06-1.664,30.637,30.637,0,0,1,43.156-1.588A30.492,30.492,0,0,1-535.6,387.6a1.179,1.179,0,0,1-1.145.9" transform="translate(-0.267 0)" fill="#db091e"/>
    </g>
  </g>
</svg>
