<svg xmlns="http://www.w3.org/2000/svg" width="71" height="71" viewBox="0 0 71 71">
  <g id="icon_online_builder" data-name="icon_online builder" transform="translate(-14518.873 -10422.313)">
    <rect id="Rectangle_370" data-name="Rectangle 370" width="71" height="71" transform="translate(14518.873 10422.313)" fill="#fff"/>
    <path id="Path_619" data-name="Path 619" d="M-139.645,205.384v11.154a.728.728,0,0,0,.728.728.728.728,0,0,0,.728-.728,2.111,2.111,0,0,1,.623-1.495,2.111,2.111,0,0,1,1.495-.623,2.106,2.106,0,0,1,1.494.623,2.111,2.111,0,0,1,.623,1.495v.872a.728.728,0,0,0,.728.728.728.728,0,0,0,.728-.728,2.111,2.111,0,0,1,.623-1.5,2.111,2.111,0,0,1,1.495-.623,2.111,2.111,0,0,1,1.5.623,2.111,2.111,0,0,1,.623,1.5v3.442a.728.728,0,0,0,.728.728.728.728,0,0,0,.728-.728,2.11,2.11,0,0,1,.622-1.5,2.113,2.113,0,0,1,1.495-.623,2.111,2.111,0,0,1,1.5.623,2.111,2.111,0,0,1,.623,1.5v8.124a10.637,10.637,0,0,1-3.132,7.532,10.605,10.605,0,0,1-7.523,3.122,10.57,10.57,0,0,1-3.717-.671c-4.058-1.524-10.386-9.05-12.442-11.106a2.561,2.561,0,0,1-.748-1.817,2.562,2.562,0,0,1,.748-1.818,2.562,2.562,0,0,1,1.818-.748,2.561,2.561,0,0,1,1.817.748l.627.627a.727.727,0,0,0,1.03,0,.725.725,0,0,0,.213-.514V205.384a2.112,2.112,0,0,1,.622-1.495,2.113,2.113,0,0,1,1.495-.622,2.11,2.11,0,0,1,1.495.622,2.112,2.112,0,0,1,.623,1.495m6.1,8.629a3.559,3.559,0,0,0-2.524-1.049,3.559,3.559,0,0,0-2.118.7v-8.278a3.564,3.564,0,0,0-1.049-2.524,3.561,3.561,0,0,0-2.525-1.05,3.56,3.56,0,0,0-2.524,1.05,3.559,3.559,0,0,0-1.049,2.524v17.3a4.031,4.031,0,0,0-2.231-.671,4.011,4.011,0,0,0-2.847,1.176,4.011,4.011,0,0,0-1.176,2.847,4.015,4.015,0,0,0,1.176,2.847c2.57,2.57,8.517,9.767,12.959,11.435a11.989,11.989,0,0,0,4.229.769,12.06,12.06,0,0,0,8.553-3.549,12.094,12.094,0,0,0,3.558-8.562v-8.124a3.564,3.564,0,0,0-1.049-2.525,3.564,3.564,0,0,0-2.525-1.049,3.548,3.548,0,0,0-2.117.7v-.567a3.564,3.564,0,0,0-1.049-2.525,3.564,3.564,0,0,0-2.525-1.049,3.564,3.564,0,0,0-2.524,1.049A3.592,3.592,0,0,0-133.547,214.013Zm1.209-9.115,3.417,3.418a.729.729,0,0,0,1.03,0l6.835-6.835a.729.729,0,0,0,0-1.03.729.729,0,0,0-1.03,0l-6.32,6.32-2.9-2.9a.726.726,0,0,0-1.029,0A.728.728,0,0,0-132.338,204.9Zm-5.065,3.84a.725.725,0,0,0,.99-.267,6.15,6.15,0,0,0,.618-1.488,6.165,6.165,0,0,0,.212-1.6,6.16,6.16,0,0,0-1.81-4.369,6.16,6.16,0,0,0-3.641-1.768V197.4a5.921,5.921,0,0,1,1.745-4.194,5.921,5.921,0,0,1,4.193-1.745h.023a5.925,5.925,0,0,1,4.194,1.745,5.921,5.921,0,0,1,1.745,4.194v1.735a6.507,6.507,0,0,0-3.89,1.872,6.512,6.512,0,0,0-1.913,4.619,6.511,6.511,0,0,0,1.913,4.618,6.509,6.509,0,0,0,4.618,1.913,6.512,6.512,0,0,0,4.619-1.913,6.511,6.511,0,0,0,1.913-4.618.728.728,0,0,0-.728-.728.728.728,0,0,0-.729.728,5.063,5.063,0,0,1-1.486,3.589,5.06,5.06,0,0,1-3.589,1.486,5.061,5.061,0,0,1-3.589-1.486,5.063,5.063,0,0,1-1.486-3.589,5.06,5.06,0,0,1,1.486-3.589,5.061,5.061,0,0,1,3.589-1.486,5.062,5.062,0,0,1,1.314.172,5.02,5.02,0,0,1,1.224.506.727.727,0,0,0,.993-.265.727.727,0,0,0-.265-.993,6.537,6.537,0,0,0-1.576-.653,6.554,6.554,0,0,0-.962-.183V197.4a7.376,7.376,0,0,0-2.171-5.223A7.373,7.373,0,0,0-135.073,190h-.023a7.373,7.373,0,0,0-5.223,2.172,7.373,7.373,0,0,0-2.172,5.223v1.852a6.16,6.16,0,0,0-3.641,1.768,6.16,6.16,0,0,0-1.81,4.369,6.213,6.213,0,0,0,.211,1.6,6.193,6.193,0,0,0,.619,1.488.725.725,0,0,0,.99.267.724.724,0,0,0,.267-.99,4.741,4.741,0,0,1-.471-1.141,4.761,4.761,0,0,1-.16-1.223,4.709,4.709,0,0,1,1.384-3.34,4.708,4.708,0,0,1,3.339-1.383,4.711,4.711,0,0,1,3.34,1.383,4.708,4.708,0,0,1,1.383,3.34,4.717,4.717,0,0,1-.16,1.223,4.7,4.7,0,0,1-.47,1.141A.724.724,0,0,0-137.4,208.738Z" transform="translate(14690.59 10240.226)" fill="#db091e" fill-rule="evenodd"/>
  </g>
</svg>
