<svg xmlns="http://www.w3.org/2000/svg" width="71" height="71" viewBox="0 0 71 71">
  <g id="icon_Dedicated_RCIC" data-name="icon_Dedicated RCIC" transform="translate(367.424 -274.08)">
    <rect id="Rectangle_371" data-name="Rectangle 371" width="71" height="71" transform="translate(-367.424 274.08)" fill="#fff"/>
    <g id="Group_877" data-name="Group 877">
      <path id="Path_643" data-name="Path 643" d="M-330.925,329h-2v-1.909a2.615,2.615,0,0,0-2.152-2.606,38.96,38.96,0,0,0-13.123,0,2.615,2.615,0,0,0-2.151,2.606V329h-2v-1.909a4.61,4.61,0,0,1,3.814-4.578,41.018,41.018,0,0,1,13.8,0,4.61,4.61,0,0,1,3.815,4.578Z" fill="#db091e"/>
    </g>
    <g id="Group_878" data-name="Group 878">
      <path id="Path_644" data-name="Path 644" d="M-341.638,319.074a5.863,5.863,0,0,1-5.857-5.857v-2.428a5.863,5.863,0,0,1,5.857-5.856,5.863,5.863,0,0,1,5.856,5.856v2.428A5.863,5.863,0,0,1-341.638,319.074Zm0-12.141a3.861,3.861,0,0,0-3.857,3.856v2.428a3.861,3.861,0,0,0,3.857,3.857,3.861,3.861,0,0,0,3.856-3.857v-2.428A3.861,3.861,0,0,0-341.638,306.933Z" fill="#db091e"/>
    </g>
    <g id="Group_879" data-name="Group 879">
      <rect id="Rectangle_358" data-name="Rectangle 358" width="9.713" height="2" transform="translate(-336.782 331.644)" fill="#db091e"/>
    </g>
    <g id="Group_880" data-name="Group 880">
      <path id="Path_645" data-name="Path 645" d="M-307.643,338.5h-48.565a4.648,4.648,0,0,1-4.642-4.643v-2.213h21.64v2h-19.64v.213a2.646,2.646,0,0,0,2.642,2.643h48.565A2.646,2.646,0,0,0-305,333.857v-.213h-19.641v-2H-303v2.213A4.648,4.648,0,0,1-307.643,338.5Z" fill="#db091e"/>
    </g>
    <g id="Group_881" data-name="Group 881">
      <path id="Path_646" data-name="Path 646" d="M-356.422,332.644h-2V299.862a4.648,4.648,0,0,1,4.643-4.642h17v2h-17a2.646,2.646,0,0,0-2.643,2.642Z" fill="#db091e"/>
    </g>
    <g id="Group_882" data-name="Group 882">
      <rect id="Rectangle_359" data-name="Rectangle 359" width="2" height="21.854" transform="translate(-307.429 310.789)" fill="#db091e"/>
    </g>
    <g id="Group_883" data-name="Group 883">
      <rect id="Rectangle_360" data-name="Rectangle 360" width="20.64" height="2" transform="translate(-357.422 300.076)" fill="#db091e"/>
    </g>
    <g id="Group_884" data-name="Group 884">
      <path id="Path_647" data-name="Path 647" d="M-315.142,302.076H-322v-1a4.7,4.7,0,0,0-1.451-3.389,7,7,0,0,1-2.192-5.11,7.079,7.079,0,0,1,7.072-7.071,7.079,7.079,0,0,1,7.07,7.071,7,7,0,0,1-2.19,5.11,4.7,4.7,0,0,0-1.453,3.389Zm-4.932-2h3.009a6.7,6.7,0,0,1,2-3.837,5.019,5.019,0,0,0,1.57-3.662,5.076,5.076,0,0,0-5.07-5.071,5.078,5.078,0,0,0-5.072,5.071,5.013,5.013,0,0,0,1.572,3.662A6.711,6.711,0,0,1-320.074,300.076Z" fill="#db091e"/>
    </g>
    <g id="Group_885" data-name="Group 885">
      <path id="Path_648" data-name="Path 648" d="M-318.569,306.933A3.433,3.433,0,0,1-322,303.5v-3.428h6.856V303.5A3.432,3.432,0,0,1-318.569,306.933ZM-320,302.076V303.5a1.431,1.431,0,0,0,1.429,1.429,1.43,1.43,0,0,0,1.427-1.429v-1.428Z" fill="#db091e"/>
    </g>
    <g id="Group_886" data-name="Group 886">
      <path id="Path_649" data-name="Path 649" d="M-330.614,317.083l.615-10.3a15.608,15.608,0,0,1-2.051-18.346,14.3,14.3,0,0,1,1.6-2.267l1.511,1.31a12.406,12.406,0,0,0-1.38,1.954,13.6,13.6,0,0,0,2.056,16.276l.31.316-.43,7.19,6.011-3.963.429.108a13.662,13.662,0,0,0,12.136-2.771l1.287,1.532A15.668,15.668,0,0,1-322,311.4Z" fill="#db091e"/>
    </g>
    <g id="Group_887" data-name="Group 887">
      <path id="Path_650" data-name="Path 650" d="M-306.693,306.272l-1.51-1.31a12.331,12.331,0,0,0,1.38-1.953,13.5,13.5,0,0,0,1.358-10.3,13.462,13.462,0,0,0-6.319-8.236,13.618,13.618,0,0,0-15.55,1.379l-1.291-1.528a15.62,15.62,0,0,1,17.839-1.583,15.442,15.442,0,0,1,7.253,9.451A15.48,15.48,0,0,1-305.089,304,14.164,14.164,0,0,1-306.693,306.272Z" fill="#db091e"/>
    </g>
  </g>
</svg>
