<svg xmlns="http://www.w3.org/2000/svg" width="71" height="71" viewBox="0 0 71 71">
  <g id="icon_8years_experience" data-name="icon_8years experience" transform="translate(-14427.981 -10422.313)">
    <rect id="Rectangle_369" data-name="Rectangle 369" width="71" height="71" transform="translate(14427.981 10422.313)" fill="#fff"/>
    <g id="Group_898" data-name="Group 898" transform="translate(14797.481 9801.408)">
      <path id="Path_656" data-name="Path 656" d="M-354.086,676.448h40.173a5.057,5.057,0,0,0,5.051-5.051V648.06a5.058,5.058,0,0,0-5.051-5.052h-8.9v-2.562a6.9,6.9,0,0,0-6.894-6.894h-8.586a6.9,6.9,0,0,0-6.895,6.894v2.562h-8.9a5.058,5.058,0,0,0-5.052,5.052V671.4A5.057,5.057,0,0,0-354.086,676.448Zm9.9-36a5.9,5.9,0,0,1,5.895-5.894h8.586a5.9,5.9,0,0,1,5.894,5.894v2.562h-1.943v-2.562a3.955,3.955,0,0,0-3.951-3.95h-8.586a3.955,3.955,0,0,0-3.95,3.95v2.562h-1.945Zm17.432,0v2.562h-14.487v-2.562a2.953,2.953,0,0,1,2.95-2.95h8.586A2.954,2.954,0,0,1-326.756,640.446Zm-31.382,7.614a4.057,4.057,0,0,1,4.052-4.052h40.173a4.057,4.057,0,0,1,4.051,4.052v6.6h-48.276Zm26.541,7.6v2.73a.6.6,0,0,1-.6.6h-3.6a.6.6,0,0,1-.6-.6v-2.73Zm-26.541,0H-337.4v2.73a1.606,1.606,0,0,0,1.6,1.6h3.6a1.606,1.606,0,0,0,1.6-1.6v-2.73h20.735V671.4a4.057,4.057,0,0,1-4.051,4.051h-40.173a4.057,4.057,0,0,1-4.052-4.051Z" fill="#db091e"/>
      <path id="Path_657" data-name="Path 657" d="M-313.913,676.7h-40.173a5.307,5.307,0,0,1-5.3-5.3V648.06a5.307,5.307,0,0,1,5.3-5.3h8.648v-2.313a7.152,7.152,0,0,1,7.145-7.143h8.586a7.152,7.152,0,0,1,7.144,7.143v2.313h8.65a5.307,5.307,0,0,1,5.3,5.3V671.4A5.307,5.307,0,0,1-313.913,676.7Zm-40.173-33.438a4.806,4.806,0,0,0-4.8,4.8V671.4a4.806,4.806,0,0,0,4.8,4.8h40.173a4.806,4.806,0,0,0,4.8-4.8V648.06a4.806,4.806,0,0,0-4.8-4.8h-9.15v-2.813a6.651,6.651,0,0,0-6.644-6.643h-8.586a6.652,6.652,0,0,0-6.645,6.643v2.813Zm40.173,32.438h-40.173a4.306,4.306,0,0,1-4.3-4.3V655.409h21.235v2.98a1.355,1.355,0,0,0,1.354,1.353h3.6a1.355,1.355,0,0,0,1.354-1.353v-2.98h21.235V671.4A4.306,4.306,0,0,1-313.913,675.7Zm-43.975-19.788V671.4a3.805,3.805,0,0,0,3.8,3.8h40.173a3.805,3.805,0,0,0,3.8-3.8V655.909h-20.235v2.48a1.856,1.856,0,0,1-1.854,1.853h-3.6a1.856,1.856,0,0,1-1.854-1.853v-2.48Zm25.687,3.333h-3.6a.855.855,0,0,1-.854-.853v-2.98h5.306v2.98A.854.854,0,0,1-332.2,659.242Zm-3.952-3.333v2.48a.354.354,0,0,0,.354.353h3.6a.353.353,0,0,0,.354-.353v-2.48Zm26.541-1h-48.776V648.06a4.306,4.306,0,0,1,4.3-4.3h40.173a4.306,4.306,0,0,1,4.3,4.3Zm-48.276-.5h47.776V648.06a3.805,3.805,0,0,0-3.8-3.8h-40.173a3.805,3.805,0,0,0-3.8,3.8Zm34.325-11.15h-2.444v-2.813a3.7,3.7,0,0,0-3.7-3.7h-8.586a3.7,3.7,0,0,0-3.7,3.7v2.813h-2.445v-2.813a6.151,6.151,0,0,1,6.145-6.143h8.586a6.151,6.151,0,0,1,6.144,6.143Zm-1.944-.5h1.444v-2.313a5.65,5.65,0,0,0-5.644-5.643h-8.586a5.65,5.65,0,0,0-5.645,5.643v2.313h1.445v-2.313a4.2,4.2,0,0,1,4.2-4.2h8.586a4.2,4.2,0,0,1,4.2,4.2Zm-1,.5h-14.986v-2.813a3.2,3.2,0,0,1,3.2-3.2h8.586a3.2,3.2,0,0,1,3.2,3.2Zm-14.486-.5h13.986v-2.313a2.7,2.7,0,0,0-2.7-2.7h-8.586a2.7,2.7,0,0,0-2.7,2.7Z" fill="#db091e"/>
    </g>
  </g>
</svg>
