<svg xmlns="http://www.w3.org/2000/svg" width="71" height="71" viewBox="0 0 71 71">
  <g id="icon_quick_turnaround_time" data-name="icon_quick turnaround time" transform="translate(-14249.427 -10422.313)">
    <rect id="Rectangle_367" data-name="Rectangle 367" width="71" height="71" transform="translate(14249.427 10422.313)" fill="#fff"/>
    <g id="Group_910" data-name="Group 910" transform="translate(14620.465 9991.488)">
      <path id="Path_666" data-name="Path 666" d="M-334.642,497.353a23.326,23.326,0,0,1-23.332-23.268,23.359,23.359,0,0,1,23.332-23.334,23.327,23.327,0,0,1,23.267,23.334,23.294,23.294,0,0,1-23.267,23.268m0-44.367a21.124,21.124,0,0,0-21.1,21.1,21.09,21.09,0,0,0,21.1,21.033,21.057,21.057,0,0,0,21.034-21.033,21.09,21.09,0,0,0-21.034-21.1" transform="translate(0 -1.512)" fill="#db091e"/>
      <path id="Path_667" data-name="Path 667" d="M-327.051,444.573h-10.715a1.116,1.116,0,0,1-1.117-1.118v-4.337A1.116,1.116,0,0,1-337.766,438h10.715a1.116,1.116,0,0,1,1.116,1.118v4.337a1.116,1.116,0,0,1-1.116,1.118m-9.6-2.235h8.483v-2.1h-8.483Z" transform="translate(-2.264)" fill="#db091e"/>
      <path id="Path_668" data-name="Path 668" d="M-331.652,448.246a1.116,1.116,0,0,1-1.117-1.118v-3.089a1.117,1.117,0,0,1,1.117-1.118,1.116,1.116,0,0,1,1.116,1.118v3.089a1.115,1.115,0,0,1-1.116,1.118" transform="translate(-2.989 -0.584)" fill="#db091e"/>
      <path id="Path_669" data-name="Path 669" d="M-332.015,480.467a3.783,3.783,0,0,1-3.811-3.746,3.784,3.784,0,0,1,3.811-3.747,3.75,3.75,0,0,1,3.745,3.747,3.749,3.749,0,0,1-3.745,3.746m0-5.258a1.529,1.529,0,0,0-1.579,1.512,1.528,1.528,0,0,0,1.579,1.511,1.514,1.514,0,0,0,1.512-1.511,1.514,1.514,0,0,0-1.512-1.512" transform="translate(-2.627 -4.148)" fill="#db091e"/>
      <path id="Path_670" data-name="Path 670" d="M-331.652,473.838a1.117,1.117,0,0,1-1.117-1.118V462.532a1.117,1.117,0,0,1,1.117-1.118,1.116,1.116,0,0,1,1.116,1.118v10.189a1.116,1.116,0,0,1-1.116,1.118" transform="translate(-2.989 -2.777)" fill="#db091e"/>
      <path id="Path_671" data-name="Path 671" d="M-334.031,493.493a18.818,18.818,0,0,1-18.8-18.8,1.116,1.116,0,0,1,1.117-1.118A1.116,1.116,0,0,1-350.6,474.7a16.583,16.583,0,0,0,16.564,16.563,16.551,16.551,0,0,0,16.5-16.563,16.551,16.551,0,0,0-16.5-16.564,1.117,1.117,0,0,1-1.117-1.118,1.117,1.117,0,0,1,1.117-1.118A18.788,18.788,0,0,1-315.3,474.7a18.786,18.786,0,0,1-18.733,18.8" transform="translate(-0.61 -2.123)" fill="#db091e"/>
      <path id="Path_672" data-name="Path 672" d="M-352.9,457.01a1.11,1.11,0,0,1-.8-.339l-2.169-2.235a1.117,1.117,0,0,1,.023-1.579,1.116,1.116,0,0,1,1.58.024l2.169,2.235a1.118,1.118,0,0,1-.023,1.579,1.114,1.114,0,0,1-.779.316" transform="translate(-0.212 -1.724)" fill="#db091e"/>
      <path id="Path_673" data-name="Path 673" d="M-356.336,455.751a1.11,1.11,0,0,1-.8-.339,1.117,1.117,0,0,1,.023-1.579l2.234-2.169a1.115,1.115,0,0,1,1.58.024,1.117,1.117,0,0,1-.022,1.579l-2.235,2.169a1.116,1.116,0,0,1-.779.316" transform="translate(-0.062 -1.583)" fill="#db091e"/>
      <path id="Path_674" data-name="Path 674" d="M-310.77,457.011a1.116,1.116,0,0,1-.779-.316,1.117,1.117,0,0,1-.023-1.579l2.169-2.235a1.119,1.119,0,0,1,1.581-.024,1.118,1.118,0,0,1,.022,1.579l-2.169,2.235a1.11,1.11,0,0,1-.8.339" transform="translate(-5.466 -1.725)" fill="#db091e"/>
      <path id="Path_675" data-name="Path 675" d="M-307.344,455.751a1.114,1.114,0,0,1-.778-.316l-2.235-2.169a1.118,1.118,0,0,1-.023-1.579,1.117,1.117,0,0,1,1.58-.024l2.235,2.169a1.118,1.118,0,0,1,.023,1.579,1.11,1.11,0,0,1-.8.339" transform="translate(-5.607 -1.583)" fill="#db091e"/>
    </g>
  </g>
</svg>
