<?xml version="1.0" encoding="UTF-8" standalone="no"?>
<!--Generator: Adobe Illustrator 21.1.0, SVG Export Plug-In . SVG Version: 6.00 Build 0)-->
<svg id="Слой_1" xmlns="http://www.w3.org/2000/svg" viewBox="0 0 50 52" xmlns:xlink="http://www.w3.org/1999/xlink">
  <style>
    .st0{fill:#C42A28;}
  </style>
  <path class="st0" d="M1.6 17v-.4c.3-.1.4 0 .6.1l4.1 1c.4.1 1 .1 1.4.3.7 0 1.2-.3 1.6-.9.4-.7.9-1.4 1.2-2.2l.3-.6.3.1 5.4 5.8c.3.3.4.6.9.6.6 0 .9-.4.7-.9a266.9 266.9 0 0 1-2.4-12.6v-.6c.1 0 .2.3.4.3l3.3 1.7.6.3c.3.1.6 0 .7-.3.2-.1.3-.4.5-.7L25.1.5l.3-.4c.4.4.4 1 .9 1.4.1.4.4.9.7 1.3l2.6 4.9c.7 1.3.9 1.3 2 .7l3.3-1.7.4-.3c.1.1 0 .3 0 .4-.9 4.2-1.7 8.4-2.8 12.6l-.1.6c0 .3.1.6.3.7h.9l.6-.4 5.4-5.7.3-.3.6 1.2 1 1.7c.3.6.7.7 1.4.7a18 18 0 0 0 5.1-1.2c.3-.1.7-.1 1-.3.1.4 0 .9-.1 1.2l-1 3.9-.4 2v.9c.1.6.4 1 1.2 1.3.4.1 1 .3 1.4.6l-.4.4-11 8.7c-.4.3-.6.6-.7 1.2-.3 1.2-.1 2.5.6 3.5.1.3.3.4.3.9-.9-.1-1.7-.1-2.5-.3l-5.7-.6-4.3-.4c-.4 0-.6 0-.4.4l.3 5.4.1 3.8.1 2c0 .4 0 .6-.6.6h-1.4c-.6 0-.7 0-.6-.6l.1-6.2.1-4.9c0-.6 0-.6-.6-.4l-7.1.9c-1.6.1-3 .4-4.6.6h-.6c.1-.4.4-.7.6-1 .3-.4.6-1 .6-1.6s0-1.2-.3-1.7l-.3-.4L.5 27.3c-.2-.3-.4-.3-.5-.4.4-.3.9-.3 1.4-.6l.6-.1c.7-.3 1-.6 1.2-1.3 0-.7 0-1.3-.3-2-.4-1.7-1.2-3.3-1.7-5.1.5-.6.5-.8.4-.8z"/>
  <path d="M7.8 25.6c1.1 2-1.4 6.1 2.3 5.6 1.9-.2 3.8-1.1 5.7-1.6 2.7-.7 5.5-1.2 8.2-1.7 1.5-.2 2.3-2.2.3-1.9-3.8.6-7.5 1.4-11.1 2.4l-2.2.9c-.2.5-.2.3 0-.6l.1-.8c.1-1.3 0-2.4-.7-3.5-.5-1-3.3 0-2.6 1.2z"/>
  <path d="M21.2 31c-.5.3-2.4.1-3 0l-3-.1-.1.8c2.5-1 5-1.7 7.7-2.1l.1-.9-1.4.4c-1.1.2-2.6 1.4-.5 1l2.9-.8c.7-.3 1.4-1 .1-.9-3.7.5-7.2 1.4-10.6 2.9-.5.2-1 .7-.1.8 3.1.1 7.3.8 10.1-1.1 1.2-.8-1.7-.4-2.2 0z"/>
  <path d="M14 26.3c-.3.8-2 1.8-2.6 2.3-.2.1-.5.5-.2.7 1.1.7 2.5.2 3.7.1l6.2-.6-.9-.9-.7.4c-1.8.8-.1 1.6 1.1 1.1l1.9-1.1c.9-.7-.4-1-.9-.9-2.7.3-5.5.8-8.2.8l.8.2-.2-.1-.2.7c1.1-.9 2.8-1.7 3.2-3.1.2-.9-2.7-.5-3 .4z"/>
  <path d="M14.5 29.6v3.9l2.9-.5c-.4-1.2-.3-1.3 1-1.4 1.1-.1 2.3 0 3.4.3.2 0 1.2.2 1.2.4.2.6-.9.3-1.1.3-1.1-.3-2.2-.9-3.2-1.4-1-.6-3.6.9-2.2 1.6 2.3 1.3 5.1 2.7 7.8 1.9 1.9-.6 3.1-2.6 1.1-3.8-2.9-1.7-12.5-2.4-10.9 3.1.3 1.1 2.9.6 2.9-.5v-3.9c.1-1.7-2.9-1.2-2.9 0z"/>
  <path class="st0" d="M14.9 23.6c1.4 3.8 2.1 7.7 2.3 11.7.1 1.3 2.1 1.2 2.7.4 2-2.7 3.2-5.6 3.9-8.9.3-1.5-2.5-1.1-2.9-.1-1 2.4-1.4 4.9-1.7 7.5l2.8-.7a15.8 15.8 0 0 1-2-6.6l-2.9.5c.4 1.5.8 3 1 4.6.2 1.3.1 2.5.7 3.6.5.9 2.4.4 2.7-.5.8-2.4 1.4-4.8 1.9-7.3l-2.9.2c0 2.5.2 4.9.4 7.4.1 1.3 2.8.7 2.9-.5.2-2.1.4-4.2.4-6.3.1-1.6-2.9-1.2-2.9.2l-.4 6.3 2.9-.5c-.2-2.3-.3-4.5-.3-6.8 0-1.6-2.7-1.1-2.9.2-.4 2.3-1 4.5-1.7 6.7l2.7-.5c-.5-1-.4-2.9-.6-3.9-.2-1.3-.5-2.5-.9-3.7s-3-.8-2.9.5c.2 2.8.9 5.3 2.3 7.7.6 1 2.7.3 2.8-.7.3-2.4.7-4.7 1.6-6.9l-2.9-.1c-.5 2.9-1.7 5.5-3.4 7.8l2.7.4c-.2-4.2-.9-8.3-2.3-12.3-.7-1.6-3.6-.8-3.1.6z"/>
  <path class="st0" d="M21.1 25.1l.1 9.2c0 .7 2.7 0 2.9-.6.7-2.9 1.7-5.5 3.2-8.1l-2.9.6c.4 3.2.2 6.3-.6 9.5l2.9-.6c-1.3-3.2-2-6.3-2.3-9.7l-2.9.8.9 6 2.9-.8a8.2 8.2 0 0 1-.7-5.6c.2-.9-2.5-.1-2.8.3a60.2 60.2 0 0 1-5.6 6.7l2.8-.5c-.2-2.6.1-4.8 1-7.3l-2.9.6c.7 2.1 1.1 4.1 1.3 6.3.1.8 2.7-.1 2.9-.6l2.3-5.4c.3-.7-2.4-.2-2.8.3l-4.5 6.7 2.8-.5c.1-2.1.6-3.8 1.6-5.6l-2.9.5-2.6 9.3 2.9-.6-1.7-10.3c-.1-.7-2.8 0-2.9.6l-.8 8.6 2.9-.6-1.1-11c-.1-.7-2.9-.1-2.9.8l.1 11.4 2.8-.9c-1.2-1.1-1.4-3.8-1.7-5.2-.4-1.9-.8-3.7-1-5.6-.1-.7-3-.1-2.9.8.3 2.3.2 4.4-.4 6.6l2.9-.6-2.3-6.7c-.3-.8-3 0-2.9.8.3 1.8.5 3.6.6 5.5l2.9-.8a8.7 8.7 0 0 1-.7-3.5c-.1-.7-3-.1-2.9.8l.5 3.5c.1.8 2.9.1 2.9-.8-.1-1.9-.3-3.7-.6-5.5l-2.9.8 2.3 6.7c.3.8 2.7 0 2.9-.6.7-2.4.8-4.5.4-6.9l-2.9.8c.5 3 .7 8.9 2.9 11.1.5.5 2.8-.1 2.8-.9l-.1-11.4-2.9.8 1.1 11c.1.7 2.8.1 2.9-.6l.8-8.6-2.9.6L15 37c.1.8 2.7 0 2.9-.6 1-3.1 1.8-6.2 2.6-9.3.2-.9-2.5-.2-2.9.5-1 1.9-1.5 3.8-1.6 5.9 0 .7 2.5-.1 2.8-.5l4.5-6.7-2.8.3-2.3 5.4 2.9-.6c-.1-2.4-.5-4.4-1.2-6.5-.3-.8-2.7 0-2.9.6-1 2.5-1.3 4.9-1 7.6.1.9 2.5-.2 2.8-.5a51 51 0 0 0 5.6-6.7l-2.8.3c-.4 2.1-.2 3.9.7 5.9.4.7 3 0 2.9-.8l-.9-6c-.2-.8-3-.1-2.9.8.2 3.4 1 6.6 2.3 9.7.3.7 2.7 0 2.9-.6.8-3.3 1-6.4.6-9.8-.1-.9-2.6.2-2.9.6a29.8 29.8 0 0 0-3.2 8.1l2.9-.6-.1-9.2c.1-.5-2.8-.1-2.8.8z"/>
</svg>
