<?xml version="1.0" standalone="no"?>
<!DOCTYPE svg PUBLIC "-//W3C//DTD SVG 1.1//EN" "http://www.w3.org/Graphics/SVG/1.1/DTD/svg11.dtd" >
<svg xmlns="http://www.w3.org/2000/svg" xmlns:xlink="http://www.w3.org/1999/xlink" version="1.1">
<metadata></metadata>
<defs>
<font id="abugetregular" horiz-adv-x="364" >
<font-face units-per-em="2048" ascent="1638" descent="-410" />
<missing-glyph horiz-adv-x="425" />
<glyph horiz-adv-x="0" />
<glyph unicode="&#xd;" horiz-adv-x="655" />
<glyph horiz-adv-x="0" />
<glyph horiz-adv-x="0" />
<glyph unicode=" "  horiz-adv-x="425" />
<glyph unicode="&#x09;" horiz-adv-x="425" />
<glyph unicode="&#xa0;" horiz-adv-x="425" />
<glyph unicode="!" horiz-adv-x="505" d="M49 266q8 61 29 125q4 12 7 20.5t8 13.5t12.5 11t21.5 17q4 -4 14.5 -5.5t18.5 -5.5t17 -16t5 -23q-12 -35 -22 -67.5t-29 -65.5q-16 -25 -39 -28q-12 0 -23.5 4t-19.5 20zM123 524q2 10 2 25q10 31 21.5 64.5t23.5 70.5q0 12 6 23q4 14 12.5 25t10.5 22 q16 61 38.5 117.5t38.5 117.5q14 61 34 119.5t30 124.5q10 4 21.5 8t21.5 12q16 4 23.5 5.5t17.5 -7.5q10 -4 14 -15t4 -17q-4 -10 -8 -21.5t-8 -17.5q-12 -35 -28.5 -71t-30.5 -73l-37 -104q-18 -47 -37 -90t-29 -88q-18 -41 -30.5 -81t-24.5 -75q-8 -16 -14.5 -26.5 t-20.5 -18.5q-18 -6 -24 -25q-4 -8 -13 -8q-4 -4 -8 0z" />
<glyph unicode="&#x22;" horiz-adv-x="389" d="M18 1163q6 10 7.5 25.5t11.5 25.5t14 23.5t15 24.5q16 23 26 51q4 20 14 30q4 16 21 37q4 12 6 21.5t6 25.5q18 -12 40 -16t34 -20q4 -10 5 -22.5t-7 -22.5t-13 -23.5t-12 -26.5q-12 -16 -23 -35.5t-24 -37.5q-12 -16 -17 -25.5t-11.5 -15.5t-18.5 -13.5t-37 -21.5 q-4 0 -9 2t-9 4q-16 4 -19 10zM160 1169q16 25 30.5 45.5t24.5 47.5q23 35 41 69.5t23 77.5q-4 6 3 10t13 -4q8 -4 15 -6t16 -6q12 0 19 -3t15 -7q10 -14 13.5 -28.5t-6.5 -27.5q-4 -16 -13 -30q-16 -33 -36.5 -63t-41.5 -58q-31 -47 -90 -47q-6 2 -10 2q-10 4 -13 14t-3 14 z" />
<glyph unicode="#" horiz-adv-x="610" d="M12 567q0 8 6 13q18 12 41 20t45 18q10 4 21.5 6.5t21.5 6.5q18 23 27 49q10 14 17.5 27.5t17.5 27.5q0 16 24 17q6 -2 15.5 -2t17.5 -2q6 -8 12.5 -17.5t8.5 -13.5q0 -18 -6.5 -28.5t-14.5 -20.5q-6 -14 -3 -21.5t18 -3.5q16 2 32.5 2t28.5 6q16 6 21.5 20.5t9.5 30.5 q35 49 47 95q2 10 8 21t14 22q27 -2 50 0q2 -8 8 -15.5t14 -11.5q4 -10 -1 -20.5t-5 -20.5q-29 -47 -43 -94q-18 -35 10 -29q14 0 25.5 -2t27.5 -12q4 -4 1 -12.5t-7 -12.5t-11 -8t-15 -10q-16 -2 -35 -3t-35 -5q-4 0 -8 -5.5t-2 -9.5q16 -20 -2 -34q-6 -10 -11 -11 q-20 -12 -32.5 -30.5t-26.5 -38.5q-8 -27 -20.5 -47.5t-20.5 -40.5q-18 -29 -37 -43q-14 -16 -37.5 -17.5t-35.5 6.5q-2 0 -3 2q-2 2 -2 9q0 6 3.5 15t3.5 17q23 25 36 60.5t25 60.5q-6 10 -12 10q-10 -4 -17.5 -3t-17.5 -3q-27 -6 -37 -30q-8 -18 -21.5 -44t-23.5 -40 q-6 -10 -15.5 -13.5t-15.5 -3.5q-23 0 -30 6q-12 12 -13 23q2 8 5 17.5t8 13.5q2 16 3 26t-10 23q-10 29 -20 41q10 2 22.5 7l22.5 9q12 2 12 16q-16 2 -32.5 5.5t-28.5 5.5q-4 4 -9.5 9t-9.5 5q-4 2 -4 10zM190 549q-8 -16 11 -17q16 0 49 2.5t49 6.5q4 -2 9 1t5 7 q6 4 6 12q2 4 -1 6t-5 6h-22.5t-29.5 -1t-30.5 -2t-23.5 -3q-8 -4 -10 -9t-7 -9z" />
<glyph unicode="$" horiz-adv-x="604" d="M8 303q2 8 6 14q2 8 13 25q0 8 1 13t1 10q4 8 6 15t12 9q10 -23 19.5 -41t13.5 -39q12 -16 24 -16q18 4 37 9t35 22q6 4 10 4t13 4q12 8 19 12t11 10t7.5 15.5t7.5 25.5q18 53 34.5 107.5t32.5 107.5q4 10 8.5 18.5t8.5 20.5q0 6 3 13.5t3 13.5q0 10 -15 10 q-14 -2 -28.5 -3t-32.5 -7q-43 -4 -68.5 14.5t-42.5 57.5q-10 23 0 34q16 29 35 54.5t43 42.5q18 14 34.5 30.5t39.5 32.5q4 4 10 7t10 9q8 8 12.5 15.5t8.5 15.5q23 20 49 29q10 2 17.5 3t17.5 7q16 6 29.5 15.5t9.5 35.5q4 23 14 49q8 16 12.5 35t-0.5 37q0 8 3 14h36 q10 -8 17.5 -15t15.5 -15q0 -6 1 -8t-3 -7q-4 -29 -10 -59.5t-19 -58.5q-6 -6 -3 -12.5t10 -10.5q33 -14 41 -31q33 -29 2 -55q-4 -6 -6.5 -9t-2.5 -7q-33 -31 -67 -23q-4 4 -8 2t-9 -2h-2q-2 0 -2 -6q-12 -29 -20 -57.5t-19 -57.5q0 -6 3.5 -13t7.5 -7q10 -4 18 -7t19 -7 q39 -12 71 -52q57 -59 23 -137q-6 -18 -15.5 -34.5t-19.5 -35.5q-23 -31 -51.5 -57t-59.5 -53q-47 -33 -89 -63.5t-89 -53.5q-41 -108 -53 -217q-8 -10 -15.5 -15t-17.5 -14q-12 0 -21.5 11.5t-9.5 27.5q4 10 8.5 23.5t10.5 23.5q2 8 4 14.5t2 14.5q-4 10 -1 21.5t7 23.5 q6 12 6 23q4 6 -1 12t-11 6h-55q-59 0 -92 49q-4 6 -8.5 10.5t-4.5 8.5q-4 10 -2 18zM244 762q2 0 4 -2v-2q29 0 55.5 6t54.5 10q2 0 6.5 4t8.5 8q10 29 19 58.5t20 58.5q0 4 -3 7.5t-1 11.5q-41 -18 -73 -47t-63 -64q-10 -10 -19 -21.5t-9 -27.5zM311 428q-2 -6 6 -10 q4 0 11 4q6 4 11 8t13 8l28.5 28.5t31.5 29.5q51 55 80 129q4 6 2 16t-2 16q4 25 -19 29q-4 0 -7 3t-7 3q-31 10 -38 7t-20 -37q-2 -4 -5 -4.5t-3 -4.5q-18 -53 -38.5 -107t-41.5 -108q0 -4 -2 -10z" />
<glyph unicode="%" horiz-adv-x="745" d="M2 209v2q4 10 6 19.5t15 13.5q14 14 20 28q4 4 5 10.5t11 10.5q16 6 23.5 19.5t15.5 27.5q8 23 22.5 40t31.5 38q23 23 42 45t37 45q16 16 27.5 26.5t24.5 24.5q8 16 20 27.5t19 27.5q14 20 28.5 39t30.5 37q6 10 16.5 20.5t14.5 20.5q20 35 41.5 63.5t44.5 57.5 q8 16 18 29.5t14 29.5q0 6 5.5 12.5t9.5 14.5q8 16 17 28.5t13 30.5q4 10 14.5 19.5t20.5 17.5q16 0 29.5 3t30.5 3q14 0 22 -15t4 -28q-10 -16 -14 -20q-16 -23 -35.5 -43.5t-36.5 -42.5q-53 -68 -107 -136.5t-108 -136.5q-18 -23 -34.5 -44t-32.5 -42 q-68 -78 -128.5 -157.5t-123.5 -159.5q0 -4 -3 -4t-7 -4q-20 -10 -31 -10q-6 0 -14.5 2t-16.5 2q-2 2 -2 8zM94 834q2 14 5 27t12 20q16 14 24 32.5t19 34.5q8 18 16 32.5t20 33.5q8 4 11.5 13t13.5 13h47q4 0 7 -3t7 -3q16 -16 34 -32.5t30 -28.5q29 -29 41 -62 q10 -23 4 -44t-23 -38q-35 -37 -74.5 -65.5t-86.5 -40.5q-49 -8 -86 29q-21 41 -21 82zM166 825q0 -6 2 -7t2 -5h6q6 0 11.5 2t11.5 2q27 16 46 33.5t40 40.5v12q-4 6 -5 12.5t-6 10.5q-18 12 -30 41q-2 2 -4 2q-4 0 -4 -2q-12 -18 -24.5 -33.5t-16.5 -38.5 q-6 -16 -12.5 -34.5t-16.5 -35.5zM305 291q-6 20 4 67q6 10 10.5 21.5t14.5 23.5q8 16 19.5 35t17.5 41q0 4 2 4h2q16 29 26.5 37t40.5 -4q41 -14 76 -38.5t53 -65.5q16 -23 12.5 -43.5t-20.5 -42.5q-25 -41 -59.5 -61.5t-79.5 -33.5q-6 -4 -13.5 -5t-11.5 -1q-20 0 -32.5 4 t-28.5 15q-27 27 -33 47zM381 322l4 -5q0 -12 8 -12q4 0 11.5 1t11.5 5q41 16 67 58q4 0 5 5t1 9q-14 41 -51 59q-4 0 -4 -4t-4 -4q-20 -23 -29.5 -51.5t-19.5 -60.5z" />
<glyph unicode="&#x26;" horiz-adv-x="724" d="M6 373.5q8 25.5 25 52.5q20 25 36.5 46.5t38.5 43.5q35 33 69 61.5t73 55.5q23 16 24.5 30.5t-12.5 38.5q-10 16 -22.5 29.5t-22.5 28.5q-18 8 -34.5 12t-30.5 8q-4 10 -1 19.5t11 13.5q31 14 57.5 36.5t50.5 41.5q31 20 64 33.5t67 13.5q33 4 65 -2t64 -14 q27 -4 44.5 -18.5t31.5 -33.5q2 -10 2 -24q-8 -20 -14 -33q-16 -23 -35.5 -42t-46.5 -36q-29 -23 -55.5 -43t-55.5 -43q-8 -4 -10 -7t-8 -9q16 -27 31.5 -49.5t31.5 -48.5q6 -10 13.5 -12.5t19.5 1.5q10 8 18.5 12.5t14.5 12.5q23 10 40 22.5t40 22.5q6 0 13 4t15 8 q16 8 31 14.5t25 14.5q4 0 10 -5t2 -9q-4 -20 -13 -41t-28 -31q-25 -18 -50.5 -31.5t-51.5 -30.5q-12 -10 -22.5 -19.5t-18.5 -23.5q23 -55 59.5 -100t73.5 -86q-6 -12 -10 -17t-9 -14h-14q-31 10 -47 31q-10 6 -18.5 16.5t-18.5 22.5q-16 20 -33.5 45t-33.5 49q-2 4 -8.5 7 t-10.5 8q-23 -10 -44 -27t-38 -27q-23 -12 -43 -27.5t-43 -27.5q-23 -16 -50.5 -26.5t-53.5 -18.5q-41 -10 -74 3t-61 42q-8 6 -10.5 12t-6.5 10q-10 29 -2 54.5zM102 344q-4 -6 1.5 -13t9.5 -3q23 6 40 14t37 16q47 29 87 55.5t88 55.5q4 4 6 4t6 4q6 6 6 23 q-10 18 -25.5 39.5t-25.5 38.5q0 4 -4.5 5t-10.5 5q-12 -10 -23 -19.5t-22 -19.5q-35 -23 -62.5 -52.5t-53.5 -62.5q-10 -16 -22.5 -32.5t-22.5 -34.5q-4 -4 -5.5 -10.5t-3.5 -12.5zM264 783.5q0 -5.5 4 -9.5q18 -4 28.5 -16.5t20.5 -26.5q4 -4 13.5 -9t15.5 -11 q6 10 16.5 19t20.5 20q10 8 18 20q23 16 43.5 37.5t36.5 44.5v4q0 6 2 10l-2 2q-2 0 -3 1t-3 1q-49 6 -98 -10q-29 -14 -56.5 -31.5t-56.5 -35.5v-9.5z" />
<glyph unicode="'" horiz-adv-x="253" d="M20 1169q16 25 31 45.5t25 47.5q23 35 41 69.5t22 77.5q-4 6 3.5 10t13.5 -4q8 -4 15 -6t15 -6q12 0 19.5 -3t15.5 -7q10 -14 13.5 -28.5t-7.5 -27.5q-4 -16 -12 -30q-16 -33 -36.5 -63t-41.5 -58q-31 -47 -90 -47q-6 2 -10 2q-10 4 -13.5 14t-3.5 14z" />
<glyph unicode="(" horiz-adv-x="315" d="M10 371q-12 63 1.5 143t41 160t63 153.5t66.5 126.5q25 37 47.5 72t42.5 74q8 16 18.5 31.5t10.5 35.5q0 16 10.5 24.5t22.5 8.5q16 0 30.5 -1t26.5 -9q12 -14 6 -20.5t-10 -22.5q-4 -18 -13 -33.5t-20 -30.5q-35 -45 -61.5 -93t-54.5 -95q-20 -35 -37 -71t-33 -70 q-29 -66 -51.5 -133.5t-32.5 -132t-5 -123t32 -103.5q18 -29 36 -45q16 -8 32 -22.5t32 -26.5q4 -4 13 -10t1 -13q-12 -4 -24.5 -8t-24.5 8q-8 6 -12 10.5t-12 8.5q-61 35 -95 87t-47 120z" />
<glyph unicode=")" horiz-adv-x="395" d="M-12 129q8 23 31.5 42t46.5 50q31 43 62.5 100.5t57 124t42 137t16.5 142.5q0 35 -1 66.5t-10 66.5q-12 63 -26 119.5t-39 120.5q-8 25 -27.5 50.5t-27.5 51.5q29 8 38 8t19 -8q25 -14 43 -33.5t27 -46.5q53 -127 75 -260q14 -94 4 -184t-37.5 -174t-71.5 -161t-97 -144 q-16 -27 -45 -43q-33 -29 -74 -29z" />
<glyph unicode="*" horiz-adv-x="462" d="M64.5 998q1.5 6 23.5 28q10 10 21.5 19.5t15.5 17.5q0 6 -5 10t-13.5 8t-14.5 7.5t-8 5.5q-27 20 -18.5 39.5t30.5 15.5q16 -4 36 -11.5t38 -11.5q12 18 14 28.5t3 19t5.5 15.5t20.5 23q41 25 67.5 14.5t8.5 -59.5q-4 -10 -12.5 -20t-14.5 -21q2 -6 13.5 -9t22.5 -5 t21.5 -4t14.5 -6q8 -10 4 -17.5t-14.5 -13.5t-23.5 -9t-21 -3q-4 -14 16 -27.5t29 -23.5q12 -8 25 -22.5t7 -29.5q-2 -8 -10 -13t-14 -5q-23 2 -39.5 9t-28.5 17.5t-24.5 22.5t-26.5 29q-27 -2 -40 -19.5t-34 -27.5q-10 -10 -27.5 -8t-25.5 8q-23 23 -21.5 29z" />
<glyph unicode="+" horiz-adv-x="561" d="M47 600q4 10 8 10q10 4 25 4q35 0 69.5 5.5t67.5 5.5q2 0 5 1t7 1q12 10 19 20q10 29 6 58q0 10 -3 19l-7 21h4q23 -4 33 -16q14 -4 20 -14t10 -25v-37q0 -4 2 -8t2 -10q45 -8 89.5 -3t87.5 -5q-4 -2 -2 -6.5t-3 -4.5q-6 -4 -13 -11l-15 -15q-29 -2 -55.5 -5t-59.5 -12 h-16.5t-16.5 -4q-14 0 -26 -18q-4 -10 -5 -19.5t-6 -17.5q-12 -33 -30 -53q-10 -16 -23.5 -19.5t-30.5 -3.5q-8 0 -10 2q-4 0 -7 8.5t1 12.5l2 2l4 4q14 20 22.5 42.5t14.5 49.5h-31q-14 -2 -29.5 -5t-29.5 -5q-10 0 -21.5 1t-23.5 7q-12 8 -18.5 14.5t-16.5 28.5z" />
<glyph unicode="," horiz-adv-x="225" d="M37 266q0 10 4 17q8 12 13 24t14 25q8 16 13 33.5t5 35.5q-2 8 4 25q2 0 5 1t5 1q12 -6 22.5 0t20.5 4q18 -16 20.5 -22.5t-5.5 -26.5q-10 -18 -22.5 -42t-29 -43t-34 -30.5t-35.5 -1.5z" />
<glyph unicode="-" horiz-adv-x="694" d="M94 633q0 20 17 20q8 0 13 -2t13 -2t15.5 -2t15.5 2q53 8 104.5 0t102.5 -12q20 0 36.5 -2t32.5 -2h80h27q12 -4 18 -17.5t-2 -25.5v-4q-10 -10 -14 -17.5t-12 -15.5h-127q-29 -4 -59.5 -2t-63.5 2q-16 0 -32.5 -1t-37.5 -5h-22.5t-24.5 -4q-68 0 -74 57q0 8 -1 16.5 t-5 16.5z" />
<glyph unicode="." horiz-adv-x="219" d="M53 420q0 10 5.5 18t15.5 8q10 4 18 3.5t14 3.5q20 12 38 -0.5t27 -32t8 -39t-15 -19.5q-45 -14 -96 25q-6 2 -10.5 12.5t-4.5 20.5z" />
<glyph unicode="/" horiz-adv-x="575" d="M-5 178q-5 12 11 39q41 57 72 119.5t63 128.5q41 113 86 219.5t87 207.5t79 199.5t66 198.5q4 18 7 28.5t6 19t5 18.5t4 26q29 2 44.5 -12t19.5 -35.5t0 -45t-13 -38.5q-25 -66 -54 -141.5t-60 -152t-61.5 -150.5t-55.5 -133q-25 -51 -53.5 -113.5t-59 -126t-61.5 -125 t-57 -112.5q-8 -16 -25.5 -24.5t-31 -7.5t-18.5 13z" />
<glyph unicode="0" horiz-adv-x="475" d="M6 354q0 35 10.5 65t18.5 58q12 35 25.5 68t25.5 67q16 43 30.5 86t20.5 90q0 10 6.5 19.5t10.5 19.5q12 25 25.5 49.5t23.5 47.5q23 4 46 5t46 -9q10 16 17 28.5t18 26.5q8 4 18 5t19 5q35 0 58.5 -21.5t27.5 -52.5q4 -47 -2.5 -90t-20.5 -84q-25 -94 -70 -178 t-104 -160q-16 -23 -36.5 -46t-37.5 -46q-25 -23 -67 -37q-39 -14 -74 13.5t-35 70.5zM86 371q23 10 53.5 39.5t60 67.5t56.5 78t43 75q31 59 53.5 122.5t26.5 135.5q-12 0 -25.5 -3t-23.5 -3q-27 0 -41.5 -11.5t-28.5 -33.5q-37 -72 -69.5 -147t-61.5 -150 q-16 -45 -27.5 -84t-15.5 -86z" />
<glyph unicode="1" horiz-adv-x="385" d="M4 293l35.5 35.5t42.5 25.5q14 4 19 15.5t10 23.5q29 94 61.5 184.5t60.5 182.5q4 16 7.5 33.5t-0.5 33.5q-25 -8 -40.5 -12t-26.5 -1t-19.5 13.5t-20.5 28.5q12 12 25.5 24.5t29.5 24.5q27 23 51.5 45.5t51.5 46.5q16 16 36.5 15.5t37.5 -4.5q43 -16 28 -56 q0 -14 -12 -22q-12 -35 -24.5 -70t-22.5 -72q-16 -47 -32.5 -94t-33.5 -94q-16 -45 -31.5 -89t-31.5 -85v-14t-4 -19h90q12 -27 8 -37t-25 -14q-25 -16 -63 -16q-16 -4 -25.5 -14.5t-19.5 -26.5t-10 -37q-16 -12 -28.5 -12t-25 3t-22.5 8t-21 5q-16 8 -30.5 19.5t-24.5 21.5 z" />
<glyph unicode="2" horiz-adv-x="690" d="M6 313v13q53 23 92 59.5t76 75.5q39 43 72 91t69 89q29 39 57.5 100.5t51.5 106.5q23 31 22 72q-4 12 -12 14t-22 2q-23 4 -40.5 -2t-33.5 -14q-12 -4 -24.5 -11.5t-24.5 -11.5q-16 -10 -33.5 -10t-30.5 20q-6 8 -32 19q66 55 132 72.5t144 0.5q29 -8 49.5 -29.5 t30.5 -49.5q4 -12 4 -21.5v-24.5q-4 -20 -14.5 -41.5t-18.5 -44.5q-35 -59 -80 -133.5t-92 -126.5q-16 -16 -32.5 -35.5t-26.5 -43.5l4 -5q59 12 117.5 4t111.5 -22q29 -8 54.5 -13t54.5 -14q4 -4 8 -5t10 -5q4 -8 4 -18q0 -4 -3 -8.5t-9 -4.5h-23q-16 6 -35.5 10.5 t-35.5 8.5q-59 20 -122 18t-122 -18q-41 -14 -79 -34.5t-72 -45.5l-34 -25.5t-34 -23.5q-39 -6 -53.5 17.5t-24.5 47.5z" />
<glyph unicode="3" horiz-adv-x="616" d="M2 256q12 10 25.5 19.5t25.5 19.5q14 10 25.5 19.5t25.5 17.5q12 8 18.5 13t14.5 15q43 35 84 58q20 8 35.5 19.5t32.5 27.5q39 31 74.5 62.5t70.5 66.5q25 25 39 52.5t29 60.5q4 4 2 14t-2 16q-27 10 -52.5 10.5t-50 -6t-47 -14.5t-45.5 -14q-29 4 -39 21.5t-14 39.5 q63 16 96 64q16 20 38 39.5t30 52.5q-31 -10 -45 -19q-12 -4 -21.5 -7t-17.5 -7q-55 -31 -96 10h-5q-4 0 -8 4q14 8 22.5 15.5t18.5 11.5q20 12 39 20.5t39 18.5q39 16 78 19t80 -9q8 -12 18 -24.5t19 -24.5q-10 -39 -37 -68.5t-49 -60.5q16 -4 27.5 -7t21.5 -7 q16 -4 28.5 -8.5t26.5 -12.5q70 -57 29 -127q-27 -47 -67 -88t-85 -76q-41 -35 -84 -63.5t-90 -57.5q-31 -29 -72 -53q-29 -23 -58.5 -39t-53.5 -34q-12 4 -18.5 8t-16.5 6q-8 0 -17.5 1t-21.5 5z" />
<glyph unicode="4" horiz-adv-x="458" d="M2 614q66 80 132.5 155t137.5 153q12 16 27.5 28.5t7.5 34.5q41 4 74 -4t68 -18q8 -4 11 -12.5t3 -14.5q-4 -2 -4 -9v-12q-23 -68 -44.5 -131t-52.5 -122l-7 -17.5t-3 -17.5q-16 -55 -40.5 -107.5t-49.5 -99.5q-14 -29 -20 -55.5t-21 -49.5q-6 -29 -26 -59h-48 q-4 6 -4 10q4 29 9.5 55.5t17.5 49.5q14 37 27.5 69.5t23.5 67.5q16 35 27.5 67.5t23.5 63.5q4 12 10.5 25.5t2.5 29.5q-10 -8 -17.5 -12t-17.5 -8q-25 -18 -47.5 -38t-48.5 -38q-12 -10 -28.5 -20.5t-33.5 -14.5q-43 -16 -67 17q-10 4 -14.5 15t-8.5 19zM227 762 q23 12 38.5 24.5t29.5 24.5q16 10 23.5 27.5t33.5 19.5q4 0 5 4t5 8q4 8 6.5 20t12.5 32q-16 -10 -37.5 -29t-42 -39t-39 -41.5t-29.5 -36.5q-4 0 -3 -4t-3 -10z" />
<glyph unicode="5" horiz-adv-x="593" d="M1 281.5q3 5.5 11 11.5q16 10 37 19.5t41 17.5q31 18 60.5 32.5t58.5 30.5q23 8 40 20.5t34 24.5q27 23 54.5 40.5t53.5 39.5q35 20 52.5 52t25.5 67q14 39 -27 55q-37 18 -80 0q-43 -8 -77.5 -27.5t-69.5 -46.5q-8 -8 -19.5 -16t-19.5 -12q-41 -25 -67 10 q-4 10 -8.5 18.5t-10.5 22.5q45 59 77 123.5t42 136.5q23 8 39 14.5t28 14.5q53 20 103.5 34.5t99.5 26.5q16 4 32.5 -2t31.5 -10q8 0 16 -23q10 -8 6 -18t-18 -14q-8 -4 -19.5 -5t-25.5 -8q-59 -12 -114.5 -32.5t-111.5 -55.5q-4 -16 -11 -33.5t-11 -39.5h34.5t35.5 4 q53 18 101 7t89 -46q39 -25 49 -76t-16 -88q-33 -57 -94 -102q-39 -29 -83 -52.5t-87 -48.5q-51 -31 -105.5 -52.5t-114.5 -37.5q-16 -4 -30.5 3t-24.5 1q-10 14 -7 19.5z" />
<glyph unicode="6" horiz-adv-x="430" d="M2 400.5q0 19.5 8 48.5q4 23 12.5 44t18.5 39q10 23 20.5 42.5t16.5 41.5q4 6 9 14.5t13 12.5v4q0 2 1 3t1 3q4 25 19.5 45.5t30.5 40.5q45 59 95 113.5t103 110.5q6 6 15.5 10t17.5 8q16 12 37 0q2 -4 7 -8t9 -8q4 -2 5 -8.5t1 -8.5q0 -16 -6 -18q-10 -8 -15 -14.5 t-15 -14.5q-33 -23 -60 -53.5t-53 -59.5q-29 -35 -55.5 -67.5t-49.5 -67.5q-16 -29 -30.5 -55.5t-30.5 -54.5q-10 -27 -21.5 -57.5t-15.5 -59.5q-16 -29 -6 -68q0 -10 9 -18t20 -4q8 0 12 1t12 5q98 31 156 117l6 12t2 10q8 20 -4 27q-16 6 -31.5 17.5t-38.5 11.5 q-12 0 -22 5t-23 9q-4 0 -6 2l-4 4q-2 6 -2 10q18 12 41 13q25 -4 53.5 -6.5t50.5 -10.5q20 -8 43 -20q20 -16 25.5 -30.5t-0.5 -43.5q-4 -18 -14.5 -37.5t-24.5 -36.5q-10 -16 -23.5 -32.5t-27.5 -32.5q-18 -18 -49 -33q-10 -10 -23.5 -14t-25.5 -11q-35 -18 -86.5 -5.5 t-85.5 46.5q-6 10 -9.5 20.5t-7.5 20.5q-4 27 -4 46.5z" />
<glyph unicode="7" horiz-adv-x="475" d="M10 258q0 4 1 10t7 13q10 25 17.5 48t17.5 46q12 18 20.5 37.5t24.5 36.5q18 25 35 52t37 50q2 10 7 18.5t5 18.5q-16 6 -33.5 17t-31.5 32q33 4 61.5 11t57.5 11q4 0 9 2.5l9 4.5q16 18 35.5 35.5t29.5 37.5q16 25 38 46.5t38 41.5q8 8 14.5 15.5t16.5 17.5h-18 q-29 -14 -61 -23.5t-66 -9.5q-41 -4 -79 6.5t-63 45.5q-4 4 -8 5t-8 5l4 12q12 0 26.5 2t28.5 -8q66 -14 119 12q35 16 76 30.5t80 27.5q37 20 80 20h45q10 -4 15 -14t1 -21q-8 -16 -16 -20q4 -16 -3.5 -26.5t-17.5 -20.5q-37 -33 -69 -70q-33 -27 -59.5 -55.5t-55.5 -57.5 q-2 0 -8 -10q10 -10 22 -8t23 -2q4 -4 8 -5t8 -9q0 -12 -4 -21.5t-20 -13.5q-18 -4 -35 -9.5t-39 -5.5q-16 -4 -29.5 -11t-26.5 -19q-29 -43 -56 -82t-56 -82q-16 -25 -28.5 -50.5t-26.5 -54.5q-10 -18 -24.5 -33.5t-31.5 -31.5q0 -4 -4 -4t-8 -4q-8 -8 -21 0q-2 4 -6 7 t-4 7z" />
<glyph unicode="8" horiz-adv-x="530" d="M-2 328q4 27 6 48t19 44q10 23 23 44t28 42q0 6 4 11t4 13q10 35 30.5 61.5t49.5 55.5q4 4 5 8t5 4q10 20 2 35q-6 14 -10 22.5t-12 18.5q-10 16 -18.5 32.5t-8.5 41.5q6 4 3 7t-3 7q25 25 27 37q47 74 107 110t144 34q29 -6 55.5 -17.5t47.5 -28.5q18 -20 26.5 -36.5 t4.5 -38.5q-4 -53 -24.5 -93t-39.5 -85q-18 -16 -37.5 -31t-48.5 -15q-6 14 -5 27.5t5 30.5q4 16 11.5 31.5t13.5 27.5q8 33 17 58.5t20 56.5q4 12 0.5 19.5t-9.5 11.5q-16 25 -43 24q-35 0 -66.5 -14t-60.5 -31q-18 -10 -32.5 -28.5t-28.5 -34.5q-16 -18 -16 -44t16 -42 q4 0 7 -4.5t3 -8.5q10 -6 19.5 -11t19.5 -1q16 6 29.5 4t27.5 -8q33 -8 27 -45q0 -25 10 -25q14 -4 27.5 -13t30.5 -17q4 -8 13 -13.5t17 -15.5q25 -29 26 -50.5t-17 -56.5q-16 -37 -43 -66.5t-54 -58.5q-8 -8 -16 -15t-14 -15q-31 -33 -66 -57.5t-76 -41.5q-63 -25 -123 0 q-4 6 -8 9.5t-8 7.5q-16 6 -23 18q-4 8 -8 15.5t-8 17.5q0 6 -2 13.5t-2 13.5zM78 311q0 -2 7 -8t11 -6q20 10 41 18.5t43 20.5q23 16 43.5 33.5t42.5 31.5q23 14 43.5 36t42.5 46q2 4 8.5 10.5t10.5 20.5q10 23 0 41q-4 8 -10.5 12t-8.5 8q-23 16 -43 28t-43 20 q-80 -63 -127 -152q-18 -29 -33.5 -60.5t-23.5 -68.5q-4 -10 -4 -31z" />
<glyph unicode="9" horiz-adv-x="407" d="M2 231q-2 14 6 29q18 23 35.5 41t34.5 41q29 39 52.5 75t49.5 79q16 29 26.5 56t26.5 60q-25 -6 -43 -14t-38 -12q-31 -10 -68 10t-51 61q-10 23 0 43q10 23 16 38.5t19 31.5q0 4 3 6t3 6q23 53 56.5 93t74.5 79q18 14 31.5 21.5t35.5 21.5q16 4 39 0q10 -4 18.5 -5 t18.5 -5q6 -6 11.5 -8t7.5 -6q10 -6 20 -13.5t21 -13.5q16 -10 20 -18t4 -19q0 -8 -2 -14t-2 -16q-12 -47 -25.5 -95.5t-35.5 -95.5q-18 -39 -33 -77t-35 -74q-20 -35 -38.5 -67t-37.5 -64q-14 -27 -32.5 -49.5t-38.5 -47.5q-16 -31 -42 -45t-55 -24q-10 -6 -24.5 -6.5 t-28.5 -2.5zM117 672q4 -2 8 -2h8q59 31 102.5 76t83.5 94q14 20 15 59v4q0 18 -17 10q-4 0 -8 -2t-10 -2q-43 -27 -79 -59.5t-64 -79.5q-12 -18 -24.5 -43t-14.5 -49q-4 -4 0 -6z" />
<glyph unicode=":" horiz-adv-x="219" d="M55 452.5q-3 12.5 13 12.5q6 4 13 2t11 2q16 8 29.5 0t19.5 -20.5t6 -24.5t-12 -12q-18 -4 -35.5 0t-31.5 24q-10 4 -13 16.5zM85 680q-3 12 13 12q6 4 13.5 2t11.5 2q16 8 29.5 0t19.5 -20t6 -24.5t-12 -12.5q-18 -4 -35.5 0t-32.5 25q-10 4 -13 16z" />
<glyph unicode=";" horiz-adv-x="268" d="M63 406q0 10 5 16q8 12 13 24.5t13 24.5q8 16 13.5 33.5t5.5 36.5q-2 8 4 24q2 0 5 1t5 1q12 -6 22.5 0t20.5 4q18 -16 20.5 -22t-6.5 -27q-10 -18 -22 -41.5t-28.5 -43t-34 -31t-36.5 -0.5zM102 684q-3 12 13 12q6 4 13 2t11 2q16 8 29.5 0t20 -20t6.5 -24.5t-13 -12.5 q-18 -4 -35.5 0t-31.5 25q-10 4 -13 16z" />
<glyph unicode="&#x3c;" horiz-adv-x="661" d="M12 442q10 4 14.5 9.5t8.5 5.5q47 20 91 43.5t89 52.5q59 35 117.5 74t116.5 86q8 8 19 18t21 19q25 0 39.5 -10.5t30.5 -26.5q12 -8 12 -23.5t-12 -25.5q-23 -16 -47.5 -32t-46.5 -32q-20 -16 -41 -27.5t-45 -19.5q-35 -20 -69 -39.5t-68 -40.5q-6 0 -6 -10l6 -6 q4 -4 20 -4q133 -25 260 -80q12 -4 20.5 -10.5t16.5 -10.5q25 -10 35 -27.5t18 -35.5q4 -4 1 -11.5t-7 -11.5q-31 -6 -57 10q-59 37 -121.5 55.5t-128.5 30.5q-29 4 -55.5 8.5t-55.5 8.5q-16 0 -31.5 4t-31.5 16q-6 6 -23 7q-20 -12 -35.5 -3t-31.5 17q-4 4 -8 11t-15 11z " />
<glyph unicode="=" horiz-adv-x="528" d="M23 684q47 0 94 5t94 13q20 4 41.5 5.5t44.5 5.5h111q10 4 20 2t16 -6q4 -4 8.5 -10.5t8.5 -10.5q0 -4 -2 -9t-6 -5q-8 -10 -18.5 -17.5t-26.5 -7.5q-16 -4 -31 -5t-31 -5q-39 -2 -82 -5t-82 -7q-16 -4 -29.5 -4h-27.5q-23 -4 -38 5t-38 11q-6 10 -17 19.5t-9 25.5z M53 516v21q0 6 5 9t10 3q10 -4 28 -4q10 -4 23.5 -4h23.5q18 4 35 4h33q41 4 81 7t85 11h43q10 -4 14 -14t-4 -19q-10 -10 -22.5 -19t-26.5 -13q-33 -8 -65.5 -14.5t-67.5 -10.5q-23 0 -44.5 -3t-33.5 -3q-27 -4 -43 -1t-33 7q-27 12 -41 43z" />
<glyph unicode="&#x3e;" horiz-adv-x="569" d="M16 309q-20 20 7 33q20 12 43.5 14t50.5 9q16 8 42.5 16t55.5 17.5t56.5 16.5t45.5 11q20 8 23.5 17.5t-4.5 17.5t-23.5 16t-31.5 15q-16 10 -38 22t-40 25q-20 14 -36.5 24t-32 20.5t-32 22.5t-36.5 31q-12 14 -20.5 33.5t-4.5 40.5q-2 10 1 20.5t7 26.5 q23 -16 41.5 -31.5t36.5 -30.5q45 -37 80 -56t86 -52q23 -10 40 -24.5t36 -31.5q16 -8 27.5 -15t29.5 -5q27 -6 36 -34.5t19 -49.5q6 -10 2 -18.5t-12 -12.5q-27 -8 -54.5 -15t-51.5 -15q-43 -14 -84 -29.5t-86 -24.5q-27 -4 -51.5 -10t-51.5 -10q-20 -4 -39.5 1t-36.5 15z " />
<glyph unicode="?" horiz-adv-x="579" d="M43 340q-6 14 3 42t28 28q8 0 14 -2t14 -2q10 -10 18.5 -19.5t12.5 -19.5q4 -4 4 -27v-31q0 -6 -7 -12t-13 -6q-14 -4 -25.5 1t-21.5 13t-15.5 17.5t-11.5 17.5zM69 515q-1 7 3 17q4 16 12 43t18.5 55.5t20.5 55.5t20 41q68 115 164 207q31 31 57.5 60.5t57.5 64.5 q20 25 37.5 52.5t34.5 55.5q10 16 12 29q6 47 -33 47q-12 0 -24.5 2t-22.5 -2q-25 -6 -49.5 -11t-52.5 -15q-6 -4 -13.5 -8.5t-11.5 -8.5q-23 -10 -44 -11.5t-50 21.5q-4 8 -6 15.5t-6 17.5q10 6 18 17q16 0 29.5 5t29.5 13q33 18 69 24.5t77 14.5q29 4 56.5 -3t51.5 -18 q27 -10 41.5 -26.5t28.5 -38.5q6 -16 5 -33.5t-5 -36.5q-8 -35 -26.5 -67.5t-45.5 -61.5q-29 -33 -64.5 -62.5t-70.5 -62.5q-37 -37 -76 -82q-39 -41 -70.5 -80.5t-54.5 -87.5q-4 -6 -12 -23.5t-17.5 -36.5t-15.5 -36.5t-8 -23.5q-12 -23 -17 -36.5t-26 -17.5q-10 0 -20 15 q0 10 -1 17z" />
<glyph unicode="@" horiz-adv-x="600" d="M4 476q8 42 37 75q23 29 43 55.5t43 57.5q23 23 42 41t42 32q55 35 110.5 46.5t116.5 -11.5q20 -12 37 -31q31 -20 57 -65q23 -35 23 -73t-16 -75q0 -20 -23 -39q-16 -31 -36.5 -60.5t-41.5 -57.5q-31 -37 -73 -58q-51 -25 -86 17q-8 14 -16.5 27.5t-16.5 23.5 q-10 -4 -15.5 -7t-13.5 -7q-27 -10 -45 -5t-41 27q-20 29 -19 55.5t15 55.5q8 23 21.5 42t33.5 36q14 10 26.5 16t29.5 6q10 0 17 4t17 8h22.5t18.5 -4q8 -10 14.5 -16t2.5 -19h2q2 0 4 -2t6 -4q8 -12 10 -25.5t-6 -29.5q-16 -31 -21.5 -60.5t-0.5 -62.5q10 0 18 4 q37 35 72 74t57 90q4 4 5 11t7 18q16 29 10 57.5t-22 52.5q-12 25 -32.5 37t-43 17.5t-44 1.5t-38.5 -15q-35 -31 -73.5 -55.5t-73.5 -63.5q-27 -35 -48.5 -69.5t-31.5 -81.5q-33 -115 70 -182q12 -8 24.5 -12.5t24.5 -14.5q4 -4 10 -8t-4 -14q0 -4 -6 -5.5t-10 -1.5 q-45 0 -80 29q-66 57 -101 135q-18 41 -10 83zM182 438q31 16 62 54t47 75q-31 -4 -50.5 -18t-35.5 -37q-23 -31 -23 -74z" />
<glyph unicode="A" horiz-adv-x="1216" d="M0 23q6 8 11 13t9 15q29 49 56.5 98.5t54.5 102.5q12 23 -14 27h-8q-16 -2 -29.5 2t-28.5 10q-4 0 -12 8q-16 12 -4 25q6 10 8 12q16 18 45 37q16 8 30.5 14t28.5 14q23 10 42.5 18.5t39.5 18.5q23 10 38.5 23.5t29.5 30.5q23 29 46.5 58.5t45.5 57.5q31 37 61.5 74 t61.5 72q43 47 84 94t84 94q27 29 53.5 55.5t54.5 55.5q18 18 36 36.5t36 36.5q10 10 17.5 19.5t17.5 19.5q12 10 24.5 21.5t24.5 23.5q16 18 43 39q8 8 16.5 14.5t18.5 12.5q47 39 70 86q4 8 9 15t9 18q8 14 20.5 19t28.5 7q6 0 13.5 -1t15.5 -1q10 -2 17 -12t9 -21 q4 -14 -2 -34q-4 -23 -11 -42.5t-13 -41.5q-29 -96 -51 -187q-6 -31 -15.5 -63.5t-19.5 -63.5q-16 -55 -29.5 -110.5t-30.5 -110.5q-2 -6 -2 -11t-2 -9q-2 -9 -2 -15q0 -26 28 -27q4 0 9 1q12 2 22.5 3t22.5 3q4 0 10.5 -1t12.5 -1l4 -4q4 -8 0 -15q-6 -14 -21 -20 q-29 -20 -59 -29q-10 -4 -20.5 -7t-20.5 -7q-16 -6 -20 -21q-4 -8 -9 -20q-27 -86 -51 -173t-49 -175q-2 -8 -4 -16.5t-6 -18.5q-8 -25 -14.5 -49.5t-12.5 -48.5q-4 -23 -12 -43.5t-12 -42.5q-10 -29 -19.5 -58.5t-19.5 -60.5q-6 -18 -11.5 -37.5t-9.5 -40.5 q-10 -43 -20 -72q-8 -16 -19 -24q-4 -4 -13 -1t-11 9t-2 11.5t-2 11.5q2 6 1 14t1 14q4 29 8 55.5t12 53.5q4 10 5 18t3 17q6 29 12.5 55t18.5 51q4 8 6 17.5t4 19.5q0 33 17 72q12 39 23 76.5t22 76.5q4 16 6 23q10 20 16 40.5t10 43.5q8 41 15.5 79.5t17.5 79.5 q0 4 -4 10.5t-8 6.5q-2 2 -6 2h-31q-16 -4 -31.5 -7t-31.5 -7q-45 -14 -89.5 -25.5t-89.5 -26.5q-57 -16 -112.5 -35.5t-108.5 -41.5q-10 -4 -18 -11.5t-17 -15.5q-2 -2 -2 -4t-2 -2q-12 -20 -24.5 -38t-24.5 -36q-31 -53 -61.5 -105.5t-57.5 -107.5q-10 -23 -23 -45.5 t-28 -44.5q-8 -12 -22 -19q-8 -4 -21 -8q-29 -6 -51 4q-4 0 -6 2t-6 5q-10 2 -16.5 8t-10.5 14q-8 10 -2 21zM494 557q-2 -4 3 -9t9 -5q4 2 10 2t10 2q41 10 83 20.5t83 18.5t82 19l82 22q37 6 70 24q18 14 22 27q8 25 16.5 49.5t14.5 48.5q10 43 18.5 86t14.5 86 q4 12 4 23.5t4 21.5q12 47 21.5 93.5t19.5 93.5q2 4 2 14t-6 12q-4 4 -15 -2q-10 -10 -21 -22.5t-24 -22.5q-16 -12 -27.5 -25.5t-25.5 -27.5q-29 -35 -55.5 -68.5t-61.5 -62.5q-4 -2 -10 -12q-16 -16 -30.5 -35t-30.5 -37l-33.5 -33.5t-28.5 -40.5l-7 -7l-7 -7 q-20 -20 -36.5 -42t-33.5 -44q-20 -27 -40.5 -52.5t-41.5 -52.5l-16 -20t-14 -21q-4 -4 -4 -14z" />
<glyph unicode="B" horiz-adv-x="1433" d="M4 -78q0 10 1 18.5t5 18.5q10 20 19.5 39.5t19.5 40.5q4 8 17 24q29 39 56.5 77t55.5 77q4 4 5 6t5 4q18 23 29.5 36t20 24.5t14.5 24t14 30.5q23 49 40.5 99.5t37.5 101.5q4 10 7 19t9 20q20 39 33 78.5t27 80.5q12 39 26.5 77t28.5 77q4 10 8 20.5t11 20.5 q16 37 28.5 75t22.5 76q8 23 13 43.5t1 43.5q0 12 -10 8q-4 -2 -7 -2t-7 -2q-37 -27 -66 -60q-31 -33 -61.5 -64.5t-59.5 -66.5q-10 -12 -22.5 -23.5t-22.5 -21.5q-16 -12 -33.5 -12t-29.5 10q-6 6 -9.5 15.5t0.5 17.5q10 18 19.5 35.5t19.5 35.5q4 8 9.5 16.5t11.5 14.5 q33 41 67.5 79t75.5 71q6 6 13.5 11t13.5 13q80 78 174 129.5t201 81.5q27 8 51 15q27 8 63 12h18.5t18.5 4q29 6 55.5 4t55.5 0h8q70 -14 127 -39q8 -4 15 -8t16 -8q37 -27 55 -60q4 -4 5 -9t3 -11q4 -21 4 -25q0 -33 -12 -53q0 -2 -2 -4v-2q-14 -27 -22.5 -42t-17.5 -27.5 t-20.5 -25t-31.5 -30.5q-18 -18 -36 -37.5t-38 -36.5q-20 -18 -40.5 -35.5t-43.5 -33.5q-4 -4 -8 -7.5t-10 -7.5q-18 -14 -33 -29.5t-33 -27.5t-36.5 -24.5t-35.5 -28.5q-6 -4 -14 -17q-8 -8 2 -12q12 -8 19 -10q6 -4 14 -5t14 -3q27 -8 52.5 -15.5t54.5 -13.5 q45 -12 83 -31.5t74 -48.5q39 -27 68 -65q41 -47 57 -111q7 -23 7 -47q0 -20 -5 -39q-4 -10 -6 -22.5t-6 -22.5q-12 -35 -31 -68q-23 -33 -45 -63.5t-49 -59.5q-6 -8 -14 -15t-15 -17q-6 -6 -12 -13.5t-12 -13.5q-18 -16 -37.5 -34.5t-40.5 -35.5q-23 -23 -45.5 -42 t-50.5 -38q-14 -10 -26.5 -20t-24.5 -20q-37 -29 -75 -54.5t-79 -48.5q-35 -23 -73 -42t-77 -38q-43 -20 -89 -34.5t-93 -24.5q-6 -2 -13 -2t-15 -2q-16 -2 -33 -3t-33 -3q-26 -3 -52 -3q-82 0 -163 33q-18 8 -39 25q-8 8 -16.5 14t-18.5 13q-10 8 -18 24q-4 10 -10.5 19.5 t-10.5 19.5q-10 25 -10 49zM86 -66v-14q0 -57 35 -94q18 -16 37.5 -28.5t46.5 -16.5q20 -4 40.5 -5t43.5 -5h18t23 2q10 2 21 3t22 1q23 0 41 5t37 13q23 10 44 19.5t44 17.5q25 8 46 17.5t44 19.5t42 22.5t40 26.5q2 2 6 2q27 18 43 28.5t30.5 21t31 23.5t44.5 36 q74 61 131 127q20 23 39 42t37 42q18 18 35 45q16 27 33.5 53.5t36.5 52.5q16 25 26 51.5t17 57.5q0 8 1 14t1 14q2 8 1 15.5t-1 13.5q-2 41 -33 82q-8 10 -14.5 17.5t-14.5 17.5q-8 12 -26 22q-31 18 -63 32.5t-66 23.5q-43 10 -86 18t-89 14q-8 0 -17 1t-19 -1 q-29 0 -50 -12q-10 -4 -18 -10t-18 -12q-49 -29 -107 -52q-16 -6 -31 -2q-6 2 -6 11q-4 12 4 20q6 14 17 25q47 41 84 86q8 10 28 18q18 6 36 11t34 14q43 12 66 45q20 23 38 37q49 35 95 81q20 23 41.5 41.5t42.5 40.5q18 18 36.5 37t30.5 41q6 10 13.5 17.5l15.5 15.5 q16 20 34.5 51t24.5 49q4 8 5 14.5t3 16.5q2 14 -8 33l-14 14t-14 10t-15 5q-23 4 -44 7t-44 1q-49 -4 -98 -12.5t-96 -28.5q-4 -2 -10.5 -3t-10.5 -5q-29 -10 -54.5 -21.5t-51.5 -26.5l-13.5 -9t-11.5 -9t-9 -10t-3 -15q6 -29 -4 -57q-14 -55 -37 -113 q-31 -80 -59.5 -159.5t-57.5 -157.5q-10 -29 -14 -59q0 -27 -19 -45q-16 -23 -26.5 -46.5t-20.5 -46.5q-16 -45 -33.5 -90t-35.5 -90q-12 -31 -19 -61q-2 -4 3 -11.5t9 -5.5q29 4 59 6.5t58 8.5q18 4 36.5 6t37.5 0q6 0 11 -2t11 -2q4 -2 5.5 -9.5t-3.5 -11.5q-6 -6 -10 -8 q-16 -4 -32.5 -4t-32.5 -2q-23 -2 -45.5 -3t-44.5 -5q-45 -6 -78 -39q-4 -4 -7 -8t-8 -9q-27 -18 -36 -47q-4 -10 -10.5 -18t-10.5 -19q-20 -25 -43 -28q-43 -12 -65 -45q-8 -10 -16.5 -19.5t-18.5 -19.5q-23 -31 -41 -60q-12 -20 -19.5 -40.5t-13.5 -43.5z" />
<glyph unicode="C" horiz-adv-x="1150" d="M-14 66q0 12 2 23t4 26q25 94 54.5 183t70.5 179q14 31 27.5 62.5t23.5 64.5q6 12 14 21q14 16 23.5 36.5t17.5 40.5q16 39 37 73t41 69q43 66 88 127t96 121q6 6 11.5 12t9.5 12q14 20 27.5 40t29.5 38q14 18 29.5 33.5t28.5 36.5q6 8 20 22l36.5 36.5t35.5 39.5 q16 20 35.5 38.5t35.5 39.5q14 16 41 20q16 0 31.5 -1t32.5 1q31 0 61 -12q27 -12 56 -8h22q10 -4 16.5 -6t14.5 -7q12 -4 18 -17t2 -30q-6 -6 -4 -6q-4 -12 -8 -14q-29 -35 -52.5 -72t-47.5 -76q-10 -16 -19.5 -34.5t-19.5 -36.5q-18 -41 -37 -81t-33 -85 q-10 -29 -23.5 -58.5t-23.5 -62.5q-6 -23 -14.5 -47.5t-12.5 -46.5q-6 -27 -14 -51.5t-18 -49.5q-10 -18 -25 -30q-2 -2 -8 -2q-4 0 -8 10q-6 31 -4 57q4 23 7 48.5t9 48.5q6 25 11 49t11 47q18 53 35 107.5t39 107.5l4 12l4 12q4 16 9.5 34t9.5 36q4 10 6 19.5t6 19.5 q10 18 20.5 35.5t16.5 38.5q-2 0 -2 2t-1 2t-1 2q-4 4 -6 4q-4 0 -8 -2q-16 -8 -29.5 -18.5t-30.5 -22.5q-37 -29 -72.5 -61.5t-70.5 -65.5q-27 -29 -51.5 -57.5t-51.5 -57.5q-57 -66 -107 -135.5t-97 -142.5q-16 -27 -32 -52.5t-32 -50.5q-16 -29 -30.5 -54.5t-28.5 -53.5 q-29 -59 -53.5 -118.5t-47.5 -121.5q-16 -45 -29.5 -89t-23.5 -91q-6 -37 -6 -76q0 -43 12 -86q16 -37 47 -55q4 0 7.5 -2t7.5 -4q23 -4 43 -5t43 5q35 10 68.5 21t66.5 30q53 29 103 59.5t100 65.5q29 20 57.5 41.5t60.5 36.5q4 2 7.5 4t7.5 4q29 29 60.5 48t62.5 42 q10 6 19 12t20 15q25 25 52 45t54 41q31 23 59.5 46t57.5 50q14 12 28.5 23.5t28.5 21.5q12 8 21 -2q10 -10 6 -23q0 -8 -6 -14q0 -4 -2 -7t-5 -7q-4 -8 -10 -16.5t-14 -16.5q-23 -27 -45.5 -52.5t-46.5 -50.5q-23 -25 -48.5 -47t-52.5 -45q-35 -25 -66.5 -51t-66.5 -51 q-16 -10 -31.5 -23.5t-31.5 -23.5q-51 -41 -103.5 -76t-105.5 -70q-25 -16 -49.5 -29.5t-48.5 -27.5q-47 -23 -95.5 -38t-101.5 -19q-23 -2 -43.5 1t-42.5 7q-4 2 -10 3t-13 5q-49 23 -90 49q-51 33 -63 103q-6 39 -6 80z" />
<glyph unicode="D" horiz-adv-x="1601" d="M-4 125q4 16 10 31.5t12 31.5q6 27 -2 52q-2 4 -2 7t-2 7q-10 31 13 55q10 12 21 22.5t26 18.5q59 35 100 84q12 16 29 29q29 25 43 67q14 39 28.5 78t28.5 80q12 39 25.5 76t25.5 76q16 55 33.5 109.5t36.5 107.5q6 16 12 34.5t12 36.5q4 20 -8 31q-10 12 -12 31 q-2 10 -8 14t-12 0q-4 -4 -10.5 -5t-10.5 -5q-18 -14 -36.5 -28.5t-37.5 -28.5q-16 -14 -29.5 -27.5t-27.5 -24.5q-14 -14 -41 -22q-12 -4 -23 2q0 -2 -6 4q-16 12 -19 30.5t5 37.5q6 14 16 28q45 53 103 99q35 27 69.5 48t73.5 38q27 10 47 24q12 10 19 27q4 10 7 23.5 t7 23.5t9 15t11 10q12 4 23.5 10t26.5 10q12 6 28 0q20 -6 27 -27q4 -16 8 -41q6 -16 21 -22q10 -4 18 -3t16 1q23 2 45.5 4t45.5 4t47 2t47 2h67q23 2 47.5 1t49.5 -1q43 -2 85 -5t83 -13q23 0 44 -6.5t42 -10.5q23 -2 45 -12l20 -8t21 -6q29 -8 54 -19.5t50 -25.5 q39 -23 80 -64q19 -18 31 -45q16 -39 20 -78q2 -20 2 -40t-2 -40q-4 -31 -10 -59.5t-19 -54.5l-4 -8q-10 -23 -19 -46.5t-20 -46.5q-23 -31 -43 -63.5t-43 -63.5q-16 -20 -32.5 -41.5t-32.5 -42.5q-61 -80 -130 -151.5t-141 -136.5q-29 -27 -59.5 -52.5t-58.5 -50.5 q-10 -8 -18.5 -15t-18.5 -13q-31 -18 -60.5 -40t-58.5 -46q-4 -4 -6 -5q-35 -23 -67.5 -44t-67.5 -42q-10 -6 -21.5 -8t-21.5 -4q6 31 24 39q4 4 9.5 6t9.5 6q18 16 37.5 29.5t40.5 24.5q4 4 8 7t8 7q14 23 34.5 35t37.5 28q37 33 72.5 65t74.5 64l10 11q16 29 41 48t47 44 q25 33 53.5 63.5t51.5 67.5q6 14 15 23.5t20 19.5q10 6 19 13t15 20q10 16 23.5 31.5t19.5 35.5q8 25 20.5 46.5t25.5 43.5q37 68 71 138q8 14 13.5 27.5t11.5 25.5q14 33 16 65q0 12 2 19q10 31 8 62.5t-8 62.5q-8 37 -37 65q-18 18 -51 33q-29 10 -59.5 20.5t-61.5 16.5 q-80 14 -161 18q-16 0 -33 1t-33 3q-27 1 -55 1h-27q-41 -1 -82 -5q-45 -6 -90 -11t-92 -9t-86 -19q-35 -10 -41 -45q-10 -35 -21.5 -68.5t-21.5 -68.5q-10 -39 -21.5 -77t-23.5 -76q-4 -16 -8 -29.5t-9 -28.5q-10 -27 -18 -51.5t-16 -50.5q-12 -41 -25.5 -81t-26.5 -81 q-6 -18 -4 -33q0 -8 11 -12h6q45 10 78 27q18 10 37.5 18t37.5 18q20 10 41 3q12 -4 23 -9q2 0 2 -6t-2 -8q-20 -18 -41 -35.5t-43 -32.5q-29 -18 -55.5 -37.5t-51.5 -41.5q-8 -6 -24 -15q-23 -10 -40.5 -24.5t-37.5 -28.5q-12 -6 -18 -25q-8 -14 -15 -39q-4 -16 -9 -32.5 t-9 -32.5q-8 -25 -15.5 -48.5t-17.5 -45.5q-4 -12 -8 -23.5t-8 -25.5q-4 -35 -18.5 -65t-24.5 -62q-4 -10 -17 -27q-29 -29 -28 -76q-2 -6 -9.5 -9t-11.5 -1q-66 29 -108 86q-6 8 -11.5 16.5t-9.5 18.5q-11 27 -11 55q0 18 5 37zM44 88q-1 -8 1 -16q0 -31 10 -52 q6 -12 18.5 -20t24.5 -4q4 2 13 10q2 4 4 7t4 7q10 49 19.5 101.5t15.5 99.5q2 4 1 8t-1 9q0 6 -6.5 11t-10.5 3q-23 -6 -35 -27q-37 -57 -55 -121q-2 -8 -3 -16zM242 -106l6 6q2 2 8 2h12q25 -4 48 -4q15 0 30 2q37 4 74 16q4 2 7 1t7 -1q10 0 10 -10q0 -2 -4 -6 q-4 -6 -6 -6q-16 -4 -34.5 -9.5t-34.5 -9.5t-33 -5t-37 1q-10 4 -22.5 2t-22.5 6q-8 2 -8 15zM494 -72q4 8 4 9q16 16 35.5 28t41.5 15q14 2 35 12q4 2 9.5 5t9.5 5q18 14 41 4q-23 -18 -46.5 -31.5t-48.5 -29.5q-18 -10 -36.5 -18.5t-38.5 -10.5q-2 0 -3 2t-3 2v8zM670 6h2 h-2z" />
<glyph unicode="E" horiz-adv-x="1112" d="M-35 -154q-4 12 6 19q16 14 30.5 27.5t31.5 27.5q25 20 46 42t44 44q10 10 15 19.5t16 19.5q12 12 16 35q4 20 11 38.5t16 37.5q10 23 19 44t17 42q12 29 21.5 55.5t24.5 50.5q4 8 8 15.5t6 15.5q8 20 15 38.5t18 37.5q16 25 18 51q0 12 4 33q2 8 -5 12t-13 2 q-10 -4 -18.5 -6t-16.5 -4q-16 -6 -29 -6q-8 -4 -16 -3t-17 3q-31 4 -38 26q-6 4 -5 12q4 25 25 39q14 8 27.5 15.5t27.5 13.5q23 10 45.5 20.5t46.5 14.5q10 2 22.5 6t25.5 8q29 12 41 35q8 12 14 23.5t14 23.5q20 37 39 73t39 71q4 4 4 6q16 27 30.5 53.5t31.5 52.5 q16 29 31.5 53.5t31.5 53.5q8 14 15.5 29.5t9.5 31.5q4 8 -6 8q-14 4 -25.5 1t-24.5 -7q-29 -10 -56.5 -21.5t-51.5 -27.5q-27 -14 -52.5 -27.5t-52.5 -29.5q-66 -37 -122 -84t-101 -109q0 -4 -3 -5t-5 -5q-8 -8 -18 -8q-35 -4 -50 20q-8 10 -14 23.5t-12 23.5q-10 27 4 45 q4 6 8 12.5t8 10.5q33 35 67 65.5t75 55.5q25 14 49 26.5t49 26.5q10 4 19.5 8t19.5 6q18 4 34.5 10.5t30.5 14.5q20 10 40 17t40 16q45 16 88 31.5t90 31.5q4 2 6.5 2t6.5 2q18 6 34 23q10 14 21.5 27.5t21.5 25.5q8 12 25 12q12 2 23 2q37 0 69 -20q18 -10 35 -6 q25 4 48.5 10t47.5 10q39 10 77 18.5t75 14.5q20 4 39.5 8t38.5 8q45 10 89 18.5t89 18.5q53 12 107.5 23.5t107.5 21.5t107.5 18.5t107.5 18.5q29 6 51 -16q10 -8 8 -21.5t-12 -17.5q-10 -2 -17.5 -5t-15.5 -5q-45 -10 -90 -19.5t-90 -19.5q-37 -8 -73 -15.5t-72 -17.5 q-31 -6 -62 -13.5t-61 -11.5q-25 -4 -49.5 -9t-47.5 -11q-49 -16 -99 -26.5t-101 -20.5q-49 -10 -98.5 -20.5t-100.5 -24.5q-18 -4 -36.5 -10.5t-37.5 -12.5q-10 -4 -17 -10t-13 -14q-12 -16 -17 -25q-23 -33 -42 -64.5t-42 -66.5q-8 -12 -10 -19q-25 -45 -50.5 -89 t-51.5 -87q-18 -33 -36 -65.5t-32 -67.5q-6 -10 -6 -20q-4 -4 1 -11.5t11 -7.5q16 -4 27 -4q16 0 32.5 2t32.5 2q8 0 16.5 1t12.5 1q31 2 57.5 2t53.5 2q6 0 11 -2t9 -4q8 0 9 -8t-3 -12q-6 -12 -20 -19q-27 -14 -51 -20q-16 -4 -35 -6t-35 -6q-92 -18 -186 -43 q-18 -8 -27 -19q-8 -12 -10 -18q-33 -57 -62.5 -113.5t-58.5 -116.5q-8 -14 -14 -39q-4 -10 -10.5 -20t-10.5 -20q-18 -33 -31.5 -68t-27.5 -70q-8 -10 -4 -26q2 -6 8 -11.5t12 -1.5q23 10 45.5 18.5t44.5 18.5q35 14 69 28.5t68 27.5q8 0 13 4q43 18 87 30.5t89 22.5 q6 2 13 2t13 4q35 12 73 14t75 4q10 4 20 0q23 -2 42.5 -3t41.5 -5q16 -2 28.5 -6t27.5 -10q2 -4 4 -5t4 -5q8 -8 4 -19q-2 -12 -14 -14q-4 0 -10.5 -1t-10.5 1q-16 2 -34.5 1t-35.5 -1q-70 0 -141 -16q-84 -18 -168 -50q-78 -23 -148.5 -55.5t-140.5 -71.5 q-23 -12 -44 -26.5t-44 -26.5q-10 -8 -20 -14t-21 -15q-12 -10 -22 -20t-16 -27q-8 -14 -14.5 -27.5t-14.5 -25.5q-4 -6 -12 -6q-8 -4 -15 0q-8 0 -16 -1t-19 -5q-16 -6 -32.5 -12.5t-32.5 -14.5q-18 -6 -39 4q-33 12 -33 47z" />
<glyph unicode="F" horiz-adv-x="944" d="M-35 1081q0 4 2 6.5t4 6.5l4 2q31 6 58 22q16 10 30.5 19.5t26.5 19.5q16 10 29.5 19.5t30.5 17.5q8 4 15 10t17 10q10 6 18.5 11.5t18.5 11.5q6 4 11.5 6t11.5 6q61 37 127.5 67t132.5 58q10 6 24 8q25 2 49 13q29 10 56.5 19t56.5 22q8 4 25 8q29 6 54.5 16t53.5 19 q23 8 43.5 15t42.5 11q20 6 42 12.5t44 12.5q25 6 49.5 11t49.5 9q49 12 102 19q6 2 12 2t13 2q29 8 57.5 9t56.5 1q13 2 26 2q20 0 39 -4q32 -6 60 -14q20 -4 36.5 -12.5t33.5 -18.5q27 -18 31 -51q0 -6 -3 -12q-4 -23 -18 -41q-10 -16 -23.5 -32t-25.5 -30 q-16 -18 -39 -31q-8 -4 -14 -8t-15 -8q-2 -2 -5 -2t-5 -2q-4 0 -10 1t-8 5v10q20 49 43 92q4 8 6 14.5t6 14.5q6 18 4 35q0 8 -10 14q-6 4 -23 8h-28.5t-30.5 -2q-6 0 -13.5 -1t-17.5 -3q-29 0 -56.5 -4t-55.5 -10q-37 -8 -65 -13t-52.5 -11.5t-52 -13.5t-66.5 -17 q-45 -12 -87 -25.5t-83 -30.5q-10 -4 -21.5 -7t-21.5 -7q-29 -8 -56.5 -20.5t-56.5 -22.5q-2 -2 -5 -3t-5 -3q-14 -8 -8 -21q4 -6 7 -12l7 -14q6 -10 -2 -29q-2 -2 -2 -4t-2 -6q-23 -35 -42 -72t-38 -76q-18 -37 -37.5 -73.5t-40.5 -73.5q-16 -31 -31.5 -61.5t-31.5 -61.5 q-8 -14 -12 -33q-2 -4 1 -8t7 -6q33 0 57 8q29 10 58.5 16.5t58.5 12.5q29 4 59.5 9t61.5 9q18 2 36.5 4t39.5 0q10 0 17 1t15 1t15.5 1t17.5 1q35 -4 73 -4t75 -4h18t18 -2q25 -6 31 -28q2 -8 -4 -16.5t-14 -10.5h-27q-25 -2 -49.5 -1t-46.5 -1q-25 0 -49.5 -1t-46.5 -7 q-6 -2 -19 -2q-45 -4 -89 -11.5t-87 -17.5q-74 -14 -145.5 -36.5t-139.5 -57.5q-2 0 -2 -1t-2 -1q-12 -6 -18 -17l-40 -94t-36 -94q-25 -70 -46.5 -140.5t-41.5 -140.5q-4 -18 -8 -35.5t-8 -35.5q-2 -6 -2 -13.5t-3 -13.5q-12 -47 -13 -92v-30q0 -30 2 -62q0 -14 1.5 -28.5 t-1.5 -29.5q0 -2 -7 -8q-8 -2 -12 0q-2 0 -6 4q-8 8 -15.5 17.5t-17.5 19.5q-8 12 -8 21q-6 29 -6.5 58t-0.5 58q2 18 2.5 36t2.5 36q0 4 1 8t1 8q8 33 13 65t15 62q10 45 22.5 86t29.5 84q10 35 22 68t23 68q2 4 6 16q2 8 -5.5 16.5t-17.5 5.5q-10 -2 -19 -3t-20 -3 q-16 -4 -30 0q-27 4 -37 23q-2 4 -4 7t-5 7q-4 12 7 23q25 27 59 45q29 16 56.5 31.5t56.5 31.5q6 4 12 7.5t10 7.5q18 14 23 26q0 4 1 4t1 2q16 43 37.5 84t44.5 82q12 23 23.5 46.5t21.5 45.5q4 8 2 17q0 10 1 18t5 17q6 16 11 30.5t14 30.5q6 12 13 24.5t15 28.5 q10 18 18.5 37t16.5 37q2 6 -2 10q-2 4 -12 4q-2 0 -2 -1t-4 -1q-14 -6 -28.5 -11t-29.5 -13q-23 -12 -44 -24.5t-44 -24.5q-10 -2 -20 -13q-78 -49 -148 -96q-23 -14 -44 -28.5t-44 -28.5q-12 -10 -33 -17q-16 -10 -31.5 -7t-29.5 13q-4 0 -4 5q-27 37 -27 75z" />
<glyph unicode="G" horiz-adv-x="1157" d="M-37 37q0 33 6 67q0 12 3 24.5t3 25.5q4 25 10.5 48t14.5 46q18 57 45 106q10 16 15.5 35t13.5 35q6 16 12 30.5t20 26.5q12 12 17 33q6 25 22 37q14 16 21 31q4 16 13 32.5t20 32.5q4 8 8 15.5t8 17.5q4 16 10 28.5t17 24.5q8 8 14 16.5t14 16.5q27 23 35 55 q4 16 12.5 30.5t18.5 27.5q18 23 32.5 45t26.5 49q10 16 21.5 33.5t23.5 33.5q45 59 95.5 112.5t101.5 107.5q25 29 51.5 53t52.5 49q23 20 45.5 37.5t49.5 34.5q12 10 24 17t23 17q20 16 41 17q10 2 18 4l16 4q16 0 23 -2q12 -4 25.5 -8t23.5 -10q18 -6 25 -27 q4 -8 1 -17.5t-12 -13.5q-2 -2 -6 -2q-41 -14 -75.5 -36.5t-69.5 -47.5q-47 -37 -92 -76t-86 -79q-59 -55 -113.5 -116t-107.5 -122q-41 -47 -77 -96t-73 -99q-6 -10 -14 -20t-15 -21q-29 -47 -55.5 -92t-52.5 -92q-23 -45 -41 -88q-20 -45 -41 -90t-37 -92q-12 -29 -18 -64 q-2 -16 -5.5 -29.5t-7.5 -29.5q-6 -20 -8 -42l-4 -44v-23q0 -27 25 -51q19 -18 45 -18q8 0 16 2q41 6 77 23.5t68 43.5q10 8 19.5 16.5t19.5 16.5q37 33 82 64q10 8 21.5 14t21.5 12q18 23 39 41.5t37 40.5q12 12 23 29q16 18 34.5 32.5t40.5 26.5q12 0 19.5 8.5t13.5 18.5 q8 10 19.5 20.5t23.5 20.5q10 10 21.5 18t23.5 19q4 4 9.5 10t7.5 14q8 20 19 35.5t26 30.5q23 16 35 38.5t24 45.5q8 16 16.5 32.5t16.5 34.5q12 25 24.5 51.5t24.5 53.5q4 8 6 15t4 13q4 8 -6 13h-6q-10 0 -18.5 -4t-16.5 -9q-14 -10 -27.5 -19t-25.5 -22 q-23 -20 -46.5 -36.5t-45.5 -34.5q-10 -6 -19.5 -11.5t-19.5 -11.5q-8 -4 -16.5 -5t-18.5 -1q-31 4 -39 29q-4 6 -5 13t-5 15q-2 4 0 10.5t4 10.5q4 2 6 5t6 5q41 37 85 72t91 63q37 23 75 45.5t79 40.5q25 10 45 35q4 6 10 12l12.5 12.5t16.5 6.5q18 4 33.5 9t31.5 7 q16 4 33 7.5t33 7.5q10 4 20 0q16 -2 25 -17q6 -12 -2 -26q-14 -23 -31 -33q-43 -29 -65 -78q-18 -35 -38 -68.5t-36 -68.5q-20 -33 -23 -68q-2 -10 -4 -16t-4 -14q-4 -6 -6 -12.5t-6 -14.5q-6 -10 -12 -18.5t-15 -16.5q-14 -16 -25 -34.5t-22 -39.5q-18 -33 -32 -65 q-10 -20 -20.5 -40t-20.5 -40q-14 -27 -26.5 -52.5t-23.5 -54.5q-8 -23 -16 -42t-18 -39q-92 -195 -168 -394q-16 -41 -29.5 -79.5t-30.5 -77.5q-6 -14 -14 -19q-10 -4 -12 2q-10 4 -13.5 13.5t-7.5 15.5q-12 16 -6 37q4 23 6 43t6 43q4 25 10.5 48t12.5 46q4 8 6 16.5 t6 18.5q16 33 29.5 67.5t23.5 69.5q4 10 6.5 17.5t6.5 17.5q8 14 14 28.5t12 30.5q10 29 21.5 55.5t27.5 53.5q12 18 19.5 38.5t13.5 41.5q2 12 -4 14t-12 -4q-6 -4 -15 -17q-41 -45 -77 -90q-37 -51 -79 -96t-85 -90q-29 -29 -57.5 -54.5t-57.5 -51.5q-25 -23 -61 -39 q-10 -4 -18.5 -7.5t-16.5 -7.5q-18 -6 -39.5 -10t-44.5 -4h-9t-10 2q-16 4 -32.5 5t-32.5 5q-33 10 -51 29q-16 16 -28.5 33.5t-25.5 36.5q-16 31 -14 57z" />
<glyph unicode="H" horiz-adv-x="1253" d="M-31 426q-2 4 1 11t7 9q12 8 19 11q23 12 42 24.5t40 28.5q10 8 23.5 15t25.5 16q35 18 67.5 36.5t67.5 38.5l19 13q14 10 18 22q8 16 13 30.5t10 31.5q10 35 21 70.5t24 72.5q6 18 11 37.5t9 40.5q10 47 20.5 93t26.5 91q4 8 5 15.5t3 13.5q2 16 -4 37q-10 18 13 26 q4 2 10 4.5t10 2.5q18 10 41 -5l6 -4q14 -6 21 -22q10 -23 6 -49q-10 -57 -25 -109q-6 -25 -12 -49.5t-16 -48.5q-25 -90 -54 -185q-4 -12 -4 -22q4 -14 17 -14q6 2 11 2t11 2q37 10 73 24.5t70 30.5q117 49 234 92q41 16 80 30.5t78 31.5q25 10 47 20t47 21q4 0 6 3t6 7 q8 16 12 26q4 14 8.5 27.5t8.5 28.5q6 25 9 51.5t13 48.5q2 4 2 16q0 25 6.5 49.5t12.5 51.5q4 20 7 39.5t7 40.5q6 23 9 44t8 44q2 45 18 92q4 10 17.5 18.5t25.5 5.5q25 -6 35 -22t12 -35v-26q2 -29 -4 -59t-14 -60q-10 -43 -19.5 -87t-21.5 -87q-6 -18 -11.5 -38 t-9.5 -40q-18 -72 -40.5 -141.5t-45.5 -141.5q-8 -35 -24 -78q-6 -18 -12.5 -36.5t-14.5 -38.5q0 -12 -6 -21q-23 -53 -39 -107.5t-35 -109.5q-10 -35 -22.5 -69.5t-24.5 -69.5q-14 -45 -29.5 -88t-31.5 -86q-10 -29 -20.5 -58.5t-18.5 -60.5q-12 -53 -31 -98 q-8 -16 -16.5 -34t-16.5 -34q-2 -4 -10 -8q-4 0 -10 4t-6 10q-4 8 -5 29v6q4 18 11.5 35.5t3.5 38.5q4 16 6 31.5t6 31.5q4 23 10 47.5t11 46.5q0 12 4 25.5t8 24.5q16 35 25.5 69.5t19.5 71.5q0 12 6 29q4 18 9 35.5t14 33.5q10 23 18 44.5t18 43.5q2 10 4.5 18.5t4.5 18.5 q4 6 4 14.5t4 12.5q10 20 16 41.5t15 44.5q8 25 16 51.5t20 50.5q6 16 11.5 31.5t9.5 32.5q4 18 2 28q-2 6 -8 12.5t-13 4.5q-4 -2 -10 -2t-10 -2q-20 -6 -38.5 -12.5t-39.5 -16.5q-59 -27 -118.5 -51.5t-118.5 -46.5q-4 -2 -10.5 -3t-10.5 -6q-35 -18 -70.5 -31.5 t-70.5 -29.5q-35 -14 -69 -29.5t-66 -34.5q-6 -4 -12.5 -7t-10.5 -7q-12 -12 -16 -18q-4 -10 -9.5 -19.5t-9.5 -19.5q-18 -49 -35.5 -97.5t-33.5 -97.5q-16 -37 -28.5 -74.5t-23.5 -78.5q-2 -10 -5 -18.5t-7 -16.5q-10 -16 -29 -23q-12 -4 -24 4.5t-14 20.5q-6 8 -7 20 q2 27 5.5 52.5t11.5 50.5q12 35 21.5 69.5t23.5 69.5q4 14 8 25.5t4 25.5q2 8 -4 15q-4 0 -7 2t-5 0q-6 -2 -11.5 -3t-11.5 -6q-18 -10 -36.5 -21t-39.5 -22q-27 -16 -53 -22q-16 -6 -37 -2q-16 2 -25 7t-14 22q0 4 -2 9t-4 11z" />
<glyph unicode="I" horiz-adv-x="819" d="M-27 -274q-8 27 2 38q25 35 48 58q51 49 116 94l49 37q10 8 17.5 16t17.5 17q16 16 23 34q10 31 18 62t19 59q4 8 8 17.5t6 19.5q2 8 2 16.5t4 16.5q2 8 7 21.5t10.5 26.5t9.5 25.5t6 20.5q4 16 6 34.5t8 35.5q12 41 27.5 91t30.5 93q25 92 45 171t47 171q4 14 11 39 t13 51.5t11.5 52t9.5 41.5q6 27 6 39.5t-1 22.5t-1 22.5t4 40.5q0 16 -2 25q0 6 -5 12t-9 4h-15q-29 -10 -53.5 -23.5t-48.5 -27.5q-24 -16 -48 -16q-12 0 -24 4q-8 2 -20 10q-12 10 -15.5 30.5t2.5 33.5q4 4 5.5 7t5.5 5q12 14 26.5 24.5t30.5 20.5q20 12 41.5 24.5 t44.5 22.5q29 10 56.5 22.5t56.5 22.5q6 4 13 5t15 5q43 12 87 18.5t87 16.5q14 2 28 2t30 2q4 0 11 -1t15 -1q4 -2 7.5 -3t7.5 -3q8 -4 14 -13t6 -20q0 -10 -5 -19t-15 -14q-6 -2 -23 -6q-27 -10 -53.5 -17t-52.5 -17q-12 -4 -24.5 -9.5t-24.5 -11.5q-27 -8 -33 -43 q-4 -18 -7 -37.5t-8 -38.5q-4 -49 -13 -94t-19 -92q-14 -61 -28.5 -121.5t-33.5 -120.5q-10 -29 -18 -59.5t-15 -63.5q-10 -29 -19 -59.5t-19 -60.5q-20 -61 -41 -121t-37 -123q-4 -12 -6 -17q-16 -35 -25.5 -71.5t-20.5 -71.5q-10 -35 -10 -61q0 -6 6.5 -14.5t14.5 -6.5 q25 2 49 12q27 10 53.5 20.5t52.5 20.5q41 18 82 29.5t82 26.5q29 8 53 2q12 0 17 -15q2 -12 -4 -22l-13 -12q-4 -4 -12 -9q-76 -37 -151 -75q-53 -27 -106.5 -49.5t-106.5 -51.5q-12 -8 -24.5 -14t-22.5 -14q-39 -29 -79 -56.5t-77 -62.5q-20 -18 -42 -34.5t-44 -33.5 q-23 -16 -47 -22q-10 -6 -29 2q-25 10 -31 35z" />
<glyph unicode="J" horiz-adv-x="1275" d="M16 993q4 18 15 33q16 25 33.5 45.5t39.5 40.5q10 10 21.5 18.5t21.5 18.5q33 27 66 51.5t66 46.5q29 16 54 36t52 38q25 18 49 29q35 10 53 26q16 10 33 17q20 10 41 17t43 15q47 16 97.5 23.5t99.5 9.5q23 0 42 -1t42 -1q47 0 94 -11t92 -30q63 -27 109 -76 q25 -27 44 -56.5t29 -63.5q10 -35 11 -66v-49v-26.5t2 -20.5q4 -16 2 -32.5t-4 -33.5q-2 -23 -6.5 -45t-20.5 -41q-4 -8 -8 -20q-20 -47 -45 -93.5t-47 -93.5q-18 -37 -41 -70.5t-45 -68.5q-18 -29 -37 -55.5t-39 -54.5q-6 -10 -12.5 -18.5t-14.5 -16.5q-39 -43 -73.5 -89 t-73.5 -89q-16 -16 -30.5 -32t-31.5 -32q-29 -25 -56.5 -49.5t-49.5 -52.5q-14 -14 -21 -23q-59 -51 -118.5 -101t-126.5 -91q-20 -12 -41 -25.5t-43 -24.5q-23 -14 -54 -24q-25 -10 -50 -13.5t-52 -3.5q-39 4 -64 23q-4 4 -8 7t-8 7q-16 14 -20 39q-2 16 -2 32q0 32 8 65 q12 45 35 79q16 25 30.5 49.5t30.5 47.5q2 2 2 3t2 3q6 10 14.5 15t14.5 16q6 10 11 20t11 20q4 8 11.5 14.5t11.5 14.5q16 16 29.5 33.5t29.5 34.5q6 14 19 22q27 27 52 53.5t54 51.5q12 14 24.5 26.5l26.5 26.5q20 18 39 35.5t37 34.5q29 25 59.5 47t59.5 45q10 8 22.5 16 t26.5 14q2 2 3 2.5t3 2.5q16 10 31.5 20t32.5 21q16 10 31.5 19t31.5 19q12 10 33 17q4 4 10 5t10 5q49 35 103.5 64.5t107.5 58.5q4 0 5.5 1t3.5 1q25 16 32 41q14 29 21 63l8 62t4 63q4 31 -8 58q-6 12 -8 24.5t-6 26.5q-12 43 -43 76q-8 10 -14.5 18t-14.5 16 q-31 37 -76 43q-29 6 -58.5 9.5t-58.5 -0.5q-59 -4 -110 -13q-27 -6 -41 -10t-26.5 -7t-26 -9t-33.5 -15q-31 -12 -59.5 -25t-57.5 -32q-74 -47 -146.5 -99t-138.5 -112q-25 -23 -49 -45t-47 -45q-10 -8 -18 -15t-17 -14q-4 -4 -10 -6t-10 -6q-12 -4 -27.5 -2t-25.5 18 q-4 8 -9 13q-2 8 -2 22zM111 -123q0 -12 9 -23.5t21 -15.5q23 -8 41 -2q29 10 57.5 20.5t53.5 24.5q35 16 67.5 33.5t61.5 40.5q23 16 45 33.5t43 36.5l9 9t11 9q18 10 34 24.5t30 30.5q68 76 141 154q29 33 56.5 66.5t56.5 68.5q12 16 22.5 31.5t14.5 34.5q2 20 16 41 l37 55q27 47 54.5 90t51.5 90q8 16 14.5 33t10.5 35q0 6 2 8q0 6 -6 13t-14 5q-10 0 -15 -2q-23 -10 -44 -20t-44 -21q-23 -12 -44 -23.5t-44 -27.5q-8 -6 -15 -12t-16 -10q-31 -16 -58.5 -35t-55.5 -37q-63 -41 -124 -87t-114 -99q-4 -4 -9 -8.5t-9 -8.5 q-23 -16 -42.5 -35.5t-37.5 -40.5q-10 -12 -21.5 -25.5t-23.5 -25.5q-23 -23 -37 -45q-12 -23 -24.5 -42t-28.5 -38q-29 -35 -51.5 -73.5t-40.5 -79.5q-12 -29 -22.5 -58.5t-16.5 -62.5q0 -8 -1 -14.5t-1 -14.5z" />
<glyph unicode="K" horiz-adv-x="1247" d="M-14 696q2 8 8 15q8 10 14 19t15 20q35 41 68.5 80.5t68.5 80.5q8 10 16 19.5t14 19.5q25 35 53.5 64.5t55.5 60.5q4 4 8 9.5t10 9.5q51 43 95 94q10 10 20 19.5t21 19.5q45 37 89 73.5t91 71.5l12 8t12 9q47 39 97.5 70.5t101.5 60.5q22 14 53 14q6 -2 17.5 -3t21.5 -5 q12 -2 29 -15q30 -15 30 -47q0 -6 -1 -12q-2 -20 -5.5 -39.5t-7.5 -38.5q0 -6 -2 -12l-4 -12q-4 -6 -7 -13.5t-7 -15.5q-18 -37 -36.5 -75t-37.5 -77q-4 -8 -12 -28q-25 -35 -44.5 -74t-39.5 -78q-12 -23 -24.5 -46t-22.5 -46q-4 -10 -10.5 -20.5t-10.5 -22.5 q-8 -18 -15 -36.5t-13 -39.5q-6 -16 -15.5 -30.5t-13.5 -32.5v-8q4 -8 14 -5q18 12 37 24.5t35 29.5q23 23 50.5 42t55.5 40q18 14 37 27.5t39 27.5q4 4 9.5 7t9.5 7q25 25 52 44.5t54 41.5q6 4 13.5 8.5t11.5 8.5q43 37 98 69q33 20 55 45q10 10 21.5 20.5t27.5 16.5 q23 8 43.5 20.5t40.5 28.5q41 37 84 58q12 4 23.5 13t23.5 17q10 10 26.5 7.5t31.5 -13.5q4 -4 3 -11t-5 -11q-39 -23 -74 -47.5t-70 -53.5q-57 -51 -131 -88q-16 -6 -28.5 -14t-26.5 -16q-53 -31 -98 -68q-10 -10 -20.5 -18.5t-22.5 -16.5q-63 -43 -125 -98 q-33 -33 -66 -63.5t-65 -63.5q-4 -6 -9.5 -12t-11.5 -13q-16 -20 -2 -45q4 -4 5 -7t5 -7q27 -35 37 -86q10 -31 17.5 -61.5t15.5 -61.5q16 -63 40 -124.5t58 -119.5q23 -47 52.5 -91t64.5 -85q35 -47 72 -92t76 -86q16 -20 26 -49q4 -10 -6 -14q-6 -6 -14 -2q-23 10 -51 34 q-16 12 -32 24.5t-32 27.5q-18 20 -37.5 38.5t-38.5 40.5q-27 31 -50 61t-46 64q-6 10 -12 17.5t-13 15.5q-33 41 -56 86t-50 90q-12 23 -21.5 47.5t-17.5 48.5q-16 53 -33.5 105.5t-34.5 105.5q0 4 -1 5.5t-1 3.5q-2 4 -10 7t-12 1t-7 -3t-7 -3q-10 -8 -18.5 -15.5 t-16.5 -17.5q-43 -51 -87 -102.5t-87 -102.5q-47 -59 -78 -121q-14 -25 -24.5 -50t-31.5 -46q-8 -16 -16 -31.5t-16 -31.5q-16 -41 -37 -83t-43 -83q-10 -20 -20.5 -42t-18.5 -44q-4 -10 -9 -18.5t-9 -16.5q-8 -10 -15 -4q-8 4 -4 14l6 31q8 27 15.5 51.5t17.5 46.5 q6 16 12 30.5t11 31.5q8 20 14 39.5t16 39.5q6 20 11.5 39t9.5 37q2 4 -2 17q-4 10 -11 20q-12 29 5 53q29 39 55 78t55 80q18 29 29 55q10 23 22.5 43.5t22.5 40.5q18 33 37.5 67t29.5 68q4 12 10.5 24.5t16.5 25.5q14 23 25.5 44t21.5 46t21.5 47t25.5 43q4 6 7.5 14 t7.5 14q10 23 19 45.5t20 45.5q10 23 18 47t18 49q10 23 21.5 45t21.5 47q29 70 45 154v16q0 6 -7 12t-13 6q-4 -2 -8 -2t-8 -2q-29 -12 -54 -32q-43 -31 -83 -63t-81 -64q-23 -18 -42 -37t-37 -41q-18 -20 -38 -40l-40 -40q-20 -25 -41 -47.5t-43 -46.5q-35 -43 -70 -83 t-63 -87q-27 -29 -49.5 -62t-45.5 -65q-4 -6 -16 -19q-16 -12 -29 -12q-33 -2 -59 16q-10 6 -14 19q-6 10 -2 22z" />
<glyph unicode="L" horiz-adv-x="845" d="M10 446q10 4 18.5 9.5t20.5 11.5q10 0 22.5 4t22.5 4q104 16 178 41t148 78q8 4 13 5t9 7q41 29 68 75t43 83q2 14 11 34.5t21.5 40t27 34t30.5 14.5q-29 -63 -35 -102.5t4 -28.5q12 8 38 43t55.5 78t59.5 87t48 72q20 25 47 67t37 71q8 31 24.5 65.5t34 72.5t33 75.5 t21.5 72.5q-18 6 -49 -16.5t-60 -54t-53.5 -61.5t-30.5 -40q-20 -35 -48 -83t-52 -83q-4 -8 -27 -12q8 18 12.5 31.5t6.5 29.5q-10 -2 -16.5 -7t-10.5 -7v13.5t4 11.5q35 59 66.5 117.5t68.5 111.5q23 18 37 41t27 47q6 6 6 19.5t4 25.5q29 14 60.5 19.5t60.5 5.5 q88 -8 88 -78q-4 -23 -10.5 -44.5t-8.5 -47.5q-33 -129 -106 -258q-53 -98 -111.5 -195.5t-130.5 -187.5q-18 -25 -31.5 -43.5t-25.5 -34.5t-27.5 -33.5t-38.5 -38.5q-23 -23 -41 -44t-28 -56q-23 -96 -51.5 -193.5t-57.5 -193.5q0 -14 10 -15q10 -10 21.5 -8t24.5 8 q80 16 162.5 30t164.5 14q24 1 47 1q85 1 163 -11q99 -14 198 -42q57 -16 111.5 -37.5t107.5 -52.5q44 -24 60 -58q5 -11 5 -20q0 -23 -24 -45q-8 4 -17.5 11.5t-15.5 13.5q-63 53 -136 80.5t-153 50.5q-105 29 -207 34q-34 2 -68 2q-69 0 -138 -7q-150 -16 -286 -64.5 t-251 -126.5q-43 -29 -98 -49q-10 -6 -23.5 -2t-30.5 8q-10 6 -14 19.5t6 23.5q0 4 1 9.5t7 13.5q41 25 81 51.5t79 46.5q25 16 51.5 27.5t51.5 21.5q18 34 18 68v7v11q0 32 10 64q16 37 24.5 74.5t18.5 72.5q6 31 22.5 68t16.5 75q-23 -4 -41 -14t-41 -16 q-29 -10 -58.5 -19.5t-62.5 -19.5q-43 -11 -83 -11h-6q-42 1 -89 17l-22.5 9t-22.5 11z" />
<glyph unicode="M" horiz-adv-x="1277" d="M-160 207q0 16 10.5 19t14.5 7q23 31 45 61t45 68q70 111 135.5 222.5t134.5 222.5q86 145 172 282.5t172 282.5q6 14 12.5 20.5t10.5 16.5q35 4 50 -22.5t30 -47.5q-2 -29 -8.5 -50t-16.5 -44q-25 -31 -38 -71.5t-23 -81.5q-14 -59 -32.5 -128t-33 -139.5t-19.5 -139.5 q-1 -20 -1 -40q0 -47 8 -88q14 -2 43 22.5t59.5 58.5t57 69.5t41.5 56.5l15 15t15 20q49 43 91 97t82 112.5t79 115t82 101.5q61 78 109 166q23 29 49 30.5t55 8.5q31 0 45.5 -11.5t24.5 -36.5q-23 -66 -49.5 -132t-49.5 -132q-41 -100 -77.5 -196.5t-68.5 -192.5 t-57.5 -196.5t-41.5 -210.5q-6 -37 -12.5 -81t-10.5 -91.5t-6 -92.5q-1 -15 -1 -29q0 -29 3 -55q0 -47 10.5 -87t22.5 -81q16 -25 39.5 -40t52.5 -11q49 16 99.5 53t97.5 70q43 35 81.5 71t79.5 72l93 86q10 -16 -7.5 -46.5t-46 -66.5t-59.5 -71t-47 -55q-45 -43 -85 -84 t-82 -66.5t-91 -29.5h-11q-45 0 -102 28q-37 16 -64.5 40t-37.5 67q-14 25 -15 45q-15 123 -15 247v16q1 132 30 273q16 86 34.5 169t41.5 165q12 47 27.5 94.5t25.5 88.5q2 12 12 36.5t20.5 53t18.5 57.5t8 53q-6 -8 -18.5 -25.5t-25.5 -36t-23.5 -33.5t-12.5 -21 q-92 -111 -180 -220.5t-174 -218.5q-16 -20 -32.5 -40.5t-35.5 -35.5q-23 -18 -51 -23t-55 3t-49.5 27.5t-32.5 50.5q-6 10 -7 20.5t-1 20.5q0 31 4 67.5t8 71.5q0 18 1 42t3 48.5t4 47t6 38.5q2 8 -4 2t-15 -18.5t-18.5 -24.5t-13.5 -16q-27 -53 -56.5 -98.5t-57.5 -94.5 q-59 -90 -113.5 -157.5t-106.5 -157.5q-10 -16 -24.5 -37.5t-29.5 -43t-32.5 -40t-33.5 -27.5q-18 -8 -30.5 -13t-22 -4t-19.5 9t-27 25z" />
<glyph unicode="N" horiz-adv-x="1251" d="M-244 -109q20 45 43 82q25 35 46.5 73t41.5 83q27 53 55.5 108.5t57.5 108.5q14 27 28.5 54.5t24.5 52.5q35 72 69 140.5t71 143.5q41 78 79.5 159t71.5 167q23 47 39 96t29 103q6 27 10 54t4 56h39q18 -10 38.5 -16t39.5 -17q6 -29 6 -54t16 -54v-27q0 -59 -5 -120.5 t-9 -120.5q-11 -123 -27 -245q-9 -74 -10 -151q0 -50 4 -100q6 -43 13.5 -89t19.5 -87q4 -23 15.5 -43.5t21.5 -40.5q8 -18 28.5 -28.5t44 -15.5t47 -5t40.5 6q25 16 51 28.5t48.5 26.5t40 33.5t25.5 50.5q2 12 10.5 31.5t16.5 39t16.5 39t12.5 31.5q49 145 94 268.5t94 238 t106.5 227t131.5 239.5q6 4 8 13.5t8 13.5q14 20 23.5 34.5t19.5 19.5t22.5 -1t32.5 -24q0 -23 -10 -39.5t-20 -32.5q-86 -117 -146.5 -231.5t-108.5 -231.5t-91 -236.5t-93 -248.5q-35 -98 -61 -185q-12 -47 -30.5 -94t-47.5 -90q-16 -10 -23.5 -13t-27.5 -14v76 q-25 -4 -46.5 -9t-39.5 -11q-42 -15 -76 -15q-26 0 -47 8q-49 20 -106 68q-43 37 -63.5 87t-30 105.5t-9.5 112v103.5q12 92 15.5 205.5t11.5 205.5v19q0 4 -2 4t-4 2q-2 0 -4 2q-6 -6 -15.5 -23.5t-18.5 -36t-16.5 -36t-9.5 -25.5q-74 -154 -151.5 -294t-161.5 -298 q-39 -86 -89 -172t-98 -172q-10 -14 -22 -29.5t-33 -27.5q-27 -14 -41 -22.5t-37 7.5z" />
<glyph unicode="O" horiz-adv-x="1075" d="M-16 37q0 35 1 69.5t7 71.5q4 59 19.5 116.5t31.5 125.5q35 104 79 208.5t97 205.5q59 121 134 229t173 207q31 20 55.5 44.5t59.5 43.5q16 18 43.5 22t58.5 -14q33 23 62 43.5t51 42.5q25 27 76 27h12q14 1 27 1q118 0 159 -98q16 -43 24 -85q4 -20 3 -41q0 -22 -4 -44 q-12 -82 -36.5 -156.5t-55.5 -142.5q-57 -145 -127 -276t-162 -260q-47 -66 -89 -128.5t-95 -127.5q-78 -106 -201 -197q-39 -29 -84 -42t-98 -21h-31q-80 18 -130 61t-60 115zM72 141q0 -29 1 -54.5t7 -53.5q0 -16 10 -36t23 -40q6 -12 18 -20.5t28.5 -13.5t34 -5t31.5 6 q18 6 36 12.5t34 18.5q53 43 103.5 82t90.5 86q86 86 153 185.5t122 195.5q41 70 72.5 134t72.5 136q51 94 82 194.5t56 205.5q10 43 11 86v17q0 34 -3 69q-6 41 -45 59q-18 8 -37 8q-23 0 -49 -12q-41 -12 -76 -48t-62 -65q-78 -90 -145.5 -190.5t-114.5 -210.5 q-12 -29 -21 -59.5t-16 -61.5q-4 -23 -7 -46.5t0 -45t16.5 -39t42.5 -27.5q16 -6 19 -9t-9 -19q-9 -1 -18 -1q-41 0 -70 16q-35 19 -60 56q-25 35 -25 83q0 18 4 39q14 73 47.5 149.5t73.5 144.5t60 109q-20 -18 -42.5 -48t-45 -63t-43 -64.5t-35.5 -52.5 q-47 -70 -82.5 -134t-70.5 -140q-59 -129 -102.5 -263.5t-69.5 -269.5z" />
<glyph unicode="P" horiz-adv-x="1570" d="M33 473q37 4 55 -2t37 -25q12 -16 30.5 -29.5t47.5 -13.5q33 0 71.5 1.5t73.5 5.5q16 0 28.5 12t24.5 18q12 16 21.5 27.5t15.5 28.5q43 88 90 178t97.5 177t102.5 166t101 144q10 12 19.5 21.5t3.5 27.5q0 10 9 19.5t20 15.5q13 2 25 2q45 0 91 -22q10 -23 -6 -45 q-18 -20 -36.5 -41t-41.5 -41q-45 -63 -99 -144.5t-108.5 -168.5t-104.5 -174t-85 -160q33 0 39 4q180 66 349 131t335 157q55 33 128 91.5t144.5 129t130 148.5t82.5 150q13 40 12 76q0 30 -8 58q-20 60 -106 97q-35 14 -68.5 18.5t-70.5 4.5q-32 1 -64 1q-67 1 -133 -5 q-98 -8 -196 -33q-111 -25 -217.5 -60t-204.5 -86q-117 -59 -217.5 -135t-174.5 -178q-29 -37 -46 -80t-21 -90q0 -37 14.5 -63.5t61.5 -43.5q6 -4 15 -11t13 -11q14 -4 18.5 -14.5t14.5 -20.5q-29 -10 -52.5 -7t-39.5 7q-23 10 -45.5 18.5t-38.5 22.5q-29 23 -51.5 49.5 t-34.5 57.5q-4 16 -3 33.5t11 37.5q20 43 43 86t51 84q10 23 27.5 39t40.5 33q12 10 19.5 20.5t19.5 22.5q104 94 237 162q92 47 184.5 89t190.5 70q53 8 104.5 21.5t108.5 26.5q74 12 154 12q41 6 81 7t79 1q63 0 124.5 -7t118.5 -30q117 -38 154 -108q19 -36 19 -75 q0 -37 -17 -77q-23 -66 -72 -143.5t-118.5 -157.5t-156.5 -156.5t-186 -142.5q-88 -59 -179 -101t-185 -76t-191.5 -62.5t-195.5 -59.5q-18 -6 -35.5 -8t-30.5 -13q-4 -16 -13 -32.5t-13 -32.5q-14 -35 -19.5 -51.5t-7.5 -30.5t-6 -31.5t-14 -52.5q-12 -41 -17.5 -80 t-9.5 -82q-6 -14 2 -23t0 -30v-14q-16 0 -27.5 2t-15.5 12q-20 10 -26.5 31.5t-12.5 36.5q0 6 3 7t-3 1v16v12q-3 17 -3 34q0 19 4 37q7 34 11 71q4 45 16.5 82t35.5 90q-18 4 -30.5 5t-27.5 1q-23 0 -45 4t-45 4q-47 0 -82 17.5t-72 44.5q-31 20 -30 63z" />
<glyph unicode="Q" horiz-adv-x="1157" d="M-9 198q3 48 13 103q31 86 58.5 175t66.5 169q29 59 51.5 116.5t50.5 110.5q12 29 22.5 51.5t27.5 43.5q18 29 33.5 57.5t27.5 62.5q0 8 6 18.5t19 14.5q14 10 24 28.5t15 35.5q16 41 46.5 74.5t55.5 60.5q31 23 64 30q7 2 14 2q25 0 47 -18q6 -4 12 -10t12 -10 q-4 -2 -7 -3t-5 -3q-4 -2 -4 -4q-45 -14 -78 -44t-61 -61q-92 -109 -154.5 -232.5t-118.5 -254.5q-25 -59 -48 -111.5t-36 -118.5q-10 -55 -32.5 -108.5t-34.5 -106.5q-8 -53 -12 -108v-16q0 -48 18 -99q10 -33 29.5 -50.5t54.5 -29.5q29 -16 65.5 -16t71.5 16q2 2 4 6t4 5 t6 6q-16 8 -26 26q-31 31 -39 57q-20 68 -20 132v20q4 74 20 141q10 84 32.5 159t55.5 147q29 59 55.5 114t55.5 109q4 10 11 20t17 21q4 -16 4 -32t-4 -32q-4 -23 -11 -45t-17 -45q-18 -53 -38 -109.5t-36 -111.5q-29 -72 -46.5 -146.5t-27.5 -154.5v-107q0 -8 1 -13t7 -13 q0 -6 4.5 -8.5t8.5 -6.5q12 4 27.5 10.5t25.5 10.5q37 20 80 27.5t90 17.5q4 0 13 -1t20 -11q14 0 24 7t21 17q45 35 87 76t74 88q31 41 64 78t59 80q6 0 10.5 5t4.5 9q29 49 55.5 97.5t54.5 97.5q12 20 21 37q6 4 11 12t5 12q4 35 18.5 67.5t18.5 65.5q16 70 24 143 q4 28 4 56q0 44 -8 86q-10 41 -26.5 82t-46.5 69q-25 37 -72 45q-9 1 -18 1q-35 0 -62 -25q-27 -8 -35 -29q-14 0 -24 -14q-47 -4 -79 -39t-67 -68q-29 -23 -54 -52.5t-46 -51.5q-4 -8 -7 -9t-18 -1v22q14 10 23.5 16.5t13.5 16.5q16 18 35 35.5t27 44.5q10 27 29.5 45 t31.5 35q25 23 41.5 39t32.5 39q31 43 96 43q37 0 74 -2t72 -19q51 -23 79.5 -62.5t47.5 -88.5q33 -81 33 -163q0 -51 -13 -102q-10 -70 -31.5 -138t-48.5 -136q-16 -33 -37.5 -67.5t-44.5 -65.5q-33 -51 -65.5 -95t-65.5 -94q-35 -43 -70.5 -87t-66.5 -93 q-16 -14 -30.5 -28.5t-14.5 -36.5q10 -16 25.5 -19.5t25.5 -3.5q66 -8 127.5 -21.5t122.5 -25.5q25 -10 50.5 -25.5t35.5 -48.5q-16 -10 -29.5 -4t-29.5 17q-16 4 -33 8t-33 10q-16 0 -32.5 3t-32.5 3q-16 4 -36 6t-38 8q-16 0 -31.5 5.5t-32.5 11.5q-16 0 -33.5 3t-29.5 3 q-18 8 -34.5 9t-35.5 1q-41 -35 -81 -66.5t-81 -56.5q-53 -39 -109 -64.5t-118 -25.5h-12q-91 0 -157 55q-71 58 -93 158q-8 41 -8 79q0 11 1 23zM373 6h26q35 14 61.5 34.5t47.5 55.5q-41 -18 -75.5 -35.5t-59.5 -54.5z" />
<glyph unicode="R" horiz-adv-x="1384" d="M10 655h41q45 -12 86 -26.5t84 -26.5q6 0 14.5 1t14.5 5q31 53 62.5 97.5t54.5 97.5q12 31 25.5 55.5t33.5 48.5q25 33 45.5 77t40.5 88t40.5 83t43.5 59h25q16 -6 24 -17t14 -28q6 -16 2 -28.5t-10 -22.5q-47 -55 -83 -119.5t-72 -136.5q12 -29 17 -62.5t9 -68.5 t9.5 -67.5t17.5 -59.5q23 -14 44 -5t44 15q104 23 197.5 57t191.5 72q106 47 180 98.5t144 125.5q66 75 84 147q9 34 9 66q0 35 -11 67q-18 55 -63.5 91t-106 57.5t-130.5 30.5q-70 10 -138 11h-33q-51 0 -97 -2q-62 -3 -102 -5q-121 -12 -229.5 -49.5t-213.5 -106.5 q-23 -12 -41 -28.5t-36 -31.5q-27 -23 -47.5 -35t-40 -14t-43 8.5t-54.5 32.5q4 12 10.5 25.5t12.5 17.5q41 35 82 68t88 61q111 63 225.5 96t237.5 56q85 11 170 10q99 0 199 -14q186 -27 337 -115q37 -16 65.5 -49t44 -74t17.5 -85q0 -6 1 -11q0 -38 -13 -68 q-29 -88 -74 -151.5t-104 -118.5q-61 -55 -126 -89t-132 -73q-55 -31 -113.5 -53.5t-117 -39.5t-116 -31.5t-114.5 -32.5q-18 -4 -32.5 -5.5t-31.5 -7.5q35 -129 79 -225t118 -172q51 -57 111.5 -104.5t126.5 -73.5q156 -64 322 -64q90 0 183 19q10 0 31 13t37 13 q-10 -29 -22 -41q-41 -25 -81 -44q-30 -14 -65 -14q-11 0 -22 1q-73 0 -141 -1h-8q-65 0 -130 15q-354 74 -563 443q-29 47 -50.5 103t-49.5 120h-123q-10 -25 -21.5 -43t-21.5 -41q-53 -104 -110.5 -204.5t-115.5 -205.5l-6 -10q-8 0 -13 -3t-11 3q0 8 -3.5 12.5t3.5 10.5 q10 35 17 66.5t7 66.5q0 10 4 21.5t8 15.5q29 35 38.5 79t31.5 80q18 35 34.5 76t35.5 82q-47 20 -87 46t-81 46q-14 16 -25 47zM395 639q0 -12 11 -12l4 2q4 4 12 4q-6 4 -8 10t-8 12l-7 -6q-4 -8 -4 -10z" />
<glyph unicode="S" horiz-adv-x="1208" d="M-4 825q82 106 177 200.5t192 184.5q25 23 51 41.5t51 38.5q16 18 34.5 33.5t35.5 30.5q14 18 38 26q25 6 40.5 16.5t21.5 33.5q4 16 16.5 27t28.5 18q29 10 61.5 27.5t67.5 25.5q45 12 87 12q14 0 26 -1q54 -5 104 -28q10 -4 17.5 -14t11.5 -16q14 -25 -1.5 -41.5 t-49.5 -16.5h-19q-27 15 -52 15q-13 0 -25 -4q-36 -12 -76 -27q-57 -14 -106.5 -41t-90.5 -61q-18 -16 -34.5 -30.5t-37.5 -29.5q-12 -12 -22.5 -21.5t-22.5 -19.5q-47 -25 -78.5 -54.5t-66.5 -57.5q-63 -55 -112.5 -114.5t-102.5 -119.5q-8 -12 -11.5 -24.5t-15.5 -24.5 q31 -5 59 -5q14 0 26 1q38 4 73 12q63 25 130.5 37t135.5 23q45 5 88 5q180 0 342 -83q88 -45 119 -137q13 -37 13 -75q0 -56 -27 -114q-6 -16 -22.5 -36.5t-27.5 -43.5q-41 -74 -102 -128t-137 -103q-6 -4 -15.5 -5t-15.5 -7q-23 -20 -68 -46t-102 -50.5t-119.5 -46 t-121 -34t-106.5 -13.5h-6q-44 0 -69 15q-10 8 -22.5 18.5t-24.5 20.5q-16 16 -18 29.5t-2 30.5q4 23 6 46t8 42q4 25 11 46t22 46q16 31 38.5 63.5t45.5 67.5q6 6 11 14.5t11 14.5h39q0 -6 4 -14.5t4 -14.5q-10 -27 -23.5 -55.5t-26.5 -59t-21 -62.5q-5 -20 -6 -41 q0 -13 2 -26q0 -39 17 -54t58 -19q29 0 56.5 2t52.5 14q55 27 112.5 42t108.5 32q49 18 99.5 56t93.5 83t77.5 93t53.5 89q16 39 22 82q3 18 3 38q0 26 -5 52q-4 39 -29.5 66.5t-60.5 50.5q-47 23 -90 32t-94 9q-78 0 -161 -10.5t-163 -40.5q-78 -27 -158 -43 q-27 -4 -45 -8.5t-36 -4.5q-39 0 -72 16.5t-49 49.5q-14 16 -21.5 29.5t-11.5 27.5z" />
<glyph unicode="T" horiz-adv-x="600" d="M2 1163q-4 10 2 35l4 4q2 2 10 2q31 -2 62 1t59 5q53 10 99.5 15.5t91.5 12.5t91 19.5t99 38.5q8 6 20.5 26.5t23.5 45.5t21.5 48.5t14.5 35.5q8 27 17.5 49.5t-17.5 48.5q27 6 44.5 8.5t35.5 8.5q29 0 48.5 -16.5t10.5 -39.5q-4 -6 -17 -40.5t-28.5 -73.5t-26 -73 t-3.5 -38q4 0 15 -1t24.5 -1t24.5 1t13 3q31 8 76 13.5t93 10.5t94.5 8t78.5 5q53 10 105.5 12t105.5 6q72 4 141.5 8.5t141.5 8.5q49 0 90 1t79 1t79 -2t94 -6q12 -2 29.5 -2h34t32 -3.5t25.5 -11.5q-6 -12 -59.5 -19t-126 -11t-150.5 -6.5t-133 -4.5q-211 -12 -415 -31.5 t-408 -60.5q-12 -2 -35 -6t-46.5 -9t-43 -13.5t-25.5 -20.5q-41 -86 -69.5 -154.5t-53 -134t-47 -136.5t-49.5 -165q-23 -80 -46.5 -158.5t-35.5 -158.5q-6 -47 -22.5 -103.5t-22.5 -109.5q-6 -16 4 -40t23 -38q10 -4 18 -2t18.5 6t25.5 10t42 13q16 -14 16 -35t-16 -39 q-18 -23 -45 -32t-53 1q-47 10 -80 35t-43 70q0 6 -4 12t-4 12q6 25 7 54.5t5 58.5q4 16 9 47t12.5 63.5t14.5 60t13 38.5q25 68 44.5 139.5t37.5 143t38.5 142t47.5 136.5q4 10 9 18.5t5 18.5q14 37 24.5 65.5t21 55t21.5 56.5t25 71q-8 2 -47 -5.5t-84 -17.5t-83.5 -19.5 t-45.5 -11.5q-31 -10 -59.5 -15t-54.5 -9q-15 -3 -28 -3q-66 0 -85 68z" />
<glyph unicode="U" horiz-adv-x="1099" d="M-25 133q6 66 41 141q25 47 39.5 95.5t30.5 97.5q8 16 17.5 27.5t23.5 27.5q4 23 18.5 45.5t8.5 50.5q0 10 7 23.5t7 26.5q55 129 117.5 257t140.5 253q16 33 33.5 64.5t40.5 66.5q20 14 32.5 10t40.5 -4q16 -4 21.5 -14.5t1.5 -20.5q0 -14 -23 -33q-63 -70 -113 -158 t-85 -167q-37 -92 -79 -183.5t-81 -189.5q-35 -84 -62.5 -165t-54.5 -169q-2 -6 -6 -20.5t-5 -31t0 -32.5t11 -29q12 4 30.5 12.5t36 17.5t33 19.5t23.5 18.5q57 53 113.5 111.5t105.5 124.5q47 63 90 120.5t91 130.5q8 23 29.5 52.5t37.5 52.5q41 35 63.5 76t41 84t38 85 t54.5 78q8 12 17 24.5t17.5 25t11.5 26t-1 25.5q0 10 4 19t8 22q35 43 74 104.5t90 102.5q20 0 34.5 2t37.5 2q33 -4 48 -18.5t3 -37.5q-6 -29 -16.5 -54t-26.5 -56q-39 -63 -78 -124t-59 -126q-49 -141 -90 -285.5t-95 -285.5q-35 -104 -68.5 -208t-68.5 -212 q-16 -57 -37.5 -111.5t-42.5 -107.5q-10 0 -13 -3.5t-20 -3.5q0 53 9.5 107.5t19.5 112.5q51 158 103.5 318.5t117.5 324.5q10 27 16.5 55.5t12.5 58.5q10 47 29.5 92.5t38.5 92.5q2 8 11 30.5t18 47t15.5 46t0.5 29.5v-10q-20 -6 -39 -30.5t-36.5 -52.5t-30.5 -54.5 t-21 -38.5q-72 -125 -141.5 -248t-149.5 -235q-53 -72 -103.5 -134.5t-109.5 -121.5q-39 -39 -76 -71t-94 -61q-43 -23 -88 -23q-1 0 -3 -1q-44 0 -89 16q-57 19 -57 53q0 11 7 25z" />
<glyph unicode="V" horiz-adv-x="575" d="M18 -43q6 29 8.5 54.5t12.5 47.5q18 76 28.5 149t12.5 146v22.5t4 24.5q14 29 14 61t-2 64q1 30 1 59t-1 57q-1 19 -1 39q0 38 3 77q-2 41 -2 83q0 52 3 105q5 96 10 199q0 12 -1.5 21.5t3.5 25.5q0 4 9 13t19 5q14 2 21.5 -4t7.5 -10q20 -27 20 -45q0 -57 4 -115 q1 -24 1 -46q0 -33 -3 -64q1 -42 1 -85q0 -63 -2 -126t-2 -126q0 -42 1 -85q0 -43 -2 -85t-4 -91q-4 -4 0.5 -15.5t24.5 -15.5q23 45 46 88t42 90q43 80 86 161t90 165q29 55 62.5 108.5t70.5 110.5q90 129 187 242q35 41 72.5 78.5t78.5 70.5q23 25 50.5 43.5t51.5 34.5 q10 8 17.5 9t21.5 3q10 4 17.5 -5t3.5 -13q-14 -16 -26.5 -33.5t-26.5 -30.5q-92 -76 -166 -155.5t-148 -159.5q-66 -76 -111.5 -153t-93.5 -158q-78 -129 -137 -262.5t-112 -270.5q-25 -70 -55.5 -143.5t-59.5 -147.5q-4 -4 -4 -9t-4 -11q-20 -33 -47 -39t-62 -2 q-31 27 -33 49z" />
<glyph unicode="W" horiz-adv-x="1523" d="M-28 -52q-1 11 -1 21q1 27 5 55q6 38 16 76.5t20 75.5q6 10 7 18.5t1 18.5q10 72 35 140.5t41 135.5q6 12 12.5 31t12.5 31q4 23 13 42t16 42q12 35 29.5 69.5t33.5 69.5q10 23 23.5 41.5t19.5 40.5q10 29 23.5 57.5t29.5 57.5q47 88 86 171t86 167q10 18 19.5 31.5 t15.5 23.5q6 18 12.5 31.5t12.5 29.5q14 -8 32.5 -16t29.5 -20.5t11.5 -27.5t-14.5 -40q-6 -18 -13 -29.5t-20 -23.5q-16 -31 -28.5 -53.5t-22.5 -44t-23.5 -45t-31.5 -54.5q-23 -41 -50.5 -99.5t-43.5 -105.5q-61 -127 -117 -252q-35 -104 -76 -222t-63 -226 q-16 -74 -24.5 -121t-12.5 -81t-5 -61.5t-1 -64.5q0 -8 22.5 -9t50 3t53 10t31.5 15q39 39 81 77.5t83 92.5q35 47 72 104t65 102q51 88 90 184.5t86 188.5q18 35 37 80t37 80q23 35 27 65.5t20 65.5q31 57 46.5 117.5t31.5 120.5q6 16 13.5 33.5t17.5 33.5q0 6 10 11.5 t23 5.5q23 -6 39 -20.5t26 -33.5q6 -29 2 -52t-10 -48q-10 -41 -17.5 -76t-17.5 -69q-23 -86 -46 -168t-40 -170q-16 -86 -27.5 -172t-17.5 -174q-2 -20 -2 -43q0 -34 5 -75q9 -67 20 -120q0 -6 5 -17.5t11 -21.5q4 -6 14.5 -10t14.5 2q12 0 24.5 5t24.5 11q37 35 85 89.5 t70 107.5q23 45 46.5 86t39.5 88q47 86 75 176t63 182q4 33 10 64t22 59q4 16 10.5 39t12.5 39q6 43 16.5 75t18.5 60.5t14 56t6 62.5t6.5 64.5t16.5 64.5q22 55 22 110q0 40 11.5 69.5t11.5 56.5q16 6 26.5 12t26.5 12v-106q0 -12 -3 -24.5t-3 -29.5q-6 -94 -28.5 -185 t-32.5 -185q-6 -16 -11.5 -34t-5.5 -34q-23 -80 -41 -156.5t-35 -150.5q-25 -76 -49 -148.5t-59 -142.5q-23 -53 -46.5 -108.5t-51.5 -112.5q-18 -41 -44 -78t-49 -78q-23 -33 -60.5 -52t-76.5 -38q-29 -12 -58.5 -8t-58.5 16q-23 16 -31 29.5t-30 30.5q-12 4 -15 15t-8 24 q-12 61 -21 131.5t-12 144.5q-1 25 -1 49q0 49 4 99q6 74 24 139q-4 0 -15 -19.5t-23.5 -44t-23.5 -47t-13 -28.5q-47 -94 -99.5 -181.5t-109.5 -173.5q-41 -66 -83 -125t-96 -112q-29 -23 -50 -31t-54 -21q-25 -7 -47 -7q-10 0 -18 1q-30 4 -58 15q-18 6 -31.5 16t-29.5 16 q-39 23 -39 68q-16 37 -18 75z" />
<glyph unicode="X" horiz-adv-x="1021" d="M-176 -260.5q4 10.5 13 20t18.5 20.5t15.5 25q23 47 52.5 94.5t70.5 88.5q10 4 30.5 29.5t42 56t40 57.5t26.5 35q0 14 14 14q10 10 22.5 21.5t23.5 23.5q20 37 54 77t68.5 77t66.5 68.5t50 54.5q12 14 37 36.5t37 41.5q4 10 -10.5 34.5t-10.5 44.5q-16 55 -37.5 113.5 t-37.5 118.5q-31 78 -51.5 160t-45.5 168q-4 12 -8 28.5t-7 34.5t-5 35.5t-2 28.5q-4 35 -6 55t-15 49q-6 10 0 20.5t25 10.5h27q31 10 41 -4.5t28 -36.5q10 -12 16.5 -27.5t12.5 -28.5q0 -23 4 -45t4 -41q6 -57 18.5 -109t28.5 -110q16 -59 29.5 -112.5t32.5 -110.5 q4 -29 13 -54.5t15 -53.5q2 -4 7.5 -16.5t9.5 -25t8 -22.5t6 -6q2 8 13.5 21.5t25.5 26.5t26.5 24.5t18.5 17.5q31 12 45 39q41 47 85 86t97 74q84 80 148.5 134t122.5 111q53 51 108 93.5t113 83.5q10 6 17 16t14 16q12 10 24 15.5t29 -0.5q18 -4 34.5 0t34.5 -2 q23 -6 30 -22.5t7 -39.5q0 -6 -6 -15t-16 -16q-10 0 -22.5 -4t-24.5 -4q-29 -12 -61 -27.5t-54 -33.5q-86 -55 -166 -115.5t-156 -130.5q-35 -35 -69.5 -60.5t-69.5 -60.5q-70 -66 -137.5 -132t-136.5 -130q-12 -10 -25.5 -22.5t-7.5 -24.5q18 -35 32.5 -69.5t37.5 -69.5 q41 -74 93 -150t118 -137q23 -29 47 -47.5t53 -34.5q6 -6 15 -12t16 -13q10 -6 17 -13t3 -13q-6 -10 -17.5 -15.5t-21.5 1.5q-6 0 -12 1t-12 7q-29 10 -56.5 22.5t-52.5 30.5q-90 76 -164 162t-133 190q-12 16 -20.5 31.5t-24.5 46.5q-18 -18 -30.5 -31.5t-22.5 -23.5 q-88 -92 -172 -185.5t-160 -197.5q-47 -57 -91 -123t-83 -129q-12 -18 -24.5 -35.5t-22.5 -36.5q-6 -10 -13.5 -24.5t-17.5 -20.5q0 -6 -9 -11t-13 -5l-36 12t-34 12q-6 14 -2 24.5z" />
<glyph unicode="Y" horiz-adv-x="923" d="M3 -56q9 31 9 62q0 8 10.5 31.5t23.5 51.5t25.5 50.5t16.5 26.5q6 6 8 13t8 18q53 78 120 154.5t153 135.5q33 23 71 37q18 7 34 7q18 0 34 -9q-31 -29 -55.5 -41t-51 -29.5t-60.5 -49t-85 -95.5q-37 -47 -68.5 -106.5t-60.5 -106.5q-35 -68 -48 -159q-9 -62 -9 -116 q0 -25 2 -48l8 -9q0 -6 12 -6q8 0 31 13.5t47.5 31t45 35t26.5 25.5q37 45 74.5 88t74.5 96q23 29 45.5 64.5t38.5 66.5q27 51 58 100q31 47 52 97.5t54 93.5q55 113 115.5 225.5t85.5 216.5q2 12 13 43t23.5 67t24 67.5t13.5 46.5v12q-14 0 -15 -6q-35 -35 -77 -90.5 t-85 -102.5q-86 -94 -172 -179t-157 -146q-29 -27 -69 -47.5t-83 -30.5q-35 -8 -60.5 -10.5t-45 2t-38 15.5t-38.5 32q-16 12 -22.5 27.5t-6.5 31.5q-4 33 -3 59.5t11 55.5q16 63 43 122.5t56 114.5q4 18 14 33.5t16 38.5q6 16 18.5 31.5t18.5 31.5q23 33 41.5 68t36.5 66 q0 8 2 10l4 4q47 76 99 102q19 9 38 9q32 0 64 -27q6 0 3 -5t-3 -9q0 -2 -9 -10.5t-20.5 -17.5t-20.5 -17.5t-9 -10.5q-57 -76 -94 -145.5t-89 -155.5q-18 -35 -39.5 -73.5t-41 -77.5t-37 -78t-25.5 -72q-5 -16 -5 -32t5 -31q0 -10 14 -21q12 -1 23 -1q31 0 58 9 q36 11 68 31.5t60.5 46t59.5 47.5q63 53 121.5 115.5t119.5 114.5q31 37 65 75.5t68.5 88t68.5 109.5t65 138q6 16 1.5 23.5l-10.5 17.5q-6 8 -2 12.5t11 4.5q23 4 46 6t46 8q12 0 24.5 -5l22.5 -9q10 -12 16 -22.5t6 -27.5q-6 -45 -15 -87t-15 -80q-16 -94 -53.5 -179.5 t-77.5 -171.5q-45 -102 -86 -197.5t-97 -183.5q-10 -23 -22.5 -47t-22.5 -51q-16 -35 -34.5 -65.5t-34.5 -61.5q-35 -66 -72 -124t-72 -115q-23 -41 -47 -78t-59 -74q-18 -16 -27.5 -31.5t-21.5 -32.5q-20 -25 -46 -50t-73 -42q-55 -24 -92 -24q-7 0 -13 1q-39 5 -59.5 30.5 t-26.5 66.5t-6 86q-7 22 -7 42q0 14 4 27z" />
<glyph unicode="Z" horiz-adv-x="1417" d="M-419 -100.5q3 8.5 9 8.5q23 14 37 37q57 66 121 115t139 77q2 4 5.5 4t5.5 2q2 0 4 2q41 35 90 51.5t96 39.5q86 29 173 61.5t179 54.5h9q47 16 92 25.5t92 21.5q29 6 57.5 16.5t57.5 20.5q16 10 36.5 24.5t32.5 37.5q29 29 52.5 58.5t45.5 64.5q27 25 34 34t8 17 t3.5 18t20.5 35q6 10 16.5 23.5t14.5 31.5v15h-6q-35 -4 -87.5 -9.5t-87.5 -11.5q-23 0 -37 10.5t-24 26.5q-6 12 -13 21.5t-1 25.5q41 18 89 26.5t93 12.5q35 6 65.5 9t65.5 14q47 94 47 206q0 35 -9 74t-38 62q-16 10 -34.5 25.5t-43.5 21.5q-59 13 -131 13h-10 q-78 -1 -133 -30q-121 -41 -238 -105.5t-203 -162.5q-6 -10 -12 -17.5t-12 -13.5q-4 -6 -10 -8t-11 -6q-6 0 -12 -4t-12 -4q-6 6 -11.5 8t-5.5 6q-23 10 -28.5 22.5t-5.5 41.5q8 0 8 16q23 25 47.5 47.5t52.5 44.5q16 18 39 33.5t47 28.5q61 47 126 84.5t142 60.5 q92 29 184 37q20 2 39 2q73 0 150 -23q72 -23 126 -65.5t89 -116.5q18 -36 18 -72q0 -4 1 -8q0 -33 -4 -69q-6 -18 -4 -31.5t-5 -30.5q-8 -23 -14 -41t-2 -26q4 -10 34 -16.5t56 -0.5h14q47 0 87 -4t79 -4q2 0 11 -4q2 -2 6 -2q18 -10 15 -22.5t-15 -14.5q-8 -6 -25 -6 q-49 -12 -103.5 -12t-111.5 -5q-10 0 -32.5 -4t-34.5 -4q-16 0 -20.5 -11t-14.5 -28q0 -16 -17 -32q-41 -68 -88 -127.5t-106 -116.5q-4 -6 -14.5 -17.5t-14.5 -21.5v-8q0 -8 2 -8q2 -2 4 0q12 0 23.5 -2.5t21.5 2.5q23 6 51.5 0.5t51.5 1.5h53.5t52.5 4q36 9 65 9h16 q34 -4 75 -20q-25 -23 -39 -26.5t-47 -3.5q-47 -6 -92 -8t-92 -9q-29 -6 -59 -8t-58 -8q-29 -6 -52.5 -10t-52.5 -4q-25 -6 -47 -17.5t-39 -23.5q-53 -47 -99 -87t-99 -79q-94 -66 -182.5 -122t-186.5 -103q-47 -23 -89 -44.5t-89 -39.5q-57 -29 -117.5 -42.5t-126.5 -17.5 h-67q-78 10 -101 92q-4 6 -1 14.5zM-311 -129q6 0 12 -4t12 -4q16 2 42 10t53.5 15.5t52 13.5t41.5 6q6 0 12 4t12 4q6 6 15.5 8t15.5 6q33 0 61 15q12 0 24.5 7t31.5 7q10 0 22.5 13.5t28.5 19.5q33 12 75 30.5t86 41t87 50t80 56.5q23 16 52.5 37.5t53.5 40.5q6 0 19.5 10 t28 23.5t26.5 24.5t14 16q-4 0 -20 -5q-8 -2 -17 -2q-18 0 -42.5 -4t-51.5 -10t-51.5 -13t-40.5 -14q-86 -29 -177 -60.5t-177 -72.5q-66 -35 -131.5 -70.5t-120.5 -76.5q-10 -10 -24.5 -23.5t-32 -28t-33 -27.5t-23.5 -21q-6 -6 -8 -11.5t-8 -11.5z" />
<glyph unicode="[" horiz-adv-x="454" d="M-39 324q0 4 4 9t12 7q12 6 27 12.5t25 14.5q4 29 16 49q16 35 35.5 72.5t32.5 74.5q4 12 13 26.5t19 24.5q33 66 63 127.5t54 126.5q8 18 10 39q4 25 10.5 46.5t10.5 45.5q18 49 24 103q-23 25 -41 57q47 8 99 12q27 -2 56.5 -3t57.5 6q16 4 40 5t40 5q18 2 25.5 -5.5 t13.5 -21.5q6 -18 -8 -27q-8 -6 -15 -11t-24 -7q-31 -4 -66.5 -10t-70.5 -2q-6 -2 -15.5 -5t-17.5 -5q-12 -12 -8 -29q-4 -14 -5 -27.5t-5 -27.5q0 -35 -10.5 -64t-16.5 -63q-4 -31 -17.5 -61t-25.5 -56q-33 -80 -80 -162q-10 -23 -22.5 -46.5t-24.5 -45.5 q-10 -23 -23.5 -48.5t-29.5 -47.5q-4 -10 -11.5 -16.5t-2.5 -20.5q6 -6 15 -5t15 1q20 0 40 -2t42 -7q12 -4 17.5 -14t7.5 -20q0 -12 -6 -15q-10 -4 -18.5 -9t-14.5 -5q-8 2 -14.5 3t-14.5 3q-35 6 -62.5 6t-58.5 -12q-8 2 -12 -1t-10 -5q-16 -4 -30.5 0t-27.5 14 q-8 2 -14 7t-2 10z" />
<glyph unicode="\" horiz-adv-x="548" d="M-41 1289q-4 24 1 45.5t20.5 35.5t44.5 12q2 -16 4 -26t5 -18.5t6 -18.5t7 -29q27 -100 65 -198.5t79.5 -199.5t87 -207.5t86.5 -219.5q33 -66 63.5 -128.5t71.5 -119.5q16 -27 11 -39t-18.5 -13t-31 7t-25.5 25q-29 51 -58.5 112.5t-60 125t-59.5 126t-53 113.5 q-25 59 -55.5 133t-61.5 150.5t-60.5 152.5t-54.5 141q-10 14 -14 38z" />
<glyph unicode="]" horiz-adv-x="440" d="M-45 362q29 23 53 25q23 -4 43.5 -2t40.5 2q6 4 8 9t6 12q35 82 71 162.5t69 160.5q23 59 43 115.5t41 111.5q10 25 19 49.5t13 53.5q2 4 2.5 9t2.5 13q2 6 -2.5 10.5t-8.5 4.5q-10 -2 -22 -5t-23 -3q-20 -2 -38.5 4t-36.5 12q-10 0 -16.5 6t-16.5 10q-10 10 -8 27 q6 8 20 12q10 2 21.5 4t21.5 0q29 -4 59.5 0t59.5 15q4 4 8 3t12 3q4 -4 7.5 -8t5.5 -15q10 -16 16 -30.5t14 -30.5q2 -12 -2 -29.5t-8 -32.5q-20 -66 -40.5 -131t-43.5 -129q-29 -66 -53.5 -131t-52.5 -131q-10 -27 -22.5 -56.5t-22.5 -58.5q-6 -12 -9.5 -26.5t2.5 -30.5 q2 -14 -10 -20q-10 -16 -26 -21q-16 -14 -37 -4q-16 10 -32.5 13t-33.5 3q-14 -6 -26 -2q-29 -4 -43.5 9.5t-24.5 37.5z" />
<glyph unicode="^" horiz-adv-x="348" d="M59 991q39 39 76 81t68 89h39v-4h2q33 -27 32 -72q0 -20 4.5 -37.5t8.5 -33.5q4 -8 4 -23q0 -10 -9.5 -19t-17.5 -9t-12 6t-9 9t-9 13q-6 10 -9.5 21.5t-11.5 21.5q-2 4 -4 10.5t-4 12.5q-18 -18 -27 -37q-10 -6 -15 -13.5t-15 -15.5q-6 -10 -14.5 -15t-16.5 -15 q-10 -6 -13 -7q-16 -12 -30 7q-4 10 -9.5 15t-7.5 15z" />
<glyph unicode="_" horiz-adv-x="819" d="M61 313q0 6 6.5 12.5t16.5 6.5t18.5 -2t18.5 -2t21.5 -2t21.5 2q74 6 145.5 0t143.5 -11q29 0 52 -2t46 -2h111h36q18 -4 26.5 -14t-1.5 -20v-5q-14 -8 -21.5 -14t-17.5 -12h-176q-41 -4 -84 -2t-88 2h-45.5t-50.5 -4h-33t-35 -4q-92 0 -102 47q0 6 -1 13t-8 13z" />
<glyph unicode="`" horiz-adv-x="454" d="M111 934q18 16 29.5 26.5t37.5 14.5q2 2 8 2q23 0 43 -16q33 -23 66 -60t49 -82q4 -4 3 -9t-1 -9q-4 -23 -20 -35q-6 -4 -8.5 -5t-10.5 3q-2 4 -5 5t-5 5q-6 10 -15.5 16.5t-17.5 14.5q-23 14 -39 33q-14 12 -27.5 24t-27.5 27q-4 4 -6 7t-6 7q-10 6 -20.5 11.5 t-24.5 7.5q-10 0 -2 12z" />
<glyph unicode="a" horiz-adv-x="559" d="M-55 399q6 14 11 28.5t5 31.5q6 20 12 24q10 16 20.5 28.5t24.5 25.5q10 10 20.5 21t20.5 22q6 8 14.5 14t16.5 16q10 8 17.5 16.5t15.5 16.5q31 33 65 45l56 25q6 4 14 5t16 3q12 6 27 0h4q12 -6 27.5 -8t29.5 -4q20 -4 27.5 -15.5t3.5 -25.5q0 -29 -14 -58 q-6 -16 -14.5 -32.5t-12.5 -32.5q-4 -10 -8 -19.5t-8 -19.5q-6 -16 -12.5 -32.5t-10.5 -31.5v-14q0 -2 4.5 -5t8.5 -3q10 0 16 2q16 6 33.5 14t34.5 17q25 16 51 33.5t51 33.5q35 18 70 31q6 2 14 2q4 0 8 -4t4 -8l-12 -19l-24.5 -24.5t-24.5 -22.5q-29 -18 -53.5 -38.5 t-51.5 -39.5q-14 -10 -30.5 -19t-32.5 -20q-31 -16 -76 -16q-27 0 -51 8q-4 2 -8 5t-8 5q-18 23 -17 43q2 12 6 22.5t2 18.5q0 8 -8 9q-2 -2 -4 -2t-4 -2q-14 -20 -29 -31q-10 -8 -18 -14.5t-19 -12.5q-10 -8 -19 -17t-22 -16q-38 -29 -86 -29q-10 0 -20 1q-16 0 -37 16 q-8 12 -14 19q-14 18 -2 34zM52 437q1 -1 1 -3h15q6 6 12 9t12 10q27 23 53.5 46t51.5 46q23 20 44 39.5t42 40.5q6 6 10 11t8 15q2 4 1 5t-1 3q0 12 -10 13q-8 -4 -14.5 -4t-12.5 -4q-16 -4 -28.5 -11.5t-24.5 -17.5q-16 -12 -32.5 -28.5l-33.5 -33.5q-25 -29 -47 -60.5 t-45 -61.5v-9q-2 -4 -1 -5z" />
<glyph unicode="b" horiz-adv-x="405" d="M-74 379v16q6 20 12.5 39t16.5 37q12 18 16 37q8 20 20.5 49t26 59.5t24.5 60.5t21 48q0 4 7 14q18 43 39.5 87t40.5 89q10 18 18 36l16 36q4 16 12.5 33.5t14.5 34.5q16 35 32.5 68.5t32.5 68.5q12 23 23.5 45.5t24.5 44.5q10 23 16 46.5t2 47.5q-4 4 4 8 q6 10 15.5 13.5t19.5 7.5q10 2 19.5 -1t17.5 -7q4 -4 8 -14.5t0 -16.5q-2 -4 -2 -10q-16 -33 -29.5 -64.5t-29.5 -62.5q-14 -29 -26.5 -58.5t-29.5 -56.5q-25 -51 -48 -102t-50 -101q-14 -31 -27.5 -59.5t-27.5 -56.5q-12 -25 -22.5 -51.5t-16.5 -55.5q-4 -2 0 -6t8 -4h8 q10 2 18.5 3t18.5 5q12 2 21.5 2h23.5t28.5 -2t26.5 -8q10 -4 21.5 -10t19.5 -17q6 -2 13 -8q8 -6 22 -6q2 0 27.5 -1t55.5 -2t55.5 -1h29.5t5 -1t5 -3q0 -6 -4 -8q-2 -6 -27.5 -11.5t-55 -10.5t-55.5 -10t-28 -7q-10 -8 -14 -23q0 -6 -2 -8q0 -10 -4 -16q-4 -35 -17.5 -67 t-31.5 -60q-23 -37 -53.5 -67t-65.5 -56q-16 -12 -34.5 -20.5t-37.5 -18.5q-10 -2 -28.5 2t-26.5 20q-14 12 -10 29q0 16 6 29.5t12 29.5l2 2q18 29 40 57.5t46 51.5l22.5 22.5t22.5 24.5q6 10 15.5 17.5t19.5 13.5q10 10 16.5 17t14.5 18q8 18 -6 32q-20 20 -37 23 q-6 2 -23 2q-16 -2 -37 -16q-6 -6 -12 -11.5t-12 -11.5q-2 -2 -15.5 -22.5t-28 -44t-26.5 -44t-12 -22.5q-6 -10 -15.5 -24.5t-13.5 -24.5q-10 -29 -24.5 -44.5t-40.5 -9.5q-16 0 -17 17zM117 342q0 -4 1 -4t1 -2q2 -2 8 -2q10 4 14 9t13 13q12 10 26 31l12.5 12.5 t12.5 14.5q8 10 13 16t9 14q4 4 4 5.5t2 3.5q2 4 1 6t-1 6t-4 6t-6 0q-16 -6 -30 -20q-20 -23 -39 -45.5t-35 -49.5q0 -4 -1 -5t-1 -5v-4z" />
<glyph unicode="c" horiz-adv-x="315" d="M-66 367q4 12 5.5 24t3.5 23q6 33 4 53q0 8 2 12q16 16 28.5 37t22.5 43q2 12 10 23.5t15 23.5q4 8 9 14.5t9 12.5q10 4 16.5 10t14.5 12q16 10 35 17q14 8 36 0q8 -4 11.5 -10.5t7.5 -12.5l31 -51q-4 -2 -18.5 -9t-53.5 1l-4 -4q-25 -27 -43.5 -55.5t-34.5 -59.5 q-8 -20 -14.5 -38.5t-8.5 -37.5q-4 -10 2 -14q8 -8 15 -8q8 0 20 4q18 8 37 16t39 19q14 10 29.5 19t32.5 20l28 20v-2l4 2q41 29 94 57q10 6 19.5 9.5t19.5 7.5q8 8 9 0q6 -6 0 -10q0 -2 -2 -7q-4 -6 -9.5 -12t-11.5 -12q-6 -4 -12 -9.5t-13 -11.5q-6 -10 -15 -22t-17 -19 q-18 -10 -31.5 -24.5t-30.5 -24.5l-24 -20l-66 -43q-46 -25 -96 -25h-8h-29q-25 4 -37 17q-10 10 -15 18t-11 18q-2 2 -2 4q-2 2 -3 5z" />
<glyph unicode="d" horiz-adv-x="382" d="M-70 350q2 6 2 15q4 25 17.5 63.5t35 80.5t49 81t58.5 63q27 20 55 33q10 2 18.5 3t18.5 -1q31 0 64 -14q14 -4 16 -10q8 6 24.5 36.5t37 75.5t44 99.5t47 107.5t44 100t37.5 76q2 6 11 24.5t18.5 41t16.5 41t7 24.5q4 14 8 26.5t4 24.5q0 2 1 4.5t-1 6.5q4 4 7 4t5 4 q16 0 29.5 2t30.5 -2q6 0 12 -6t6 -13q-4 -2 -4 -12q-10 -25 -18 -46t-25 -44q-4 -10 -10 -23.5t-10 -21.5q-29 -47 -47.5 -101.5t-46.5 -101.5q-10 -23 -21.5 -46t-21.5 -46l-25 -49q-2 -12 -7 -22.5t-7 -22.5q-4 -6 -14.5 -25.5t-12.5 -25.5q-16 -35 -32.5 -73t-35.5 -75 q-37 -70 -69 -139q-10 -16 -16.5 -33.5t-12.5 -34.5q-4 -4 0 -16q0 -6 6 -6q2 0 5 2t5 2q4 2 9.5 5t9.5 5l21.5 21.5l21.5 21.5q20 16 39.5 33.5t42.5 36.5q6 6 12 11t17 7q10 10 16 0q2 -2 2 -8q-2 -6 -2 -12t-2 -10q-10 -10 -17.5 -22.5t-17.5 -25.5q0 -8 -8 -14 q-12 -14 -22.5 -28.5t-22.5 -28.5q-14 -27 -41 -51q-35 -25 -70 -37q-25 -4 -37 4q-23 8 -28 16q-8 6 -16.5 12.5t-14.5 10.5q-12 8 -25 0q-12 -6 -23 -12.5t-24 -12.5q-16 -12 -30 -14q-31 -12 -60 8q-4 2 -8 6l-8 8q-12 8 -15 23q0 8 -2 16zM16 374q0 -1 2 -1v-6 q2 -2 9 -2q14 2 28 16q35 20 56.5 46t50.5 54q6 6 14 23q2 10 5 20.5t5 20.5q8 10 9 30v27v10q0 6 -2 13q0 8 -15 8q-6 0 -14 -6q-12 -10 -38 -45t-50.5 -76t-42 -79t-15.5 -52q-2 0 -2 -1z" />
<glyph unicode="e" horiz-adv-x="342" d="M-49 352q-8 16 0 39q4 16 10 32.5t12 35.5q2 6 5.5 14t7.5 14q10 18 16 45q4 23 16 33q10 27 39 51q12 12 23.5 24.5t23.5 23.5q8 4 15 8q12 4 23.5 7t27.5 7q4 2 9 2h9q18 -4 23 -10q16 -14 29 -29q8 -12 14 -28t-4 -33q-12 -16 -28.5 -31.5t-33.5 -30.5 q-20 -16 -40.5 -33.5t-43.5 -33.5q-14 -10 -32 -8q-8 0 -13 -2q-12 -6 -16 -13q-8 -16 -8 -24q-10 -23 -6 -52q4 -4 6 -7t8 -7q16 -4 27 -2q27 4 49 14q29 10 52.5 22.5t47.5 27.5q27 16 52.5 31.5t52.5 31.5q12 4 18 4q6 4 13 -1t5 -9q-6 -29 -30 -51q-23 -12 -44.5 -28.5 t-39.5 -33.5q-16 -10 -33.5 -21.5t-38.5 -17.5q-14 -6 -29.5 -11t-31.5 -5q-14 -4 -29 -6t-29 0q-23 0 -37 6l-8 4t-12 4q-4 2 -6 4t-6 4q-10 10 -19.5 18.5t-15.5 20.5zM86 514q0 -8 2 -8h6q10 10 20.5 19.5t20.5 19.5q16 10 26.5 24.5t18.5 28.5q4 4 4 8q-4 4 -4 7t-2 3 h-12q-2 -4 -8 -10q-20 -20 -40 -42.5t-32 -49.5z" />
<glyph unicode="f" horiz-adv-x="458" d="M-129 46v46q2 6 3 19.5t5 27.5q2 27 4 51.5t13 51.5q0 16 5 32.5t11 32.5q6 23 14 44.5t15 43.5q25 72 57 146q6 14 14 31.5t15 33.5q8 23 20 44.5t23 43.5q14 29 28.5 54.5t28.5 54.5q10 18 21.5 39.5t17.5 44.5q6 8 8 16q4 10 8 16.5t4 14.5q10 35 31 59q12 16 22.5 35 t22.5 37q10 16 20.5 35.5t20.5 38.5q10 14 16 28q23 31 43.5 63t36.5 64q2 4 7.5 8.5t9.5 0.5h19t20 -3q10 -2 20 -16t4 -31q-2 -10 -7 -21t-11 -22q-23 -33 -44.5 -67.5t-43.5 -65.5q-14 -23 -28.5 -42t-25.5 -42q-2 -6 -5 -12t-7 -10q-27 -35 -46 -70t-42 -74 q-20 -35 -41.5 -71.5t-38.5 -75.5q-6 -16 -15 -29.5t-13 -29.5q-2 -2 -2 -11q0 -10 9 -13t15 -3h17q16 2 33 2q24 0 49 -5q28 -6 56 -6q12 0 25 1q18 -4 31 0q39 -2 77 -2t75 4q6 4 16 0q12 0 8 -13q-2 -2 -4 -14q-2 -6 -8 -8q-4 -2 -7 -3t-7 -5q-25 -4 -49.5 -8.5 t-49.5 -8.5q-13 -1 -26 -1q-33 0 -65 7q-44 11 -87 11q-6 0 -11 -2t-11 -6l2 -9q2 -10 5 -20t7 -19.5t4 -11.5q12 -41 16 -86q3 -30 3 -58q0 -14 -1 -28q0 -72 -13 -125t-36 -112q-6 -16 -13 -32t-17 -32q-6 -14 -17.5 -26.5t-21.5 -26.5q-12 -16 -25.5 -29.5t-32.5 -23.5 q-20 -14 -45 -13q-12 0 -16 2q-14 0 -31 11q-6 4 -22 12q-6 4 -11.5 9t-9.5 9q-12 14 -20.5 30.5t-18.5 33.5q-2 4 -4 7t-2 7q-4 23 -4 40zM-66 53.5q0 -10.5 3 -20.5q0 -29 14 -64q4 -10 14 -22q14 -10 31 -6q2 6 8 6q20 14 29 24q10 14 21.5 24.5t17.5 27.5l6 6 q4 12 10 22q12 25 23.5 49.5t21.5 53.5q8 29 15.5 66.5t11.5 76.5q3 31 3 60v15q-1 36 -9 60q0 10 -2 19q-2 8 -5.5 28.5t-7.5 42t-11 37.5t-15 16q-23 0 -33 -16q0 -2 -2 -2q-16 -33 -29.5 -62.5t-23.5 -60.5q-4 -10 -6.5 -17t-6.5 -14q-14 -35 -26 -77q-31 -84 -43 -181 q-2 -18 -4.5 -35.5l-4.5 -31.5v-24.5z" />
<glyph unicode="g" horiz-adv-x="411" d="M-381 -399q4 20 10 40.5t15 39.5q18 23 24 51q12 25 26.5 48t33.5 46q6 10 12 17t10 18q23 41 51 67q12 10 22.5 22.5t20.5 24.5q33 35 66 71t70 67l9 9l9 9q12 14 25.5 26.5t33.5 22.5q8 6 15.5 14.5t15.5 16.5l16.5 16.5t18.5 16.5q2 2 4 3t4 3q27 20 43 43.5t33 52.5 q2 2 2 4t2 4q12 35 22.5 73t14.5 77q0 8 -2 10q0 4 -5 4t-8 -2q-14 -12 -24 -29q-23 -29 -45.5 -56.5t-48.5 -53.5q-8 -10 -15.5 -18.5t-17.5 -16.5q-6 -8 -16.5 -13t-20.5 -12q-20 -10 -40 -10q-14 0 -27 5q-35 10 -54 42q0 6 -2 13.5t0 13.5q6 57 33 100q14 27 29.5 51.5 t33.5 47.5q2 4 5.5 9t5.5 11q0 14 14 33q16 16 28.5 29.5t28.5 29.5q20 23 46 32t53 11q12 0 18 -2q29 0 41 -20q2 -4 12 -11q0 -4 11 -4q6 4 10 9.5t10 7.5q4 4 8 3t6 -5q10 -18 9 -37q0 -4 -1 -10.5t-1 -10.5q-4 -10 0 -16q6 -25 2 -41q-4 -33 -6.5 -62.5t-6.5 -62.5 q-8 -23 -2 -57q2 -8 -4 -27q-4 -6 -6 -13t-6 -14q-20 -29 -27 -53q-4 -12 -10 -24.5t-10 -24.5q-18 -53 -42 -105.5t-48 -101.5q-14 -27 -29.5 -53.5t-32.5 -52.5q-16 -29 -30.5 -54.5t-32.5 -52.5q-23 -35 -47.5 -69.5t-53.5 -69.5q-35 -41 -69 -76q-16 -14 -35 -27.5 t-37 -29.5q-10 -4 -20 -14q-16 -8 -30.5 -13.5t-31.5 -5.5h-8q-6 0 -9 -1t-7 1t-10.5 3t-10.5 5q-23 10 -35 27q-8 16 -8 31zM-297 -391q-2 -4 4 -8t10 -4q10 0 23 8q25 18 47 26q4 4 14 9q16 16 32.5 30.5t31.5 32.5q16 23 31 33q23 23 41 53q8 10 15 18.5t13 16.5 q10 10 15 26q8 20 14 29q10 20 22.5 39t26.5 39q23 33 37 63q4 10 9 17.5t9 15.5q4 2 5 6t1 9q8 16 13.5 33.5t11.5 35.5q6 16 12 32.5t11 33.5v2v4q-6 2 -13 0q-23 -18 -43 -36.5t-39 -39.5q-23 -16 -40 -34.5t-33 -37.5q-33 -35 -63 -69.5t-58 -71.5q-16 -20 -29.5 -39.5 t-28.5 -38.5q-23 -29 -39 -62.5t-32 -70.5q-12 -27 -27 -63q-2 -10 -3 -18.5t-1 -18.5zM6 418q4 -6 12 -4q18 6 39 20q4 4 8.5 9.5t8.5 9.5q27 29 51.5 56.5t48.5 55.5q16 16 29.5 34.5t27.5 35.5q2 4 4.5 7t4.5 7v10q0 10 -13 15q-6 0 -11 -1t-9 -1q-18 -14 -34.5 -27.5 t-33.5 -30.5q-14 -16 -28.5 -32.5t-30.5 -34.5q-23 -29 -40 -57.5t-34 -61.5v-6v-4z" />
<glyph unicode="h" horiz-adv-x="536" d="M-94 328q10 29 22 43q29 35 43.5 83t32.5 85q18 41 38.5 80.5t43.5 85.5l43 81q6 12 14.5 25.5t12.5 30.5q0 6 8 14q10 12 16 26.5t15 28.5l28 45q20 37 35 74q8 20 17.5 36.5t19.5 35.5q20 47 50 94t44 82q4 10 10.5 17.5t8.5 19.5q0 8 4 15t8 11q16 29 41.5 31 t38.5 -26q4 -6 0 -17q-2 -4 -4 -7t0 -7q-8 -10 -13.5 -18.5t-9.5 -16.5l-67 -113l-25 -45q-49 -100 -93 -182t-83 -151.5t-69 -127t-48 -106.5q-2 -4 1 -16.5t7 -14.5h2q12 8 34 24.5t32 24.5l45 31q12 8 23.5 14.5t27.5 10.5q18 8 37 8q17 0 35 -6l10 -6q16 -10 18 -26.5 t-3 -35t-14 -36t-15 -29.5q-12 -18 -22.5 -38t-22.5 -40l-31 -55q-2 -4 -5 -9.5t-5 -9.5q-25 -41 -47.5 -84t-44.5 -90q-18 -29 -25 -61q-2 -4 4 -11h6q4 0 4 2q16 14 33.5 27.5t28.5 30.5q4 2 6 5t4 5q12 10 51 47t87 87t97 106.5t86 103.5q10 18 29 31q2 8 10 0v-4l-4 -21 l-16 -33l-318 -401q-8 -6 -13 -14.5t-11 -14.5q-16 -20 -39 -30.5t-47 -14.5q-12 0 -21 2q-18 0 -26 9q-8 6 -16.5 13t-14.5 17q-6 6 -10 19l-2 26v15q0 18 6 26l12 29q10 10 13.5 18.5t7.5 18.5q14 41 39 78l28 55l27 45l16 33l72 125q2 8 0 16l-8 4q-6 0 -8 -2 q-43 -23 -86 -55.5t-74 -67.5l-74 -110q-14 -18 -35 -27q-4 -4 -8 -6t-6 -6q-16 -23 -25.5 -23t-14.5 9.5t-7 25.5t-2 29z" />
<glyph unicode="i" horiz-adv-x="321" d="M-51 370.5q2 2.5 0 8.5q0 16 2 24q0 4 2 8.5t0 2.5q4 12 6 19t6 11q16 49 49 95.5t47 76.5q4 8 6.5 16.5t6.5 18.5t9 20.5t13 16.5q4 10 10.5 12t16.5 5h6q25 2 37 -25q6 -6 2 -21q-8 -16 -12 -20q-18 -29 -36 -51.5t-32 -52.5q-10 -16 -22.5 -41l-20.5 -41 q-4 -4 -9 -20.5t-5 -22.5q-2 -4 6 -6.5t12 -2.5q18 2 46 12.5t59.5 24t64.5 30.5t64 36q18 8 32.5 16t32.5 10q4 -2 4 -10v-6q-6 -10 -16 -17.5t-21 -15.5q-23 -18 -58.5 -42.5t-73.5 -48t-73.5 -43t-58.5 -28.5q-23 -10 -49 -4l-18 7q-27 12 -33 40q-4 6 -2 8.5zM131 768 q2 4 2 9t2 9q4 16 10.5 28.5t12.5 25.5q2 4 5 6t7 6q35 10 57 -12q18 -18 6 -33q-8 -23 -30 -45q-16 -18 -45 -23q-4 0 -6 1t-5 1q-14 4 -14 15q0 6 -2 12z" />
<glyph unicode="j" horiz-adv-x="172" d="M-719 -455q2 16 3 30.5t5 35.5q2 10 2 20.5t4 26.5t9.5 30.5t11.5 32.5v3q0 2 4 6q10 16 18.5 29.5t20.5 29.5q14 18 27.5 36.5t23.5 37.5q18 27 36.5 50.5t39.5 45.5q37 41 71.5 79t75.5 75q4 10 15 16q23 20 45 39.5t45 42.5q23 18 45 33q14 8 26.5 16t22.5 19 q16 16 34.5 30.5t37.5 30.5q6 2 16 12q16 12 29.5 29.5t21.5 40.5q4 10 7.5 22.5t7.5 22.5q8 20 14 40.5t10 43.5q0 10 4 18q10 29 14.5 59.5t8.5 61.5q0 4 1 9.5t1 9.5q4 10 14 14t18.5 5t18.5 1q17 -2 31 -16q2 -6 4 -13.5t2 -15.5q-2 -6 -2 -20q-16 -41 -19 -80 q-2 -6 -3 -13.5t-5 -15.5q-4 -10 -4 -17.5t-2 -15.5q-10 -23 -18 -55.5t-23 -65.5q-6 -23 -16 -45t-23 -45q-16 -41 -34.5 -85t-38.5 -85q-16 -33 -32 -64.5t-34 -62.5q-4 -8 -8 -15t-6 -15q-10 -16 -20.5 -34t-20.5 -36q-4 -10 -9.5 -19.5t-13.5 -17.5q-4 -10 -11 -18.5 t-11 -16.5q-4 -6 -8.5 -12t-8.5 -12q-6 -6 -9 -12.5t-7 -12.5q-12 -33 -35 -57q-8 -12 -18.5 -25.5t-18.5 -25.5q-25 -29 -47 -57.5t-49 -53.5q-10 -8 -18.5 -15.5t-16.5 -15.5q-16 -10 -30.5 -20t-30.5 -21q-4 -4 -10.5 -8t-14.5 -8t-14 -4q-39 -12 -54.5 -10t-41.5 12 q-10 4 -16.5 8t-14.5 8q-4 4 -8 6t-9 7q-14 14 -12 32zM-664 -387q0 -10 1 -16.5t1 -14.5v-22q0 -4 2.5 -9.5t4.5 -9.5q6 -35 41 -24q20 2 38.5 10t34.5 18q10 10 21.5 18.5t21.5 18.5q6 6 12.5 11.5t10.5 9.5q29 35 58.5 70.5t56.5 74.5q6 6 10 16q16 16 29.5 34t23.5 38 q4 6 8 12.5t8 10.5q23 35 44.5 68.5t39.5 70.5q6 10 10.5 20.5t8.5 22.5q10 29 22.5 56.5t26.5 56.5q14 27 27.5 54.5t23.5 55.5q4 10 7.5 20.5t7.5 20.5q2 4 -5 10h-10q-8 -6 -17 -11t-16 -11q-23 -18 -45 -33.5t-41 -34.5q-10 -10 -21 -17t-22 -18l-34 -34 q-25 -25 -50 -43q-10 -10 -10 -13q-29 -27 -54.5 -53.5t-53.5 -54.5q-4 -6 -11 -10q-23 -29 -44 -57.5t-42 -57.5q-14 -18 -26.5 -36.5t-26.5 -37.5q-23 -39 -45 -94v-2q-8 -16 -12 -30.5t-8 -31.5q-2 -10 -7 -22zM59 870q4 4 4 7.5t5 9.5q6 10 12 23.5t14 23.5q2 4 6 5t4 3 q34 12 54 -8q10 -18 0 -33q-6 -10 -13.5 -19.5t-17.5 -19.5q-23 -16 -45 -18q-4 0 -10 2q-2 2 -6.5 5t-4.5 7t-2 12z" />
<glyph unicode="k" horiz-adv-x="462" d="M-119 248q0 6 2 12q10 10 11 23q2 23 8 41t16 34q6 10 11 21.5t12 21.5q10 16 17 34t13 36q4 6 4 13.5t5 17.5q6 23 10 31t22 32q4 6 6 12.5t7 10.5q29 84 66.5 169t78.5 171t79 173t66 175q6 23 12.5 43t16.5 41q6 12 18.5 15t24.5 -1t21.5 -15t9.5 -30q0 -6 -3 -12 t-5 -12q-12 -33 -24.5 -59.5t-27.5 -57.5q-14 -37 -31.5 -74t-33.5 -72q-25 -61 -56.5 -125.5t-60.5 -125.5q-12 -25 -22.5 -50.5t-20.5 -52.5q-2 -6 -2 -13t-2 -11q-2 -6 4 -11.5t10 -5.5h13q23 0 51.5 9.5t50.5 13.5q16 2 35.5 -3t34.5 -16q10 -6 12 -18t6 -23 q4 -23 -18.5 -40t-54 -30.5t-62.5 -23.5t-43 -18l-8 -9q0 -29 5 -66.5t21 -66.5q8 -20 27 -20q31 0 59.5 11t56 28.5t54.5 37t53 36.5q10 4 18.5 14t18.5 12q23 -6 3.5 -32.5t-48.5 -57.5q-29 -29 -61.5 -58.5t-73.5 -43.5q-27 -8 -51.5 -10.5t-51.5 8.5q-14 2 -24 8 q-41 25 -58.5 55.5t-31.5 87.5q-4 18 -14.5 25.5t-28.5 -21.5l-6 -6q-16 -33 -36 -68.5t-36 -68.5q-10 -16 -19.5 -34.5t-31.5 -22.5q-4 0 -8.5 -3.5t-8.5 -1.5q-10 4 -6 17zM174 575h12q34 -1 58 9q28 12 14 22q-8 4 -21.5 0t-27.5 -10q-16 -8 -35 -21z" />
<glyph unicode="l" horiz-adv-x="274" d="M-27 360v5q6 33 13.5 63.5t15.5 58.5l43 117q6 27 21 55q33 76 65.5 150t67.5 145l4 15q8 27 18 47t27 43q4 4 5 11t5 17l80 207q4 14 10 27.5t12 28.5q6 10 7.5 21t5.5 22q6 18 20 20q8 4 14.5 4t10.5 2q10 -2 12 -4q8 -4 14 -8q8 -12 7 -27v-20q-4 -8 -5.5 -15.5 t-5.5 -11.5q-12 -29 -23 -56.5t-26 -53.5q-31 -63 -58.5 -125t-51.5 -125q-12 -31 -23.5 -61.5t-26.5 -61.5l-61 -131q-6 -18 -13 -35.5t-16 -34.5q-4 -10 -9 -23.5t-11 -25.5q-37 -88 -64 -184q0 -4 -1 -11.5t-1 -17.5v-8q0 -16 15 -12q6 2 11 5t11 7q12 12 26.5 19.5 t28.5 19.5l9 8h2l22 20v-2q14 12 27 27q4 6 9 10t9 8l68 54q12 10 23.5 18t25.5 19h4q2 -4 2 -11q-4 -10 -9 -19t-15 -15l-8.5 -8.5l-8.5 -8.5q-10 -10 -16 -21.5t-17 -21.5q-10 -8 -17 -17t-15 -20l-27 -35q-4 -4 -5 -6t-5 -4l2 -2q-4 -4 -5 -6t-5 -4q-2 -4 -11 -12h-2 l-6 -7q-10 -12 -23.5 -24t-25.5 -23q-27 -27 -61 -32h-7q-20 -4 -37.5 4t-33.5 22q-23 23 -17 51z" />
<glyph unicode="m" horiz-adv-x="661" d="M-61 356q2 27 14 43q10 16 20.5 37t20.5 37q4 10 8 17.5t10 17.5q0 2 4 14q4 25 15.5 48.5t19.5 47.5q4 12 15 21q4 10 16 10q12 4 22 4q12 4 17 -10q8 -10 8 -31v-10q0 -6 7 -9t14 1q4 4 14 8l10 10t14 11q4 4 10.5 4t12.5 2q8 2 27 2q29 2 49 -27q0 -6 2 -10 q6 -8 16 -4q4 2 8 5t9 5l30 31q12 10 21.5 20.5t19.5 20.5q4 8 11.5 13l13.5 9q16 10 32.5 21.5t32.5 23.5q25 14 52 9q18 -4 24 -19v-10q-4 -20 -9 -36.5t-15 -35.5q-18 -39 -35 -78t-37 -75q-10 -27 -21.5 -53.5t-23.5 -53.5q-10 -20 -18.5 -39.5t-18.5 -42.5q0 -2 -1 -6 t-1 -8q0 -8 4 -8q2 -4 6 0q4 0 14 6q23 16 44.5 32.5t41.5 36.5q2 2 4.5 3t4.5 6q16 16 34.5 27.5t34.5 27.5t35 30.5t35 28.5q12 6 22.5 14.5t24.5 12.5h4q8 -4 4 -8q0 -4 -1 -6t-3 -7q0 -12 -8 -22q-16 -23 -36.5 -41t-37.5 -37q-16 -10 -29.5 -24.5t-25.5 -24.5 q-25 -25 -48.5 -47.5t-47.5 -46.5q-31 -37 -64 -60q-10 -8 -21.5 -11t-23.5 -5q-20 0 -33 14q-26 23 -26 54q0 12 4 26q8 27 18 43q10 20 20.5 40t20.5 42q10 18 19.5 37.5t19.5 38.5q4 10 8 19.5t6 19.5q10 23 18.5 44t18.5 44q6 8 9 16q2 4 2 15q0 4 -5.5 6t-9.5 0 q-4 0 -8 -4q-10 -8 -17.5 -14.5t-15.5 -14.5q-35 -31 -66.5 -65.5t-62.5 -69.5q-10 -14 -21.5 -27.5t-21.5 -25.5q-8 -10 -15 -19.5t-15 -19.5q-8 -14 -25 -27q-20 -16 -45 0q-10 8 -16.5 17.5t-10.5 21.5q0 8 2 8q4 10 7.5 21.5t9.5 23.5q4 8 8 35q0 4 -3 6t-5 0 q-18 0 -25 -12q-10 -10 -18.5 -21.5t-14.5 -27.5q-8 -12 -15 -24.5t-13 -27.5q-10 -20 -29 -38q-4 -8 -13.5 -9.5t-17.5 2.5q-12 0 -18 11q-12 12 -12 30z" />
<glyph unicode="n" horiz-adv-x="436" d="M-63 453q8 16 13 30.5t11 28.5q10 16 18.5 34.5t14.5 39.5q4 16 12 28q6 18 14.5 37t14.5 39q4 12 9 22.5t9 20.5t19 10h20q6 0 13.5 -1t11.5 -7q18 -14 14 -33q0 -10 -4 -19t-4 -19q2 -4 8 -5q6 0 10 3q16 16 36 28t36 29q20 14 51 14q23 0 33 -12q2 -4 4 -7t2 -7 q6 -12 4 -17q-4 -16 -8 -26l-72 -156l-37 -94q-10 -25 -6 -41q0 -6 6 -6h5v-2l4 4q23 14 46 28.5t44 32.5q25 18 54.5 33.5t55.5 34.5q8 4 17.5 9t19.5 9t18.5 8t20.5 8q8 2 4 -6q2 -6 0 -10t-4 -10l-43 -33q-6 -4 -13 -9t-13 -9l-78 -74q-25 -23 -50.5 -45.5t-54.5 -44.5 q-10 -6 -19 -14.5t-20 -16.5q-8 -6 -15 -12t-11 -8q-29 -10 -45 4l-11 8q-14 18 -18 26.5t2 36.5l8 35q10 29 18.5 55.5t20.5 55.5l19 51l4 20q0 8 -9 13q-6 0 -10 -2l-49 -49q-12 -14 -27.5 -25.5t-31.5 -15.5q-6 -4 -10.5 -6.5t-8.5 -8.5q-6 -12 -28 -22l-15 -6 q-18 -8 -26 12q-8 12 -4 31z" />
<glyph unicode="o" d="M-53 381q-4 16 2 31q2 6 5 10t3 10q8 16 10 25q8 29 15.5 47t19.5 47q6 14 12 28.5t15 28.5q8 14 17 26.5t20 24.5q10 16 18 31t18 31q8 12 23 14q8 8 22 8q23 4 51.5 8.5t45.5 -12.5q4 -4 8 -5t8 -5q6 -10 10 -18.5t11 -18.5q4 -10 6 -19t0 -22v-22q0 -6 -2 -15 q0 -16 18 -16h21q16 4 43.5 4t44.5 4h28q4 -4 4 -8q8 -12 -2 -18q-2 -6 -5 -7.5t-7 -5.5q-8 -8 -12 -8q-23 -6 -52.5 -10t-50.5 -10q-33 -14 -63 -15q-4 -2 -7 -4t-7 -4q-4 -4 -5.5 -7t-3.5 -5q-6 -8 -8 -13.5t-6 -9.5q-23 -47 -64.5 -86t-76.5 -65q-14 -12 -41 -17h-15 q-6 0 -14 4q-25 6 -37 20.5t-18 37.5q-2 4 -2 6zM26 407.5q1 -4.5 5 -4.5q6 -4 10 0q43 16 73.5 55.5t51.5 73.5q2 5 2 11q0 8 -2 10q-10 12 -16.5 24.5t-12.5 24.5q-2 4 -10 8q-2 2 -10 2q-4 0 -11 -6q-10 -14 -20 -33q-23 -41 -35 -73.5t-24 -77.5v-6q-2 -4 -1 -8.5z M185 624q1 -3 1 -8q0 -2 4 -10q4 -4 9.5 -4t9.5 4q6 6 10 12q8 12 10 29t4 33v4q0 4 -4 8q-8 0 -8 -2q-29 -23 -35 -59q-2 -4 -1 -7z" />
<glyph unicode="p" horiz-adv-x="518" d="M-233 -174q-6 27 4 59q4 29 12 56q0 6 1 13t1 15q4 20 9 40t11 42q18 55 40 108.5t44 106.5l72 168q16 35 31.5 68t30.5 67l12 25q6 23 16 44t23 44q4 8 8 17.5t6 17.5q4 12 4 20q-2 10 1 19.5t7 19.5q4 6 15 12q29 8 57 0q10 -4 16.5 -12t4.5 -18l-13 -29 q-12 -20 -22.5 -41.5t-20.5 -40.5q-2 -6 -2 -18q0 -2 4 -6q2 -4 6 0q6 2 12.5 5t10.5 7q43 35 92 57l31 15q27 10 52.5 11t53.5 -3q35 -6 60 -35l7 -7t7 -9q14 -20 10 -46.5t-14 -42.5q-4 -8 -7 -13t-5 -11q-10 -16 -21.5 -31.5t-21.5 -30.5q-18 -18 -27 -32 q-12 -14 -24.5 -25.5t-26.5 -21.5q-6 -2 -15 -11q-16 -14 -34.5 -25.5t-36.5 -21.5l-43 -18q-43 -16 -84 -17h-12q-20 0 -43 19q-4 4 -7.5 5t-5.5 5q-8 6 -8 25q6 23 16 39q6 10 11 12q37 37 84 74q47 31 94 53q27 12 51.5 22.5t46.5 20.5l33 18q8 6 13 13.5t3 19.5 q0 16 -18 25q-10 4 -27 4q-45 -6 -82 -29q-55 -33 -104 -75t-88 -95q-27 -39 -49.5 -79t-40.5 -81l-37 -80l-21 -53q-6 -16 -12 -33.5t-14 -33.5q-18 -41 -29 -84q-8 -20 -14 -41t-15 -39q-4 -8 -5 -15.5t-5 -15.5q-8 -23 -15 -43t-18 -41l-10 -14q-4 -2 -10 -3t-10 1 q-6 0 -6 8zM139 387q4 -10 13 -10q20 2 35.5 8t29.5 16q29 23 53.5 44.5t46.5 46.5l11 12v4l-6 6q-10 4 -21 -4l-92 -51q-16 -10 -32.5 -24.5t-26.5 -31.5q-8 -8 -11 -14v-2z" />
<glyph unicode="q" d="M-47 -139q0 20 3 42.5t7 45.5q16 78 45 159.5t58 159.5q4 16 11 37t17 47h-51q-12 4 -24.5 9.5t-26.5 13.5q-14 34 -14 68q0 43 24 87q23 41 42 77t44 71q12 23 30.5 42t41.5 36q23 20 52.5 18t51.5 -24q16 -16 39 -17q4 0 10 -3t11 -3q6 -4 12 -10q0 -25 -12.5 -43.5 t-20.5 -34.5q-29 -70 -62.5 -136.5t-62.5 -131.5q-43 -98 -75.5 -196.5t-53.5 -203.5q-4 -23 -8 -45t-8 -43q0 -14 3 -28.5t3 -28.5q20 0 32.5 11t22.5 24q29 33 48.5 69.5t41.5 73.5q4 8 8.5 16.5t8.5 16.5q6 6 22 6q0 -35 -3 -66.5t-19 -60.5q-8 -25 -21.5 -49.5 t-25.5 -46.5q-6 -18 -17 -29q-37 -43 -75 -45h-4q-36 0 -76 29q-30 30 -30 69q0 8 1 17zM68 506q0 -8 4 -37q16 14 37.5 42t44 60.5t42 68.5t31.5 67l-4 4h-16q-47 -33 -78 -78t-53 -103q-8 -16 -8 -24z" />
<glyph unicode="r" horiz-adv-x="331" d="M-49 408q29 68 53.5 136t28.5 140q14 8 23.5 12t18.5 2t20 -11t28 -25q14 8 22.5 17t16.5 21q29 20 56.5 39t62.5 27q29 4 54 3t48 -13q20 -8 20 -29q-8 -20 -20 -20h-18.5t-18.5 4q-25 0 -48.5 -5.5t-43.5 -27.5q-57 -53 -108.5 -112.5t-84.5 -135.5q-4 -12 -9 -21.5 t-13 -21.5q-10 -25 -33 -16q-16 4 -29.5 10.5t-25.5 26.5z" />
<glyph unicode="s" horiz-adv-x="370" d="M-76 158q47 33 81 54t75 60q14 16 44 51t51.5 70t26.5 61.5t-30 26.5q-16 0 -34.5 -3t-31.5 -3q-16 0 -30.5 4t-30.5 13q-45 24 -51 68q-1 9 -1 18q0 35 19 73q12 20 43 40t67 34t71.5 21.5t60.5 5.5q18 0 29 -19q4 -12 -2.5 -19t-14.5 -7q-18 -2 -45.5 -11.5t-54.5 -23 t-50.5 -29.5t-35.5 -33q-10 -14 -8 -32.5t12 -24.5h72q31 0 70.5 -16.5t54.5 -42.5q6 -13 6 -29q-1 -16 -7 -34q-12 -36 -39.5 -76t-64.5 -78.5t-77 -68.5t-75.5 -49.5t-58.5 -19.5q-20 0 -32.5 5.5t-8.5 13.5z" />
<glyph unicode="t" horiz-adv-x="321" d="M-291 940q20 12 40 14t36 2h367h49q33 37 49 80q16 27 32.5 51.5t28.5 49.5q4 4 6 9t7 9q12 12 28.5 16.5t32.5 4.5q23 0 29 -12.5t16 -26.5q-35 -41 -66.5 -82t-58.5 -88q44 -5 85 -5q20 0 40 1q59 4 119 4q37 -3 74 -3q19 0 39 1q58 2 110 2q57 -4 116.5 -5t119.5 -6 q-93 -32 -208 -32h-7q-57 -4 -111.5 -8.5t-112.5 -8.5q-61 -4 -124.5 -6t-127.5 -6h-22q-25 0 -41 -9t-25 -34q-10 -23 -24.5 -43.5t-26.5 -42.5h-4q-4 -8 -6 -13.5t-6 -13.5q-4 -12 -8 -28.5t-15 -32.5q-12 -29 -25.5 -55.5t-25.5 -55.5q-8 -23 -15 -41t-12 -41 q-4 -16 -5 -35.5t-1 -35.5q4 -41 21.5 -55.5t58.5 -10.5q61 6 115 33q16 8 30.5 15t30.5 12q4 0 9.5 -2.5t13.5 -2.5q-23 -29 -41.5 -55t-46.5 -41q-47 -25 -100 -25q-17 0 -35 3q-59 8 -97 58q-33 44 -33 96q0 7 1 14q4 29 14 58.5t18 61.5q23 49 45.5 98.5t51.5 94.5 q14 16 22 34.5t19 39.5q10 25 0 51q-12 0 -22.5 2t-25.5 2q-49 0 -101 -2t-105 -2q-39 0 -74 4t-72 16q-12 4 -21.5 12.5t-21.5 16.5z" />
<glyph unicode="u" horiz-adv-x="591" d="M-29 420q0 33 10.5 62.5t20.5 58.5q20 49 43 92t45 90q4 8 8 12t15 8h16q8 -4 16.5 -7t12.5 -3q10 -12 6 -16q-16 -25 -41 -73t-44.5 -93t-26.5 -75t16 -17q12 8 18 13t14 9q55 49 110.5 103.5t108.5 103.5q12 14 22.5 21.5t27.5 7.5q8 4 19 -1t34 -22q0 -8 -1 -21.5 t-9 -17.5q-29 -20 -39.5 -50t-32.5 -58q-16 -25 -22 -55q-1 -7 -1 -14q0 -24 13 -52h19t20 4q45 12 87 25.5t83 29.5q25 10 50 21.5t56 11.5q-4 -12 -20.5 -36.5t-24.5 -28.5q-41 -29 -89 -50.5t-93 -44.5q-20 -8 -38 -12t-40 -4q-16 -2 -34.5 6t-33 21.5t-23.5 32t-7 34.5 q0 16 3 37t3 45q-10 -8 -17.5 -13t-11.5 -13q-25 -29 -53.5 -59t-52.5 -58q-12 -8 -28.5 -18.5t-33.5 -14.5q-25 -14 -49 10q-14 14 -22.5 29.5t-8.5 38.5z" />
<glyph unicode="v" horiz-adv-x="421" d="M27 387q-3 24 -3 48.5t3 49.5q10 96 28 183q4 8 5 12t1 8q8 29 18.5 34t49.5 6q8 -20 7 -40t-1 -37q-10 -41 -14 -82t-10 -77q-4 -23 -7.5 -47.5t0.5 -53.5q10 4 18.5 6t12.5 6q37 45 80 86t76 89q27 39 50.5 74.5t59.5 64.5q4 4 11.5 6t17.5 10q0 -16 -6 -22 q-8 -20 -19.5 -38t-23.5 -40q-10 -16 -22.5 -33.5t-12.5 -42.5q0 -4 -2 -8t-2 -8q-27 -33 -50.5 -69t-43.5 -69q-23 -23 -43.5 -44t-48.5 -33q-20 -10 -43 -12.5t-47 12.5q-16 12 -27.5 25.5t-11.5 35.5z" />
<glyph unicode="w" horiz-adv-x="690" d="M-23 426q8 57 21.5 116.5t36.5 112.5q4 12 13 22.5t26 10.5q23 0 45 6t39 -22q-33 -53 -56.5 -113.5t-33.5 -122.5q12 -8 18 -3t16 9q23 25 43.5 52.5t47.5 52.5q8 8 15 20.5t17 22.5t16.5 15t13.5 6t18.5 0t31.5 -5q-9 -41 -9 -74v-7q1 -36 5 -60.5t7 -37.5t1 -13 q31 6 57.5 21.5t49 36t42 40.5t34.5 37q45 57 88 109.5t71 117.5q4 0 5 4t6 8q20 16 28 -6q0 -12 2 -27.5t-2 -31.5q-8 -27 -20.5 -52.5t-28.5 -47.5q-82 -123 -182 -232q-16 -16 -33.5 -30.5t-44.5 -24.5q-25 -11 -48 -11q-55 0 -97 66q-4 12 -11.5 25.5t-15.5 25.5 l-55 -55q-25 -33 -70 -51q-20 -8 -40.5 -6t-37.5 22q-30 25 -30 59q0 7 1 15z" />
<glyph unicode="x" horiz-adv-x="423" d="M-178 301q6 18 10 28.5t9 18.5t13.5 17.5t22.5 21.5q47 33 89 66.5t89 70.5q10 4 16.5 11.5t12.5 11.5q-4 29 -15.5 41t-23.5 28q-18 29 -27 68q33 8 57.5 4t44 -16.5t36 -27.5t34.5 -28q33 29 67 45.5t69 32.5q18 10 32.5 4t30.5 -10q27 0 23 -26q-45 -25 -87 -50.5 t-83 -54.5q8 -29 26.5 -47t32.5 -41q10 -16 22.5 -29.5t20.5 -25.5q2 -8 3 -16.5t3 -16.5q-8 -18 -24 -29q-14 -4 -29.5 -5t-26.5 11q-10 10 -16 17.5t-16 15.5q-23 27 -46.5 52.5t-48.5 54.5q-53 -29 -98 -58.5t-86 -64.5q-29 -25 -65.5 -45.5t-71.5 -28.5z" />
<glyph unicode="y" horiz-adv-x="468" d="M-337 -390q7 38 20 75q18 37 36.5 73.5t47.5 61.5q10 10 16 20t14 21q43 66 96.5 123t104.5 116q29 33 64.5 61.5t70.5 57.5q29 16 49.5 40t42.5 48q10 18 22.5 38t10.5 42q4 25 17.5 47.5t5.5 50.5q-6 -4 -10.5 -5t-8.5 -5q-14 -12 -28.5 -24.5t-28.5 -24.5 q-20 -16 -39 -28.5t-41 -16.5q-21 -6 -39 -6t-34 6q-32 12 -40 65q6 16 12.5 39t10.5 45q4 29 15 47.5t22 38.5q12 23 26.5 43.5t26.5 47.5q8 20 24.5 32.5t34.5 16.5q23 4 37.5 -3.5t14.5 -35.5q-35 -49 -67 -104.5t-54 -114.5q10 -10 16 -7t12 11q96 76 179 176 q20 23 45 45q12 -4 25.5 -8t31.5 -8q-4 -27 -3 -51.5t-13 -49.5q-29 -57 -41.5 -111.5t-30.5 -113.5q2 -2 2 -4v-12q10 4 20.5 5t18.5 1q0 -2 2 -4q0 -2 1 -4.5t1 -4.5q-14 -12 -19 -16q-47 -23 -68.5 -61.5t-35.5 -79.5q-16 -33 -31.5 -67t-29.5 -64q-4 -8 -12.5 -15.5 t-14.5 -17.5q6 10 7 14t3 8q-2 -4 -3 -8t-7 -8q6 -18 2 -29q-33 -72 -65.5 -142.5t-67.5 -141.5q-25 -39 -52.5 -76t-54.5 -72q-23 -29 -51 -48t-63 -28q-36 -14 -67 -14h-8q-34 2 -62 31q-8 6 -9 16q-11 23 -11 48q0 11 2 23zM-258 -377q-4 -31 11.5 -42t39.5 1 q16 10 34.5 25.5t31.5 32.5q35 39 65.5 74.5t52.5 88.5q2 12 10.5 22.5t16.5 22.5q16 27 34.5 48.5t29.5 46.5q18 41 39.5 79.5t39.5 77.5q10 16 20.5 36.5t8.5 47.5q-20 0 -35.5 -10t-29.5 -24q-20 -12 -37 -29t-35 -33q-16 -16 -36.5 -33.5t-39.5 -34.5q-25 -25 -48.5 -53 t-39.5 -63q-18 -41 -43 -80t-43 -78q-18 -29 -28.5 -61.5t-18.5 -61.5z" />
<glyph unicode="z" horiz-adv-x="458" d="M-272 -156q4 12 8 27.5t12 28.5q29 37 52.5 69.5t58.5 61.5q16 16 30.5 36.5t34.5 32.5q4 0 10.5 4.5t18.5 12.5q-8 -74 -51 -113q-25 -35 -48.5 -71.5t-39.5 -77.5q0 -4 -3.5 -11.5t-3.5 -11.5q14 -10 23.5 -13t22.5 7q12 4 23 12t22 17q49 29 93 64.5t91 74.5 q16 16 29.5 32.5t25.5 32.5q8 23 23.5 43.5t34.5 36.5q12 14 20 24.5t18 26.5q33 61 52 127q0 10 3 15.5t3 9.5q0 46 -29 72q-25 22 -64 23q-6 0 -12 -1q-8 0 -19 -3t-26 -3q-29 0 -43 -16q-12 -16 -28.5 -16.5t-32.5 -0.5q-14 4 -20.5 15.5t-14.5 23.5q31 45 74 88 q16 25 37.5 44.5t33.5 47.5q-25 0 -48 -1t-46 8q-6 29 23 39q29 12 58.5 26t60.5 19q19 4 34 4q17 1 29 -5q22 -10 49 -51q-16 -41 -52 -71.5t-60 -75.5q12 -8 26.5 -9t22.5 -1q33 -6 60.5 -27.5t45 -52.5t21.5 -69q1 -9 1 -18q0 -29 -10 -57q-25 -70 -77 -124 q-18 -25 -37 -48.5t-31 -52.5q-10 -16 -25.5 -33.5t-31.5 -33.5q-4 -8 -14.5 -14.5t-14.5 -18.5q-37 -47 -82 -82t-92 -70q-51 -35 -111 -45q-10 -3 -21 -3q-23 1 -49 15q-36 22 -48 50q-10 10 0 30z" />
<glyph unicode="{" horiz-adv-x="409" d="M33 690q-8 8 0 23q10 4 23.5 11t25.5 11q12 6 22.5 16.5l20.5 20.5q12 20 27.5 41t25.5 45q6 25 15.5 48.5t17.5 47.5q6 25 25.5 77t44 105.5t50 93.5t44.5 40q27 0 35 -1t34 -20q-29 -8 -59.5 -47t-46.5 -76q-20 -51 -34.5 -97t-30 -90t-35 -88t-48.5 -89 q-4 -6 -6 -11.5t-6 -17.5q35 -14 36 -58t-13.5 -97.5t-34 -104.5t-25.5 -82q-4 -23 -7 -43t-1 -38.5t12.5 -34t32.5 -23.5q8 -4 25.5 0t23.5 4q8 -4 18.5 -12t16.5 -17.5t5 -17.5t-13 -12t-26.5 -6.5t-32.5 2.5q-29 6 -55.5 19t-45.5 40q-35 27 -35 76q0 16 1 32.5t10 32.5 q12 47 28.5 93t30.5 94q6 35 16 51q4 14 1 25.5t-9 23.5q-6 -4 -15 -6t-16 -6q-23 -4 -40 3t-33 19z" />
<glyph unicode="|" horiz-adv-x="333" d="M-8 195q8 57 19.5 124.5t23.5 137t25.5 137.5t25.5 123q14 63 32.5 140t39 157t41 158.5t39.5 146.5q0 16 11 37.5t27.5 37t37 18.5t42.5 -17q-8 -14 -12 -23.5t-7 -19t-6 -19.5t-9 -26q-37 -96 -65 -198.5t-53.5 -209t-52 -218.5t-59.5 -228q-12 -72 -23.5 -140.5 t-13.5 -138.5q-2 -31 -13 -38t-23.5 0t-21.5 24.5t-5 34.5z" />
<glyph unicode="}" horiz-adv-x="360" d="M-55 258q0 10 8 10q10 4 32.5 1t32.5 -1q63 37 84 98.5t28 130t17.5 136t55.5 117.5q10 10 26.5 15t10.5 21q-20 25 -29.5 40.5t-10.5 30.5t4 33.5t13 49.5q14 47 32.5 96t18.5 94q-4 37 -30.5 59.5t-49.5 47.5l2 2q4 4 5 6h4q12 2 23 0t24 -4q27 0 48 -17.5t34.5 -42 t17.5 -53t-4 -49.5q-10 -25 -24.5 -61.5t-26.5 -74.5t-18.5 -72.5t1.5 -55.5q4 -10 12.5 -21.5t18.5 -25.5q10 -8 13.5 -17.5t7.5 -23.5q4 -10 -1.5 -18.5t-17.5 -12.5q-25 2 -45 -15t-33.5 -42t-21.5 -51.5t-10 -44.5q-20 -72 -26.5 -138.5t-39.5 -123.5 q-23 -35 -49.5 -47.5t-63.5 -10.5q-45 4 -73 35z" />
<glyph unicode="~" horiz-adv-x="544" d="M57 446q-8 8 0 13q10 14 21.5 23.5t19.5 17.5q16 16 30.5 27.5t33.5 15.5q4 6 12 8t10 2q47 0 68 -33q8 -8 13 -17t14 -16q10 -23 31.5 -25.5t39.5 5.5q37 14 70 53q8 14 14 21q2 8 12.5 8t14.5 -6q2 -4 7 -7.5t9 -11.5q23 -20 4 -47q-16 -39 -55 -55q-14 -8 -28.5 -11 t-30.5 -8q-27 -14 -58 3q-29 12 -53.5 25t-46.5 38q-4 6 -8 9t-13 9q-8 4 -14 0q-10 -10 -16 -20t-17 -16q-4 -12 -20 -19q-25 -14 -47 0q-4 6 -17 14z" />
<glyph unicode="&#xa1;" horiz-adv-x="505" d="M50 63q4 10 8 21.5t8 17.5q12 35 28.5 71t30.5 73l37 104q18 47 37 90t29 88q18 41 30.5 81t24.5 75q8 16 14.5 26.5t20.5 18.5q18 6 24 25q4 8 13 8q4 4 8 0l6 -4q-2 -10 -2 -25q-10 -31 -21.5 -64.5t-23.5 -70.5q0 -12 -6 -23q-4 -14 -12.5 -25t-10.5 -22 q-16 -61 -38.5 -117.5t-38.5 -117.5q-14 -61 -34 -119.5t-30 -124.5q-10 -4 -21.5 -8t-21.5 -12q-16 -4 -23.5 -5.5t-17.5 7.5q-10 4 -14 15t-4 17zM310 879q12 35 22 67.5t29 65.5q16 25 39 28q12 0 23.5 -4t19.5 -20q-8 -61 -29 -125q-4 -12 -7 -20.5t-8 -13.5t-12.5 -11 t-21.5 -17q-4 4 -14.5 5.5t-18.5 5.5t-17 16t-5 23z" />
<glyph unicode="&#xa3;" horiz-adv-x="724" d="M-18 322l12 6q31 16 56.5 36.5t49.5 38.5q20 14 21 25q0 35 8 64.5t14 58.5q6 18 9.5 35.5t7.5 34.5q0 12 -13 12q-10 0 -16 -2t-14 -2q-33 -6 -70 10q-8 0 -8 8q0 4 2 8q0 2 2 7q14 10 29 10q27 8 56.5 16t59.5 14q6 18 14.5 34t14.5 32q20 57 47 102q29 47 64 93 q18 35 45.5 61.5t60.5 50.5q6 2 12.5 5t16.5 3q14 -4 27.5 -5t23.5 -3q8 -4 15.5 -8t13.5 -6q25 -10 32 -26.5t7 -39.5q-4 -8 -6.5 -17t-6.5 -17q-16 -12 -35.5 -14.5t-35.5 5.5q-12 4 -23.5 5t-23.5 1q-4 2 -4.5 3.5t-4.5 1.5q14 14 25 14q14 6 17 16.5t14 16.5q0 4 -3 8 t-3 8q-2 4 -21 4q-16 -8 -28.5 -19.5t-22.5 -21.5q-51 -59 -87 -123.5t-65 -136.5v-18q27 -4 52.5 -4h50.5q25 -4 48 -6.5t48 -2.5q-10 -35 -47 -34q-37 0 -74 -7q-14 -4 -31.5 -2t-33.5 2t-23 -6q-12 0 -20 -8q-4 -16 -8.5 -31.5t-8.5 -25.5q-6 -29 -14 -57.5t-17 -53.5 q-2 -8 -2 -18q0 -2 2.5 -7.5t10.5 -5.5q10 0 18 1t19 6q76 10 159 -7q16 -2 36 -8t38 -14q25 -10 48.5 -20.5t49.5 -22.5q16 -8 35 -13.5t41 -0.5q27 6 49 -17q0 -10 -5 -16t-11 -10q-10 -4 -20.5 -8.5t-20.5 -8.5q-37 4 -67.5 15.5t-61.5 27.5q-53 29 -117 43 q-27 4 -51.5 9.5t-52.5 -3.5q-14 -2 -27.5 -3t-30.5 -7q-16 -4 -30.5 -9t-26.5 -18q-4 -10 -14.5 -15t-22.5 -11q-6 0 -11 -4t-11 -8q-25 -18 -56 -37q-14 -10 -32.5 -7t-34.5 13l-4 4v2q-4 8 -4 25z" />
<glyph unicode="&#xa4;" horiz-adv-x="575" d="M39 463q14 25 26.5 44t18.5 42q0 4 4 7t4 11q6 4 10 10.5t13 12.5q12 27 12 55q-6 53 2 94q8 23 14 43q8 18 16.5 41t12.5 45q-4 18 -13 31.5t-20 26.5q-12 20 -25.5 37.5t-25.5 37.5q-4 4 -2 9.5t6 9.5q20 6 35.5 5t26.5 -15q14 -14 23 -31.5t24 -34.5q6 -10 13 -19.5 t15 -19.5h21q10 0 16 -4t13 -8q10 -6 10 -20.5t-15 -18.5q-4 -4 -6 -8t-10 -4l-9 -6t-11 -7q-23 -33 -31 -67.5t-19 -71.5v-10t5 -16q0 -4 3 -9.5t7 -5.5h32.5t26.5 10q33 14 57.5 37t45.5 47q8 10 13 19.5t5 23.5q0 18 -12 19q-6 2 -12.5 3t-12.5 5q-16 8 -20 21 q-4 6 -12.5 9t-4.5 13q0 4 2 4t2 4q23 10 40.5 24.5t33.5 31.5q16 12 33.5 27.5t34.5 27.5q8 8 18 8q8 6 12 0t4 -10q-6 -47 -34 -80q-10 -10 -19.5 -22.5t-19.5 -20.5q0 -6 -2 -9t-4 -7l20 -21q18 -16 20.5 -35.5t-6.5 -38.5q-6 -23 -20 -42t-31 -42q-4 -8 -7 -12t-7 -8 q35 -20 59.5 -51t46.5 -60q0 -8 4 -8q27 -33 7 -72q0 -6 -5.5 -11t-7.5 -1q-6 0 -14 8q-4 0 -6 4.5t-2 8.5q-23 43 -54.5 77.5t-60.5 73.5q-4 4 -6 4h-2q-27 -10 -43 -15t-31.5 -7t-32 -1t-43.5 5l-8 -8t-8 -9q-16 -29 -31.5 -51t-31.5 -45q-6 -14 -19.5 -19t-26.5 -9 q-12 8 -24 14z" />
<glyph unicode="&#xa5;" horiz-adv-x="602" d="M6 1057q0 10 8 10q31 14 59.5 10t57.5 -33q51 -51 90 -124q16 -27 31.5 -52.5t28.5 -54.5q6 -12 14 -23.5t12 -21.5q10 0 10 8q25 39 46.5 77t44.5 79q6 10 10 21.5t6 21.5q6 16 9 27.5t13 25.5q2 4 1 7t2 7q0 4 3 10.5t7 14.5q35 8 65 0q10 0 13.5 -12.5t-0.5 -22.5 q-29 -43 -54.5 -91t-54.5 -99q-20 -37 -41.5 -80t-44.5 -84q-6 -4 -6 -14q-4 -4 1 -6.5t9 -2.5q4 -4 8 -5t8 -1q29 0 56.5 1t56.5 5q23 0 44.5 -6t43.5 -10q4 0 10.5 -6t6.5 -15q0 -8 -7.5 -13t-13.5 -1q-27 6 -49.5 3t-46.5 -3h-30.5t-31.5 -4q-23 -4 -42 -5t-37 -5 q-27 0 -33 -27q-4 -4 -1 -9t9 -5q4 -2 20 -2q14 2 32 4t34 2q18 0 36.5 1t39.5 -7q12 0 12 -15q0 -6 -3 -14t-9 -8q-20 0 -39 -5t-37 -9q-31 0 -58.5 -6.5t-56.5 -10.5q-29 0 -35 -26q-10 -16 -18 -33t-18 -35q-8 -27 -21 -47q-8 -10 -11 -22.5t-11 -22.5q-12 -41 -48 -41 q-8 0 -14 5t-2 13q0 16 1 31.5t5 32.5q4 4 4 16q10 27 16.5 48.5t22.5 41.5q0 10 -5 15.5t-9 11.5q-6 10 -4 19.5t10 13.5q23 8 36 21.5t26 31.5q-4 4 -6.5 9t-6.5 5q-8 -4 -35 -4q-29 -14 -59 -20q-16 -8 -31.5 -3t-31.5 9v8q4 4 4 8t4 8q18 12 39 21q29 10 53 18.5 t53 12.5q12 0 22.5 3t22.5 7q10 4 18.5 7t14.5 13q4 10 10 20.5t12 18.5q-10 14 -17 24.5t-13 24.5q-27 47 -57.5 94.5t-57.5 98.5q-12 23 -28.5 45.5t-39.5 38.5q-12 10 -24 17t-25 16q-4 0 -6 2q-2 0 -2 2z" />
<glyph unicode="&#xa8;" horiz-adv-x="643" d="M104 1181.5q0 10.5 5.5 18.5t15.5 8q10 4 18.5 3t14.5 3q20 12 37.5 0t26.5 -31.5t8 -39t-15 -19.5q-45 -14 -96 25q-6 2 -10.5 12t-4.5 20.5zM391 1181.5q0 10.5 5.5 18.5t15.5 8q10 4 18 3t14 3q20 12 38 0t27 -31.5t8 -39t-15 -19.5q-45 -14 -96 25q-6 2 -10.5 12 t-4.5 20.5z" />
<glyph unicode="&#xad;" horiz-adv-x="694" d="M94 633q0 20 17 20q8 0 13 -2t13 -2t15.5 -2t15.5 2q53 8 104.5 0t102.5 -12q20 0 36.5 -2t32.5 -2h80h27q12 -4 18 -17.5t-2 -25.5v-4q-10 -10 -14 -17.5t-12 -15.5h-127q-29 -4 -59.5 -2t-63.5 2q-16 0 -32.5 -1t-37.5 -5h-22.5t-24.5 -4q-68 0 -74 57q0 8 -1 16.5 t-5 16.5z" />
<glyph unicode="&#xb4;" horiz-adv-x="350" d="M56 810q-1 5 3 9q16 45 49 82t66 60q20 16 43 16q6 0 8 -2q27 -4 38 -14.5t30 -26.5q8 -12 -2 -12q-14 -2 -24.5 -7.5t-20.5 -11.5q-4 -4 -6 -7t-7 -7q-14 -14 -27 -26.5t-28 -24.5q-18 -18 -39 -33q-8 -8 -17 -14.5t-16 -16.5q-2 -4 -5 -5t-5 -5q-8 -4 -10 -3t-8 5 q-16 12 -21 35q0 4 -1 9z" />
<glyph unicode="&#xbf;" horiz-adv-x="628" d="M38 217.5q1 17.5 5 36.5q8 35 26.5 67.5t45.5 61.5q29 33 64.5 62.5t70.5 62.5q37 37 76 82q39 41 70.5 80.5t54.5 87.5q4 6 12 23.5t17.5 36.5t15.5 36.5t8 23.5q12 23 17 36.5t26 17.5q10 0 20 -15q0 -10 1 -17t-3 -17q-4 -16 -12 -43t-18.5 -55.5t-20.5 -55.5t-20 -41 q-68 -115 -164 -207q-31 -31 -57.5 -60.5t-57.5 -64.5q-20 -25 -37.5 -52.5t-34.5 -55.5q-10 -16 -12 -29q-6 -47 33 -47q12 0 24.5 -2t22.5 2q25 6 49.5 11t52.5 15q6 4 13.5 8.5t11.5 8.5q23 10 44 11.5t50 -21.5q4 -8 6 -15.5t6 -17.5q-10 -6 -18 -17q-16 0 -29.5 -5 t-29.5 -13q-33 -18 -69 -24.5t-77 -14.5q-29 -4 -56.5 3t-51.5 18q-27 10 -41.5 26.5t-28.5 38.5q-6 16 -5 33.5zM500 1075v31q0 6 7 12t13 6q14 4 25.5 -1t21.5 -13t15.5 -17.5t11.5 -17.5q6 -14 -3 -42t-28 -28q-8 0 -14 2t-14 2q-10 10 -18.5 19.5t-12.5 19.5q-4 4 -4 27 z" />
<glyph unicode="&#xc0;" horiz-adv-x="1216" d="M0 23q6 8 11 13t9 15q29 49 56.5 98.5t54.5 102.5q12 23 -14 27h-8q-16 -2 -29.5 2t-28.5 10q-4 0 -12 8q-16 12 -4 25q6 10 8 12q16 18 45 37q16 8 30.5 14t28.5 14q23 10 42.5 18.5t39.5 18.5q23 10 38.5 23.5t29.5 30.5q23 29 46.5 58.5t45.5 57.5q31 37 61.5 74 t61.5 72q43 47 84 94t84 94q27 29 53.5 55.5t54.5 55.5q18 18 36 36.5t36 36.5q10 10 17.5 19.5t17.5 19.5q12 10 24.5 21.5t24.5 23.5q16 18 43 39q8 8 16.5 14.5t18.5 12.5q47 39 70 86q4 8 9 15t9 18q8 14 20.5 19t28.5 7q6 0 13.5 -1t15.5 -1q10 -2 17 -12t9 -21 q4 -14 -2 -34q-4 -23 -11 -42.5t-13 -41.5q-29 -96 -51 -187q-6 -31 -15.5 -63.5t-19.5 -63.5q-16 -55 -29.5 -110.5t-30.5 -110.5q-2 -6 -2 -11t-2 -9q-10 -47 35 -41q12 2 22.5 3t22.5 3q4 0 10.5 -1t12.5 -1l4 -4q4 -8 0 -15q-6 -14 -21 -20q-29 -20 -59 -29 q-10 -4 -20.5 -7t-20.5 -7q-16 -6 -20 -21q-4 -8 -9 -20q-27 -86 -51 -173t-49 -175q-2 -8 -4 -16.5t-6 -18.5q-8 -25 -14.5 -49.5t-12.5 -48.5q-4 -23 -12 -43.5t-12 -42.5q-10 -29 -19.5 -58.5t-19.5 -60.5q-6 -18 -11.5 -37.5t-9.5 -40.5q-10 -43 -20 -72q-8 -16 -19 -24 q-4 -4 -13 -1t-11 9t-2 11.5t-2 11.5q2 6 1 14t1 14q4 29 8 55.5t12 53.5q4 10 5 18t3 17q6 29 12.5 55t18.5 51q4 8 6 17.5t4 19.5q0 33 17 72q12 39 23 76.5t22 76.5q4 16 6 23q10 20 16 40.5t10 43.5q8 41 15.5 79.5t17.5 79.5q0 4 -4 10.5t-8 6.5q-2 2 -6 2h-31 q-16 -4 -31.5 -7t-31.5 -7q-45 -14 -89.5 -25.5t-89.5 -26.5q-57 -16 -112.5 -35.5t-108.5 -41.5q-10 -4 -18 -11.5t-17 -15.5q-2 -2 -2 -4t-2 -2q-12 -20 -24.5 -38t-24.5 -36q-31 -53 -61.5 -105.5t-57.5 -107.5q-10 -23 -23 -45.5t-28 -44.5q-8 -12 -22 -19q-8 -4 -21 -8 q-29 -6 -51 4q-4 0 -6 2t-6 5q-10 2 -16.5 8t-10.5 14q-8 10 -2 21zM494 557q-2 -4 3 -9t9 -5q4 2 10 2t10 2q41 10 83 20.5t83 18.5t82 19l82 22q37 6 70 24q18 14 22 27q8 25 16.5 49.5t14.5 48.5q10 43 18.5 86t14.5 86q4 12 4 23.5t4 21.5q12 47 21.5 93.5t19.5 93.5 q2 4 2 14t-6 12q-4 4 -15 -2q-10 -10 -21 -22.5t-24 -22.5q-16 -12 -27.5 -25.5t-25.5 -27.5q-29 -35 -55.5 -68.5t-61.5 -62.5q-4 -2 -10 -12q-16 -16 -30.5 -35t-30.5 -37l-33.5 -33.5t-28.5 -40.5l-7 -7l-7 -7q-20 -20 -36.5 -42t-33.5 -44q-20 -27 -40.5 -52.5 t-41.5 -52.5l-16 -20t-14 -21q-4 -4 -4 -14zM1018 1677q18 16 29.5 26.5t37.5 14.5q2 2 8 2q23 0 43 -16q33 -23 66 -60t49 -82q4 -4 3 -9t-1 -9q-4 -23 -20 -35q-6 -4 -8.5 -5t-10.5 3q-2 4 -5 5t-5 5q-6 10 -15.5 16.5t-17.5 14.5q-23 14 -39 33q-14 12 -27.5 24t-27.5 27 q-4 4 -6 7t-6 7q-10 6 -20.5 11.5t-24.5 7.5q-10 0 -2 12z" />
<glyph unicode="&#xc1;" horiz-adv-x="1216" d="M0 23q6 8 11 13t9 15q29 49 56.5 98.5t54.5 102.5q12 23 -14 27h-8q-16 -2 -29.5 2t-28.5 10q-4 0 -12 8q-16 12 -4 25q6 10 8 12q16 18 45 37q16 8 30.5 14t28.5 14q23 10 42.5 18.5t39.5 18.5q23 10 38.5 23.5t29.5 30.5q23 29 46.5 58.5t45.5 57.5q31 37 61.5 74 t61.5 72q43 47 84 94t84 94q27 29 53.5 55.5t54.5 55.5q18 18 36 36.5t36 36.5q10 10 17.5 19.5t17.5 19.5q12 10 24.5 21.5t24.5 23.5q16 18 43 39q8 8 16.5 14.5t18.5 12.5q47 39 70 86q4 8 9 15t9 18q8 14 20.5 19t28.5 7q6 0 13.5 -1t15.5 -1q10 -2 17 -12t9 -21 q4 -14 -2 -34q-4 -23 -11 -42.5t-13 -41.5q-29 -96 -51 -187q-6 -31 -15.5 -63.5t-19.5 -63.5q-16 -55 -29.5 -110.5t-30.5 -110.5q-2 -6 -2 -11t-2 -9q-10 -47 35 -41q12 2 22.5 3t22.5 3q4 0 10.5 -1t12.5 -1l4 -4q4 -8 0 -15q-6 -14 -21 -20q-29 -20 -59 -29 q-10 -4 -20.5 -7t-20.5 -7q-16 -6 -20 -21q-4 -8 -9 -20q-27 -86 -51 -173t-49 -175q-2 -8 -4 -16.5t-6 -18.5q-8 -25 -14.5 -49.5t-12.5 -48.5q-4 -23 -12 -43.5t-12 -42.5q-10 -29 -19.5 -58.5t-19.5 -60.5q-6 -18 -11.5 -37.5t-9.5 -40.5q-10 -43 -20 -72q-8 -16 -19 -24 q-4 -4 -13 -1t-11 9t-2 11.5t-2 11.5q2 6 1 14t1 14q4 29 8 55.5t12 53.5q4 10 5 18t3 17q6 29 12.5 55t18.5 51q4 8 6 17.5t4 19.5q0 33 17 72q12 39 23 76.5t22 76.5q4 16 6 23q10 20 16 40.5t10 43.5q8 41 15.5 79.5t17.5 79.5q0 4 -4 10.5t-8 6.5q-2 2 -6 2h-31 q-16 -4 -31.5 -7t-31.5 -7q-45 -14 -89.5 -25.5t-89.5 -26.5q-57 -16 -112.5 -35.5t-108.5 -41.5q-10 -4 -18 -11.5t-17 -15.5q-2 -2 -2 -4t-2 -2q-12 -20 -24.5 -38t-24.5 -36q-31 -53 -61.5 -105.5t-57.5 -107.5q-10 -23 -23 -45.5t-28 -44.5q-8 -12 -22 -19q-8 -4 -21 -8 q-29 -6 -51 4q-4 0 -6 2t-6 5q-10 2 -16.5 8t-10.5 14q-8 10 -2 21zM494 557q-2 -4 3 -9t9 -5q4 2 10 2t10 2q41 10 83 20.5t83 18.5t82 19l82 22q37 6 70 24q18 14 22 27q8 25 16.5 49.5t14.5 48.5q10 43 18.5 86t14.5 86q4 12 4 23.5t4 21.5q12 47 21.5 93.5t19.5 93.5 q2 4 2 14t-6 12q-4 4 -15 -2q-10 -10 -21 -22.5t-24 -22.5q-16 -12 -27.5 -25.5t-25.5 -27.5q-29 -35 -55.5 -68.5t-61.5 -62.5q-4 -2 -10 -12q-16 -16 -30.5 -35t-30.5 -37l-33.5 -33.5t-28.5 -40.5l-7 -7l-7 -7q-20 -20 -36.5 -42t-33.5 -44q-20 -27 -40.5 -52.5 t-41.5 -52.5l-16 -20t-14 -21q-4 -4 -4 -14zM1051 1578q-1 5 3 9q16 45 49 82t66 60q20 16 43 16q6 0 8 -2q27 -4 38 -14.5t30 -26.5q8 -12 -2 -12q-14 -2 -24.5 -7.5t-20.5 -11.5q-4 -4 -6 -7t-7 -7q-14 -14 -27 -26.5t-28 -24.5q-18 -18 -39 -33q-8 -8 -17 -14.5 t-16 -16.5q-2 -4 -5 -5t-5 -5q-8 -4 -10 -3t-8 5q-16 12 -21 35q0 4 -1 9z" />
<glyph unicode="&#xc2;" horiz-adv-x="1216" d="M0 23q6 8 11 13t9 15q29 49 56.5 98.5t54.5 102.5q12 23 -14 27h-8q-16 -2 -29.5 2t-28.5 10q-4 0 -12 8q-16 12 -4 25q6 10 8 12q16 18 45 37q16 8 30.5 14t28.5 14q23 10 42.5 18.5t39.5 18.5q23 10 38.5 23.5t29.5 30.5q23 29 46.5 58.5t45.5 57.5q31 37 61.5 74 t61.5 72q43 47 84 94t84 94q27 29 53.5 55.5t54.5 55.5q18 18 36 36.5t36 36.5q10 10 17.5 19.5t17.5 19.5q12 10 24.5 21.5t24.5 23.5q16 18 43 39q8 8 16.5 14.5t18.5 12.5q47 39 70 86q4 8 9 15t9 18q8 14 20.5 19t28.5 7q6 0 13.5 -1t15.5 -1q10 -2 17 -12t9 -21 q4 -14 -2 -34q-4 -23 -11 -42.5t-13 -41.5q-29 -96 -51 -187q-6 -31 -15.5 -63.5t-19.5 -63.5q-16 -55 -29.5 -110.5t-30.5 -110.5q-2 -6 -2 -11t-2 -9q-10 -47 35 -41q12 2 22.5 3t22.5 3q4 0 10.5 -1t12.5 -1l4 -4q4 -8 0 -15q-6 -14 -21 -20q-29 -20 -59 -29 q-10 -4 -20.5 -7t-20.5 -7q-16 -6 -20 -21q-4 -8 -9 -20q-27 -86 -51 -173t-49 -175q-2 -8 -4 -16.5t-6 -18.5q-8 -25 -14.5 -49.5t-12.5 -48.5q-4 -23 -12 -43.5t-12 -42.5q-10 -29 -19.5 -58.5t-19.5 -60.5q-6 -18 -11.5 -37.5t-9.5 -40.5q-10 -43 -20 -72q-8 -16 -19 -24 q-4 -4 -13 -1t-11 9t-2 11.5t-2 11.5q2 6 1 14t1 14q4 29 8 55.5t12 53.5q4 10 5 18t3 17q6 29 12.5 55t18.5 51q4 8 6 17.5t4 19.5q0 33 17 72q12 39 23 76.5t22 76.5q4 16 6 23q10 20 16 40.5t10 43.5q8 41 15.5 79.5t17.5 79.5q0 4 -4 10.5t-8 6.5q-2 2 -6 2h-31 q-16 -4 -31.5 -7t-31.5 -7q-45 -14 -89.5 -25.5t-89.5 -26.5q-57 -16 -112.5 -35.5t-108.5 -41.5q-10 -4 -18 -11.5t-17 -15.5q-2 -2 -2 -4t-2 -2q-12 -20 -24.5 -38t-24.5 -36q-31 -53 -61.5 -105.5t-57.5 -107.5q-10 -23 -23 -45.5t-28 -44.5q-8 -12 -22 -19q-8 -4 -21 -8 q-29 -6 -51 4q-4 0 -6 2t-6 5q-10 2 -16.5 8t-10.5 14q-8 10 -2 21zM494 557q-2 -4 3 -9t9 -5q4 2 10 2t10 2q41 10 83 20.5t83 18.5t82 19l82 22q37 6 70 24q18 14 22 27q8 25 16.5 49.5t14.5 48.5q10 43 18.5 86t14.5 86q4 12 4 23.5t4 21.5q12 47 21.5 93.5t19.5 93.5 q2 4 2 14t-6 12q-4 4 -15 -2q-10 -10 -21 -22.5t-24 -22.5q-16 -12 -27.5 -25.5t-25.5 -27.5q-29 -35 -55.5 -68.5t-61.5 -62.5q-4 -2 -10 -12q-16 -16 -30.5 -35t-30.5 -37l-33.5 -33.5t-28.5 -40.5l-7 -7l-7 -7q-20 -20 -36.5 -42t-33.5 -44q-20 -27 -40.5 -52.5 t-41.5 -52.5l-16 -20t-14 -21q-4 -4 -4 -14zM1030 1579q39 39 76 81t68 89h39v-4h2q33 -27 32 -72q0 -20 4.5 -37.5t8.5 -33.5q4 -8 4 -23q0 -10 -9.5 -19t-17.5 -9t-12 6t-9 9t-9 13q-6 10 -9.5 21.5t-11.5 21.5q-2 4 -4 10.5t-4 12.5q-18 -18 -27 -37q-10 -6 -15 -13.5 t-15 -15.5q-6 -10 -14.5 -15t-16.5 -15q-10 -6 -13 -7q-16 -12 -30 7q-4 10 -9.5 15t-7.5 15z" />
<glyph unicode="&#xc3;" horiz-adv-x="1216" d="M0 23q6 8 11 13t9 15q29 49 56.5 98.5t54.5 102.5q12 23 -14 27h-8q-16 -2 -29.5 2t-28.5 10q-4 0 -12 8q-16 12 -4 25q6 10 8 12q16 18 45 37q16 8 30.5 14t28.5 14q23 10 42.5 18.5t39.5 18.5q23 10 38.5 23.5t29.5 30.5q23 29 46.5 58.5t45.5 57.5q31 37 61.5 74 t61.5 72q43 47 84 94t84 94q27 29 53.5 55.5t54.5 55.5q18 18 36 36.5t36 36.5q10 10 17.5 19.5t17.5 19.5q12 10 24.5 21.5t24.5 23.5q16 18 43 39q8 8 16.5 14.5t18.5 12.5q47 39 70 86q4 8 9 15t9 18q8 14 20.5 19t28.5 7q6 0 13.5 -1t15.5 -1q10 -2 17 -12t9 -21 q4 -14 -2 -34q-4 -23 -11 -42.5t-13 -41.5q-29 -96 -51 -187q-6 -31 -15.5 -63.5t-19.5 -63.5q-16 -55 -29.5 -110.5t-30.5 -110.5q-2 -6 -2 -11t-2 -9q-10 -47 35 -41q12 2 22.5 3t22.5 3q4 0 10.5 -1t12.5 -1l4 -4q4 -8 0 -15q-6 -14 -21 -20q-29 -20 -59 -29 q-10 -4 -20.5 -7t-20.5 -7q-16 -6 -20 -21q-4 -8 -9 -20q-27 -86 -51 -173t-49 -175q-2 -8 -4 -16.5t-6 -18.5q-8 -25 -14.5 -49.5t-12.5 -48.5q-4 -23 -12 -43.5t-12 -42.5q-10 -29 -19.5 -58.5t-19.5 -60.5q-6 -18 -11.5 -37.5t-9.5 -40.5q-10 -43 -20 -72q-8 -16 -19 -24 q-4 -4 -13 -1t-11 9t-2 11.5t-2 11.5q2 6 1 14t1 14q4 29 8 55.5t12 53.5q4 10 5 18t3 17q6 29 12.5 55t18.5 51q4 8 6 17.5t4 19.5q0 33 17 72q12 39 23 76.5t22 76.5q4 16 6 23q10 20 16 40.5t10 43.5q8 41 15.5 79.5t17.5 79.5q0 4 -4 10.5t-8 6.5q-2 2 -6 2h-31 q-16 -4 -31.5 -7t-31.5 -7q-45 -14 -89.5 -25.5t-89.5 -26.5q-57 -16 -112.5 -35.5t-108.5 -41.5q-10 -4 -18 -11.5t-17 -15.5q-2 -2 -2 -4t-2 -2q-12 -20 -24.5 -38t-24.5 -36q-31 -53 -61.5 -105.5t-57.5 -107.5q-10 -23 -23 -45.5t-28 -44.5q-8 -12 -22 -19q-8 -4 -21 -8 q-29 -6 -51 4q-4 0 -6 2t-6 5q-10 2 -16.5 8t-10.5 14q-8 10 -2 21zM494 557q-2 -4 3 -9t9 -5q4 2 10 2t10 2q41 10 83 20.5t83 18.5t82 19l82 22q37 6 70 24q18 14 22 27q8 25 16.5 49.5t14.5 48.5q10 43 18.5 86t14.5 86q4 12 4 23.5t4 21.5q12 47 21.5 93.5t19.5 93.5 q2 4 2 14t-6 12q-4 4 -15 -2q-10 -10 -21 -22.5t-24 -22.5q-16 -12 -27.5 -25.5t-25.5 -27.5q-29 -35 -55.5 -68.5t-61.5 -62.5q-4 -2 -10 -12q-16 -16 -30.5 -35t-30.5 -37l-33.5 -33.5t-28.5 -40.5l-7 -7l-7 -7q-20 -20 -36.5 -42t-33.5 -44q-20 -27 -40.5 -52.5 t-41.5 -52.5l-16 -20t-14 -21q-4 -4 -4 -14zM997 1620q-8 8 0 12q10 14 21.5 23.5t19.5 17.5q16 16 30.5 27.5t33.5 15.5q4 6 12 8t10 2q47 0 68 -32q8 -8 13 -17.5t14 -15.5q10 -23 31.5 -26t39.5 5q37 14 70 54q8 14 14 20q2 8 12.5 8t14.5 -6q2 -4 7 -7t9 -11 q23 -20 4 -47q-16 -39 -55 -56q-14 -8 -28.5 -11t-30.5 -7q-27 -14 -58 2q-29 12 -53.5 25.5t-46.5 37.5q-4 6 -8 9.5t-13 9.5q-8 4 -14 0q-10 -10 -16 -20.5t-17 -16.5q-4 -12 -20 -18q-25 -14 -47 0q-4 6 -17 14z" />
<glyph unicode="&#xc4;" horiz-adv-x="1216" d="M0 23q6 8 11 13t9 15q29 49 56.5 98.5t54.5 102.5q12 23 -14 27h-8q-16 -2 -29.5 2t-28.5 10q-4 0 -12 8q-16 12 -4 25q6 10 8 12q16 18 45 37q16 8 30.5 14t28.5 14q23 10 42.5 18.5t39.5 18.5q23 10 38.5 23.5t29.5 30.5q23 29 46.5 58.5t45.5 57.5q31 37 61.5 74 t61.5 72q43 47 84 94t84 94q27 29 53.5 55.5t54.5 55.5q18 18 36 36.5t36 36.5q10 10 17.5 19.5t17.5 19.5q12 10 24.5 21.5t24.5 23.5q16 18 43 39q8 8 16.5 14.5t18.5 12.5q47 39 70 86q4 8 9 15t9 18q8 14 20.5 19t28.5 7q6 0 13.5 -1t15.5 -1q10 -2 17 -12t9 -21 q4 -14 -2 -34q-4 -23 -11 -42.5t-13 -41.5q-29 -96 -51 -187q-6 -31 -15.5 -63.5t-19.5 -63.5q-16 -55 -29.5 -110.5t-30.5 -110.5q-2 -6 -2 -11t-2 -9q-10 -47 35 -41q12 2 22.5 3t22.5 3q4 0 10.5 -1t12.5 -1l4 -4q4 -8 0 -15q-6 -14 -21 -20q-29 -20 -59 -29 q-10 -4 -20.5 -7t-20.5 -7q-16 -6 -20 -21q-4 -8 -9 -20q-27 -86 -51 -173t-49 -175q-2 -8 -4 -16.5t-6 -18.5q-8 -25 -14.5 -49.5t-12.5 -48.5q-4 -23 -12 -43.5t-12 -42.5q-10 -29 -19.5 -58.5t-19.5 -60.5q-6 -18 -11.5 -37.5t-9.5 -40.5q-10 -43 -20 -72q-8 -16 -19 -24 q-4 -4 -13 -1t-11 9t-2 11.5t-2 11.5q2 6 1 14t1 14q4 29 8 55.5t12 53.5q4 10 5 18t3 17q6 29 12.5 55t18.5 51q4 8 6 17.5t4 19.5q0 33 17 72q12 39 23 76.5t22 76.5q4 16 6 23q10 20 16 40.5t10 43.5q8 41 15.5 79.5t17.5 79.5q0 4 -4 10.5t-8 6.5q-2 2 -6 2h-31 q-16 -4 -31.5 -7t-31.5 -7q-45 -14 -89.5 -25.5t-89.5 -26.5q-57 -16 -112.5 -35.5t-108.5 -41.5q-10 -4 -18 -11.5t-17 -15.5q-2 -2 -2 -4t-2 -2q-12 -20 -24.5 -38t-24.5 -36q-31 -53 -61.5 -105.5t-57.5 -107.5q-10 -23 -23 -45.5t-28 -44.5q-8 -12 -22 -19q-8 -4 -21 -8 q-29 -6 -51 4q-4 0 -6 2t-6 5q-10 2 -16.5 8t-10.5 14q-8 10 -2 21zM494 557q-2 -4 3 -9t9 -5q4 2 10 2t10 2q41 10 83 20.5t83 18.5t82 19l82 22q37 6 70 24q18 14 22 27q8 25 16.5 49.5t14.5 48.5q10 43 18.5 86t14.5 86q4 12 4 23.5t4 21.5q12 47 21.5 93.5t19.5 93.5 q2 4 2 14t-6 12q-4 4 -15 -2q-10 -10 -21 -22.5t-24 -22.5q-16 -12 -27.5 -25.5t-25.5 -27.5q-29 -35 -55.5 -68.5t-61.5 -62.5q-4 -2 -10 -12q-16 -16 -30.5 -35t-30.5 -37l-33.5 -33.5t-28.5 -40.5l-7 -7l-7 -7q-20 -20 -36.5 -42t-33.5 -44q-20 -27 -40.5 -52.5 t-41.5 -52.5l-16 -20t-14 -21q-4 -4 -4 -14zM952 1613.5q0 10.5 5.5 18.5t15.5 8q10 4 18.5 3t14.5 3q20 12 37.5 0t26.5 -31.5t8 -39t-15 -19.5q-45 -14 -96 25q-6 2 -10.5 12t-4.5 20.5zM1239 1613.5q0 10.5 5.5 18.5t15.5 8q10 4 18 3t14 3q20 12 38 0t27 -31.5t8 -39 t-15 -19.5q-45 -14 -96 25q-6 2 -10.5 12t-4.5 20.5z" />
<glyph unicode="&#xc5;" horiz-adv-x="1216" d="M0 23q6 8 11 13t9 15q29 49 56.5 98.5t54.5 102.5q12 23 -14 27h-8q-16 -2 -29.5 2t-28.5 10q-4 0 -12 8q-16 12 -4 25q6 10 8 12q16 18 45 37q16 8 30.5 14t28.5 14q23 10 42.5 18.5t39.5 18.5q23 10 38.5 23.5t29.5 30.5q23 29 46.5 58.5t45.5 57.5q31 37 61.5 74 t61.5 72q43 47 84 94t84 94q27 29 53.5 55.5t54.5 55.5q18 18 36 36.5t36 36.5q10 10 17.5 19.5t17.5 19.5q12 10 24.5 21.5t24.5 23.5q16 18 43 39q8 8 16.5 14.5t18.5 12.5q47 39 70 86q4 8 9 15t9 18q8 14 20.5 19t28.5 7q6 0 13.5 -1t15.5 -1q10 -2 17 -12t9 -21 q4 -14 -2 -34q-4 -23 -11 -42.5t-13 -41.5q-29 -96 -51 -187q-6 -31 -15.5 -63.5t-19.5 -63.5q-16 -55 -29.5 -110.5t-30.5 -110.5q-2 -6 -2 -11t-2 -9q-10 -47 35 -41q12 2 22.5 3t22.5 3q4 0 10.5 -1t12.5 -1l4 -4q4 -8 0 -15q-6 -14 -21 -20q-29 -20 -59 -29 q-10 -4 -20.5 -7t-20.5 -7q-16 -6 -20 -21q-4 -8 -9 -20q-27 -86 -51 -173t-49 -175q-2 -8 -4 -16.5t-6 -18.5q-8 -25 -14.5 -49.5t-12.5 -48.5q-4 -23 -12 -43.5t-12 -42.5q-10 -29 -19.5 -58.5t-19.5 -60.5q-6 -18 -11.5 -37.5t-9.5 -40.5q-10 -43 -20 -72q-8 -16 -19 -24 q-4 -4 -13 -1t-11 9t-2 11.5t-2 11.5q2 6 1 14t1 14q4 29 8 55.5t12 53.5q4 10 5 18t3 17q6 29 12.5 55t18.5 51q4 8 6 17.5t4 19.5q0 33 17 72q12 39 23 76.5t22 76.5q4 16 6 23q10 20 16 40.5t10 43.5q8 41 15.5 79.5t17.5 79.5q0 4 -4 10.5t-8 6.5q-2 2 -6 2h-31 q-16 -4 -31.5 -7t-31.5 -7q-45 -14 -89.5 -25.5t-89.5 -26.5q-57 -16 -112.5 -35.5t-108.5 -41.5q-10 -4 -18 -11.5t-17 -15.5q-2 -2 -2 -4t-2 -2q-12 -20 -24.5 -38t-24.5 -36q-31 -53 -61.5 -105.5t-57.5 -107.5q-10 -23 -23 -45.5t-28 -44.5q-8 -12 -22 -19q-8 -4 -21 -8 q-29 -6 -51 4q-4 0 -6 2t-6 5q-10 2 -16.5 8t-10.5 14q-8 10 -2 21zM494 557q-2 -4 3 -9t9 -5q4 2 10 2t10 2q41 10 83 20.5t83 18.5t82 19l82 22q37 6 70 24q18 14 22 27q8 25 16.5 49.5t14.5 48.5q10 43 18.5 86t14.5 86q4 12 4 23.5t4 21.5q12 47 21.5 93.5t19.5 93.5 q2 4 2 14t-6 12q-4 4 -15 -2q-10 -10 -21 -22.5t-24 -22.5q-16 -12 -27.5 -25.5t-25.5 -27.5q-29 -35 -55.5 -68.5t-61.5 -62.5q-4 -2 -10 -12q-16 -16 -30.5 -35t-30.5 -37l-33.5 -33.5t-28.5 -40.5l-7 -7l-7 -7q-20 -20 -36.5 -42t-33.5 -44q-20 -27 -40.5 -52.5 t-41.5 -52.5l-16 -20t-14 -21q-4 -4 -4 -14zM1077 1643q10 45 25 90l4 16t-2 18q12 4 22 6.5t21 6.5q10 -10 20 -16.5t25 -16.5q12 8 20 12q23 10 47 6q10 -4 25.5 -6t32.5 -8q2 -4 7 -7t9 -11q25 -18 12 -52q-25 -72 -96 -120q-10 -6 -25.5 -13.5t-31.5 -11.5 q-31 -6 -56.5 1t-48.5 36q-27 29 -10 70zM1143 1624q-4 -10 3 -16t13 -6q4 0 8 1t6 5q31 12 62 35q10 4 20 13t19 19q4 4 7 10.5t7 12.5q-8 8 -14 8h-17.5t-17.5 -4q-14 0 -24.5 2t-22.5 2q-25 0 -29 -20q-6 -14 -10 -29.5t-10 -32.5z" />
<glyph unicode="&#xc7;" horiz-adv-x="1150" d="M-14 66q0 12 2 23t4 26q25 94 54.5 183t70.5 179q14 31 27.5 62.5t23.5 64.5q6 12 14 21q14 16 23.5 36.5t17.5 40.5q16 39 37 73t41 69q43 66 88 127t96 121q6 6 11.5 12t9.5 12q14 20 27.5 40t29.5 38q14 18 29.5 33.5t28.5 36.5l20 22l36.5 36.5t35.5 39.5 q16 20 35.5 38.5t35.5 39.5q14 16 41 20q16 0 31.5 -1t32.5 1q31 0 61 -12q27 -12 56 -8h22q10 -4 16.5 -6t14.5 -7q12 -4 18 -17t2 -30q-6 -6 -4 -6q-4 -12 -8 -14q-29 -35 -52.5 -72t-47.5 -76q-10 -16 -19.5 -34.5t-19.5 -36.5q-18 -41 -37 -81t-33 -85 q-10 -29 -23.5 -58.5t-23.5 -62.5q-6 -23 -14.5 -47.5t-12.5 -46.5q-6 -27 -14 -51.5t-18 -49.5q-10 -18 -25 -30q-2 -2 -8 -2q-4 0 -8 10q-6 31 -4 57q4 23 7 48.5t9 48.5l22 96q18 53 35 107.5t39 107.5l8 24l19 70q4 10 6 19.5t6 19.5q10 18 20.5 35.5t16.5 38.5 q-2 0 -2 2t-1 2t-1 2q-4 4 -6 4q-4 0 -8 -2q-16 -8 -29.5 -18.5t-30.5 -22.5q-37 -29 -72.5 -61.5t-70.5 -65.5q-27 -29 -51.5 -57.5t-51.5 -57.5q-57 -66 -107 -135.5t-97 -142.5l-64 -103q-16 -29 -30.5 -54.5t-28.5 -53.5q-29 -59 -53.5 -118.5t-47.5 -121.5 q-16 -45 -29.5 -89t-23.5 -91q-6 -37 -6 -76q0 -43 12 -86q16 -37 47 -55q4 0 7.5 -2t7.5 -4q23 -4 43 -5t43 5q35 10 68.5 21t66.5 30q53 29 103 59.5t100 65.5q29 20 57.5 41.5t60.5 36.5q4 2 7.5 4t7.5 4q29 29 60.5 48t62.5 42q10 6 19 12t20 15q25 25 52 45t54 41 q31 23 59.5 46t57.5 50q14 12 28.5 23.5t28.5 21.5q12 8 21 -2q10 -10 6 -23q0 -8 -6 -14q0 -4 -2 -7t-5 -7q-4 -8 -10 -16.5t-14 -16.5q-23 -27 -45.5 -52.5t-46.5 -50.5q-23 -25 -48.5 -47t-52.5 -45q-35 -25 -66.5 -51t-66.5 -51q-16 -10 -31.5 -23.5t-31.5 -23.5 q-51 -41 -103.5 -76t-105.5 -70l-41 -24q-2 -4 2 -12q4 -18 9 -36t9 -34q8 -20 37 -21q18 -4 37 -7t35 -7q29 -6 43 -35q6 -10 10 -19t10 -22q6 -12 0 -30q-10 -31 -33.5 -53.5t-52.5 -28.5q-47 -10 -93 -1t-87 31q-14 12 -20 37q0 14 12 15q10 0 18.5 2t14.5 -2 q49 -20 110 -21h49q4 0 7.5 6t-0.5 11v10t-2 10q-6 8 -15.5 16.5t-13.5 14.5q-16 6 -32.5 8t-33.5 -8q-12 -16 -30 -17q-16 0 -21 17q-4 18 -7 34.5t-11 32.5q-2 16 -7.5 33.5t-9.5 38.5q-45 -20 -92 -34.5t-96 -18.5q-23 -2 -43.5 1t-42.5 7q-4 2 -10 3t-13 5 q-49 23 -90 49q-51 33 -63 103q-6 39 -6 80z" />
<glyph unicode="&#xc8;" horiz-adv-x="1112" d="M-35 -154q-4 12 6 19q16 14 30.5 27.5t31.5 27.5q25 20 46 42t44 44q10 10 15 19.5t16 19.5q12 12 16 35q4 20 11 38.5t16 37.5q10 23 19 44t17 42q12 29 21.5 55.5t24.5 50.5q4 8 8 15.5t6 15.5q8 20 15 38.5t18 37.5q16 25 18 51q0 12 4 33q2 8 -5 12t-13 2 q-10 -4 -18.5 -6t-16.5 -4q-16 -6 -29 -6q-8 -4 -16 -3t-17 3q-31 4 -38 26q-6 4 -5 12q4 25 25 39q14 8 27.5 15.5t27.5 13.5q23 10 45.5 20.5t46.5 14.5q10 2 22.5 6t25.5 8q29 12 41 35q8 12 14 23.5t14 23.5q20 37 39 73t39 71q4 4 4 6q16 27 30.5 53.5t31.5 52.5 q16 29 31.5 53.5t31.5 53.5q8 14 15.5 29.5t9.5 31.5q4 8 -6 8q-14 4 -25.5 1t-24.5 -7q-29 -10 -56.5 -21.5t-51.5 -27.5q-27 -14 -52.5 -27.5t-52.5 -29.5q-66 -37 -122 -84t-101 -109q0 -4 -3 -5t-5 -5q-8 -8 -18 -8q-35 -4 -50 20q-8 10 -14 23.5t-12 23.5q-10 27 4 45 q4 6 8 12.5t8 10.5q33 35 67 65.5t75 55.5q25 14 49 26.5t49 26.5q10 4 19.5 8t19.5 6q18 4 34.5 10.5t30.5 14.5q20 10 40 17t40 16q45 16 88 31.5t90 31.5q4 2 6.5 2t6.5 2q18 6 34 23q10 14 21.5 27.5t21.5 25.5q8 12 25 12q51 8 92 -18q18 -10 35 -6q25 4 48.5 10 t47.5 10q39 10 77 18.5t75 14.5q20 4 39.5 8t38.5 8q45 10 89 18.5t89 18.5q53 12 107.5 23.5t107.5 21.5t107.5 18.5t107.5 18.5q29 6 51 -16q10 -8 8 -21.5t-12 -17.5q-10 -2 -17.5 -5t-15.5 -5q-45 -10 -90 -19.5t-90 -19.5q-37 -8 -73 -15.5t-72 -17.5q-31 -6 -62 -13.5 t-61 -11.5q-25 -4 -49.5 -9t-47.5 -11q-49 -16 -99 -26.5t-101 -20.5q-49 -10 -98.5 -20.5t-100.5 -24.5q-18 -4 -36.5 -10.5t-37.5 -12.5q-10 -4 -17 -10t-13 -14q-12 -16 -17 -25q-23 -33 -42 -64.5t-42 -66.5q-8 -12 -10 -19q-25 -45 -50.5 -89t-51.5 -87 q-18 -33 -36 -65.5t-32 -67.5q-6 -10 -6 -20q-4 -4 1 -11.5t11 -7.5q16 -4 27 -4q16 0 32.5 2t32.5 2q8 0 16.5 1t12.5 1q31 2 57.5 2t53.5 2q6 0 11 -2t9 -4q8 0 9 -8t-3 -12q-6 -12 -20 -19q-27 -14 -51 -20q-16 -4 -35 -6t-35 -6q-92 -18 -186 -43q-18 -8 -27 -19 q-8 -12 -10 -18q-33 -57 -62.5 -113.5t-58.5 -116.5q-8 -14 -14 -39q-4 -10 -10.5 -20t-10.5 -20q-18 -33 -31.5 -68t-27.5 -70q-8 -10 -4 -26q2 -6 8 -11.5t12 -1.5q23 10 45.5 18.5t44.5 18.5q35 14 69 28.5t68 27.5q8 0 13 4q43 18 87 30.5t89 22.5q6 2 13 2t13 4 q35 12 73 14t75 4q10 4 20 0q23 -2 42.5 -3t41.5 -5q16 -2 28.5 -6t27.5 -10q2 -4 4 -5t4 -5q8 -8 4 -19q-2 -12 -14 -14q-4 0 -10.5 -1t-10.5 1q-16 2 -34.5 1t-35.5 -1q-70 0 -141 -16q-84 -18 -168 -50q-78 -23 -148.5 -55.5t-140.5 -71.5q-23 -12 -44 -26.5t-44 -26.5 q-10 -8 -20 -14t-21 -15q-12 -10 -22 -20t-16 -27q-8 -14 -14.5 -27.5t-14.5 -25.5q-4 -6 -12 -6q-8 -4 -15 0q-8 0 -16 -1t-19 -5q-16 -6 -32.5 -12.5t-32.5 -14.5q-18 -6 -39 4q-33 12 -33 47zM719 1716q18 16 29.5 26.5t37.5 14.5q2 2 8 2q23 0 43 -16q33 -23 66 -60 t49 -82q4 -4 3 -9t-1 -9q-4 -23 -20 -35q-6 -4 -8.5 -5t-10.5 3q-2 4 -5 5t-5 5q-6 10 -15.5 16.5t-17.5 14.5q-23 14 -39 33q-14 12 -27.5 24t-27.5 27q-4 4 -6 7t-6 7q-10 6 -20.5 11.5t-24.5 7.5q-10 0 -2 12z" />
<glyph unicode="&#xc9;" horiz-adv-x="1112" d="M-35 -154q-4 12 6 19q16 14 30.5 27.5t31.5 27.5q25 20 46 42t44 44q10 10 15 19.5t16 19.5q12 12 16 35q4 20 11 38.5t16 37.5q10 23 19 44t17 42q12 29 21.5 55.5t24.5 50.5q4 8 8 15.5t6 15.5q8 20 15 38.5t18 37.5q16 25 18 51q0 12 4 33q2 8 -5 12t-13 2 q-10 -4 -18.5 -6t-16.5 -4q-16 -6 -29 -6q-8 -4 -16 -3t-17 3q-31 4 -38 26q-6 4 -5 12q4 25 25 39q14 8 27.5 15.5t27.5 13.5q23 10 45.5 20.5t46.5 14.5q10 2 22.5 6t25.5 8q29 12 41 35q8 12 14 23.5t14 23.5q20 37 39 73t39 71q4 4 4 6q16 27 30.5 53.5t31.5 52.5 q16 29 31.5 53.5t31.5 53.5q8 14 15.5 29.5t9.5 31.5q4 8 -6 8q-14 4 -25.5 1t-24.5 -7q-29 -10 -56.5 -21.5t-51.5 -27.5q-27 -14 -52.5 -27.5t-52.5 -29.5q-66 -37 -122 -84t-101 -109q0 -4 -3 -5t-5 -5q-8 -8 -18 -8q-35 -4 -50 20q-8 10 -14 23.5t-12 23.5q-10 27 4 45 q4 6 8 12.5t8 10.5q33 35 67 65.5t75 55.5q25 14 49 26.5t49 26.5q10 4 19.5 8t19.5 6q18 4 34.5 10.5t30.5 14.5q20 10 40 17t40 16q45 16 88 31.5t90 31.5q4 2 6.5 2t6.5 2q18 6 34 23q10 14 21.5 27.5t21.5 25.5q8 12 25 12q51 8 92 -18q18 -10 35 -6q25 4 48.5 10 t47.5 10q39 10 77 18.5t75 14.5q20 4 39.5 8t38.5 8q45 10 89 18.5t89 18.5q53 12 107.5 23.5t107.5 21.5t107.5 18.5t107.5 18.5q29 6 51 -16q10 -8 8 -21.5t-12 -17.5q-10 -2 -17.5 -5t-15.5 -5q-45 -10 -90 -19.5t-90 -19.5q-37 -8 -73 -15.5t-72 -17.5q-31 -6 -62 -13.5 t-61 -11.5q-25 -4 -49.5 -9t-47.5 -11q-49 -16 -99 -26.5t-101 -20.5q-49 -10 -98.5 -20.5t-100.5 -24.5q-18 -4 -36.5 -10.5t-37.5 -12.5q-10 -4 -17 -10t-13 -14q-12 -16 -17 -25q-23 -33 -42 -64.5t-42 -66.5q-8 -12 -10 -19q-25 -45 -50.5 -89t-51.5 -87 q-18 -33 -36 -65.5t-32 -67.5q-6 -10 -6 -20q-4 -4 1 -11.5t11 -7.5q16 -4 27 -4q16 0 32.5 2t32.5 2q8 0 16.5 1t12.5 1q31 2 57.5 2t53.5 2q6 0 11 -2t9 -4q8 0 9 -8t-3 -12q-6 -12 -20 -19q-27 -14 -51 -20q-16 -4 -35 -6t-35 -6q-92 -18 -186 -43q-18 -8 -27 -19 q-8 -12 -10 -18q-33 -57 -62.5 -113.5t-58.5 -116.5q-8 -14 -14 -39q-4 -10 -10.5 -20t-10.5 -20q-18 -33 -31.5 -68t-27.5 -70q-8 -10 -4 -26q2 -6 8 -11.5t12 -1.5q23 10 45.5 18.5t44.5 18.5q35 14 69 28.5t68 27.5q8 0 13 4q43 18 87 30.5t89 22.5q6 2 13 2t13 4 q35 12 73 14t75 4q10 4 20 0q23 -2 42.5 -3t41.5 -5q16 -2 28.5 -6t27.5 -10q2 -4 4 -5t4 -5q8 -8 4 -19q-2 -12 -14 -14q-4 0 -10.5 -1t-10.5 1q-16 2 -34.5 1t-35.5 -1q-70 0 -141 -16q-84 -18 -168 -50q-78 -23 -148.5 -55.5t-140.5 -71.5q-23 -12 -44 -26.5t-44 -26.5 q-10 -8 -20 -14t-21 -15q-12 -10 -22 -20t-16 -27q-8 -14 -14.5 -27.5t-14.5 -25.5q-4 -6 -12 -6q-8 -4 -15 0q-8 0 -16 -1t-19 -5q-16 -6 -32.5 -12.5t-32.5 -14.5q-18 -6 -39 4q-33 12 -33 47zM806 1574q-1 5 3 9q16 45 49 82t66 60q20 16 43 16q6 0 8 -2q27 -4 38 -14.5 t30 -26.5q8 -12 -2 -12q-14 -2 -24.5 -7.5t-20.5 -11.5q-4 -4 -6 -7t-7 -7q-14 -14 -27 -26.5t-28 -24.5q-18 -18 -39 -33q-8 -8 -17 -14.5t-16 -16.5q-2 -4 -5 -5t-5 -5q-8 -4 -10 -3t-8 5q-16 12 -21 35q0 4 -1 9z" />
<glyph unicode="&#xca;" horiz-adv-x="1112" d="M-35 -154q-4 12 6 19q16 14 30.5 27.5t31.5 27.5q25 20 46 42t44 44q10 10 15 19.5t16 19.5q12 12 16 35q4 20 11 38.5t16 37.5q10 23 19 44t17 42q12 29 21.5 55.5t24.5 50.5q4 8 8 15.5t6 15.5q8 20 15 38.5t18 37.5q16 25 18 51q0 12 4 33q2 8 -5 12t-13 2 q-10 -4 -18.5 -6t-16.5 -4q-16 -6 -29 -6q-8 -4 -16 -3t-17 3q-31 4 -38 26q-6 4 -5 12q4 25 25 39q14 8 27.5 15.5t27.5 13.5q23 10 45.5 20.5t46.5 14.5q10 2 22.5 6t25.5 8q29 12 41 35q8 12 14 23.5t14 23.5q20 37 39 73t39 71q4 4 4 6q16 27 30.5 53.5t31.5 52.5 q16 29 31.5 53.5t31.5 53.5q8 14 15.5 29.5t9.5 31.5q4 8 -6 8q-14 4 -25.5 1t-24.5 -7q-29 -10 -56.5 -21.5t-51.5 -27.5q-27 -14 -52.5 -27.5t-52.5 -29.5q-66 -37 -122 -84t-101 -109q0 -4 -3 -5t-5 -5q-8 -8 -18 -8q-35 -4 -50 20q-8 10 -14 23.5t-12 23.5q-10 27 4 45 q4 6 8 12.5t8 10.5q33 35 67 65.5t75 55.5q25 14 49 26.5t49 26.5q10 4 19.5 8t19.5 6q18 4 34.5 10.5t30.5 14.5q20 10 40 17t40 16q45 16 88 31.5t90 31.5q4 2 6.5 2t6.5 2q18 6 34 23q10 14 21.5 27.5t21.5 25.5q8 12 25 12q51 8 92 -18q18 -10 35 -6q25 4 48.5 10 t47.5 10q39 10 77 18.5t75 14.5q20 4 39.5 8t38.5 8q45 10 89 18.5t89 18.5q53 12 107.5 23.5t107.5 21.5t107.5 18.5t107.5 18.5q29 6 51 -16q10 -8 8 -21.5t-12 -17.5q-10 -2 -17.5 -5t-15.5 -5q-45 -10 -90 -19.5t-90 -19.5q-37 -8 -73 -15.5t-72 -17.5q-31 -6 -62 -13.5 t-61 -11.5q-25 -4 -49.5 -9t-47.5 -11q-49 -16 -99 -26.5t-101 -20.5q-49 -10 -98.5 -20.5t-100.5 -24.5q-18 -4 -36.5 -10.5t-37.5 -12.5q-10 -4 -17 -10t-13 -14q-12 -16 -17 -25q-23 -33 -42 -64.5t-42 -66.5q-8 -12 -10 -19q-25 -45 -50.5 -89t-51.5 -87 q-18 -33 -36 -65.5t-32 -67.5q-6 -10 -6 -20q-4 -4 1 -11.5t11 -7.5q16 -4 27 -4q16 0 32.5 2t32.5 2q8 0 16.5 1t12.5 1q31 2 57.5 2t53.5 2q6 0 11 -2t9 -4q8 0 9 -8t-3 -12q-6 -12 -20 -19q-27 -14 -51 -20q-16 -4 -35 -6t-35 -6q-92 -18 -186 -43q-18 -8 -27 -19 q-8 -12 -10 -18q-33 -57 -62.5 -113.5t-58.5 -116.5q-8 -14 -14 -39q-4 -10 -10.5 -20t-10.5 -20q-18 -33 -31.5 -68t-27.5 -70q-8 -10 -4 -26q2 -6 8 -11.5t12 -1.5q23 10 45.5 18.5t44.5 18.5q35 14 69 28.5t68 27.5q8 0 13 4q43 18 87 30.5t89 22.5q6 2 13 2t13 4 q35 12 73 14t75 4q10 4 20 0q23 -2 42.5 -3t41.5 -5q16 -2 28.5 -6t27.5 -10q2 -4 4 -5t4 -5q8 -8 4 -19q-2 -12 -14 -14q-4 0 -10.5 -1t-10.5 1q-16 2 -34.5 1t-35.5 -1q-70 0 -141 -16q-84 -18 -168 -50q-78 -23 -148.5 -55.5t-140.5 -71.5q-23 -12 -44 -26.5t-44 -26.5 q-10 -8 -20 -14t-21 -15q-12 -10 -22 -20t-16 -27q-8 -14 -14.5 -27.5t-14.5 -25.5q-4 -6 -12 -6q-8 -4 -15 0q-8 0 -16 -1t-19 -5q-16 -6 -32.5 -12.5t-32.5 -14.5q-18 -6 -39 4q-33 12 -33 47zM764 1630q39 39 76 81t68 89h39v-4h2q33 -27 32 -72q0 -20 4.5 -37.5 t8.5 -33.5q4 -8 4 -23q0 -10 -9.5 -19t-17.5 -9t-12 6t-9 9t-9 13q-6 10 -9.5 21.5t-11.5 21.5q-2 4 -4 10.5t-4 12.5q-18 -18 -27 -37q-10 -6 -15 -13.5t-15 -15.5q-6 -10 -14.5 -15t-16.5 -15q-10 -6 -13 -7q-16 -12 -30 7q-4 10 -9.5 15t-7.5 15z" />
<glyph unicode="&#xcb;" horiz-adv-x="1112" d="M-35 -154q-4 12 6 19q16 14 30.5 27.5t31.5 27.5q25 20 46 42t44 44q10 10 15 19.5t16 19.5q12 12 16 35q4 20 11 38.5t16 37.5q10 23 19 44t17 42q12 29 21.5 55.5t24.5 50.5q4 8 8 15.5t6 15.5q8 20 15 38.5t18 37.5q16 25 18 51q0 12 4 33q2 8 -5 12t-13 2 q-10 -4 -18.5 -6t-16.5 -4q-16 -6 -29 -6q-8 -4 -16 -3t-17 3q-31 4 -38 26q-6 4 -5 12q4 25 25 39q14 8 27.5 15.5t27.5 13.5q23 10 45.5 20.5t46.5 14.5q10 2 22.5 6t25.5 8q29 12 41 35q8 12 14 23.5t14 23.5q20 37 39 73t39 71q4 4 4 6q16 27 30.5 53.5t31.5 52.5 q16 29 31.5 53.5t31.5 53.5q8 14 15.5 29.5t9.5 31.5q4 8 -6 8q-14 4 -25.5 1t-24.5 -7q-29 -10 -56.5 -21.5t-51.5 -27.5q-27 -14 -52.5 -27.5t-52.5 -29.5q-66 -37 -122 -84t-101 -109q0 -4 -3 -5t-5 -5q-8 -8 -18 -8q-35 -4 -50 20q-8 10 -14 23.5t-12 23.5q-10 27 4 45 q4 6 8 12.5t8 10.5q33 35 67 65.5t75 55.5q25 14 49 26.5t49 26.5q10 4 19.5 8t19.5 6q18 4 34.5 10.5t30.5 14.5q20 10 40 17t40 16q45 16 88 31.5t90 31.5q4 2 6.5 2t6.5 2q18 6 34 23q10 14 21.5 27.5t21.5 25.5q8 12 25 12q51 8 92 -18q18 -10 35 -6q25 4 48.5 10 t47.5 10q39 10 77 18.5t75 14.5q20 4 39.5 8t38.5 8q45 10 89 18.5t89 18.5q53 12 107.5 23.5t107.5 21.5t107.5 18.5t107.5 18.5q29 6 51 -16q10 -8 8 -21.5t-12 -17.5q-10 -2 -17.5 -5t-15.5 -5q-45 -10 -90 -19.5t-90 -19.5q-37 -8 -73 -15.5t-72 -17.5q-31 -6 -62 -13.5 t-61 -11.5q-25 -4 -49.5 -9t-47.5 -11q-49 -16 -99 -26.5t-101 -20.5q-49 -10 -98.5 -20.5t-100.5 -24.5q-18 -4 -36.5 -10.5t-37.5 -12.5q-10 -4 -17 -10t-13 -14q-12 -16 -17 -25q-23 -33 -42 -64.5t-42 -66.5q-8 -12 -10 -19q-25 -45 -50.5 -89t-51.5 -87 q-18 -33 -36 -65.5t-32 -67.5q-6 -10 -6 -20q-4 -4 1 -11.5t11 -7.5q16 -4 27 -4q16 0 32.5 2t32.5 2q8 0 16.5 1t12.5 1q31 2 57.5 2t53.5 2q6 0 11 -2t9 -4q8 0 9 -8t-3 -12q-6 -12 -20 -19q-27 -14 -51 -20q-16 -4 -35 -6t-35 -6q-92 -18 -186 -43q-18 -8 -27 -19 q-8 -12 -10 -18q-33 -57 -62.5 -113.5t-58.5 -116.5q-8 -14 -14 -39q-4 -10 -10.5 -20t-10.5 -20q-18 -33 -31.5 -68t-27.5 -70q-8 -10 -4 -26q2 -6 8 -11.5t12 -1.5q23 10 45.5 18.5t44.5 18.5q35 14 69 28.5t68 27.5q8 0 13 4q43 18 87 30.5t89 22.5q6 2 13 2t13 4 q35 12 73 14t75 4q10 4 20 0q23 -2 42.5 -3t41.5 -5q16 -2 28.5 -6t27.5 -10q2 -4 4 -5t4 -5q8 -8 4 -19q-2 -12 -14 -14q-4 0 -10.5 -1t-10.5 1q-16 2 -34.5 1t-35.5 -1q-70 0 -141 -16q-84 -18 -168 -50q-78 -23 -148.5 -55.5t-140.5 -71.5q-23 -12 -44 -26.5t-44 -26.5 q-10 -8 -20 -14t-21 -15q-12 -10 -22 -20t-16 -27q-8 -14 -14.5 -27.5t-14.5 -25.5q-4 -6 -12 -6q-8 -4 -15 0q-8 0 -16 -1t-19 -5q-16 -6 -32.5 -12.5t-32.5 -14.5q-18 -6 -39 4q-33 12 -33 47zM714 1605.5q0 10.5 5.5 18.5t15.5 8q10 4 18.5 3t14.5 3q20 12 37.5 0 t26.5 -31.5t8 -39t-15 -19.5q-45 -14 -96 25q-6 2 -10.5 12t-4.5 20.5zM1001 1605.5q0 10.5 5.5 18.5t15.5 8q10 4 18 3t14 3q20 12 38 0t27 -31.5t8 -39t-15 -19.5q-45 -14 -96 25q-6 2 -10.5 12t-4.5 20.5z" />
<glyph unicode="&#xcc;" horiz-adv-x="819" d="M-27 -274q-8 27 2 38q25 35 48 58q51 49 116 94l49 37q10 8 17.5 16t17.5 17q16 16 23 34q10 31 18 62t19 59q4 8 8 17.5t6 19.5q2 8 2 16.5t4 16.5q2 8 7 21.5t10.5 26.5t9.5 25.5t6 20.5q4 16 6 34.5t8 35.5q12 41 27.5 91t30.5 93q25 92 45 171t47 171q4 14 11 39 t13 51.5t11.5 52t9.5 41.5q6 27 6 39.5t-1 22.5t-1 22.5t4 40.5q0 16 -2 25q0 6 -5 12t-9 4h-15q-29 -10 -53.5 -23.5t-48.5 -27.5q-35 -23 -72 -12q-8 2 -20 10q-12 10 -15.5 30.5t2.5 33.5q4 4 5.5 7t5.5 5q12 14 26.5 24.5t30.5 20.5q20 12 41.5 24.5t44.5 22.5 q29 10 56.5 22.5t56.5 22.5q6 4 13 5t15 5q43 12 87 18.5t87 16.5q14 2 28 2t30 2q4 0 11 -1t15 -1q4 -2 7.5 -3t7.5 -3q8 -4 14 -13t6 -20q0 -10 -5 -19t-15 -14q-6 -2 -23 -6q-27 -10 -53.5 -17t-52.5 -17q-12 -4 -24.5 -9.5t-24.5 -11.5q-27 -8 -33 -43q-4 -18 -7 -37.5 t-8 -38.5q-4 -49 -13 -94t-19 -92q-14 -61 -28.5 -121.5t-33.5 -120.5q-10 -29 -18 -59.5t-15 -63.5q-10 -29 -19 -59.5t-19 -60.5q-20 -61 -41 -121t-37 -123q-4 -12 -6 -17q-16 -35 -25.5 -71.5t-20.5 -71.5q-10 -35 -10 -61q0 -6 6.5 -14.5t14.5 -6.5q25 2 49 12 q27 10 53.5 20.5t52.5 20.5q41 18 82 29.5t82 26.5q29 8 53 2q12 0 17 -15q2 -12 -4 -22l-13 -12q-4 -4 -12 -9q-76 -37 -151 -75q-53 -27 -106.5 -49.5t-106.5 -51.5q-12 -8 -24.5 -14t-22.5 -14q-39 -29 -79 -56.5t-77 -62.5q-20 -18 -42 -34.5t-44 -33.5q-23 -16 -47 -22 q-10 -6 -29 2q-25 10 -31 35zM533 1737q18 16 29.5 26.5t37.5 14.5q2 2 8 2q23 0 43 -16q33 -23 66 -60t49 -82q4 -4 3 -9t-1 -9q-4 -23 -20 -35q-6 -4 -8.5 -5t-10.5 3q-2 4 -5 5t-5 5q-6 10 -15.5 16.5t-17.5 14.5q-23 14 -39 33q-14 12 -27.5 24t-27.5 27q-4 4 -6 7t-6 7 q-10 6 -20.5 11.5t-24.5 7.5q-10 0 -2 12z" />
<glyph unicode="&#xcd;" horiz-adv-x="819" d="M-27 -274q-8 27 2 38q25 35 48 58q51 49 116 94l49 37q10 8 17.5 16t17.5 17q16 16 23 34q10 31 18 62t19 59q4 8 8 17.5t6 19.5q2 8 2 16.5t4 16.5q2 8 7 21.5t10.5 26.5t9.5 25.5t6 20.5q4 16 6 34.5t8 35.5q12 41 27.5 91t30.5 93q25 92 45 171t47 171q4 14 11 39 t13 51.5t11.5 52t9.5 41.5q6 27 6 39.5t-1 22.5t-1 22.5t4 40.5q0 16 -2 25q0 6 -5 12t-9 4h-15q-29 -10 -53.5 -23.5t-48.5 -27.5q-35 -23 -72 -12q-8 2 -20 10q-12 10 -15.5 30.5t2.5 33.5q4 4 5.5 7t5.5 5q12 14 26.5 24.5t30.5 20.5q20 12 41.5 24.5t44.5 22.5 q29 10 56.5 22.5t56.5 22.5q6 4 13 5t15 5q43 12 87 18.5t87 16.5q14 2 28 2t30 2q4 0 11 -1t15 -1q4 -2 7.5 -3t7.5 -3q8 -4 14 -13t6 -20q0 -10 -5 -19t-15 -14q-6 -2 -23 -6q-27 -10 -53.5 -17t-52.5 -17q-12 -4 -24.5 -9.5t-24.5 -11.5q-27 -8 -33 -43q-4 -18 -7 -37.5 t-8 -38.5q-4 -49 -13 -94t-19 -92q-14 -61 -28.5 -121.5t-33.5 -120.5q-10 -29 -18 -59.5t-15 -63.5q-10 -29 -19 -59.5t-19 -60.5q-20 -61 -41 -121t-37 -123q-4 -12 -6 -17q-16 -35 -25.5 -71.5t-20.5 -71.5q-10 -35 -10 -61q0 -6 6.5 -14.5t14.5 -6.5q25 2 49 12 q27 10 53.5 20.5t52.5 20.5q41 18 82 29.5t82 26.5q29 8 53 2q12 0 17 -15q2 -12 -4 -22l-13 -12q-4 -4 -12 -9q-76 -37 -151 -75q-53 -27 -106.5 -49.5t-106.5 -51.5q-12 -8 -24.5 -14t-22.5 -14q-39 -29 -79 -56.5t-77 -62.5q-20 -18 -42 -34.5t-44 -33.5q-23 -16 -47 -22 q-10 -6 -29 2q-25 10 -31 35zM545 1605q-1 5 3 9q16 45 49 82t66 60q20 16 43 16q6 0 8 -2q27 -4 38 -14.5t30 -26.5q8 -12 -2 -12q-14 -2 -24.5 -7.5t-20.5 -11.5q-4 -4 -6 -7t-7 -7q-14 -14 -27 -26.5t-28 -24.5q-18 -18 -39 -33q-8 -8 -17 -14.5t-16 -16.5q-2 -4 -5 -5 t-5 -5q-8 -4 -10 -3t-8 5q-16 12 -21 35q0 4 -1 9z" />
<glyph unicode="&#xce;" horiz-adv-x="819" d="M-27 -274q-8 27 2 38q25 35 48 58q51 49 116 94l49 37q10 8 17.5 16t17.5 17q16 16 23 34q10 31 18 62t19 59q4 8 8 17.5t6 19.5q2 8 2 16.5t4 16.5q2 8 7 21.5t10.5 26.5t9.5 25.5t6 20.5q4 16 6 34.5t8 35.5q12 41 27.5 91t30.5 93q25 92 45 171t47 171q4 14 11 39 t13 51.5t11.5 52t9.5 41.5q6 27 6 39.5t-1 22.5t-1 22.5t4 40.5q0 16 -2 25q0 6 -5 12t-9 4h-15q-29 -10 -53.5 -23.5t-48.5 -27.5q-35 -23 -72 -12q-8 2 -20 10q-12 10 -15.5 30.5t2.5 33.5q4 4 5.5 7t5.5 5q12 14 26.5 24.5t30.5 20.5q20 12 41.5 24.5t44.5 22.5 q29 10 56.5 22.5t56.5 22.5q6 4 13 5t15 5q43 12 87 18.5t87 16.5q14 2 28 2t30 2q4 0 11 -1t15 -1q4 -2 7.5 -3t7.5 -3q8 -4 14 -13t6 -20q0 -10 -5 -19t-15 -14q-6 -2 -23 -6q-27 -10 -53.5 -17t-52.5 -17q-12 -4 -24.5 -9.5t-24.5 -11.5q-27 -8 -33 -43q-4 -18 -7 -37.5 t-8 -38.5q-4 -49 -13 -94t-19 -92q-14 -61 -28.5 -121.5t-33.5 -120.5q-10 -29 -18 -59.5t-15 -63.5q-10 -29 -19 -59.5t-19 -60.5q-20 -61 -41 -121t-37 -123q-4 -12 -6 -17q-16 -35 -25.5 -71.5t-20.5 -71.5q-10 -35 -10 -61q0 -6 6.5 -14.5t14.5 -6.5q25 2 49 12 q27 10 53.5 20.5t52.5 20.5q41 18 82 29.5t82 26.5q29 8 53 2q12 0 17 -15q2 -12 -4 -22l-13 -12q-4 -4 -12 -9q-76 -37 -151 -75q-53 -27 -106.5 -49.5t-106.5 -51.5q-12 -8 -24.5 -14t-22.5 -14q-39 -29 -79 -56.5t-77 -62.5q-20 -18 -42 -34.5t-44 -33.5q-23 -16 -47 -22 q-10 -6 -29 2q-25 10 -31 35zM522 1657q39 39 76 81t68 89h39v-4h2q33 -27 32 -72q0 -20 4.5 -37.5t8.5 -33.5q4 -8 4 -23q0 -10 -9.5 -19t-17.5 -9t-12 6t-9 9t-9 13q-6 10 -9.5 21.5t-11.5 21.5q-2 4 -4 10.5t-4 12.5q-18 -18 -27 -37q-10 -6 -15 -13.5t-15 -15.5 q-6 -10 -14.5 -15t-16.5 -15q-10 -6 -13 -7q-16 -12 -30 7q-4 10 -9.5 15t-7.5 15z" />
<glyph unicode="&#xcf;" horiz-adv-x="819" d="M-27 -274q-8 27 2 38q25 35 48 58q51 49 116 94l49 37q10 8 17.5 16t17.5 17q16 16 23 34q10 31 18 62t19 59q4 8 8 17.5t6 19.5q2 8 2 16.5t4 16.5q2 8 7 21.5t10.5 26.5t9.5 25.5t6 20.5q4 16 6 34.5t8 35.5q12 41 27.5 91t30.5 93q25 92 45 171t47 171q4 14 11 39 t13 51.5t11.5 52t9.5 41.5q6 27 6 39.5t-1 22.5t-1 22.5t4 40.5q0 16 -2 25q0 6 -5 12t-9 4h-15q-29 -10 -53.5 -23.5t-48.5 -27.5q-35 -23 -72 -12q-8 2 -20 10q-12 10 -15.5 30.5t2.5 33.5q4 4 5.5 7t5.5 5q12 14 26.5 24.5t30.5 20.5q20 12 41.5 24.5t44.5 22.5 q29 10 56.5 22.5t56.5 22.5q6 4 13 5t15 5q43 12 87 18.5t87 16.5q14 2 28 2t30 2q4 0 11 -1t15 -1q4 -2 7.5 -3t7.5 -3q8 -4 14 -13t6 -20q0 -10 -5 -19t-15 -14q-6 -2 -23 -6q-27 -10 -53.5 -17t-52.5 -17q-12 -4 -24.5 -9.5t-24.5 -11.5q-27 -8 -33 -43q-4 -18 -7 -37.5 t-8 -38.5q-4 -49 -13 -94t-19 -92q-14 -61 -28.5 -121.5t-33.5 -120.5q-10 -29 -18 -59.5t-15 -63.5q-10 -29 -19 -59.5t-19 -60.5q-20 -61 -41 -121t-37 -123q-4 -12 -6 -17q-16 -35 -25.5 -71.5t-20.5 -71.5q-10 -35 -10 -61q0 -6 6.5 -14.5t14.5 -6.5q25 2 49 12 q27 10 53.5 20.5t52.5 20.5q41 18 82 29.5t82 26.5q29 8 53 2q12 0 17 -15q2 -12 -4 -22l-13 -12q-4 -4 -12 -9q-76 -37 -151 -75q-53 -27 -106.5 -49.5t-106.5 -51.5q-12 -8 -24.5 -14t-22.5 -14q-39 -29 -79 -56.5t-77 -62.5q-20 -18 -42 -34.5t-44 -33.5q-23 -16 -47 -22 q-10 -6 -29 2q-25 10 -31 35zM499 1625.5q0 10.5 5.5 18.5t15.5 8q10 4 18.5 3t14.5 3q20 12 37.5 0t26.5 -31.5t8 -39t-15 -19.5q-45 -14 -96 25q-6 2 -10.5 12t-4.5 20.5zM786 1625.5q0 10.5 5.5 18.5t15.5 8q10 4 18 3t14 3q20 12 38 0t27 -31.5t8 -39t-15 -19.5 q-45 -14 -96 25q-6 2 -10.5 12t-4.5 20.5z" />
<glyph unicode="&#xd0;" horiz-adv-x="1601" d="M-4 125q4 16 10 31.5t12 31.5q6 27 -2 52l-4 14q-10 31 13 55q10 12 21 22.5t26 18.5q59 35 100 84q12 16 29 29q29 25 43 67l57 158q0 4 2 6q-4 0 -6 -1t-4 -1h-34.5t-37.5 -4q-100 0 -110 57q0 10 -1 18.5t-8 16.5q0 20 25 21q10 0 19.5 -2t19.5 -2q12 0 23.5 -2 t23.5 2q31 4 62.5 4t62.5 -2q4 10 7 20t7 21q16 55 33.5 109.5t36.5 107.5l24 71q4 20 -8 31q-10 12 -12 31q-2 10 -8 14t-12 0l-21 -10l-74 -57q-16 -14 -29.5 -27.5t-27.5 -24.5q-14 -14 -41 -22q-12 -4 -23 2q0 -2 -6 4q-16 12 -19 30.5t5 37.5q6 14 16 28q45 53 103 99 q35 27 69.5 48t73.5 38q27 10 47 24q12 10 19 27q4 10 7 23.5t7 23.5t9 15t11 10q12 4 23.5 10t26.5 10q12 6 28 0q20 -6 27 -27q4 -16 8 -41q6 -16 21 -22q10 -4 18 -3t16 1l91 8l94 4h67q23 2 47.5 1t49.5 -1q43 -2 85 -5t83 -13q23 0 44 -6.5t42 -10.5q23 -2 45 -12 l20 -8t21 -6q29 -8 54 -19.5t50 -25.5q39 -23 80 -64q18 -18 31 -45q16 -39 20 -78t0 -80q-4 -31 -10 -59.5t-19 -54.5l-4 -8l-39 -93q-23 -31 -43 -63.5t-43 -63.5q-16 -20 -32.5 -41.5t-32.5 -42.5q-61 -80 -130 -151.5t-141 -136.5l-118 -103q-10 -8 -18.5 -15t-18.5 -13 q-31 -18 -60.5 -40t-58.5 -46q-4 -4 -6 -5q-35 -23 -67.5 -44t-67.5 -42q-10 -6 -21.5 -8t-21.5 -4q6 31 24 39q4 4 9.5 6t9.5 6q18 16 37.5 29.5t40.5 24.5q4 4 8 7t8 7q14 23 34.5 35t37.5 28q37 33 72.5 65t74.5 64l10 11q16 29 41 48t47 44q25 33 53.5 63.5t51.5 67.5 q6 14 15 23.5t20 19.5q10 6 19 13t15 20q10 16 23.5 31.5t19.5 35.5q8 25 20.5 46.5t25.5 43.5l71 138q8 14 13.5 27.5t11.5 25.5q14 33 16 65q0 12 2 19q10 31 8 62.5t-8 62.5q-8 37 -37 65q-18 18 -51 33q-29 10 -59.5 20.5t-61.5 16.5q-80 14 -161 18q-16 0 -33 1t-33 3 q-41 2 -82 1t-82 -5q-45 -6 -90 -11t-92 -9t-86 -19q-35 -10 -41 -45q-10 -35 -21.5 -68.5t-21.5 -68.5q-10 -39 -21.5 -77t-23.5 -76l-17 -58q-10 -27 -18 -51.5t-16 -50.5q-4 -8 -4 -15q16 -2 34.5 -3t36.5 -1q29 0 55.5 -2t49.5 -2h159q18 -4 26.5 -17t-1.5 -28v-4 q-14 -10 -21.5 -17t-19.5 -16h-190q-39 -4 -79 -3t-81 3l-17 -57q-6 -18 -4 -33q0 -8 11 -12h6q45 10 78 27l75 36q20 10 41 3q12 -4 23 -9q2 0 2 -6t-2 -8q-20 -18 -41 -35.5t-43 -32.5q-29 -18 -55.5 -37.5t-51.5 -41.5q-8 -6 -24 -15q-23 -10 -40.5 -24.5t-37.5 -28.5 q-12 -6 -18 -25q-8 -14 -15 -39l-18 -65q-8 -25 -15.5 -48.5t-17.5 -45.5q-4 -12 -8 -23.5t-8 -25.5q-4 -35 -18.5 -65t-24.5 -62q-4 -10 -17 -27q-29 -29 -28 -76q-2 -6 -9.5 -9t-11.5 -1q-66 29 -108 86q-6 8 -11.5 16.5t-9.5 18.5q-18 45 -6 92zM44 88q-1 -8 1 -16 q0 -31 10 -52q6 -12 18.5 -20t24.5 -4q4 2 13 10q2 4 4 7t4 7q10 49 19.5 101.5t15.5 99.5q2 4 1 8t-1 9q0 6 -6.5 11t-10.5 3q-23 -6 -35 -27q-37 -57 -55 -121q-2 -8 -3 -16zM242 -106l6 6q2 2 8 2h12q41 -6 78 -2t74 16q4 2 7 1t7 -1q10 0 10 -10q0 -2 -4 -6q-4 -6 -6 -6 l-69 -19q-16 -4 -33 -5t-37 1q-10 4 -22.5 2t-22.5 6q-8 2 -8 15zM494 -72l4 9q16 16 35.5 28t41.5 15q14 2 35 12q4 2 9.5 5t9.5 5q18 14 41 4q-23 -18 -46.5 -31.5t-48.5 -29.5q-18 -10 -36.5 -18.5t-38.5 -10.5q-2 0 -3 2t-3 2v8z" />
<glyph unicode="&#xd1;" horiz-adv-x="1251" d="M-244 -109q20 45 43 82q25 35 46.5 73t41.5 83q27 53 55.5 108.5t57.5 108.5q14 27 28.5 54.5t24.5 52.5q35 72 69 140.5t71 143.5q41 78 79.5 159t71.5 167q23 47 39 96t29 103q6 27 10 54t4 56h39q18 -10 38.5 -16t39.5 -17q6 -29 6 -54t16 -54v-27q0 -59 -5 -120.5 t-9 -120.5q-12 -123 -27.5 -245t-5.5 -251q6 -43 13.5 -89t19.5 -87q4 -23 15.5 -43.5t21.5 -40.5q8 -18 28.5 -28.5t44 -15.5t47 -5t40.5 6q25 16 51 28.5t48.5 26.5t40 33.5t25.5 50.5q2 12 10.5 31.5t16.5 39t16.5 39t12.5 31.5q49 145 94 268.5t94 238t106.5 227 t131.5 239.5q6 4 8 13.5t8 13.5q14 20 23.5 34.5t19.5 19.5t22.5 -1t32.5 -24q0 -23 -10 -39.5t-20 -32.5q-86 -117 -146.5 -231.5t-108.5 -231.5t-91 -236.5t-93 -248.5q-35 -98 -61 -185q-12 -47 -30.5 -94t-47.5 -90q-16 -10 -23.5 -13t-27.5 -14v76q-25 -4 -46.5 -9 t-39.5 -11q-74 -27 -123 -6.5t-106 67.5q-43 37 -63.5 87t-30 105.5t-9.5 112v103.5q12 92 15.5 205.5t11.5 205.5v19q0 4 -2 4t-4 2q-2 0 -4 2q-6 -6 -15.5 -23.5t-18.5 -36t-16.5 -36t-9.5 -25.5q-74 -154 -151.5 -294t-161.5 -298q-39 -86 -89 -172t-98 -172 q-10 -14 -22 -29.5t-33 -27.5q-27 -14 -41 -22.5t-37 7.5zM800 1563q-8 8 0 12q10 14 21.5 23.5t19.5 17.5q16 16 30.5 27.5t33.5 15.5q4 6 12 8t10 2q47 0 68 -32q8 -8 13 -17.5t14 -15.5q10 -23 31.5 -26t39.5 5q37 14 70 54q8 14 14 20q2 8 12.5 8t14.5 -6q2 -4 7 -7 t9 -11q23 -20 4 -47q-16 -39 -55 -56q-14 -8 -28.5 -11t-30.5 -7q-27 -14 -58 2q-29 12 -53.5 25.5t-46.5 37.5q-4 6 -8 9.5t-13 9.5q-8 4 -14 0q-10 -10 -16 -20.5t-17 -16.5q-4 -12 -20 -18q-25 -14 -47 0q-4 6 -17 14z" />
<glyph unicode="&#xd2;" horiz-adv-x="1075" d="M-16 37q0 35 1 69.5t7 71.5q4 59 19.5 116.5t31.5 125.5q35 104 79 208.5t97 205.5q59 121 134 229t173 207q31 20 55.5 44.5t59.5 43.5q16 18 43.5 22t58.5 -14q33 23 62 43.5t51 42.5q25 27 76 27h12q141 12 186 -97q16 -43 23.5 -85t-0.5 -85q-12 -82 -36.5 -156.5 t-55.5 -142.5q-57 -145 -127 -276t-162 -260q-47 -66 -89 -128.5t-95 -127.5q-78 -106 -201 -197q-39 -29 -84 -42t-98 -21h-31q-80 18 -130 61t-60 115zM72 141q0 -29 1 -54.5t7 -53.5q0 -16 10 -36t23 -40q6 -12 18 -20.5t28.5 -13.5t34 -5t31.5 6q18 6 36 12.5t34 18.5 q53 43 103.5 82t90.5 86q86 86 153 185.5t122 195.5q41 70 72.5 134t72.5 136q51 94 82 194.5t56 205.5q10 43 11 86t-3 86q-6 41 -45 59t-86 -4q-41 -12 -76 -48t-62 -65q-78 -90 -145.5 -190.5t-114.5 -210.5q-12 -29 -21 -59.5t-16 -61.5q-4 -23 -7 -46.5t0 -45t16.5 -39 t42.5 -27.5q16 -6 19 -9t-9 -19q-53 -4 -88 15t-60 56q-35 49 -21.5 122t47.5 149.5t74 144.5t60 109q-20 -18 -42.5 -48t-45 -63t-43 -64.5t-35.5 -52.5q-47 -70 -82.5 -134t-70.5 -140q-59 -129 -102.5 -263.5t-69.5 -269.5zM703 1731q18 16 29.5 26.5t37.5 14.5q2 2 8 2 q23 0 43 -16q33 -23 66 -60t49 -82q4 -4 3 -9t-1 -9q-4 -23 -20 -35q-6 -4 -8.5 -5t-10.5 3q-2 4 -5 5t-5 5q-6 10 -15.5 16.5t-17.5 14.5q-23 14 -39 33q-14 12 -27.5 24t-27.5 27q-4 4 -6 7t-6 7q-10 6 -20.5 11.5t-24.5 7.5q-10 0 -2 12z" />
<glyph unicode="&#xd3;" horiz-adv-x="1075" d="M-16 37q0 35 1 69.5t7 71.5q4 59 19.5 116.5t31.5 125.5q35 104 79 208.5t97 205.5q59 121 134 229t173 207q31 20 55.5 44.5t59.5 43.5q16 18 43.5 22t58.5 -14q33 23 62 43.5t51 42.5q25 27 76 27h12q141 12 186 -97q16 -43 23.5 -85t-0.5 -85q-12 -82 -36.5 -156.5 t-55.5 -142.5q-57 -145 -127 -276t-162 -260q-47 -66 -89 -128.5t-95 -127.5q-78 -106 -201 -197q-39 -29 -84 -42t-98 -21h-31q-80 18 -130 61t-60 115zM72 141q0 -29 1 -54.5t7 -53.5q0 -16 10 -36t23 -40q6 -12 18 -20.5t28.5 -13.5t34 -5t31.5 6q18 6 36 12.5t34 18.5 q53 43 103.5 82t90.5 86q86 86 153 185.5t122 195.5q41 70 72.5 134t72.5 136q51 94 82 194.5t56 205.5q10 43 11 86t-3 86q-6 41 -45 59t-86 -4q-41 -12 -76 -48t-62 -65q-78 -90 -145.5 -190.5t-114.5 -210.5q-12 -29 -21 -59.5t-16 -61.5q-4 -23 -7 -46.5t0 -45t16.5 -39 t42.5 -27.5q16 -6 19 -9t-9 -19q-53 -4 -88 15t-60 56q-35 49 -21.5 122t47.5 149.5t74 144.5t60 109q-20 -18 -42.5 -48t-45 -63t-43 -64.5t-35.5 -52.5q-47 -70 -82.5 -134t-70.5 -140q-59 -129 -102.5 -263.5t-69.5 -269.5zM734 1629q-1 5 3 9q16 45 49 82t66 60 q20 16 43 16q6 0 8 -2q27 -4 38 -14.5t30 -26.5q8 -12 -2 -12q-14 -2 -24.5 -7.5t-20.5 -11.5q-4 -4 -6 -7t-7 -7q-14 -14 -27 -26.5t-28 -24.5q-18 -18 -39 -33q-8 -8 -17 -14.5t-16 -16.5q-2 -4 -5 -5t-5 -5q-8 -4 -10 -3t-8 5q-16 12 -21 35q0 4 -1 9z" />
<glyph unicode="&#xd4;" horiz-adv-x="1075" d="M-16 37q0 35 1 69.5t7 71.5q4 59 19.5 116.5t31.5 125.5q35 104 79 208.5t97 205.5q59 121 134 229t173 207q31 20 55.5 44.5t59.5 43.5q16 18 43.5 22t58.5 -14q33 23 62 43.5t51 42.5q25 27 76 27h12q141 12 186 -97q16 -43 23.5 -85t-0.5 -85q-12 -82 -36.5 -156.5 t-55.5 -142.5q-57 -145 -127 -276t-162 -260q-47 -66 -89 -128.5t-95 -127.5q-78 -106 -201 -197q-39 -29 -84 -42t-98 -21h-31q-80 18 -130 61t-60 115zM72 141q0 -29 1 -54.5t7 -53.5q0 -16 10 -36t23 -40q6 -12 18 -20.5t28.5 -13.5t34 -5t31.5 6q18 6 36 12.5t34 18.5 q53 43 103.5 82t90.5 86q86 86 153 185.5t122 195.5q41 70 72.5 134t72.5 136q51 94 82 194.5t56 205.5q10 43 11 86t-3 86q-6 41 -45 59t-86 -4q-41 -12 -76 -48t-62 -65q-78 -90 -145.5 -190.5t-114.5 -210.5q-12 -29 -21 -59.5t-16 -61.5q-4 -23 -7 -46.5t0 -45t16.5 -39 t42.5 -27.5q16 -6 19 -9t-9 -19q-53 -4 -88 15t-60 56q-35 49 -21.5 122t47.5 149.5t74 144.5t60 109q-20 -18 -42.5 -48t-45 -63t-43 -64.5t-35.5 -52.5q-47 -70 -82.5 -134t-70.5 -140q-59 -129 -102.5 -263.5t-69.5 -269.5zM782 1698q39 39 76 81t68 89h39v-4h2 q33 -27 32 -72q0 -20 4.5 -37.5t8.5 -33.5q4 -8 4 -23q0 -10 -9.5 -19t-17.5 -9t-12 6t-9 9t-9 13q-6 10 -9.5 21.5t-11.5 21.5q-2 4 -4 10.5t-4 12.5q-18 -18 -27 -37q-10 -6 -15 -13.5t-15 -15.5q-6 -10 -14.5 -15t-16.5 -15q-10 -6 -13 -7q-16 -12 -30 7q-4 10 -9.5 15 t-7.5 15z" />
<glyph unicode="&#xd5;" horiz-adv-x="1075" d="M-16 37q0 35 1 69.5t7 71.5q4 59 19.5 116.5t31.5 125.5q35 104 79 208.5t97 205.5q59 121 134 229t173 207q31 20 55.5 44.5t59.5 43.5q16 18 43.5 22t58.5 -14q33 23 62 43.5t51 42.5q25 27 76 27h12q141 12 186 -97q16 -43 23.5 -85t-0.5 -85q-12 -82 -36.5 -156.5 t-55.5 -142.5q-57 -145 -127 -276t-162 -260q-47 -66 -89 -128.5t-95 -127.5q-78 -106 -201 -197q-39 -29 -84 -42t-98 -21h-31q-80 18 -130 61t-60 115zM72 141q0 -29 1 -54.5t7 -53.5q0 -16 10 -36t23 -40q6 -12 18 -20.5t28.5 -13.5t34 -5t31.5 6q18 6 36 12.5t34 18.5 q53 43 103.5 82t90.5 86q86 86 153 185.5t122 195.5q41 70 72.5 134t72.5 136q51 94 82 194.5t56 205.5q10 43 11 86t-3 86q-6 41 -45 59t-86 -4q-41 -12 -76 -48t-62 -65q-78 -90 -145.5 -190.5t-114.5 -210.5q-12 -29 -21 -59.5t-16 -61.5q-4 -23 -7 -46.5t0 -45t16.5 -39 t42.5 -27.5q16 -6 19 -9t-9 -19q-53 -4 -88 15t-60 56q-35 49 -21.5 122t47.5 149.5t74 144.5t60 109q-20 -18 -42.5 -48t-45 -63t-43 -64.5t-35.5 -52.5q-47 -70 -82.5 -134t-70.5 -140q-59 -129 -102.5 -263.5t-69.5 -269.5zM729 1718q-8 8 0 12q10 14 21.5 23.5 t19.5 17.5q16 16 30.5 27.5t33.5 15.5q4 6 12 8t10 2q47 0 68 -32q8 -8 13 -17.5t14 -15.5q10 -23 31.5 -26t39.5 5q37 14 70 54q8 14 14 20q2 8 12.5 8t14.5 -6q2 -4 7 -7t9 -11q23 -20 4 -47q-16 -39 -55 -56q-14 -8 -28.5 -11t-30.5 -7q-27 -14 -58 2q-29 12 -53.5 25.5 t-46.5 37.5q-4 6 -8 9.5t-13 9.5q-8 4 -14 0q-10 -10 -16 -20.5t-17 -16.5q-4 -12 -20 -18q-25 -14 -47 0q-4 6 -17 14z" />
<glyph unicode="&#xd6;" horiz-adv-x="1075" d="M-16 37q0 35 1 69.5t7 71.5q4 59 19.5 116.5t31.5 125.5q35 104 79 208.5t97 205.5q59 121 134 229t173 207q31 20 55.5 44.5t59.5 43.5q16 18 43.5 22t58.5 -14q33 23 62 43.5t51 42.5q25 27 76 27h12q141 12 186 -97q16 -43 23.5 -85t-0.5 -85q-12 -82 -36.5 -156.5 t-55.5 -142.5q-57 -145 -127 -276t-162 -260q-47 -66 -89 -128.5t-95 -127.5q-78 -106 -201 -197q-39 -29 -84 -42t-98 -21h-31q-80 18 -130 61t-60 115zM72 141q0 -29 1 -54.5t7 -53.5q0 -16 10 -36t23 -40q6 -12 18 -20.5t28.5 -13.5t34 -5t31.5 6q18 6 36 12.5t34 18.5 q53 43 103.5 82t90.5 86q86 86 153 185.5t122 195.5q41 70 72.5 134t72.5 136q51 94 82 194.5t56 205.5q10 43 11 86t-3 86q-6 41 -45 59t-86 -4q-41 -12 -76 -48t-62 -65q-78 -90 -145.5 -190.5t-114.5 -210.5q-12 -29 -21 -59.5t-16 -61.5q-4 -23 -7 -46.5t0 -45t16.5 -39 t42.5 -27.5q16 -6 19 -9t-9 -19q-53 -4 -88 15t-60 56q-35 49 -21.5 122t47.5 149.5t74 144.5t60 109q-20 -18 -42.5 -48t-45 -63t-43 -64.5t-35.5 -52.5q-47 -70 -82.5 -134t-70.5 -140q-59 -129 -102.5 -263.5t-69.5 -269.5zM716 1697.5q0 10.5 5.5 18.5t15.5 8 q10 4 18.5 3t14.5 3q20 12 37.5 0t26.5 -31.5t8 -39t-15 -19.5q-45 -14 -96 25q-6 2 -10.5 12t-4.5 20.5zM1003 1697.5q0 10.5 5.5 18.5t15.5 8q10 4 18 3t14 3q20 12 38 0t27 -31.5t8 -39t-15 -19.5q-45 -14 -96 25q-6 2 -10.5 12t-4.5 20.5z" />
<glyph unicode="&#xd8;" horiz-adv-x="1075" d="M-16 37q0 35 1 69.5t7 71.5q4 59 19.5 116.5t31.5 125.5q35 104 79 208.5t97 205.5q59 121 134 229t173 207q31 20 55.5 44.5t59.5 43.5q16 18 43.5 22t58.5 -14q33 23 62 43.5t51 42.5q25 27 76 27h12q141 12 186 -97q16 -43 23.5 -85t-0.5 -85q-12 -82 -36.5 -156.5 t-55.5 -142.5q-57 -145 -127 -276t-162 -260q-47 -66 -89 -128.5t-95 -127.5q-78 -106 -201 -197q-39 -29 -84 -42t-98 -21h-31q-16 4 -29 8q-18 -8 -22 8q-121 45 -139 160zM72 141q0 -29 1 -54.5t7 -53.5q0 -16 10 -36t23 -40q6 -16 28 -27l4 4q53 78 100.5 159t96.5 167 q41 84 81 163t81 157q-33 6 -57.5 24.5t-43.5 46.5q-35 49 -21.5 122t47.5 149.5t74 144.5t60 109q-20 -18 -42.5 -48t-45 -63t-43 -64.5t-35.5 -52.5q-47 -70 -82.5 -134t-70.5 -140q-59 -129 -102.5 -263.5t-69.5 -269.5zM201 -80q8 0 24 4q18 6 36 12.5t34 18.5 q53 43 103.5 82t90.5 86q86 86 153 185.5t122 195.5q41 70 72.5 134t72.5 136q51 94 82 194.5t56 205.5q10 43 11 86t-3 86q-4 29 -25.5 46t-52.5 19q0 -31 -11.5 -64.5t-25.5 -54.5q-43 -86 -93 -185t-102.5 -200.5t-101.5 -198t-90 -173.5q-37 -66 -82 -146t-91 -162 t-92 -161.5t-87 -145.5zM481 682q2 -20 10.5 -37.5t30.5 -30.5q100 193 192.5 371t170.5 358q6 16 11 27.5t9 22.5q-35 -16 -65.5 -47t-53.5 -58q-78 -90 -145.5 -190.5t-114.5 -210.5q-12 -29 -21.5 -59.5t-15.5 -61.5q-4 -20 -7 -42t-1 -42z" />
<glyph unicode="&#xd9;" horiz-adv-x="1423" d="M299 133q6 66 41 141q25 47 39.5 95.5t30.5 97.5q8 16 17.5 27.5t23.5 27.5q4 23 18.5 45.5t8.5 50.5q0 10 7 23.5t7 26.5q55 129 117.5 257t140.5 253q16 33 33.5 64.5t40.5 66.5q20 14 32.5 10t40.5 -4q16 -4 21.5 -14.5t1.5 -20.5q0 -14 -23 -33q-63 -70 -113 -158 t-85 -167q-37 -92 -79 -183.5t-81 -189.5q-35 -84 -62.5 -165t-54.5 -169q-2 -6 -6 -20.5t-5 -31t0 -32.5t11 -29q12 4 30.5 12.5t36 17.5t33 19.5t23.5 18.5q57 53 113.5 111.5t105.5 124.5q47 63 90 120.5t91 130.5q8 23 29.5 52.5t37.5 52.5q41 35 63.5 76t41 84t38 85 t54.5 78q8 12 17 24.5t17.5 25t11.5 26t-1 25.5q0 10 4 19t8 22q35 43 74 104.5t90 102.5q20 0 34.5 2t37.5 2q33 -4 48 -18.5t3 -37.5q-6 -29 -16.5 -54t-26.5 -56q-39 -63 -78 -124t-59 -126q-49 -141 -90 -285.5t-95 -285.5q-35 -104 -68.5 -208t-68.5 -212 q-16 -57 -37.5 -111.5t-42.5 -107.5q-10 0 -13 -3.5t-20 -3.5q0 53 9.5 107.5t19.5 112.5q51 158 103.5 318.5t117.5 324.5q10 27 16.5 55.5t12.5 58.5q10 47 29.5 92.5t38.5 92.5q2 8 11 30.5t18 47t15.5 46t0.5 29.5v-10q-20 -6 -39 -30.5t-36.5 -52.5t-30.5 -54.5 t-21 -38.5q-72 -125 -141.5 -248t-149.5 -235q-53 -72 -103.5 -134.5t-109.5 -121.5q-39 -39 -76 -71t-94 -61q-43 -23 -88 -23.5t-92 15.5q-76 25 -50 78zM594 1645q18 16 29.5 26.5t37.5 14.5q2 2 8 2q23 0 43 -16q33 -23 66 -60t49 -82q4 -4 3 -9t-1 -9q-4 -23 -20 -35 q-6 -4 -8.5 -5t-10.5 3q-2 4 -5 5t-5 5q-6 10 -15.5 16.5t-17.5 14.5q-23 14 -39 33q-14 12 -27.5 24t-27.5 27q-4 4 -6 7t-6 7q-10 6 -20.5 11.5t-24.5 7.5q-10 0 -2 12z" />
<glyph unicode="&#xda;" horiz-adv-x="1423" d="M299 133q6 66 41 141q25 47 39.5 95.5t30.5 97.5q8 16 17.5 27.5t23.5 27.5q4 23 18.5 45.5t8.5 50.5q0 10 7 23.5t7 26.5q55 129 117.5 257t140.5 253q16 33 33.5 64.5t40.5 66.5q20 14 32.5 10t40.5 -4q16 -4 21.5 -14.5t1.5 -20.5q0 -14 -23 -33q-63 -70 -113 -158 t-85 -167q-37 -92 -79 -183.5t-81 -189.5q-35 -84 -62.5 -165t-54.5 -169q-2 -6 -6 -20.5t-5 -31t0 -32.5t11 -29q12 4 30.5 12.5t36 17.5t33 19.5t23.5 18.5q57 53 113.5 111.5t105.5 124.5q47 63 90 120.5t91 130.5q8 23 29.5 52.5t37.5 52.5q41 35 63.5 76t41 84t38 85 t54.5 78q8 12 17 24.5t17.5 25t11.5 26t-1 25.5q0 10 4 19t8 22q35 43 74 104.5t90 102.5q20 0 34.5 2t37.5 2q33 -4 48 -18.5t3 -37.5q-6 -29 -16.5 -54t-26.5 -56q-39 -63 -78 -124t-59 -126q-49 -141 -90 -285.5t-95 -285.5q-35 -104 -68.5 -208t-68.5 -212 q-16 -57 -37.5 -111.5t-42.5 -107.5q-10 0 -13 -3.5t-20 -3.5q0 53 9.5 107.5t19.5 112.5q51 158 103.5 318.5t117.5 324.5q10 27 16.5 55.5t12.5 58.5q10 47 29.5 92.5t38.5 92.5q2 8 11 30.5t18 47t15.5 46t0.5 29.5v-10q-20 -6 -39 -30.5t-36.5 -52.5t-30.5 -54.5 t-21 -38.5q-72 -125 -141.5 -248t-149.5 -235q-53 -72 -103.5 -134.5t-109.5 -121.5q-39 -39 -76 -71t-94 -61q-43 -23 -88 -23.5t-92 15.5q-76 25 -50 78zM744 1521q-1 5 3 9q16 45 49 82t66 60q20 16 43 16q6 0 8 -2q27 -4 38 -14.5t30 -26.5q8 -12 -2 -12 q-14 -2 -24.5 -7.5t-20.5 -11.5q-4 -4 -6 -7t-7 -7q-14 -14 -27 -26.5t-28 -24.5q-18 -18 -39 -33q-8 -8 -17 -14.5t-16 -16.5q-2 -4 -5 -5t-5 -5q-8 -4 -10 -3t-8 5q-16 12 -21 35q0 4 -1 9z" />
<glyph unicode="&#xdb;" horiz-adv-x="1423" d="M299 133q6 66 41 141q25 47 39.5 95.5t30.5 97.5q8 16 17.5 27.5t23.5 27.5q4 23 18.5 45.5t8.5 50.5q0 10 7 23.5t7 26.5q55 129 117.5 257t140.5 253q16 33 33.5 64.5t40.5 66.5q20 14 32.5 10t40.5 -4q16 -4 21.5 -14.5t1.5 -20.5q0 -14 -23 -33q-63 -70 -113 -158 t-85 -167q-37 -92 -79 -183.5t-81 -189.5q-35 -84 -62.5 -165t-54.5 -169q-2 -6 -6 -20.5t-5 -31t0 -32.5t11 -29q12 4 30.5 12.5t36 17.5t33 19.5t23.5 18.5q57 53 113.5 111.5t105.5 124.5q47 63 90 120.5t91 130.5q8 23 29.5 52.5t37.5 52.5q41 35 63.5 76t41 84t38 85 t54.5 78q8 12 17 24.5t17.5 25t11.5 26t-1 25.5q0 10 4 19t8 22q35 43 74 104.5t90 102.5q20 0 34.5 2t37.5 2q33 -4 48 -18.5t3 -37.5q-6 -29 -16.5 -54t-26.5 -56q-39 -63 -78 -124t-59 -126q-49 -141 -90 -285.5t-95 -285.5q-35 -104 -68.5 -208t-68.5 -212 q-16 -57 -37.5 -111.5t-42.5 -107.5q-10 0 -13 -3.5t-20 -3.5q0 53 9.5 107.5t19.5 112.5q51 158 103.5 318.5t117.5 324.5q10 27 16.5 55.5t12.5 58.5q10 47 29.5 92.5t38.5 92.5q2 8 11 30.5t18 47t15.5 46t0.5 29.5v-10q-20 -6 -39 -30.5t-36.5 -52.5t-30.5 -54.5 t-21 -38.5q-72 -125 -141.5 -248t-149.5 -235q-53 -72 -103.5 -134.5t-109.5 -121.5q-39 -39 -76 -71t-94 -61q-43 -23 -88 -23.5t-92 15.5q-76 25 -50 78zM751 1657q39 39 76 81t68 89h39v-4h2q33 -27 32 -72q0 -20 4.5 -37.5t8.5 -33.5q4 -8 4 -23q0 -10 -9.5 -19 t-17.5 -9t-12 6t-9 9t-9 13q-6 10 -9.5 21.5t-11.5 21.5q-2 4 -4 10.5t-4 12.5q-18 -18 -27 -37q-10 -6 -15 -13.5t-15 -15.5q-6 -10 -14.5 -15t-16.5 -15q-10 -6 -13 -7q-16 -12 -30 7q-4 10 -9.5 15t-7.5 15z" />
<glyph unicode="&#xdc;" horiz-adv-x="1423" d="M299 133q6 66 41 141q25 47 39.5 95.5t30.5 97.5q8 16 17.5 27.5t23.5 27.5q4 23 18.5 45.5t8.5 50.5q0 10 7 23.5t7 26.5q55 129 117.5 257t140.5 253q16 33 33.5 64.5t40.5 66.5q20 14 32.5 10t40.5 -4q16 -4 21.5 -14.5t1.5 -20.5q0 -14 -23 -33q-63 -70 -113 -158 t-85 -167q-37 -92 -79 -183.5t-81 -189.5q-35 -84 -62.5 -165t-54.5 -169q-2 -6 -6 -20.5t-5 -31t0 -32.5t11 -29q12 4 30.5 12.5t36 17.5t33 19.5t23.5 18.5q57 53 113.5 111.5t105.5 124.5q47 63 90 120.5t91 130.5q8 23 29.5 52.5t37.5 52.5q41 35 63.5 76t41 84t38 85 t54.5 78q8 12 17 24.5t17.5 25t11.5 26t-1 25.5q0 10 4 19t8 22q35 43 74 104.5t90 102.5q20 0 34.5 2t37.5 2q33 -4 48 -18.5t3 -37.5q-6 -29 -16.5 -54t-26.5 -56q-39 -63 -78 -124t-59 -126q-49 -141 -90 -285.5t-95 -285.5q-35 -104 -68.5 -208t-68.5 -212 q-16 -57 -37.5 -111.5t-42.5 -107.5q-10 0 -13 -3.5t-20 -3.5q0 53 9.5 107.5t19.5 112.5q51 158 103.5 318.5t117.5 324.5q10 27 16.5 55.5t12.5 58.5q10 47 29.5 92.5t38.5 92.5q2 8 11 30.5t18 47t15.5 46t0.5 29.5v-10q-20 -6 -39 -30.5t-36.5 -52.5t-30.5 -54.5 t-21 -38.5q-72 -125 -141.5 -248t-149.5 -235q-53 -72 -103.5 -134.5t-109.5 -121.5q-39 -39 -76 -71t-94 -61q-43 -23 -88 -23.5t-92 15.5q-76 25 -50 78zM688 1568.5q0 10.5 5.5 18.5t15.5 8q10 4 18.5 3t14.5 3q20 12 37.5 0t26.5 -31.5t8 -39t-15 -19.5q-45 -14 -96 25 q-6 2 -10.5 12t-4.5 20.5zM975 1568.5q0 10.5 5.5 18.5t15.5 8q10 4 18 3t14 3q20 12 38 0t27 -31.5t8 -39t-15 -19.5q-45 -14 -96 25q-6 2 -10.5 12t-4.5 20.5z" />
<glyph unicode="&#xdd;" horiz-adv-x="923" d="M3 -55.5q9 30.5 9 61.5q0 8 10.5 31.5t23.5 51.5t25.5 50.5t16.5 26.5q6 6 8 13t8 18q53 78 120 154.5t153 135.5q33 23 71.5 37.5t67.5 -2.5q-31 -29 -55.5 -41t-51 -29.5t-60.5 -49t-85 -95.5q-37 -47 -68.5 -106.5t-60.5 -106.5q-35 -68 -48 -159t-7 -164l8 -9 q0 -6 12 -6q8 0 31 13.5t47.5 31t45 35t26.5 25.5q37 45 74.5 88t74.5 96q23 29 45.5 64.5t38.5 66.5q27 51 58 100q31 47 52 97.5t54 93.5q55 113 115.5 225.5t85.5 216.5q2 12 13 43t23.5 67t24 67.5t13.5 46.5v12q-14 0 -15 -6q-35 -35 -77 -90.5t-85 -102.5 q-86 -94 -172 -179t-157 -146q-29 -27 -69 -47.5t-83 -30.5q-35 -8 -60.5 -10.5t-45 2t-38 15.5t-38.5 32q-16 12 -22.5 27.5t-6.5 31.5q-4 33 -3 59.5t11 55.5q16 63 43 122.5t56 114.5q4 18 14 33.5t16 38.5q6 16 18.5 31.5t18.5 31.5q23 33 41.5 68t36.5 66q0 8 2 10l4 4 q47 76 98.5 101.5t102.5 -17.5q6 0 3 -5t-3 -9q0 -2 -9 -10.5t-20.5 -17.5t-20.5 -17.5t-9 -10.5q-57 -76 -94 -145.5t-89 -155.5q-18 -35 -39.5 -73.5t-41 -77.5t-37 -78t-25.5 -72q-10 -33 0 -63q0 -10 14 -21q45 -4 81 7.5t68 32t60.5 46t59.5 47.5q63 53 121.5 115.5 t119.5 114.5q31 37 65 75.5t68.5 88t68.5 109.5t65 138q6 16 1.5 23.5l-10.5 17.5q-6 8 -2 12.5t11 4.5q23 4 46 6t46 8q12 0 24.5 -5l22.5 -9q10 -12 16 -22.5t6 -27.5q-6 -45 -15 -87t-15 -80q-16 -94 -53.5 -179.5t-77.5 -171.5q-45 -102 -86 -197.5t-97 -183.5 q-10 -23 -22.5 -47t-22.5 -51q-16 -35 -34.5 -65.5t-34.5 -61.5q-35 -66 -72 -124t-72 -115q-23 -41 -47 -78t-59 -74q-18 -16 -27.5 -31.5t-21.5 -32.5q-20 -25 -46 -50t-73 -42q-66 -29 -105 -23.5t-59.5 31t-26.5 66.5t-6 86q-12 39 -3 69.5zM687 1564q-1 5 3 9 q16 45 49 82t66 60q20 16 43 16q6 0 8 -2q27 -4 38 -14.5t30 -26.5q8 -12 -2 -12q-14 -2 -24.5 -7.5t-20.5 -11.5q-4 -4 -6 -7t-7 -7q-14 -14 -27 -26.5t-28 -24.5q-18 -18 -39 -33q-8 -8 -17 -14.5t-16 -16.5q-2 -4 -5 -5t-5 -5q-8 -4 -10 -3t-8 5q-16 12 -21 35q0 4 -1 9z " />
<glyph unicode="&#xdf;" horiz-adv-x="987" d="M-25 291q0 10 7 16q16 23 22 50.5t14 50.5q20 55 38 112.5t46 110.5q10 12 12.5 26.5t10.5 26.5q12 20 19.5 45t23.5 45t28.5 43t22.5 47q12 23 24.5 47.5t24.5 49.5q4 8 8.5 12t8.5 12q4 4 7 8t7 8t5 13.5t5 13.5q25 25 46.5 54.5t45.5 58.5q29 31 58.5 57.5t58.5 58.5 q8 8 25 15q20 10 37.5 18t37.5 21q35 16 71 21t77 16q33 -4 63.5 -12.5t53.5 -30.5q20 -25 32.5 -48.5t16.5 -52.5q4 -20 -2 -39.5t-10 -40.5q-20 -59 -64 -112q-47 -51 -97 -95.5t-104 -85.5q-8 -4 -13 -7t-9 -7v-12q16 -4 32.5 -4h32.5q57 -8 121 -33q70 -39 101 -111 q16 -35 11 -67.5t-22 -65.5q-20 -33 -42.5 -59.5t-51.5 -46.5q-53 -29 -105.5 -49.5t-107.5 -30.5q-66 -14 -133 -14q-35 -4 -64.5 0t-62.5 14q-8 4 -20.5 4t-16.5 12q29 23 70 23q35 0 69.5 3t67.5 11q63 12 121.5 33.5t105.5 62.5q16 12 28.5 27.5t25.5 32.5q27 33 26 74 q0 29 -9 51t-38 39q-35 14 -80 20q-16 4 -31.5 8t-31.5 9q-8 0 -15.5 -1.5t-17.5 -5.5q-68 -14 -131 27v15.5t4 11.5q12 12 24.5 23t24.5 20q35 20 73 43.5t68 52.5q96 76 160 184q23 37 23 86q0 27 -17 53q-16 20 -33.5 27.5t-41.5 3.5q-39 -4 -75 -21.5t-67 -41.5 q-45 -33 -84 -68t-71 -76q0 -2 -2 -4h-2q-59 -72 -105.5 -150.5t-85.5 -158.5q-41 -76 -70.5 -154.5t-58.5 -158.5q-10 -29 -21.5 -55.5t-19.5 -55.5q-16 -55 -80 -80q-4 4 -11 5t-15 5q-6 6 -7 17z" />
<glyph unicode="&#xe0;" horiz-adv-x="559" d="M-55 399q6 14 11 28.5t5 31.5q6 20 12 24q10 16 20.5 28.5t24.5 25.5q10 10 20.5 21t20.5 22q6 8 14.5 14t16.5 16q10 8 17.5 16.5t15.5 16.5q31 33 65 45l56 25q6 4 14 5t16 3q12 6 27 0h4q12 -6 27.5 -8t29.5 -4q20 -4 27.5 -15.5t3.5 -25.5q0 -29 -14 -58 q-6 -16 -14.5 -32.5t-12.5 -32.5q-4 -10 -8 -19.5t-8 -19.5q-6 -16 -12.5 -32.5t-10.5 -31.5v-14q0 -2 4.5 -5t8.5 -3q10 0 16 2q16 6 33.5 14t34.5 17q25 16 51 33.5t51 33.5q35 18 70 31q6 2 14 2q4 0 8 -4t4 -8l-12 -19l-24.5 -24.5t-24.5 -22.5q-29 -18 -53.5 -38.5 t-51.5 -39.5q-14 -10 -30.5 -19t-32.5 -20q-31 -16 -76 -16q-27 0 -51 8q-4 2 -8 5t-8 5q-18 23 -17 43q2 12 6 22.5t2 18.5q0 8 -8 9q-2 -2 -4 -2t-4 -2q-14 -20 -29 -31q-10 -8 -18 -14.5t-19 -12.5q-10 -8 -19 -17t-22 -16q-45 -35 -106 -28q-16 0 -37 16q-8 12 -14 19 q-14 18 -2 34zM52 437q1 -1 1 -3h15q6 6 12 9t12 10q27 23 53.5 46t51.5 46q23 20 44 39.5t42 40.5q6 6 10 11t8 15q2 4 1 5t-1 3q0 12 -10 13q-8 -4 -14.5 -4t-12.5 -4q-16 -4 -28.5 -11.5t-24.5 -17.5q-16 -12 -32.5 -28.5l-33.5 -33.5q-25 -29 -47 -60.5t-45 -61.5v-9 q-2 -4 -1 -5zM166 1028q18 16 29.5 26.5t37.5 14.5q2 2 8 2q23 0 43 -16q33 -23 66 -60t49 -82q4 -4 3 -9t-1 -9q-4 -23 -20 -35q-6 -4 -8.5 -5t-10.5 3q-2 4 -5 5t-5 5q-6 10 -15.5 16.5t-17.5 14.5q-23 14 -39 33q-14 12 -27.5 24t-27.5 27q-4 4 -6 7t-6 7 q-10 6 -20.5 11.5t-24.5 7.5q-10 0 -2 12z" />
<glyph unicode="&#xe1;" horiz-adv-x="559" d="M-55 399q6 14 11 28.5t5 31.5q6 20 12 24q10 16 20.5 28.5t24.5 25.5q10 10 20.5 21t20.5 22q6 8 14.5 14t16.5 16q10 8 17.5 16.5t15.5 16.5q31 33 65 45l56 25q6 4 14 5t16 3q12 6 27 0h4q12 -6 27.5 -8t29.5 -4q20 -4 27.5 -15.5t3.5 -25.5q0 -29 -14 -58 q-6 -16 -14.5 -32.5t-12.5 -32.5q-4 -10 -8 -19.5t-8 -19.5q-6 -16 -12.5 -32.5t-10.5 -31.5v-14q0 -2 4.5 -5t8.5 -3q10 0 16 2q16 6 33.5 14t34.5 17q25 16 51 33.5t51 33.5q35 18 70 31q6 2 14 2q4 0 8 -4t4 -8l-12 -19l-24.5 -24.5t-24.5 -22.5q-29 -18 -53.5 -38.5 t-51.5 -39.5q-14 -10 -30.5 -19t-32.5 -20q-31 -16 -76 -16q-27 0 -51 8q-4 2 -8 5t-8 5q-18 23 -17 43q2 12 6 22.5t2 18.5q0 8 -8 9q-2 -2 -4 -2t-4 -2q-14 -20 -29 -31q-10 -8 -18 -14.5t-19 -12.5q-10 -8 -19 -17t-22 -16q-45 -35 -106 -28q-16 0 -37 16q-8 12 -14 19 q-14 18 -2 34zM52 437q1 -1 1 -3h15q6 6 12 9t12 10q27 23 53.5 46t51.5 46q23 20 44 39.5t42 40.5q6 6 10 11t8 15q2 4 1 5t-1 3q0 12 -10 13q-8 -4 -14.5 -4t-12.5 -4q-16 -4 -28.5 -11.5t-24.5 -17.5q-16 -12 -32.5 -28.5l-33.5 -33.5q-25 -29 -47 -60.5t-45 -61.5v-9 q-2 -4 -1 -5zM189 873q-1 5 3 9q16 45 49 82t66 60q20 16 43 16q6 0 8 -2q27 -4 38 -14.5t30 -26.5q8 -12 -2 -12q-14 -2 -24.5 -7.5t-20.5 -11.5q-4 -4 -6 -7t-7 -7q-14 -14 -27 -26.5t-28 -24.5q-18 -18 -39 -33q-8 -8 -17 -14.5t-16 -16.5q-2 -4 -5 -5t-5 -5 q-8 -4 -10 -3t-8 5q-16 12 -21 35q0 4 -1 9z" />
<glyph unicode="&#xe2;" horiz-adv-x="559" d="M-55 399q6 14 11 28.5t5 31.5q6 20 12 24q10 16 20.5 28.5t24.5 25.5q10 10 20.5 21t20.5 22q6 8 14.5 14t16.5 16q10 8 17.5 16.5t15.5 16.5q31 33 65 45l56 25q6 4 14 5t16 3q12 6 27 0h4q12 -6 27.5 -8t29.5 -4q20 -4 27.5 -15.5t3.5 -25.5q0 -29 -14 -58 q-6 -16 -14.5 -32.5t-12.5 -32.5q-4 -10 -8 -19.5t-8 -19.5q-6 -16 -12.5 -32.5t-10.5 -31.5v-14q0 -2 4.5 -5t8.5 -3q10 0 16 2q16 6 33.5 14t34.5 17q25 16 51 33.5t51 33.5q35 18 70 31q6 2 14 2q4 0 8 -4t4 -8l-12 -19l-24.5 -24.5t-24.5 -22.5q-29 -18 -53.5 -38.5 t-51.5 -39.5q-14 -10 -30.5 -19t-32.5 -20q-31 -16 -76 -16q-27 0 -51 8q-4 2 -8 5t-8 5q-18 23 -17 43q2 12 6 22.5t2 18.5q0 8 -8 9q-2 -2 -4 -2t-4 -2q-14 -20 -29 -31q-10 -8 -18 -14.5t-19 -12.5q-10 -8 -19 -17t-22 -16q-45 -35 -106 -28q-16 0 -37 16q-8 12 -14 19 q-14 18 -2 34zM52 437q1 -1 1 -3h15q6 6 12 9t12 10q27 23 53.5 46t51.5 46q23 20 44 39.5t42 40.5q6 6 10 11t8 15q2 4 1 5t-1 3q0 12 -10 13q-8 -4 -14.5 -4t-12.5 -4q-16 -4 -28.5 -11.5t-24.5 -17.5q-16 -12 -32.5 -28.5l-33.5 -33.5q-25 -29 -47 -60.5t-45 -61.5v-9 q-2 -4 -1 -5zM161 991q39 39 76 81t68 89h39v-4h2q33 -27 32 -72q0 -20 4.5 -37.5t8.5 -33.5q4 -8 4 -23q0 -10 -9.5 -19t-17.5 -9t-12 6t-9 9t-9 13q-6 10 -9.5 21.5t-11.5 21.5q-2 4 -4 10.5t-4 12.5q-18 -18 -27 -37q-10 -6 -15 -13.5t-15 -15.5q-6 -10 -14.5 -15 t-16.5 -15q-10 -6 -13 -7q-16 -12 -30 7q-4 10 -9.5 15t-7.5 15z" />
<glyph unicode="&#xe3;" horiz-adv-x="559" d="M-55 399q6 14 11 28.5t5 31.5q6 20 12 24q10 16 20.5 28.5t24.5 25.5q10 10 20.5 21t20.5 22q6 8 14.5 14t16.5 16q10 8 17.5 16.5t15.5 16.5q31 33 65 45l56 25q6 4 14 5t16 3q12 6 27 0h4q12 -6 27.5 -8t29.5 -4q20 -4 27.5 -15.5t3.5 -25.5q0 -29 -14 -58 q-6 -16 -14.5 -32.5t-12.5 -32.5q-4 -10 -8 -19.5t-8 -19.5q-6 -16 -12.5 -32.5t-10.5 -31.5v-14q0 -2 4.5 -5t8.5 -3q10 0 16 2q16 6 33.5 14t34.5 17q25 16 51 33.5t51 33.5q35 18 70 31q6 2 14 2q4 0 8 -4t4 -8l-12 -19l-24.5 -24.5t-24.5 -22.5q-29 -18 -53.5 -38.5 t-51.5 -39.5q-14 -10 -30.5 -19t-32.5 -20q-31 -16 -76 -16q-27 0 -51 8q-4 2 -8 5t-8 5q-18 23 -17 43q2 12 6 22.5t2 18.5q0 8 -8 9q-2 -2 -4 -2t-4 -2q-14 -20 -29 -31q-10 -8 -18 -14.5t-19 -12.5q-10 -8 -19 -17t-22 -16q-45 -35 -106 -28q-16 0 -37 16q-8 12 -14 19 q-14 18 -2 34zM52 437q1 -1 1 -3h15q6 6 12 9t12 10q27 23 53.5 46t51.5 46q23 20 44 39.5t42 40.5q6 6 10 11t8 15q2 4 1 5t-1 3q0 12 -10 13q-8 -4 -14.5 -4t-12.5 -4q-16 -4 -28.5 -11.5t-24.5 -17.5q-16 -12 -32.5 -28.5l-33.5 -33.5q-25 -29 -47 -60.5t-45 -61.5v-9 q-2 -4 -1 -5zM100 967q-8 8 0 12q10 14 21.5 23.5t19.5 17.5q16 16 30.5 27.5t33.5 15.5q4 6 12 8t10 2q47 0 68 -32q8 -8 13 -17.5t14 -15.5q10 -23 31.5 -26t39.5 5q37 14 70 54q8 14 14 20q2 8 12.5 8t14.5 -6q2 -4 7 -7t9 -11q23 -20 4 -47q-16 -39 -55 -56 q-14 -8 -28.5 -11t-30.5 -7q-27 -14 -58 2q-29 12 -53.5 25.5t-46.5 37.5q-4 6 -8 9.5t-13 9.5q-8 4 -14 0q-10 -10 -16 -20.5t-17 -16.5q-4 -12 -20 -18q-25 -14 -47 0q-4 6 -17 14z" />
<glyph unicode="&#xe4;" horiz-adv-x="559" d="M-55 399q6 14 11 28.5t5 31.5q6 20 12 24q10 16 20.5 28.5t24.5 25.5q10 10 20.5 21t20.5 22q6 8 14.5 14t16.5 16q10 8 17.5 16.5t15.5 16.5q31 33 65 45l56 25q6 4 14 5t16 3q12 6 27 0h4q12 -6 27.5 -8t29.5 -4q20 -4 27.5 -15.5t3.5 -25.5q0 -29 -14 -58 q-6 -16 -14.5 -32.5t-12.5 -32.5q-4 -10 -8 -19.5t-8 -19.5q-6 -16 -12.5 -32.5t-10.5 -31.5v-14q0 -2 4.5 -5t8.5 -3q10 0 16 2q16 6 33.5 14t34.5 17q25 16 51 33.5t51 33.5q35 18 70 31q6 2 14 2q4 0 8 -4t4 -8l-12 -19l-24.5 -24.5t-24.5 -22.5q-29 -18 -53.5 -38.5 t-51.5 -39.5q-14 -10 -30.5 -19t-32.5 -20q-31 -16 -76 -16q-27 0 -51 8q-4 2 -8 5t-8 5q-18 23 -17 43q2 12 6 22.5t2 18.5q0 8 -8 9q-2 -2 -4 -2t-4 -2q-14 -20 -29 -31q-10 -8 -18 -14.5t-19 -12.5q-10 -8 -19 -17t-22 -16q-45 -35 -106 -28q-16 0 -37 16q-8 12 -14 19 q-14 18 -2 34zM47 927.5q0 10.5 5.5 18.5t15.5 8q10 4 18.5 3t14.5 3q20 12 37.5 0t26.5 -31.5t8 -39t-15 -19.5q-45 -14 -96 25q-6 2 -10.5 12t-4.5 20.5zM52 437q1 -1 1 -3h15q6 6 12 9t12 10q27 23 53.5 46t51.5 46q23 20 44 39.5t42 40.5q6 6 10 11t8 15q2 4 1 5t-1 3 q0 12 -10 13q-8 -4 -14.5 -4t-12.5 -4q-16 -4 -28.5 -11.5t-24.5 -17.5q-16 -12 -32.5 -28.5l-33.5 -33.5q-25 -29 -47 -60.5t-45 -61.5v-9q-2 -4 -1 -5zM334 927.5q0 10.5 5.5 18.5t15.5 8q10 4 18 3t14 3q20 12 38 0t27 -31.5t8 -39t-15 -19.5q-45 -14 -96 25 q-6 2 -10.5 12t-4.5 20.5z" />
<glyph unicode="&#xe5;" horiz-adv-x="559" d="M-55 399q6 14 11 28.5t5 31.5q6 20 12 24q10 16 20.5 28.5t24.5 25.5q10 10 20.5 21t20.5 22q6 8 14.5 14t16.5 16q10 8 17.5 16.5t15.5 16.5q31 33 65 45l56 25q6 4 14 5t16 3q12 6 27 0h4q12 -6 27.5 -8t29.5 -4q20 -4 27.5 -15.5t3.5 -25.5q0 -29 -14 -58 q-6 -16 -14.5 -32.5t-12.5 -32.5q-4 -10 -8 -19.5t-8 -19.5q-6 -16 -12.5 -32.5t-10.5 -31.5v-14q0 -2 4.5 -5t8.5 -3q10 0 16 2q16 6 33.5 14t34.5 17q25 16 51 33.5t51 33.5q35 18 70 31q6 2 14 2q4 0 8 -4t4 -8l-12 -19l-24.5 -24.5t-24.5 -22.5q-29 -18 -53.5 -38.5 t-51.5 -39.5q-14 -10 -30.5 -19t-32.5 -20q-31 -16 -76 -16q-27 0 -51 8q-4 2 -8 5t-8 5q-18 23 -17 43q2 12 6 22.5t2 18.5q0 8 -8 9q-2 -2 -4 -2t-4 -2q-14 -20 -29 -31q-10 -8 -18 -14.5t-19 -12.5q-10 -8 -19 -17t-22 -16q-45 -35 -106 -28q-16 0 -37 16q-8 12 -14 19 q-14 18 -2 34zM52 437q1 -1 1 -3h15q6 6 12 9t12 10q27 23 53.5 46t51.5 46q23 20 44 39.5t42 40.5q6 6 10 11t8 15q2 4 1 5t-1 3q0 12 -10 13q-8 -4 -14.5 -4t-12.5 -4q-16 -4 -28.5 -11.5t-24.5 -17.5q-16 -12 -32.5 -28.5l-33.5 -33.5q-25 -29 -47 -60.5t-45 -61.5v-9 q-2 -4 -1 -5zM145 920q10 45 25 90l4 16t-2 18q12 4 22 6.5t21 6.5q10 -10 20 -16.5t25 -16.5q12 8 20 12q23 10 47 6q10 -4 25.5 -6t32.5 -8q2 -4 7 -7t9 -11q25 -18 12 -52q-25 -72 -96 -120q-10 -6 -25.5 -13.5t-31.5 -11.5q-31 -6 -56.5 1t-48.5 36q-27 29 -10 70z M211 901q-4 -10 3 -16t13 -6q4 0 8 1t6 5q31 12 62 35q10 4 20 13t19 19q4 4 7 10.5t7 12.5q-8 8 -14 8h-17.5t-17.5 -4q-14 0 -24.5 2t-22.5 2q-25 0 -29 -20q-6 -14 -10 -29.5t-10 -32.5z" />
<glyph unicode="&#xe7;" horiz-adv-x="315" d="M-66 367q4 12 5.5 24t3.5 23q6 33 4 53q0 8 2 12q16 16 28.5 37t22.5 43q2 12 10 23.5t15 23.5q4 8 9 14.5t9 12.5q10 4 16.5 10t14.5 12q16 10 35 17q14 8 36 0q8 -4 11.5 -10.5t7.5 -12.5l31 -51q-4 -2 -18.5 -9t-53.5 1l-4 -4q-25 -27 -43.5 -55.5t-34.5 -59.5 q-8 -20 -14.5 -38.5t-8.5 -37.5q-4 -10 2 -14q8 -8 15 -8q8 0 20 4q18 8 37 16t39 19q14 10 29.5 19t32.5 20l28 20v-2l4 2q41 29 94 57q10 6 19.5 9.5t19.5 7.5q8 8 9 0q6 -6 0 -10q0 -2 -2 -7q-4 -6 -9.5 -12t-11.5 -12q-6 -4 -12 -9.5t-13 -11.5q-6 -10 -15 -22t-17 -19 q-18 -10 -31.5 -24.5t-30.5 -24.5l-24 -20l-66 -43l-6 -4l8 -23q4 -10 17 -10l32 -6q12 -2 21 -15l8 -20q4 -4 0 -12q-10 -31 -39 -37q-39 -8 -80 12q-8 8 -10 18q0 6 6 7q4 0 7 1t7 -1q27 -10 50 -11h22q2 0 3 3.5t-1 5.5v8l-7 7t-5 7q-18 8 -31 0q-4 -8 -14 -8q-8 0 -8 8 q-2 18 -9 31l-6 22q-16 -4 -33.5 -7t-35.5 -1h-29q-25 4 -37 17q-10 10 -15 18t-11 18q-2 2 -2 4q-2 2 -3 5z" />
<glyph unicode="&#xe8;" horiz-adv-x="342" d="M-49 352q-8 16 0 39q4 16 10 32.5t12 35.5q2 6 5.5 14t7.5 14q10 18 16 45q4 23 16 33q10 27 39 51q12 12 23.5 24.5t23.5 23.5q8 4 15 8q12 4 23.5 7t27.5 7q4 2 9 2h9q18 -4 23 -10q16 -14 29 -29q8 -12 14 -28t-4 -33q-12 -16 -28.5 -31.5t-33.5 -30.5 q-20 -16 -40.5 -33.5t-43.5 -33.5q-14 -10 -32 -8q-8 0 -13 -2q-12 -6 -16 -13q-8 -16 -8 -24q-10 -23 -6 -52q4 -4 6 -7t8 -7q16 -4 27 -2q27 4 49 14q29 10 52.5 22.5t47.5 27.5q27 16 52.5 31.5t52.5 31.5q12 4 18 4q6 4 13 -1t5 -9q-6 -29 -30 -51q-23 -12 -44.5 -28.5 t-39.5 -33.5q-16 -10 -33.5 -21.5t-38.5 -17.5q-14 -6 -29.5 -11t-31.5 -5q-14 -4 -29 -6t-29 0q-23 0 -37 6l-8 4t-12 4q-4 2 -6 4t-6 4q-10 10 -19.5 18.5t-15.5 20.5zM56 934q18 16 29.5 26.5t37.5 14.5q2 2 8 2q23 0 43 -16q33 -23 66 -60t49 -82q4 -4 3 -9t-1 -9 q-4 -23 -20 -35q-6 -4 -8.5 -5t-10.5 3q-2 4 -5 5t-5 5q-6 10 -15.5 16.5t-17.5 14.5q-23 14 -39 33q-14 12 -27.5 24t-27.5 27q-4 4 -6 7t-6 7q-10 6 -20.5 11.5t-24.5 7.5q-10 0 -2 12zM86 514q0 -8 2 -8h6q10 10 20.5 19.5t20.5 19.5q16 10 26.5 24.5t18.5 28.5q4 4 4 8 q-4 4 -4 7t-2 3h-12q-2 -4 -8 -10q-20 -20 -40 -42.5t-32 -49.5z" />
<glyph unicode="&#xe9;" horiz-adv-x="342" d="M-49 352q-8 16 0 39q4 16 10 32.5t12 35.5q2 6 5.5 14t7.5 14q10 18 16 45q4 23 16 33q10 27 39 51q12 12 23.5 24.5t23.5 23.5q8 4 15 8q12 4 23.5 7t27.5 7q4 2 9 2h9q18 -4 23 -10q16 -14 29 -29q8 -12 14 -28t-4 -33q-12 -16 -28.5 -31.5t-33.5 -30.5 q-20 -16 -40.5 -33.5t-43.5 -33.5q-14 -10 -32 -8q-8 0 -13 -2q-12 -6 -16 -13q-8 -16 -8 -24q-10 -23 -6 -52q4 -4 6 -7t8 -7q16 -4 27 -2q27 4 49 14q29 10 52.5 22.5t47.5 27.5q27 16 52.5 31.5t52.5 31.5q12 4 18 4q6 4 13 -1t5 -9q-6 -29 -30 -51q-23 -12 -44.5 -28.5 t-39.5 -33.5q-16 -10 -33.5 -21.5t-38.5 -17.5q-14 -6 -29.5 -11t-31.5 -5q-14 -4 -29 -6t-29 0q-23 0 -37 6l-8 4t-12 4q-4 2 -6 4t-6 4q-10 10 -19.5 18.5t-15.5 20.5zM52 810q-1 5 3 9q16 45 49 82t66 60q20 16 43 16q6 0 8 -2q27 -4 38 -14.5t30 -26.5q8 -12 -2 -12 q-14 -2 -24.5 -7.5t-20.5 -11.5q-4 -4 -6 -7t-7 -7q-14 -14 -27 -26.5t-28 -24.5q-18 -18 -39 -33q-8 -8 -17 -14.5t-16 -16.5q-2 -4 -5 -5t-5 -5q-8 -4 -10 -3t-8 5q-16 12 -21 35q0 4 -1 9zM86 514q0 -8 2 -8h6q10 10 20.5 19.5t20.5 19.5q16 10 26.5 24.5t18.5 28.5 q4 4 4 8q-4 4 -4 7t-2 3h-12q-2 -4 -8 -10q-20 -20 -40 -42.5t-32 -49.5z" />
<glyph unicode="&#xea;" horiz-adv-x="342" d="M-49 352q-8 16 0 39q4 16 10 32.5t12 35.5q2 6 5.5 14t7.5 14q10 18 16 45q4 23 16 33q10 27 39 51q12 12 23.5 24.5t23.5 23.5q8 4 15 8q12 4 23.5 7t27.5 7q4 2 9 2h9q18 -4 23 -10q16 -14 29 -29q8 -12 14 -28t-4 -33q-12 -16 -28.5 -31.5t-33.5 -30.5 q-20 -16 -40.5 -33.5t-43.5 -33.5q-14 -10 -32 -8q-8 0 -13 -2q-12 -6 -16 -13q-8 -16 -8 -24q-10 -23 -6 -52q4 -4 6 -7t8 -7q16 -4 27 -2q27 4 49 14q29 10 52.5 22.5t47.5 27.5q27 16 52.5 31.5t52.5 31.5q12 4 18 4q6 4 13 -1t5 -9q-6 -29 -30 -51q-23 -12 -44.5 -28.5 t-39.5 -33.5q-16 -10 -33.5 -21.5t-38.5 -17.5q-14 -6 -29.5 -11t-31.5 -5q-14 -4 -29 -6t-29 0q-23 0 -37 6l-8 4t-12 4q-4 2 -6 4t-6 4q-10 10 -19.5 18.5t-15.5 20.5zM59 850q39 39 76 81t68 89h39v-4h2q33 -27 32 -72q0 -20 4.5 -37.5t8.5 -33.5q4 -8 4 -23 q0 -10 -9.5 -19t-17.5 -9t-12 6t-9 9t-9 13q-6 10 -9.5 21.5t-11.5 21.5q-2 4 -4 10.5t-4 12.5q-18 -18 -27 -37q-10 -6 -15 -13.5t-15 -15.5q-6 -10 -14.5 -15t-16.5 -15q-10 -6 -13 -7q-16 -12 -30 7q-4 10 -9.5 15t-7.5 15zM86 514q0 -8 2 -8h6q10 10 20.5 19.5 t20.5 19.5q16 10 26.5 24.5t18.5 28.5q4 4 4 8q-4 4 -4 7t-2 3h-12q-2 -4 -8 -10q-20 -20 -40 -42.5t-32 -49.5z" />
<glyph unicode="&#xeb;" horiz-adv-x="342" d="M-49 352q-8 16 0 39q4 16 10 32.5t12 35.5q2 6 5.5 14t7.5 14q10 18 16 45q4 23 16 33q10 27 39 51q12 12 23.5 24.5t23.5 23.5q8 4 15 8q12 4 23.5 7t27.5 7q4 2 9 2h9q18 -4 23 -10q16 -14 29 -29q8 -12 14 -28t-4 -33q-12 -16 -28.5 -31.5t-33.5 -30.5 q-20 -16 -40.5 -33.5t-43.5 -33.5q-14 -10 -32 -8q-8 0 -13 -2q-12 -6 -16 -13q-8 -16 -8 -24q-10 -23 -6 -52q4 -4 6 -7t8 -7q16 -4 27 -2q27 4 49 14q29 10 52.5 22.5t47.5 27.5q27 16 52.5 31.5t52.5 31.5q12 4 18 4q6 4 13 -1t5 -9q-6 -29 -30 -51q-23 -12 -44.5 -28.5 t-39.5 -33.5q-16 -10 -33.5 -21.5t-38.5 -17.5q-14 -6 -29.5 -11t-31.5 -5q-14 -4 -29 -6t-29 0q-23 0 -37 6l-8 4t-12 4q-4 2 -6 4t-6 4q-10 10 -19.5 18.5t-15.5 20.5zM-46 898.5q0 10.5 5.5 18.5t15.5 8q10 4 18.5 3t14.5 3q20 12 37.5 0t26.5 -31.5t8 -39t-15 -19.5 q-45 -14 -96 25q-6 2 -10.5 12t-4.5 20.5zM86 514q0 -8 2 -8h6q10 10 20.5 19.5t20.5 19.5q16 10 26.5 24.5t18.5 28.5q4 4 4 8q-4 4 -4 7t-2 3h-12q-2 -4 -8 -10q-20 -20 -40 -42.5t-32 -49.5zM241 898.5q0 10.5 5.5 18.5t15.5 8q10 4 18 3t14 3q20 12 38 0t27 -31.5t8 -39 t-15 -19.5q-45 -14 -96 25q-6 2 -10.5 12t-4.5 20.5z" />
<glyph unicode="&#xec;" horiz-adv-x="321" d="M-51 370.5q2 2.5 0 8.5q0 16 2 24q0 4 2 8.5t0 2.5q4 12 6 19t6 11q16 49 49 95.5t47 76.5q4 8 6.5 16.5t6.5 18.5t9 20.5t13 16.5q4 10 10.5 12t16.5 5h6q25 2 37 -25q6 -6 2 -21q-8 -16 -12 -20q-18 -29 -36 -51.5t-32 -52.5q-10 -16 -22.5 -41l-20.5 -41 q-4 -4 -9 -20.5t-5 -22.5q-2 -4 6 -6.5t12 -2.5q18 2 46 12.5t59.5 24t64.5 30.5t64 36q18 8 32.5 16t32.5 10q4 -2 4 -10v-6q-6 -10 -16 -17.5t-21 -15.5q-23 -18 -58.5 -42.5t-73.5 -48t-73.5 -43t-58.5 -28.5q-23 -10 -49 -4l-18 7q-27 12 -33 40q-4 6 -2 8.5zM78 1116 q18 16 29.5 26.5t37.5 14.5q2 2 9 2q23 0 43 -16q33 -23 65.5 -60t48.5 -82q4 -4 3 -9t-1 -9q-4 -23 -20 -35q-6 -4 -8 -5t-11 3q-2 4 -5 5t-5 5q-6 10 -15 16.5t-18 14.5q-23 14 -38 33q-14 12 -27.5 24.5t-28.5 26.5q-4 4 -6 7t-6 7q-10 6 -20.5 11.5t-24.5 7.5 q-10 0 -2 12z" />
<glyph unicode="&#xed;" horiz-adv-x="321" d="M-51 370.5q2 2.5 0 8.5q0 16 2 24q0 4 2 8.5t0 2.5q4 12 6 19t6 11q16 49 49 95.5t47 76.5q4 8 6.5 16.5t6.5 18.5t9 20.5t13 16.5q4 10 10.5 12t16.5 5h6q25 2 37 -25q6 -6 2 -21q-8 -16 -12 -20q-18 -29 -36 -51.5t-32 -52.5q-10 -16 -22.5 -41l-20.5 -41 q-4 -4 -9 -20.5t-5 -22.5q-2 -4 6 -6.5t12 -2.5q18 2 46 12.5t59.5 24t64.5 30.5t64 36q18 8 32.5 16t32.5 10q4 -2 4 -10v-6q-6 -10 -16 -17.5t-21 -15.5q-23 -18 -58.5 -42.5t-73.5 -48t-73.5 -43t-58.5 -28.5q-23 -10 -49 -4l-18 7q-27 12 -33 40q-4 6 -2 8.5zM71 974 q-1 5 3 9q16 45 49 82t65 59q20 16 43 17q6 0 9 -2q27 -4 38 -14.5t29 -26.5q8 -12 -2 -13q-14 -2 -24.5 -7t-20.5 -11q-4 -4 -6 -7t-6 -7q-14 -14 -27.5 -26.5t-27.5 -25.5q-18 -18 -39 -32q-8 -8 -17.5 -14.5t-15.5 -16.5q-2 -4 -5 -5t-5 -5q-8 -4 -10.5 -3t-8.5 5 q-16 12 -20 35q0 4 -1 9z" />
<glyph unicode="&#xee;" horiz-adv-x="321" d="M-51 370.5q2 2.5 0 8.5q0 16 2 24q0 4 2 8.5t0 2.5q4 12 6 19t6 11q16 49 49 95.5t47 76.5q4 8 6.5 16.5t6.5 18.5t9 20.5t13 16.5q4 10 10.5 12t16.5 5h6q25 2 37 -25q6 -6 2 -21q-8 -16 -12 -20q-18 -29 -36 -51.5t-32 -52.5q-10 -16 -22.5 -41l-20.5 -41 q-4 -4 -9 -20.5t-5 -22.5q-2 -4 6 -6.5t12 -2.5q18 2 46 12.5t59.5 24t64.5 30.5t64 36q18 8 32.5 16t32.5 10q4 -2 4 -10v-6q-6 -10 -16 -17.5t-21 -15.5q-23 -18 -58.5 -42.5t-73.5 -48t-73.5 -43t-58.5 -28.5q-23 -10 -49 -4l-18 7q-27 12 -33 40q-4 6 -2 8.5zM131 995 q39 39 76 81t67 89h39v-4h2q33 -27 33 -71q0 -20 4 -38t8 -34q4 -8 5 -23q0 -10 -9.5 -19t-17.5 -9t-12 6t-9.5 9t-9.5 13q-6 10 -9 21.5t-11 21.5q-2 4 -4 10.5t-4 12.5q-18 -18 -27 -37q-10 -6 -15.5 -13t-15.5 -16q-6 -10 -14 -15t-17 -15q-10 -6 -12 -7q-16 -12 -31 7 q-4 10 -9 15t-7 15z" />
<glyph unicode="&#xef;" horiz-adv-x="321" d="M-51 370.5q2 2.5 0 8.5q0 16 2 24q0 4 2 8.5t0 2.5q4 12 6 19t6 11q16 49 49 95.5t47 76.5q4 8 6.5 16.5t6.5 18.5t9 20.5t13 16.5q4 10 10.5 12t16.5 5h6q25 2 37 -25q6 -6 2 -21q-8 -16 -12 -20q-18 -29 -36 -51.5t-32 -52.5q-10 -16 -22.5 -41l-20.5 -41 q-4 -4 -9 -20.5t-5 -22.5q-2 -4 6 -6.5t12 -2.5q18 2 46 12.5t59.5 24t64.5 30.5t64 36q18 8 32.5 16t32.5 10q4 -2 4 -10v-6q-6 -10 -16 -17.5t-21 -15.5q-23 -18 -58.5 -42.5t-73.5 -48t-73.5 -43t-58.5 -28.5q-23 -10 -49 -4l-18 7q-27 12 -33 40q-4 6 -2 8.5zM23 1028 q0 10 5 18.5t15 8.5q10 4 18.5 3t14.5 3q20 12 37.5 0t27 -31.5t8 -39t-15.5 -19.5q-45 -14 -96 24q-6 2 -10 12.5t-4 20.5zM309 1028q0 10 5.5 18.5t15.5 8.5q10 4 18 3t14 3q20 12 38 0t27 -31.5t8 -39t-15 -19.5q-45 -14 -96 24q-6 2 -10.5 12.5t-4.5 20.5z" />
<glyph unicode="&#xf1;" horiz-adv-x="436" d="M-63 453q8 16 13 30.5t11 28.5q10 16 18.5 34.5t14.5 39.5q4 16 12 28q6 18 14.5 37t14.5 39q4 12 9 22.5t9 20.5t19 10h20q6 0 13.5 -1t11.5 -7q18 -14 14 -33q0 -10 -4 -19t-4 -19q2 -4 8 -5q6 0 10 3q16 16 36 28t36 29q20 14 51 14q23 0 33 -12q2 -4 4 -7t2 -7 q6 -12 4 -17q-4 -16 -8 -26l-72 -156l-37 -94q-10 -25 -6 -41q0 -6 6 -6h5v-2l4 4q23 14 46 28.5t44 32.5q25 18 54.5 33.5t55.5 34.5q8 4 17.5 9t19.5 9t18.5 8t20.5 8q8 2 4 -6q2 -6 0 -10t-4 -10l-43 -33q-6 -4 -13 -9t-13 -9l-78 -74q-25 -23 -50.5 -45.5t-54.5 -44.5 q-10 -6 -19 -14.5t-20 -16.5q-8 -6 -15 -12t-11 -8q-29 -10 -45 4l-11 8q-14 18 -18 26.5t2 36.5l8 35q10 29 18.5 55.5t20.5 55.5l19 51l4 20q0 8 -9 13q-6 0 -10 -2l-49 -49q-12 -14 -27.5 -25.5t-31.5 -15.5q-6 -4 -10.5 -6.5t-8.5 -8.5q-6 -12 -28 -22l-15 -6 q-18 -8 -26 12q-8 12 -4 31zM41 967q-8 8 0 12q10 14 21.5 23.5t19.5 17.5q16 16 30.5 27.5t33.5 15.5q4 6 12 8t10 2q47 0 68 -32q8 -8 13 -17.5t14 -15.5q10 -23 31.5 -26t39.5 5q37 14 70 54q8 14 14 20q2 8 12.5 8t14.5 -6q2 -4 7 -7t9 -11q23 -20 4 -47 q-16 -39 -55 -56q-14 -8 -28.5 -11t-30.5 -7q-27 -14 -58 2q-29 12 -53.5 25.5t-46.5 37.5q-4 6 -8 9.5t-13 9.5q-8 4 -14 0q-10 -10 -16 -20.5t-17 -16.5q-4 -12 -20 -18q-25 -14 -47 0q-4 6 -17 14z" />
<glyph unicode="&#xf2;" d="M-53 381q-4 16 2 31q2 6 5 10t3 10q8 16 10 25q8 29 15.5 47t19.5 47q6 14 12 28.5t15 28.5q8 14 17 26.5t20 24.5q10 16 18 31t18 31q8 12 23 14q8 8 22 8q23 4 51.5 8.5t45.5 -12.5q4 -4 8 -5t8 -5q6 -10 10 -18.5t11 -18.5q4 -10 6 -19t0 -22v-22q0 -6 -2 -15 q0 -16 18 -16h21q16 4 43.5 4t44.5 4h28q4 -4 4 -8q8 -12 -2 -18q-2 -6 -5 -7.5t-7 -5.5q-8 -8 -12 -8q-23 -6 -52.5 -10t-50.5 -10q-33 -14 -63 -15q-4 -2 -7 -4t-7 -4q-4 -4 -5.5 -7t-3.5 -5q-6 -8 -8 -13.5t-6 -9.5q-23 -47 -64.5 -86t-76.5 -65q-14 -12 -41 -17h-15 q-6 0 -14 4q-25 6 -37 20.5t-18 37.5q-2 4 -2 6zM26 407.5q1 -4.5 5 -4.5q6 -4 10 0q43 16 73.5 55.5t51.5 73.5q2 5 2 11q0 8 -2 10q-10 12 -16.5 24.5t-12.5 24.5q-2 4 -10 8q-2 2 -10 2q-4 0 -11 -6q-10 -14 -20 -33q-23 -41 -35 -73.5t-24 -77.5v-6q-2 -4 -1 -8.5z M88 1047q18 16 29.5 26.5t37.5 14.5q2 2 8 2q23 0 43 -16q33 -23 66 -60t49 -82q4 -4 3 -9t-1 -9q-4 -23 -20 -35q-6 -4 -8.5 -5t-10.5 3q-2 4 -5 5t-5 5q-6 10 -15.5 16.5t-17.5 14.5q-23 14 -39 33q-14 12 -27.5 24t-27.5 27q-4 4 -6 7t-6 7q-10 6 -20.5 11.5t-24.5 7.5 q-10 0 -2 12zM185 624q1 -3 1 -8q0 -2 4 -10q4 -4 9.5 -4t9.5 4q6 6 10 12q8 12 10 29t4 33v4q0 4 -4 8q-8 0 -8 -2q-29 -23 -35 -59q-2 -4 -1 -7z" />
<glyph unicode="&#xf3;" d="M-53 381q-4 16 2 31q2 6 5 10t3 10q8 16 10 25q8 29 15.5 47t19.5 47q6 14 12 28.5t15 28.5q8 14 17 26.5t20 24.5q10 16 18 31t18 31q8 12 23 14q8 8 22 8q23 4 51.5 8.5t45.5 -12.5q4 -4 8 -5t8 -5q6 -10 10 -18.5t11 -18.5q4 -10 6 -19t0 -22v-22q0 -6 -2 -15 q0 -16 18 -16h21q16 4 43.5 4t44.5 4h28q4 -4 4 -8q8 -12 -2 -18q-2 -6 -5 -7.5t-7 -5.5q-8 -8 -12 -8q-23 -6 -52.5 -10t-50.5 -10q-33 -14 -63 -15q-4 -2 -7 -4t-7 -4q-4 -4 -5.5 -7t-3.5 -5q-6 -8 -8 -13.5t-6 -9.5q-23 -47 -64.5 -86t-76.5 -65q-14 -12 -41 -17h-15 q-6 0 -14 4q-25 6 -37 20.5t-18 37.5q-2 4 -2 6zM26 407.5q1 -4.5 5 -4.5q6 -4 10 0q43 16 73.5 55.5t51.5 73.5q2 5 2 11q0 8 -2 10q-10 12 -16.5 24.5t-12.5 24.5q-2 4 -10 8q-2 2 -10 2q-4 0 -11 -6q-10 -14 -20 -33q-23 -41 -35 -73.5t-24 -77.5v-6q-2 -4 -1 -8.5z M122 923q-1 5 3 9q16 45 49 82t66 60q20 16 43 16q6 0 8 -2q27 -4 38 -14.5t30 -26.5q8 -12 -2 -12q-14 -2 -24.5 -7.5t-20.5 -11.5q-4 -4 -6 -7t-7 -7q-14 -14 -27 -26.5t-28 -24.5q-18 -18 -39 -33q-8 -8 -17 -14.5t-16 -16.5q-2 -4 -5 -5t-5 -5q-8 -4 -10 -3t-8 5 q-16 12 -21 35q0 4 -1 9zM185 624q1 -3 1 -8q0 -2 4 -10q4 -4 9.5 -4t9.5 4q6 6 10 12q8 12 10 29t4 33v4q0 4 -4 8q-8 0 -8 -2q-29 -23 -35 -59q-2 -4 -1 -7z" />
<glyph unicode="&#xf4;" d="M-53 381q-4 16 2 31q2 6 5 10t3 10q8 16 10 25q8 29 15.5 47t19.5 47q6 14 12 28.5t15 28.5q8 14 17 26.5t20 24.5q10 16 18 31t18 31q8 12 23 14q8 8 22 8q23 4 51.5 8.5t45.5 -12.5q4 -4 8 -5t8 -5q6 -10 10 -18.5t11 -18.5q4 -10 6 -19t0 -22v-22q0 -6 -2 -15 q0 -16 18 -16h21q16 4 43.5 4t44.5 4h28q4 -4 4 -8q8 -12 -2 -18q-2 -6 -5 -7.5t-7 -5.5q-8 -8 -12 -8q-23 -6 -52.5 -10t-50.5 -10q-33 -14 -63 -15q-4 -2 -7 -4t-7 -4q-4 -4 -5.5 -7t-3.5 -5q-6 -8 -8 -13.5t-6 -9.5q-23 -47 -64.5 -86t-76.5 -65q-14 -12 -41 -17h-15 q-6 0 -14 4q-25 6 -37 20.5t-18 37.5q-2 4 -2 6zM26 407.5q1 -4.5 5 -4.5q6 -4 10 0q43 16 73.5 55.5t51.5 73.5q2 5 2 11q0 8 -2 10q-10 12 -16.5 24.5t-12.5 24.5q-2 4 -10 8q-2 2 -10 2q-4 0 -11 -6q-10 -14 -20 -33q-23 -41 -35 -73.5t-24 -77.5v-6q-2 -4 -1 -8.5z M116 940q39 39 76 81t68 89h39v-4h2q33 -27 32 -72q0 -20 4.5 -37.5t8.5 -33.5q4 -8 4 -23q0 -10 -9.5 -19t-17.5 -9t-12 6t-9 9t-9 13q-6 10 -9.5 21.5t-11.5 21.5q-2 4 -4 10.5t-4 12.5q-18 -18 -27 -37q-10 -6 -15 -13.5t-15 -15.5q-6 -10 -14.5 -15t-16.5 -15 q-10 -6 -13 -7q-16 -12 -30 7q-4 10 -9.5 15t-7.5 15zM185 624q1 -3 1 -8q0 -2 4 -10q4 -4 9.5 -4t9.5 4q6 6 10 12q8 12 10 29t4 33v4q0 4 -4 8q-8 0 -8 -2q-29 -23 -35 -59q-2 -4 -1 -7z" />
<glyph unicode="&#xf5;" d="M-53 381q-4 16 2 31q2 6 5 10t3 10q8 16 10 25q8 29 15.5 47t19.5 47q6 14 12 28.5t15 28.5q8 14 17 26.5t20 24.5q10 16 18 31t18 31q8 12 23 14q8 8 22 8q23 4 51.5 8.5t45.5 -12.5q4 -4 8 -5t8 -5q6 -10 10 -18.5t11 -18.5q4 -10 6 -19t0 -22v-22q0 -6 -2 -15 q0 -16 18 -16h21q16 4 43.5 4t44.5 4h28q4 -4 4 -8q8 -12 -2 -18q-2 -6 -5 -7.5t-7 -5.5q-8 -8 -12 -8q-23 -6 -52.5 -10t-50.5 -10q-33 -14 -63 -15q-4 -2 -7 -4t-7 -4q-4 -4 -5.5 -7t-3.5 -5q-6 -8 -8 -13.5t-6 -9.5q-23 -47 -64.5 -86t-76.5 -65q-14 -12 -41 -17h-15 q-6 0 -14 4q-25 6 -37 20.5t-18 37.5q-2 4 -2 6zM-9 920q-8 8 0 12q10 14 21.5 23.5t19.5 17.5q16 16 30.5 27.5t33.5 15.5q4 6 12 8t10 2q47 0 68 -32q8 -8 13 -17.5t14 -15.5q10 -23 31.5 -26t39.5 5q37 14 70 54q8 14 14 20q2 8 12.5 8t14.5 -6q2 -4 7 -7t9 -11 q23 -20 4 -47q-16 -39 -55 -56q-14 -8 -28.5 -11t-30.5 -7q-27 -14 -58 2q-29 12 -53.5 25.5t-46.5 37.5q-4 6 -8 9.5t-13 9.5q-8 4 -14 0q-10 -10 -16 -20.5t-17 -16.5q-4 -12 -20 -18q-25 -14 -47 0q-4 6 -17 14zM26 407.5q1 -4.5 5 -4.5q6 -4 10 0q43 16 73.5 55.5 t51.5 73.5q2 5 2 11q0 8 -2 10q-10 12 -16.5 24.5t-12.5 24.5q-2 4 -10 8q-2 2 -10 2q-4 0 -11 -6q-10 -14 -20 -33q-23 -41 -35 -73.5t-24 -77.5v-6q-2 -4 -1 -8.5zM185 624q1 -3 1 -8q0 -2 4 -10q4 -4 9.5 -4t9.5 4q6 6 10 12q8 12 10 29t4 33v4q0 4 -4 8q-8 0 -8 -2 q-29 -23 -35 -59q-2 -4 -1 -7z" />
<glyph unicode="&#xf6;" d="M-53 381q-4 16 2 31q2 6 5 10t3 10q8 16 10 25q8 29 15.5 47t19.5 47q6 14 12 28.5t15 28.5q8 14 17 26.5t20 24.5q10 16 18 31t18 31q8 12 23 14q8 8 22 8q23 4 51.5 8.5t45.5 -12.5q4 -4 8 -5t8 -5q6 -10 10 -18.5t11 -18.5q4 -10 6 -19t0 -22v-22q0 -6 -2 -15 q0 -16 18 -16h21q16 4 43.5 4t44.5 4h28q4 -4 4 -8q8 -12 -2 -18q-2 -6 -5 -7.5t-7 -5.5q-8 -8 -12 -8q-23 -6 -52.5 -10t-50.5 -10q-33 -14 -63 -15q-4 -2 -7 -4t-7 -4q-4 -4 -5.5 -7t-3.5 -5q-6 -8 -8 -13.5t-6 -9.5q-23 -47 -64.5 -86t-76.5 -65q-14 -12 -41 -17h-15 q-6 0 -14 4q-25 6 -37 20.5t-18 37.5q-2 4 -2 6zM16 954.5q0 10.5 5.5 18.5t15.5 8q10 4 18.5 3t14.5 3q20 12 37.5 0t26.5 -31.5t8 -39t-15 -19.5q-45 -14 -96 25q-6 2 -10.5 12t-4.5 20.5zM26 407.5q1 -4.5 5 -4.5q6 -4 10 0q43 16 73.5 55.5t51.5 73.5q2 5 2 11 q0 8 -2 10q-10 12 -16.5 24.5t-12.5 24.5q-2 4 -10 8q-2 2 -10 2q-4 0 -11 -6q-10 -14 -20 -33q-23 -41 -35 -73.5t-24 -77.5v-6q-2 -4 -1 -8.5zM185 624q1 -3 1 -8q0 -2 4 -10q4 -4 9.5 -4t9.5 4q6 6 10 12q8 12 10 29t4 33v4q0 4 -4 8q-8 0 -8 -2q-29 -23 -35 -59 q-2 -4 -1 -7zM303 954.5q0 10.5 5.5 18.5t15.5 8q10 4 18 3t14 3q20 12 38 0t27 -31.5t8 -39t-15 -19.5q-45 -14 -96 25q-6 2 -10.5 12t-4.5 20.5z" />
<glyph unicode="&#xf8;" d="M-54 260.5q-3 6.5 7 18.5q10 10 18.5 21t16.5 24q-31 14 -39 51q-2 4 -2 6q-4 16 2 31q2 6 5 10t3 10q8 16 10 25q8 29 15.5 47t19.5 47q6 14 12 28.5t15 28.5q8 14 17 26.5t20 24.5q10 16 18 31t18 31q8 12 23 14q8 8 22 8q12 2 26.5 5.5t31.5 3.5l16 45q6 16 8 22t7 23 q18 0 26 -7.5t11 -17.5t1 -21.5t-8 -17.5q-4 -10 -9 -21.5t-11 -21.5q4 -2 7 -2t7 -4q6 -10 10 -18.5t11 -18.5q4 -10 6 -19t0 -22v-22q0 -6 -2 -15q0 -16 18 -16h21q16 4 43.5 4t44.5 4h28q4 -4 4 -8q8 -12 -2 -18q-2 -6 -5 -7.5t-7 -5.5q-8 -8 -12 -8q-23 -6 -52.5 -10 t-50.5 -10q-33 -14 -63 -15q-4 -2 -7 -4t-7 -4q-4 -4 -5.5 -7t-3.5 -5q-6 -8 -8 -13.5t-6 -9.5q-23 -47 -64.5 -86t-76.5 -65q-14 -12 -41 -17h-15q-6 -12 -13 -22t-13 -21q-4 -8 -14.5 -12t-19.5 -4t-12 6.5zM26 407.5q1 -4.5 5 -4.5q0 -2 2 -2q25 53 51.5 103.5t50.5 99.5 l-8 6q-2 2 -10 2q-4 0 -11 -6q-10 -14 -20 -33q-23 -41 -35 -73.5t-24 -77.5v-6q-2 -4 -1 -8.5zM90 434q25 23 43.5 49.5t32.5 48.5q2 5 2 11q0 8 -2 10l-6 6q-8 -16 -16.5 -30.5t-14.5 -28.5zM186 612q0 -2 4 -6t9.5 -4t9.5 4l10 12q8 12 10 29t4 33v4q0 4 -4 8h-4z" />
<glyph unicode="&#xf9;" horiz-adv-x="591" d="M-29 420q0 33 10.5 62.5t20.5 58.5q20 49 43 92t45 90q4 8 8 12t15 8h16q8 -4 16.5 -7t12.5 -3q10 -12 6 -16q-16 -25 -41 -73t-44.5 -93t-26.5 -75t16 -17q12 8 18 13t14 9q55 49 110.5 103.5t108.5 103.5q12 14 22.5 21.5t27.5 7.5q8 4 19 -1t34 -22q0 -8 -1 -21.5 t-9 -17.5q-29 -20 -39.5 -50t-32.5 -58q-16 -25 -21.5 -54.5t11.5 -66.5h19t20 4q45 12 87 25.5t83 29.5q25 10 50 21.5t56 11.5q-4 -12 -20.5 -36.5t-24.5 -28.5q-41 -29 -89 -50.5t-93 -44.5q-20 -8 -38 -12t-40 -4q-16 -2 -34.5 6t-33 21.5t-23.5 32t-7 34.5q0 16 3 37 t3 45q-10 -8 -17.5 -13t-11.5 -13q-25 -29 -53.5 -59t-52.5 -58q-12 -8 -28.5 -18.5t-33.5 -14.5q-25 -14 -49 10q-14 14 -22.5 29.5t-8.5 38.5zM193 1059q18 16 29.5 26.5t37.5 14.5q2 2 8 2q23 0 43 -16q33 -23 66 -60t49 -82q4 -4 3 -9t-1 -9q-4 -23 -20 -35 q-6 -4 -8.5 -5t-10.5 3q-2 4 -5 5t-5 5q-6 10 -15.5 16.5t-17.5 14.5q-23 14 -39 33q-14 12 -27.5 24t-27.5 27q-4 4 -6 7t-6 7q-10 6 -20.5 11.5t-24.5 7.5q-10 0 -2 12z" />
<glyph unicode="&#xfa;" horiz-adv-x="591" d="M-29 420q0 33 10.5 62.5t20.5 58.5q20 49 43 92t45 90q4 8 8 12t15 8h16q8 -4 16.5 -7t12.5 -3q10 -12 6 -16q-16 -25 -41 -73t-44.5 -93t-26.5 -75t16 -17q12 8 18 13t14 9q55 49 110.5 103.5t108.5 103.5q12 14 22.5 21.5t27.5 7.5q8 4 19 -1t34 -22q0 -8 -1 -21.5 t-9 -17.5q-29 -20 -39.5 -50t-32.5 -58q-16 -25 -21.5 -54.5t11.5 -66.5h19t20 4q45 12 87 25.5t83 29.5q25 10 50 21.5t56 11.5q-4 -12 -20.5 -36.5t-24.5 -28.5q-41 -29 -89 -50.5t-93 -44.5q-20 -8 -38 -12t-40 -4q-16 -2 -34.5 6t-33 21.5t-23.5 32t-7 34.5q0 16 3 37 t3 45q-10 -8 -17.5 -13t-11.5 -13q-25 -29 -53.5 -59t-52.5 -58q-12 -8 -28.5 -18.5t-33.5 -14.5q-25 -14 -49 10q-14 14 -22.5 29.5t-8.5 38.5zM226 927q-1 5 3 9q16 45 49 82t66 60q20 16 43 16q6 0 8 -2q27 -4 38 -14.5t30 -26.5q8 -12 -2 -12q-14 -2 -24.5 -7.5 t-20.5 -11.5q-4 -4 -6 -7t-7 -7q-14 -14 -27 -26.5t-28 -24.5q-18 -18 -39 -33q-8 -8 -17 -14.5t-16 -16.5q-2 -4 -5 -5t-5 -5q-8 -4 -10 -3t-8 5q-16 12 -21 35q0 4 -1 9z" />
<glyph unicode="&#xfb;" horiz-adv-x="591" d="M-29 420q0 33 10.5 62.5t20.5 58.5q20 49 43 92t45 90q4 8 8 12t15 8h16q8 -4 16.5 -7t12.5 -3q10 -12 6 -16q-16 -25 -41 -73t-44.5 -93t-26.5 -75t16 -17q12 8 18 13t14 9q55 49 110.5 103.5t108.5 103.5q12 14 22.5 21.5t27.5 7.5q8 4 19 -1t34 -22q0 -8 -1 -21.5 t-9 -17.5q-29 -20 -39.5 -50t-32.5 -58q-16 -25 -21.5 -54.5t11.5 -66.5h19t20 4q45 12 87 25.5t83 29.5q25 10 50 21.5t56 11.5q-4 -12 -20.5 -36.5t-24.5 -28.5q-41 -29 -89 -50.5t-93 -44.5q-20 -8 -38 -12t-40 -4q-16 -2 -34.5 6t-33 21.5t-23.5 32t-7 34.5q0 16 3 37 t3 45q-10 -8 -17.5 -13t-11.5 -13q-25 -29 -53.5 -59t-52.5 -58q-12 -8 -28.5 -18.5t-33.5 -14.5q-25 -14 -49 10q-14 14 -22.5 29.5t-8.5 38.5zM178 991q39 39 76 81t68 89h39v-4h2q33 -27 32 -72q0 -20 4.5 -37.5t8.5 -33.5q4 -8 4 -23q0 -10 -9.5 -19t-17.5 -9t-12 6 t-9 9t-9 13q-6 10 -9.5 21.5t-11.5 21.5q-2 4 -4 10.5t-4 12.5q-18 -18 -27 -37q-10 -6 -15 -13.5t-15 -15.5q-6 -10 -14.5 -15t-16.5 -15q-10 -6 -13 -7q-16 -12 -30 7q-4 10 -9.5 15t-7.5 15z" />
<glyph unicode="&#xfc;" horiz-adv-x="591" d="M-29 420q0 33 10.5 62.5t20.5 58.5q20 49 43 92t45 90q4 8 8 12t15 8h16q8 -4 16.5 -7t12.5 -3q10 -12 6 -16q-16 -25 -41 -73t-44.5 -93t-26.5 -75t16 -17q12 8 18 13t14 9q55 49 110.5 103.5t108.5 103.5q12 14 22.5 21.5t27.5 7.5q8 4 19 -1t34 -22q0 -8 -1 -21.5 t-9 -17.5q-29 -20 -39.5 -50t-32.5 -58q-16 -25 -21.5 -54.5t11.5 -66.5h19t20 4q45 12 87 25.5t83 29.5q25 10 50 21.5t56 11.5q-4 -12 -20.5 -36.5t-24.5 -28.5q-41 -29 -89 -50.5t-93 -44.5q-20 -8 -38 -12t-40 -4q-16 -2 -34.5 6t-33 21.5t-23.5 32t-7 34.5q0 16 3 37 t3 45q-10 -8 -17.5 -13t-11.5 -13q-25 -29 -53.5 -59t-52.5 -58q-12 -8 -28.5 -18.5t-33.5 -14.5q-25 -14 -49 10q-14 14 -22.5 29.5t-8.5 38.5zM92 958.5q0 10.5 5.5 18.5t15.5 8q10 4 18.5 3t14.5 3q20 12 37.5 0t26.5 -31.5t8 -39t-15 -19.5q-45 -14 -96 25 q-6 2 -10.5 12t-4.5 20.5zM379 958.5q0 10.5 5.5 18.5t15.5 8q10 4 18 3t14 3q20 12 38 0t27 -31.5t8 -39t-15 -19.5q-45 -14 -96 25q-6 2 -10.5 12t-4.5 20.5z" />
<glyph unicode="&#xfd;" horiz-adv-x="468" d="M-337 -390q7 38 20 75q18 37 36.5 73.5t47.5 61.5q10 10 16 20t14 21q43 66 96.5 123t104.5 116q29 33 64.5 61.5t70.5 57.5q29 16 49.5 40t42.5 48q10 18 22.5 38t10.5 42q4 25 17.5 47.5t5.5 50.5q-6 -4 -10.5 -5t-8.5 -5q-14 -12 -28.5 -24.5t-28.5 -24.5 q-20 -16 -39 -28.5t-41 -16.5q-41 -12 -73 0t-40 65q6 16 12.5 39t10.5 45q4 29 15 47.5t22 38.5q12 23 26.5 43.5t26.5 47.5q8 20 24.5 32.5t34.5 16.5q23 4 37.5 -3.5t14.5 -35.5q-35 -49 -67 -104.5t-54 -114.5q10 -10 16 -7t12 11q96 76 179 176q20 23 45 45 q12 -4 25.5 -8t31.5 -8q-4 -27 -3 -51.5t-13 -49.5q-29 -57 -41.5 -111.5t-30.5 -113.5q2 -2 2 -4v-12q10 4 20.5 5t18.5 1q0 -2 2 -4q0 -2 1 -4.5t1 -4.5q-14 -12 -19 -16q-47 -23 -68.5 -61.5t-35.5 -79.5q-16 -33 -31.5 -67t-29.5 -64q-4 -8 -12.5 -15.5t-14.5 -17.5 q6 10 7 14t3 8q-2 -4 -3 -8t-7 -8q6 -18 2 -29q-33 -72 -65.5 -142.5t-67.5 -141.5q-25 -39 -52.5 -76t-54.5 -72q-23 -29 -51 -48t-63 -28q-41 -16 -75 -14t-62 31q-8 6 -9 16q-16 33 -9 71zM-258 -377q-4 -31 11.5 -42t39.5 1q16 10 34.5 25.5t31.5 32.5q35 39 65.5 74.5 t52.5 88.5q2 12 10.5 22.5t16.5 22.5q16 27 34.5 48.5t29.5 46.5q18 41 39.5 79.5t39.5 77.5q10 16 20.5 36.5t8.5 47.5q-20 0 -35.5 -10t-29.5 -24q-20 -12 -37 -29t-35 -33q-16 -16 -36.5 -33.5t-39.5 -34.5q-25 -25 -48.5 -53t-39.5 -63q-18 -41 -43 -80t-43 -78 q-18 -29 -28.5 -61.5t-18.5 -61.5zM230 927q-1 5 3 9q16 45 49 82t66 60q20 16 43 16q6 0 8 -2q27 -4 38 -14.5t30 -26.5q8 -12 -2 -12q-14 -2 -24.5 -7.5t-20.5 -11.5q-4 -4 -6 -7t-7 -7q-14 -14 -27 -26.5t-28 -24.5q-18 -18 -39 -33q-8 -8 -17 -14.5t-16 -16.5 q-2 -4 -5 -5t-5 -5q-8 -4 -10 -3t-8 5q-16 12 -21 35q0 4 -1 9z" />
<glyph unicode="&#xff;" horiz-adv-x="468" d="M-337 -390q7 38 20 75q18 37 36.5 73.5t47.5 61.5q10 10 16 20t14 21q43 66 96.5 123t104.5 116q29 33 64.5 61.5t70.5 57.5q29 16 49.5 40t42.5 48q10 18 22.5 38t10.5 42q4 25 17.5 47.5t5.5 50.5q-6 -4 -10.5 -5t-8.5 -5q-14 -12 -28.5 -24.5t-28.5 -24.5 q-20 -16 -39 -28.5t-41 -16.5q-41 -12 -73 0t-40 65q6 16 12.5 39t10.5 45q4 29 15 47.5t22 38.5q12 23 26.5 43.5t26.5 47.5q8 20 24.5 32.5t34.5 16.5q23 4 37.5 -3.5t14.5 -35.5q-35 -49 -67 -104.5t-54 -114.5q10 -10 16 -7t12 11q96 76 179 176q20 23 45 45 q12 -4 25.5 -8t31.5 -8q-4 -27 -3 -51.5t-13 -49.5q-29 -57 -41.5 -111.5t-30.5 -113.5q2 -2 2 -4v-12q10 4 20.5 5t18.5 1q0 -2 2 -4q0 -2 1 -4.5t1 -4.5q-14 -12 -19 -16q-47 -23 -68.5 -61.5t-35.5 -79.5q-16 -33 -31.5 -67t-29.5 -64q-4 -8 -12.5 -15.5t-14.5 -17.5 q6 10 7 14t3 8q-2 -4 -3 -8t-7 -8q6 -18 2 -29q-33 -72 -65.5 -142.5t-67.5 -141.5q-25 -39 -52.5 -76t-54.5 -72q-23 -29 -51 -48t-63 -28q-41 -16 -75 -14t-62 31q-8 6 -9 16q-16 33 -9 71zM-258 -377q-4 -31 11.5 -42t39.5 1q16 10 34.5 25.5t31.5 32.5q35 39 65.5 74.5 t52.5 88.5q2 12 10.5 22.5t16.5 22.5q16 27 34.5 48.5t29.5 46.5q18 41 39.5 79.5t39.5 77.5q10 16 20.5 36.5t8.5 47.5q-20 0 -35.5 -10t-29.5 -24q-20 -12 -37 -29t-35 -33q-16 -16 -36.5 -33.5t-39.5 -34.5q-25 -25 -48.5 -53t-39.5 -63q-18 -41 -43 -80t-43 -78 q-18 -29 -28.5 -61.5t-18.5 -61.5zM98 966.5q0 10.5 5.5 18.5t15.5 8q10 4 18.5 3t14.5 3q20 12 37.5 0t26.5 -31.5t8 -39t-15 -19.5q-45 -14 -96 25q-6 2 -10.5 12t-4.5 20.5zM385 966.5q0 10.5 5.5 18.5t15.5 8q10 4 18 3t14 3q20 12 38 0t27 -31.5t8 -39t-15 -19.5 q-45 -14 -96 25q-6 2 -10.5 12t-4.5 20.5z" />
<glyph unicode="&#x178;" horiz-adv-x="923" d="M3 -55.5q9 30.5 9 61.5q0 8 10.5 31.5t23.5 51.5t25.5 50.5t16.5 26.5q6 6 8 13t8 18q53 78 120 154.5t153 135.5q33 23 71.5 37.5t67.5 -2.5q-31 -29 -55.5 -41t-51 -29.5t-60.5 -49t-85 -95.5q-37 -47 -68.5 -106.5t-60.5 -106.5q-35 -68 -48 -159t-7 -164l8 -9 q0 -6 12 -6q8 0 31 13.5t47.5 31t45 35t26.5 25.5q37 45 74.5 88t74.5 96q23 29 45.5 64.5t38.5 66.5q27 51 58 100q31 47 52 97.5t54 93.5q55 113 115.5 225.5t85.5 216.5q2 12 13 43t23.5 67t24 67.5t13.5 46.5v12q-14 0 -15 -6q-35 -35 -77 -90.5t-85 -102.5 q-86 -94 -172 -179t-157 -146q-29 -27 -69 -47.5t-83 -30.5q-35 -8 -60.5 -10.5t-45 2t-38 15.5t-38.5 32q-16 12 -22.5 27.5t-6.5 31.5q-4 33 -3 59.5t11 55.5q16 63 43 122.5t56 114.5q4 18 14 33.5t16 38.5q6 16 18.5 31.5t18.5 31.5q23 33 41.5 68t36.5 66q0 8 2 10l4 4 q47 76 98.5 101.5t102.5 -17.5q6 0 3 -5t-3 -9q0 -2 -9 -10.5t-20.5 -17.5t-20.5 -17.5t-9 -10.5q-57 -76 -94 -145.5t-89 -155.5q-18 -35 -39.5 -73.5t-41 -77.5t-37 -78t-25.5 -72q-10 -33 0 -63q0 -10 14 -21q45 -4 81 7.5t68 32t60.5 46t59.5 47.5q63 53 121.5 115.5 t119.5 114.5q31 37 65 75.5t68.5 88t68.5 109.5t65 138q6 16 1.5 23.5l-10.5 17.5q-6 8 -2 12.5t11 4.5q23 4 46 6t46 8q12 0 24.5 -5l22.5 -9q10 -12 16 -22.5t6 -27.5q-6 -45 -15 -87t-15 -80q-16 -94 -53.5 -179.5t-77.5 -171.5q-45 -102 -86 -197.5t-97 -183.5 q-10 -23 -22.5 -47t-22.5 -51q-16 -35 -34.5 -65.5t-34.5 -61.5q-35 -66 -72 -124t-72 -115q-23 -41 -47 -78t-59 -74q-18 -16 -27.5 -31.5t-21.5 -32.5q-20 -25 -46 -50t-73 -42q-66 -29 -105 -23.5t-59.5 31t-26.5 66.5t-6 86q-12 39 -3 69.5zM536 1615.5q0 10.5 5.5 18.5 t15.5 8q10 4 18.5 3t14.5 3q20 12 37.5 0t26.5 -31.5t8 -39t-15 -19.5q-45 -14 -96 25q-6 2 -10.5 12t-4.5 20.5zM823 1615.5q0 10.5 5.5 18.5t15.5 8q10 4 18 3t14 3q20 12 38 0t27 -31.5t8 -39t-15 -19.5q-45 -14 -96 25q-6 2 -10.5 12t-4.5 20.5z" />
<glyph unicode="&#x2c6;" horiz-adv-x="385" d="M59 991q39 39 76 81t68 89h39v-4h2q33 -27 32 -72q0 -20 4.5 -37.5t8.5 -33.5q4 -8 4 -23q0 -10 -9.5 -19t-17.5 -9t-12 6t-9 9t-9 13q-6 10 -9.5 21.5t-11.5 21.5q-2 4 -4 10.5t-4 12.5q-18 -18 -27 -37q-10 -6 -15 -13.5t-15 -15.5q-6 -10 -14.5 -15t-16.5 -15 q-10 -6 -13 -7q-16 -12 -30 7q-4 10 -9.5 15t-7.5 15z" />
<glyph unicode="&#x2dc;" horiz-adv-x="557" d="M57 1108q-8 8 0 12q10 14 21.5 23.5t19.5 17.5q16 16 30.5 27.5t33.5 15.5q4 6 12 8t10 2q47 0 68 -32q8 -8 13 -17.5t14 -15.5q10 -23 31.5 -26t39.5 5q37 14 70 54q8 14 14 20q2 8 12.5 8t14.5 -6q2 -4 7 -7t9 -11q23 -20 4 -47q-16 -39 -55 -56q-14 -8 -28.5 -11 t-30.5 -7q-27 -14 -58 2q-29 12 -53.5 25.5t-46.5 37.5q-4 6 -8 9.5t-13 9.5q-8 4 -14 0q-10 -10 -16 -20.5t-17 -16.5q-4 -12 -20 -18q-25 -14 -47 0q-4 6 -17 14z" />
<glyph unicode="&#x2000;" horiz-adv-x="934" />
<glyph unicode="&#x2001;" horiz-adv-x="1868" />
<glyph unicode="&#x2002;" horiz-adv-x="934" />
<glyph unicode="&#x2003;" horiz-adv-x="1868" />
<glyph unicode="&#x2004;" horiz-adv-x="622" />
<glyph unicode="&#x2005;" horiz-adv-x="467" />
<glyph unicode="&#x2006;" horiz-adv-x="311" />
<glyph unicode="&#x2007;" horiz-adv-x="311" />
<glyph unicode="&#x2008;" horiz-adv-x="233" />
<glyph unicode="&#x2009;" horiz-adv-x="373" />
<glyph unicode="&#x200a;" horiz-adv-x="103" />
<glyph unicode="&#x2010;" horiz-adv-x="694" d="M94 633q0 20 17 20q8 0 13 -2t13 -2t15.5 -2t15.5 2q53 8 104.5 0t102.5 -12q20 0 36.5 -2t32.5 -2h80h27q12 -4 18 -17.5t-2 -25.5v-4q-10 -10 -14 -17.5t-12 -15.5h-127q-29 -4 -59.5 -2t-63.5 2q-16 0 -32.5 -1t-37.5 -5h-22.5t-24.5 -4q-68 0 -74 57q0 8 -1 16.5 t-5 16.5z" />
<glyph unicode="&#x2011;" horiz-adv-x="694" d="M94 633q0 20 17 20q8 0 13 -2t13 -2t15.5 -2t15.5 2q53 8 104.5 0t102.5 -12q20 0 36.5 -2t32.5 -2h80h27q12 -4 18 -17.5t-2 -25.5v-4q-10 -10 -14 -17.5t-12 -15.5h-127q-29 -4 -59.5 -2t-63.5 2q-16 0 -32.5 -1t-37.5 -5h-22.5t-24.5 -4q-68 0 -74 57q0 8 -1 16.5 t-5 16.5z" />
<glyph unicode="&#x2012;" horiz-adv-x="694" d="M94 633q0 20 17 20q8 0 13 -2t13 -2t15.5 -2t15.5 2q53 8 104.5 0t102.5 -12q20 0 36.5 -2t32.5 -2h80h27q12 -4 18 -17.5t-2 -25.5v-4q-10 -10 -14 -17.5t-12 -15.5h-127q-29 -4 -59.5 -2t-63.5 2q-16 0 -32.5 -1t-37.5 -5h-22.5t-24.5 -4q-68 0 -74 57q0 8 -1 16.5 t-5 16.5z" />
<glyph unicode="&#x2013;" horiz-adv-x="1239" d="M94 633q0 20 36 20q18 0 28.5 -2t27.5 -2t33.5 -2t33.5 2q113 8 223.5 0t220.5 -12q42 0 77.5 -2t69.5 -2h172h58q26 -4 38.5 -17.5t-4.5 -25.5v-4q-21 -10 -29.5 -17.5t-26.5 -15.5h-272q-62 -4 -127.5 -2t-136.5 2q-34 0 -69.5 -1t-80.5 -5h-48t-52 -4q-146 0 -159 57 q0 8 -2 16.5t-11 16.5z" />
<glyph unicode="&#x2014;" horiz-adv-x="2263" d="M94 633q0 20 73 20q34 0 55.5 -2t55.5 -2q35 0 67 -2t66 2q228 8 448.5 0t439.5 -12q86 0 156.5 -2t139.5 -2h343h116q51 -4 77 -17.5t-9 -25.5v-4q-42 -10 -59.5 -17.5t-51.5 -15.5h-545q-124 -4 -255 -2t-272 2q-69 0 -139.5 -1t-160.5 -5h-96.5t-105.5 -4 q-292 0 -317 57q0 8 -4.5 16.5t-21.5 16.5z" />
<glyph unicode="&#x2018;" horiz-adv-x="253" d="M26 1364q3 15 13 29q8 4 15 7t20 3q8 4 15 6t15 6q6 8 13.5 4t3.5 -10q4 -43 22.5 -78t40.5 -69q10 -27 24.5 -47.5t31.5 -45.5q0 -4 -3.5 -14t-13.5 -14q-4 0 -10 -2q-59 0 -90 47q-20 29 -41 58.5t-37 62.5q-10 14 -12 30q-10 12 -7 27z" />
<glyph unicode="&#x2019;" horiz-adv-x="253" d="M20 1169q16 25 31 45.5t25 47.5q23 35 41 69.5t22 77.5q-4 6 3.5 10t13.5 -4q8 -4 15 -6t15 -6q12 0 19.5 -3t15.5 -7q10 -14 13.5 -28.5t-7.5 -27.5q-4 -16 -12 -30q-16 -33 -36.5 -63t-41.5 -58q-31 -47 -90 -47q-6 2 -10 2q-10 4 -13.5 14t-3.5 14z" />
<glyph unicode="&#x201c;" horiz-adv-x="389" d="M24 1364q3 15 13 29q8 4 15 7t20 3q8 4 15 6t15 6q6 8 13.5 4t3.5 -10q4 -43 22.5 -78t40.5 -69q10 -27 24.5 -47.5t31.5 -45.5q0 -4 -3.5 -14t-13.5 -14q-4 0 -10 -2q-59 0 -90 47q-20 29 -41 58.5t-37 62.5q-10 14 -12 30q-10 12 -7 27zM179 1368q1 12 5 23 q12 16 34 20t40 16q4 -16 6 -25t6 -22q16 -20 21 -37q10 -10 14 -30q10 -29 27 -51q10 -10 14 -23.5t14 -24.5q10 -10 11.5 -25t7.5 -26q-2 -6 -19 -10q-4 -2 -9 -4t-9 -2q-25 14 -37 21.5t-18 13.5t-11.5 15t-17.5 26q-12 18 -23.5 37.5t-23.5 35.5q-6 12 -11 25.5 t-14 24.5q-8 10 -7 22z" />
<glyph unicode="&#x201d;" horiz-adv-x="389" d="M18 1163q6 10 7.5 25.5t11.5 25.5t14 23.5t15 24.5q16 23 26 51q4 20 14 30q4 16 21 37q4 12 6 21.5t6 25.5q18 -12 40 -16t34 -20q4 -10 5 -22.5t-7 -22.5t-13 -23.5t-12 -26.5q-12 -16 -23 -35.5t-24 -37.5q-12 -16 -17 -25.5t-11.5 -15.5t-18.5 -13.5t-37 -21.5 q-4 0 -9 2t-9 4q-16 4 -19 10zM160 1169q16 25 30.5 45.5t24.5 47.5q23 35 41 69.5t23 77.5q-4 6 3 10t13 -4q8 -4 15 -6t16 -6q12 0 19 -3t15 -7q10 -14 13.5 -28.5t-6.5 -27.5q-4 -16 -13 -30q-16 -33 -36.5 -63t-41.5 -58q-31 -47 -90 -47q-6 2 -10 2q-10 4 -13 14t-3 14 z" />
<glyph unicode="&#x202f;" horiz-adv-x="373" />
<glyph unicode="&#x205f;" horiz-adv-x="467" />
<glyph unicode="&#x20ac;" horiz-adv-x="718" d="M14 549v8l2 2q4 4 7 4q8 -8 19 -9t21 3q29 8 53.5 17.5t53.5 15.5q10 0 16 10q10 10 16.5 25.5t10.5 33.5q-10 6 -19.5 5.5t-19.5 -0.5q-23 -4 -40 -3t-38 7q-16 4 -23 13t-16 17q-4 4 -1 11.5t7 11.5q4 0 8.5 2t6.5 2q39 -4 75.5 3t71.5 11h19q31 6 47 29q23 35 47 66.5 t49 62.5q12 16 27.5 32.5t25.5 37.5q23 12 40.5 34.5t39.5 34.5q27 16 72 27q18 4 34.5 2t32.5 -12q10 -6 16.5 -10.5t10.5 -14.5q6 -23 -8 -27q-14 -8 -28.5 -11t-31.5 11q-18 12 -36 0q-70 -41 -121 -92q-57 -63 -113 -141q-4 -4 -4 -7t-4 -9q6 -12 20 -13h89q25 0 50 -5 t52 -9q14 -4 26.5 -8t24.5 -19q4 -4 4 -14q0 -16 -14 -16q-4 0 -7 -2t-7 -2h-34t-32 4q-45 4 -88 7t-88 3h-17q-23 0 -36 -33q-4 -8 -8 -15.5t4 -17.5q53 -6 100 4q29 2 58.5 1t58.5 -1q4 0 8 -2l12 -6q-4 -23 -24 -30q-14 -8 -26.5 -14.5t-29.5 -6.5q-6 0 -12 -2t-16 -6 q-10 -2 -21.5 -2h-21.5q-31 -4 -58.5 -10.5t-56.5 -12.5q-10 -4 -13.5 -10t-7.5 -14q-6 -20 -9 -44t-7 -46v-4q4 -47 17.5 -62.5t56.5 -19.5q25 -4 50 1t50 9q55 16 108.5 31.5t106.5 31.5q18 6 34.5 16.5t37.5 10.5q8 0 8 -4q4 0 2 -3t-2 -7v-4q-14 -10 -26.5 -20.5 t-28.5 -20.5q-27 -20 -58.5 -33t-66.5 -23q-31 -6 -58 -22q-25 -8 -49 -13.5t-51 -9.5q-84 -12 -162 41q-25 18 -37 53q-6 16 -9 33t1 37q4 12 5 25.5t3 25.5q0 4 -4 10.5t-8 2.5q-16 0 -30.5 -4.5t-26.5 -8.5q-31 0 -43 21q-4 4 -11.5 14t-3.5 23q4 0 2 5t-6 7z" />
<glyph unicode="&#x25fc;" horiz-adv-x="696" d="M0 0v696h696v-696h-696z" />
</font>
</defs>
</svg>
