<?xml version="1.0" encoding="utf-8"?>
<!-- Generator: Adobe Illustrator 21.1.0, SVG Export Plug-In . SVG Version: 6.00 Build 0)  -->
<svg version="1.1" id="Слой_1" xmlns="http://www.w3.org/2000/svg" xmlns:xlink="http://www.w3.org/1999/xlink" x="0px" y="0px"
	 viewBox="0 0 130 100" style="enable-background:new 0 0 130 100;" xml:space="preserve">
<style type="text/css">
	.st0{fill:#C42A28;}
	.st1{fill:#252425;}
	.st2{fill:none;}
	.st3{fill:#59595B;}
	.st4{fill:#A5A6A9;}
	.st5{fill:#C4292C;}
	.st6{fill:#FFFFFF;}
	.st7{fill:url(#SVGID_1_);}
	.st8{fill-rule:evenodd;clip-rule:evenodd;fill:#FFFFFF;}
	.st9{fill:none;stroke:#A32331;stroke-width:2.3463;stroke-miterlimit:10;}
</style>
<g>
	<g>
		<path class="st0" d="M1.2,65.5c0-5.3,4-9,9.2-9c3.8,0,6,2.1,7.3,4.2l-3.2,1.6c-0.7-1.4-2.3-2.5-4.1-2.5c-3.1,0-5.4,2.4-5.4,5.7
			c0,3.3,2.3,5.7,5.4,5.7c1.8,0,3.4-1.1,4.1-2.5l3.2,1.5c-1.2,2.2-3.4,4.3-7.3,4.3C5.2,74.5,1.2,70.8,1.2,65.5z"/>
		<path class="st0" d="M31,74.1L30,71.2h-7.4l-1.1,2.9h-4.2l6.7-17.3h4.6l6.7,17.3H31z M26.2,60.5L23.5,68H29L26.2,60.5z"/>
		<path class="st0" d="M48.2,74.1l-8.3-11.3v11.3h-3.7V56.8H40l8,10.9V56.8h3.7v17.3H48.2z"/>
		<path class="st0" d="M66.5,74.1l-1.1-2.9H58l-1.1,2.9h-4.2l6.7-17.3H64l6.7,17.3H66.5z M61.7,60.5L59,68h5.4L61.7,60.5z"/>
		<path class="st0" d="M71.6,74.1V56.8h6.8c5.4,0,9.2,3.5,9.2,8.7c0,5.2-3.8,8.7-9.2,8.7H71.6z M83.9,65.5c0-3.1-1.9-5.4-5.4-5.4
			h-3.1v10.8h3.1C81.9,70.9,83.9,68.4,83.9,65.5z"/>
		<path class="st0" d="M89.7,74.1V56.8h3.7v17.3H89.7z"/>
		<path class="st0" d="M108.1,74.1l-1.1-2.9h-7.4l-1.1,2.9h-4.2l6.7-17.3h4.6l6.7,17.3H108.1z M103.3,60.5l-2.7,7.5h5.4L103.3,60.5z
			"/>
		<path class="st0" d="M125.2,74.1L117,62.8v11.3h-3.7V56.8h3.8l8,10.9V56.8h3.7v17.3H125.2z"/>
	</g>
</g>
<g>
	<g>
		<path class="st1" d="M23.5,94.8l-6.7-17.3H21l4.8,13.3l4.8-13.3h4.2l-6.7,17.3H23.5z"/>
		<path class="st1" d="M35.6,94.8V77.4h3.7v17.3H35.6z"/>
		<path class="st1" d="M40.6,92.3l2-2.8c1.2,1.3,3.1,2.3,5.5,2.3c2,0,3-0.9,3-1.9c0-3.1-10-1-10-7.5c0-2.9,2.5-5.3,6.6-5.3
			c2.8,0,5,0.8,6.8,2.4l-2.1,2.7c-1.4-1.3-3.3-1.9-5-1.9c-1.6,0-2.5,0.7-2.5,1.7c0,2.8,10,0.9,10,7.4c0,3.2-2.3,5.6-6.9,5.6
			C44.6,95.1,42.2,93.9,40.6,92.3z"/>
		<path class="st1" d="M68.2,94.8l-1.1-2.9h-7.4l-1.1,2.9h-4.2l6.7-17.3h4.6l6.7,17.3H68.2z M63.4,81.1l-2.7,7.5h5.4L63.4,81.1z"/>
		<path class="st1" d="M72.7,92.9c0-1.1,1-2.1,2.1-2.1s2.1,1,2.1,2.1c0,1.1-1,2.1-2.1,2.1S72.7,94.1,72.7,92.9z"/>
		<path class="st1" d="M77.9,88.5c0-3.6,2.5-6.6,6.6-6.6c4.2,0,6.7,3,6.7,6.6c0,3.6-2.5,6.6-6.7,6.6C80.4,95.1,77.9,92.1,77.9,88.5z
			 M87.8,88.5c0-1.9-1.2-3.6-3.2-3.6c-2.1,0-3.2,1.7-3.2,3.6c0,2,1.1,3.7,3.2,3.7C86.6,92.1,87.8,90.4,87.8,88.5z"/>
		<path class="st1" d="M92.8,94.8V82.2h3.3v1.7c0.9-1.1,2.4-2,4-2v3.2c-0.2-0.1-0.5-0.1-0.9-0.1c-1.1,0-2.5,0.6-3.1,1.4v8.3H92.8z"
			/>
		<path class="st1" d="M101,98l1.5-2.4c1,1.1,2.3,1.6,3.9,1.6c1.6,0,3.5-0.7,3.5-3.2v-1.3c-1,1.2-2.3,2-3.9,2
			c-3.1,0-5.5-2.2-5.5-6.4c0-4.1,2.4-6.4,5.5-6.4c1.5,0,2.9,0.6,3.9,1.9v-1.6h3.3v11.7c0,4.8-3.7,6-6.8,6
			C104.2,99.9,102.6,99.4,101,98z M109.9,90.3v-4.1c-0.5-0.8-1.7-1.4-2.8-1.4c-1.9,0-3.2,1.3-3.2,3.5c0,2.2,1.3,3.5,3.2,3.5
			C108.1,91.7,109.3,91.1,109.9,90.3z"/>
	</g>
</g>
<g>
	<rect x="7.2" y="47.3" class="st2" width="106.8" height="96.6"/>
	<path class="st3" d="M40,24.6C40,38.1,51,49,64.4,49c13.5,0,24.4-11,24.4-24.4c0-13.5-11-24.4-24.4-24.4C51,0.2,40,11.2,40,24.6z"
		/>
	<path class="st4" d="M40.9,24.6c0,13,10.6,23.6,23.6,23.6c13,0,23.6-10.6,23.6-23.6c0-13-10.6-23.6-23.6-23.6
		C51.4,1.1,40.9,11.6,40.9,24.6z"/>
	<circle class="st5" cx="64.4" cy="24.6" r="22.6"/>
	<path class="st6" d="M55.5,3.5c-2.7,1.2-5.2,2.8-7.3,4.9c-2.1,2.1-3.8,4.6-4.9,7.3c-1.2,2.8-1.8,5.8-1.8,8.9c0,3.1,0.6,6.1,1.8,8.9
		c1.2,2.7,2.8,5.2,4.9,7.3c2.1,2.1,4.6,3.8,7.3,4.9c2.8,1.2,5.8,1.8,8.9,1.8c3.1,0,6.1-0.6,8.9-1.8c2.7-1.2,5.2-2.8,7.3-4.9
		c2.1-2.1,3.8-4.6,4.9-7.3c1.2-2.8,1.8-5.8,1.8-8.9c0-3.1-0.6-6.1-1.8-8.9c-1.2-2.7-2.8-5.2-4.9-7.3c-2.1-2.1-4.6-3.8-7.3-4.9
		c-2.8-1.2-5.8-1.8-8.9-1.8C61.3,1.7,58.3,2.3,55.5,3.5z M56.1,44.4c-2.6-1.1-4.9-2.6-6.8-4.6c-2-2-3.5-4.3-4.6-6.8
		c-1.1-2.6-1.7-5.5-1.7-8.4c0-2.9,0.6-5.7,1.7-8.4c1.1-2.6,2.6-4.9,4.6-6.8c2-2,4.3-3.5,6.8-4.6c2.6-1.1,5.5-1.7,8.4-1.7
		c2.9,0,5.7,0.6,8.4,1.7c2.6,1.1,4.9,2.6,6.8,4.6c2,2,3.5,4.3,4.6,6.8c1.1,2.6,1.7,5.5,1.7,8.4c0,2.9-0.6,5.7-1.7,8.4
		c-1.1,2.6-2.6,4.9-4.6,6.8c-2,2-4.3,3.5-6.8,4.6c-2.6,1.1-5.5,1.7-8.4,1.7C61.5,46.1,58.7,45.5,56.1,44.4z"/>
	<linearGradient id="SVGID_1_" gradientUnits="userSpaceOnUse" x1="75.677" y1="23.654" x2="35.3056" y2="-3.8457">
		<stop  offset="0" style="stop-color:#BA0F18"/>
		<stop  offset="1" style="stop-color:#FFFFFF"/>
	</linearGradient>
	<path class="st7" d="M64.4,4.8c-9.2,0-16.1,5.2-18.7,12.7c4,3.9,11.2,9.6,18,9.6c7.3,0,14.1-5.3,19.7-8
		C80.9,10.9,73.4,4.8,64.4,4.8z"/>
	<path class="st2" d="M67.3,32.8C67.3,32.8,67.3,32.8,67.3,32.8L66,30.9v1.9H67.3z"/>
	<path class="st8" d="M47.9,19.9c0-0.1,0-0.2,0-0.3c0.2-0.1,0.3,0,0.4,0.1c0.9,0.2,1.9,0.5,2.8,0.7c0.3,0.1,0.7,0.1,1,0.2
		c0.5,0,0.8-0.2,1.1-0.6c0.3-0.5,0.6-1,0.8-1.5c0.1-0.1,0.1-0.3,0.2-0.4c0.1,0,0.2,0.1,0.2,0.1c1.2,1.3,2.5,2.7,3.7,4
		c0.2,0.2,0.3,0.4,0.6,0.4c0.4,0,0.6-0.3,0.5-0.6c-0.2-0.9-0.4-1.8-0.5-2.7c-0.4-2-0.8-4-1.2-6c0-0.1,0-0.2,0-0.4
		c0.2-0.1,0.3,0.1,0.4,0.1c0.8,0.4,1.5,0.8,2.3,1.2c0.1,0.1,0.3,0.1,0.4,0.2c0.2,0.1,0.4,0,0.5-0.2c0.1-0.1,0.2-0.3,0.3-0.5
		c0.9-1.7,1.8-3.5,2.7-5.2c0-0.1,0.1-0.2,0.2-0.3c0.3,0.3,0.3,0.7,0.6,1c0.1,0.3,0.3,0.6,0.5,0.9c0.6,1.1,1.2,2.3,1.8,3.4
		c0.5,0.9,0.6,0.9,1.4,0.5c0.8-0.4,1.5-0.8,2.3-1.2c0.1-0.1,0.2-0.1,0.3-0.2c0.1,0.1,0,0.2,0,0.3c-0.6,2.9-1.2,5.8-1.9,8.7
		c0,0.1-0.1,0.3-0.1,0.4c0,0.2,0.1,0.4,0.2,0.5c0.2,0.1,0.4,0.1,0.6,0c0.1-0.1,0.2-0.2,0.4-0.3c1.2-1.3,2.5-2.6,3.7-3.9
		c0.1-0.1,0.1-0.1,0.2-0.2c0.2,0.3,0.3,0.5,0.4,0.8c0.2,0.4,0.4,0.8,0.7,1.2c0.2,0.4,0.5,0.5,1,0.5c1.2-0.1,2.4-0.4,3.5-0.8
		c0.2-0.1,0.5-0.1,0.7-0.2c0.1,0.3,0,0.6-0.1,0.8c-0.2,0.9-0.5,1.8-0.7,2.7c-0.1,0.4-0.2,0.9-0.3,1.4c0,0.2,0,0.4,0,0.6
		c0.1,0.4,0.3,0.7,0.8,0.9c0.3,0.1,0.7,0.2,1,0.4c-0.1,0.1-0.2,0.2-0.3,0.3c-2.5,2-5.1,4-7.6,6c-0.3,0.2-0.4,0.4-0.5,0.8
		c-0.2,0.8-0.1,1.7,0.4,2.4c0.1,0.2,0.2,0.3,0.2,0.6c-0.6-0.1-1.2-0.1-1.7-0.2c-1.3-0.1-2.6-0.3-3.9-0.4c-1-0.1-2-0.2-3-0.3
		c-0.3,0-0.4,0-0.3,0.3c0.1,1.2,0.1,2.5,0.2,3.7c0,0.9,0.1,1.7,0.1,2.6c0,0.5,0.1,0.9,0.1,1.4c0,0.3,0,0.4-0.4,0.4c-0.3,0-0.7,0-1,0
		c-0.4,0-0.5,0-0.4-0.4c0-1.4,0.1-2.9,0.1-4.3c0-1.1,0-2.3,0.1-3.4c0-0.4,0-0.4-0.4-0.3c-1.6,0.2-3.3,0.4-4.9,0.6
		c-1.1,0.1-2.1,0.3-3.2,0.4c-0.1,0-0.3,0-0.4,0c0.1-0.3,0.3-0.5,0.4-0.7c0.2-0.3,0.4-0.7,0.4-1.1c0-0.4,0-0.8-0.2-1.2
		c0-0.1-0.1-0.2-0.2-0.3c-2.6-2.1-5.2-4.3-7.8-6.4c-0.1-0.1-0.2-0.1-0.3-0.2c0.3-0.2,0.6-0.2,1-0.4c0.1,0,0.2-0.1,0.4-0.1
		c0.5-0.2,0.7-0.4,0.8-0.9c0-0.5,0-0.9-0.2-1.4c-0.3-1.2-0.8-2.3-1.2-3.5C48,20,48,19.9,47.9,19.9z"/>
	<path class="st9" d="M43.9,24.7c0,11.3,9.2,20.5,20.5,20.5S85,36,85,24.7c0-11.3-9.2-20.5-20.5-20.5S43.9,13.4,43.9,24.7z"/>
</g>
</svg>
